G04 (created by PCBNEW (2013-07-07 BZR 4022)-stable) date 7/8/2014 11:23:28 PM*
%MOIN*%
G04 Gerber Fmt 3.4, Leading zero omitted, Abs format*
%FSLAX34Y34*%
G01*
G70*
G90*
G04 APERTURE LIST*
%ADD10C,0.00393701*%
%ADD11R,0.06X0.06*%
%ADD12C,0.06*%
%ADD13C,0.059*%
%ADD14C,0.01*%
%ADD15C,0.02*%
G04 APERTURE END LIST*
G54D10*
G54D11*
X84000Y-51000D03*
G54D12*
X85000Y-51000D03*
X86000Y-51000D03*
X87000Y-51000D03*
G54D13*
X84000Y-54500D03*
X86000Y-54500D03*
X84600Y-54500D03*
X84000Y-53250D03*
X86000Y-53250D03*
X84600Y-53250D03*
X84000Y-54500D03*
X84000Y-56500D03*
X84000Y-55100D03*
X86000Y-54500D03*
X86000Y-56500D03*
X86000Y-55100D03*
G54D14*
X86000Y-54500D02*
X86750Y-54500D01*
G54D15*
X86750Y-54500D02*
X87250Y-54000D01*
X87250Y-54000D02*
X87250Y-51750D01*
X87250Y-51750D02*
X87000Y-51500D01*
G54D14*
X87000Y-51500D02*
X87000Y-51000D01*
X86000Y-54500D02*
X86500Y-54000D01*
G54D15*
X86500Y-54000D02*
X86750Y-53750D01*
X86750Y-53750D02*
X86750Y-52750D01*
X86750Y-52750D02*
X86000Y-52000D01*
X86000Y-52000D02*
X86000Y-51500D01*
G54D14*
X86000Y-51500D02*
X86000Y-51000D01*
X86000Y-54500D02*
X86000Y-55100D01*
X86000Y-54500D02*
X86000Y-54000D01*
X86000Y-53750D02*
X86000Y-53250D01*
G54D15*
X86000Y-54000D02*
X86000Y-53750D01*
G54D14*
X85500Y-56500D02*
X86000Y-56500D01*
G54D15*
X84500Y-56500D02*
X85500Y-56500D01*
G54D14*
X84000Y-55100D02*
X84000Y-54500D01*
X84000Y-54500D02*
X83250Y-54500D01*
G54D15*
X83250Y-54500D02*
X82750Y-54000D01*
X82750Y-54000D02*
X82750Y-52250D01*
X82750Y-52250D02*
X83500Y-51500D01*
G54D14*
X83500Y-51500D02*
X84000Y-51000D01*
X84000Y-54500D02*
X83500Y-54000D01*
G54D15*
X83500Y-54000D02*
X83250Y-53750D01*
X83250Y-53750D02*
X83250Y-52750D01*
X83250Y-52750D02*
X84500Y-51500D01*
G54D14*
X84500Y-51500D02*
X85000Y-51000D01*
X84600Y-54500D02*
X84750Y-54500D01*
X84000Y-53250D02*
X84600Y-53250D01*
X84000Y-54500D02*
X84600Y-54500D01*
X84000Y-56500D02*
X84500Y-56500D01*
X84000Y-54500D02*
X84000Y-54000D01*
X84000Y-53750D02*
X84000Y-53250D01*
G54D15*
X84000Y-54000D02*
X84000Y-53750D01*
M02*
