G04 (created by PCBNEW (2013-07-07 BZR 4022)-stable) date 6/7/2014 11:43:34 PM*
%MOIN*%
G04 Gerber Fmt 3.4, Leading zero omitted, Abs format*
%FSLAX34Y34*%
G01*
G70*
G90*
G04 APERTURE LIST*
%ADD10C,0.00393701*%
%ADD11C,0.055*%
%ADD12R,0.06X0.06*%
%ADD13C,0.06*%
%ADD14C,0.23622*%
%ADD15C,0.01*%
%ADD16C,0.04*%
G04 APERTURE END LIST*
G54D10*
G54D11*
X83500Y-54500D03*
X86500Y-54500D03*
G54D12*
X84000Y-51000D03*
G54D13*
X85000Y-51000D03*
X86000Y-51000D03*
X87000Y-51000D03*
G54D14*
X85000Y-48500D03*
X85000Y-60500D03*
G54D11*
X83500Y-53000D03*
X86500Y-53000D03*
X83500Y-54500D03*
X83500Y-57500D03*
X86500Y-54500D03*
X86500Y-57500D03*
G54D14*
X79000Y-54500D03*
X91000Y-54500D03*
G54D15*
X86500Y-53000D02*
X86500Y-54500D01*
X83500Y-53000D02*
X83500Y-54500D01*
X86500Y-57500D02*
X85750Y-57500D01*
G54D16*
X84250Y-57500D02*
X85750Y-57500D01*
G54D15*
X84250Y-57500D02*
X83500Y-57500D01*
X82750Y-53500D02*
X82750Y-52750D01*
X82750Y-54500D02*
X82750Y-53500D01*
X83500Y-54500D02*
X82750Y-54500D01*
X84000Y-51500D02*
X84000Y-51000D01*
X82750Y-52750D02*
X84000Y-51500D01*
G54D16*
X84250Y-53500D02*
X84250Y-53000D01*
X84250Y-53500D02*
X84250Y-54500D01*
G54D15*
X83500Y-54500D02*
X84250Y-54500D01*
G54D16*
X85000Y-52000D02*
X85000Y-52250D01*
X85000Y-52250D02*
X84250Y-53000D01*
X85000Y-52000D02*
X85000Y-51000D01*
X85750Y-53500D02*
X85750Y-52500D01*
X85750Y-53500D02*
X85750Y-54500D01*
G54D15*
X86500Y-54500D02*
X85750Y-54500D01*
G54D16*
X86000Y-52250D02*
X86000Y-51000D01*
X85750Y-52500D02*
X86000Y-52250D01*
G54D15*
X87000Y-51000D02*
X87000Y-52250D01*
X87250Y-54500D02*
X87250Y-52500D01*
X87250Y-52500D02*
X87000Y-52250D01*
X87250Y-54500D02*
X86500Y-54500D01*
M02*
