G04 (created by PCBNEW (2013-07-07 BZR 4022)-stable) date 7/8/2014 11:23:28 PM*
%MOIN*%
G04 Gerber Fmt 3.4, Leading zero omitted, Abs format*
%FSLAX34Y34*%
G01*
G70*
G90*
G04 APERTURE LIST*
%ADD10C,0.00393701*%
%ADD11C,0.006*%
%ADD12C,0.005*%
%ADD13C,0.008*%
%ADD14C,0.011811*%
%ADD15C,0.00787402*%
%ADD16C,0.01*%
%ADD17C,0.0001*%
%ADD18C,0.00590551*%
G04 APERTURE END LIST*
G54D10*
G54D11*
X81700Y-51735D02*
X81685Y-51721D01*
X81657Y-51678D01*
X81642Y-51650D01*
X81628Y-51607D01*
X81614Y-51535D01*
X81614Y-51478D01*
X81628Y-51407D01*
X81642Y-51364D01*
X81657Y-51335D01*
X81685Y-51292D01*
X81700Y-51278D01*
X81785Y-51421D02*
X81857Y-51621D01*
X81928Y-51421D01*
X82014Y-51321D02*
X82200Y-51321D01*
X82100Y-51435D01*
X82142Y-51435D01*
X82171Y-51450D01*
X82185Y-51464D01*
X82200Y-51492D01*
X82200Y-51564D01*
X82185Y-51592D01*
X82171Y-51607D01*
X82142Y-51621D01*
X82057Y-51621D01*
X82028Y-51607D01*
X82014Y-51592D01*
X82300Y-51735D02*
X82314Y-51721D01*
X82342Y-51678D01*
X82357Y-51650D01*
X82371Y-51607D01*
X82385Y-51535D01*
X82385Y-51478D01*
X82371Y-51407D01*
X82357Y-51364D01*
X82342Y-51335D01*
X82314Y-51292D01*
X82300Y-51278D01*
G54D12*
X90184Y-57809D02*
X90386Y-57809D01*
X90410Y-57821D01*
X90422Y-57833D01*
X90434Y-57857D01*
X90434Y-57892D01*
X90422Y-57916D01*
X90339Y-57809D02*
X90351Y-57833D01*
X90351Y-57880D01*
X90339Y-57904D01*
X90327Y-57916D01*
X90303Y-57928D01*
X90232Y-57928D01*
X90208Y-57916D01*
X90196Y-57904D01*
X90184Y-57880D01*
X90184Y-57833D01*
X90196Y-57809D01*
X90351Y-57690D02*
X90184Y-57690D01*
X90101Y-57690D02*
X90113Y-57702D01*
X90125Y-57690D01*
X90113Y-57678D01*
X90101Y-57690D01*
X90125Y-57690D01*
X90184Y-57607D02*
X90184Y-57511D01*
X90101Y-57571D02*
X90315Y-57571D01*
X90339Y-57559D01*
X90351Y-57535D01*
X90351Y-57511D01*
X90351Y-57428D02*
X90101Y-57428D01*
X90351Y-57321D02*
X90220Y-57321D01*
X90196Y-57333D01*
X90184Y-57357D01*
X90184Y-57392D01*
X90196Y-57416D01*
X90208Y-57428D01*
X90184Y-57095D02*
X90351Y-57095D01*
X90184Y-57202D02*
X90315Y-57202D01*
X90339Y-57190D01*
X90351Y-57166D01*
X90351Y-57130D01*
X90339Y-57107D01*
X90327Y-57095D01*
X90351Y-56976D02*
X90101Y-56976D01*
X90196Y-56976D02*
X90184Y-56952D01*
X90184Y-56904D01*
X90196Y-56880D01*
X90208Y-56869D01*
X90232Y-56857D01*
X90303Y-56857D01*
X90327Y-56869D01*
X90339Y-56880D01*
X90351Y-56904D01*
X90351Y-56952D01*
X90339Y-56976D01*
X90327Y-56750D02*
X90339Y-56738D01*
X90351Y-56750D01*
X90339Y-56761D01*
X90327Y-56750D01*
X90351Y-56750D01*
X90339Y-56523D02*
X90351Y-56547D01*
X90351Y-56595D01*
X90339Y-56619D01*
X90327Y-56630D01*
X90303Y-56642D01*
X90232Y-56642D01*
X90208Y-56630D01*
X90196Y-56619D01*
X90184Y-56595D01*
X90184Y-56547D01*
X90196Y-56523D01*
X90351Y-56380D02*
X90339Y-56404D01*
X90327Y-56416D01*
X90303Y-56428D01*
X90232Y-56428D01*
X90208Y-56416D01*
X90196Y-56404D01*
X90184Y-56380D01*
X90184Y-56345D01*
X90196Y-56321D01*
X90208Y-56309D01*
X90232Y-56297D01*
X90303Y-56297D01*
X90327Y-56309D01*
X90339Y-56321D01*
X90351Y-56345D01*
X90351Y-56380D01*
X90351Y-56190D02*
X90184Y-56190D01*
X90208Y-56190D02*
X90196Y-56178D01*
X90184Y-56154D01*
X90184Y-56119D01*
X90196Y-56095D01*
X90220Y-56083D01*
X90351Y-56083D01*
X90220Y-56083D02*
X90196Y-56071D01*
X90184Y-56047D01*
X90184Y-56011D01*
X90196Y-55988D01*
X90220Y-55976D01*
X90351Y-55976D01*
X90089Y-55678D02*
X90410Y-55892D01*
X90184Y-55595D02*
X90434Y-55595D01*
X90196Y-55595D02*
X90184Y-55571D01*
X90184Y-55523D01*
X90196Y-55500D01*
X90208Y-55488D01*
X90232Y-55476D01*
X90303Y-55476D01*
X90327Y-55488D01*
X90339Y-55500D01*
X90351Y-55523D01*
X90351Y-55571D01*
X90339Y-55595D01*
X90339Y-55273D02*
X90351Y-55297D01*
X90351Y-55345D01*
X90339Y-55369D01*
X90315Y-55380D01*
X90220Y-55380D01*
X90196Y-55369D01*
X90184Y-55345D01*
X90184Y-55297D01*
X90196Y-55273D01*
X90220Y-55261D01*
X90244Y-55261D01*
X90267Y-55380D01*
X90184Y-55154D02*
X90434Y-55154D01*
X90196Y-55154D02*
X90184Y-55130D01*
X90184Y-55083D01*
X90196Y-55059D01*
X90208Y-55047D01*
X90232Y-55035D01*
X90303Y-55035D01*
X90327Y-55047D01*
X90339Y-55059D01*
X90351Y-55083D01*
X90351Y-55130D01*
X90339Y-55154D01*
X90351Y-54821D02*
X90220Y-54821D01*
X90196Y-54833D01*
X90184Y-54857D01*
X90184Y-54904D01*
X90196Y-54928D01*
X90339Y-54821D02*
X90351Y-54845D01*
X90351Y-54904D01*
X90339Y-54928D01*
X90315Y-54940D01*
X90291Y-54940D01*
X90267Y-54928D01*
X90255Y-54904D01*
X90255Y-54845D01*
X90244Y-54821D01*
X90339Y-54714D02*
X90351Y-54690D01*
X90351Y-54642D01*
X90339Y-54619D01*
X90315Y-54607D01*
X90303Y-54607D01*
X90279Y-54619D01*
X90267Y-54642D01*
X90267Y-54678D01*
X90255Y-54702D01*
X90232Y-54714D01*
X90220Y-54714D01*
X90196Y-54702D01*
X90184Y-54678D01*
X90184Y-54642D01*
X90196Y-54619D01*
X90351Y-54464D02*
X90339Y-54488D01*
X90315Y-54500D01*
X90101Y-54500D01*
X90351Y-54261D02*
X90220Y-54261D01*
X90196Y-54273D01*
X90184Y-54297D01*
X90184Y-54345D01*
X90196Y-54369D01*
X90339Y-54261D02*
X90351Y-54285D01*
X90351Y-54345D01*
X90339Y-54369D01*
X90315Y-54380D01*
X90291Y-54380D01*
X90267Y-54369D01*
X90255Y-54345D01*
X90255Y-54285D01*
X90244Y-54261D01*
X90351Y-54142D02*
X90101Y-54142D01*
X90196Y-54142D02*
X90184Y-54119D01*
X90184Y-54071D01*
X90196Y-54047D01*
X90208Y-54035D01*
X90232Y-54023D01*
X90303Y-54023D01*
X90327Y-54035D01*
X90339Y-54047D01*
X90351Y-54071D01*
X90351Y-54119D01*
X90339Y-54142D01*
X90339Y-53928D02*
X90351Y-53904D01*
X90351Y-53857D01*
X90339Y-53833D01*
X90315Y-53821D01*
X90303Y-53821D01*
X90279Y-53833D01*
X90267Y-53857D01*
X90267Y-53892D01*
X90255Y-53916D01*
X90232Y-53928D01*
X90220Y-53928D01*
X90196Y-53916D01*
X90184Y-53892D01*
X90184Y-53857D01*
X90196Y-53833D01*
X90089Y-53535D02*
X90410Y-53749D01*
X90101Y-53404D02*
X90101Y-53357D01*
X90113Y-53333D01*
X90136Y-53309D01*
X90184Y-53297D01*
X90267Y-53297D01*
X90315Y-53309D01*
X90339Y-53333D01*
X90351Y-53357D01*
X90351Y-53404D01*
X90339Y-53428D01*
X90315Y-53452D01*
X90267Y-53464D01*
X90184Y-53464D01*
X90136Y-53452D01*
X90113Y-53428D01*
X90101Y-53404D01*
X90351Y-53190D02*
X90101Y-53190D01*
X90351Y-53083D02*
X90220Y-53083D01*
X90196Y-53095D01*
X90184Y-53119D01*
X90184Y-53154D01*
X90196Y-53178D01*
X90208Y-53190D01*
X90351Y-52964D02*
X90184Y-52964D01*
X90208Y-52964D02*
X90196Y-52952D01*
X90184Y-52928D01*
X90184Y-52892D01*
X90196Y-52869D01*
X90220Y-52857D01*
X90351Y-52857D01*
X90220Y-52857D02*
X90196Y-52845D01*
X90184Y-52821D01*
X90184Y-52785D01*
X90196Y-52761D01*
X90220Y-52749D01*
X90351Y-52749D01*
X90339Y-52642D02*
X90351Y-52607D01*
X90351Y-52547D01*
X90339Y-52523D01*
X90327Y-52511D01*
X90303Y-52499D01*
X90279Y-52499D01*
X90255Y-52511D01*
X90244Y-52523D01*
X90232Y-52547D01*
X90220Y-52595D01*
X90208Y-52619D01*
X90196Y-52630D01*
X90172Y-52642D01*
X90148Y-52642D01*
X90125Y-52630D01*
X90113Y-52619D01*
X90101Y-52595D01*
X90101Y-52535D01*
X90113Y-52499D01*
X90184Y-52428D02*
X90184Y-52333D01*
X90101Y-52392D02*
X90315Y-52392D01*
X90339Y-52380D01*
X90351Y-52357D01*
X90351Y-52333D01*
X90351Y-52142D02*
X90220Y-52142D01*
X90196Y-52154D01*
X90184Y-52178D01*
X90184Y-52226D01*
X90196Y-52249D01*
X90339Y-52142D02*
X90351Y-52166D01*
X90351Y-52226D01*
X90339Y-52249D01*
X90315Y-52261D01*
X90291Y-52261D01*
X90267Y-52249D01*
X90255Y-52226D01*
X90255Y-52166D01*
X90244Y-52142D01*
X90184Y-52023D02*
X90351Y-52023D01*
X90208Y-52023D02*
X90196Y-52011D01*
X90184Y-51988D01*
X90184Y-51952D01*
X90196Y-51928D01*
X90220Y-51916D01*
X90351Y-51916D01*
X90351Y-51690D02*
X90101Y-51690D01*
X90339Y-51690D02*
X90351Y-51714D01*
X90351Y-51761D01*
X90339Y-51785D01*
X90327Y-51797D01*
X90303Y-51809D01*
X90232Y-51809D01*
X90208Y-51797D01*
X90196Y-51785D01*
X90184Y-51761D01*
X90184Y-51714D01*
X90196Y-51690D01*
X90351Y-51464D02*
X90220Y-51464D01*
X90196Y-51476D01*
X90184Y-51499D01*
X90184Y-51547D01*
X90196Y-51571D01*
X90339Y-51464D02*
X90351Y-51488D01*
X90351Y-51547D01*
X90339Y-51571D01*
X90315Y-51583D01*
X90291Y-51583D01*
X90267Y-51571D01*
X90255Y-51547D01*
X90255Y-51488D01*
X90244Y-51464D01*
X90351Y-51345D02*
X90184Y-51345D01*
X90232Y-51345D02*
X90208Y-51333D01*
X90196Y-51321D01*
X90184Y-51297D01*
X90184Y-51273D01*
X90351Y-51083D02*
X90101Y-51083D01*
X90339Y-51083D02*
X90351Y-51107D01*
X90351Y-51154D01*
X90339Y-51178D01*
X90327Y-51190D01*
X90303Y-51202D01*
X90232Y-51202D01*
X90208Y-51190D01*
X90196Y-51178D01*
X90184Y-51154D01*
X90184Y-51107D01*
X90196Y-51083D01*
G54D13*
X79816Y-58161D02*
X79778Y-58142D01*
X79759Y-58123D01*
X79740Y-58085D01*
X79740Y-57971D01*
X79759Y-57933D01*
X79778Y-57914D01*
X79816Y-57895D01*
X79873Y-57895D01*
X79911Y-57914D01*
X79930Y-57933D01*
X79950Y-57971D01*
X79950Y-58085D01*
X79930Y-58123D01*
X79911Y-58142D01*
X79873Y-58161D01*
X79816Y-58161D01*
X80292Y-57895D02*
X80292Y-58161D01*
X80121Y-57895D02*
X80121Y-58104D01*
X80140Y-58142D01*
X80178Y-58161D01*
X80235Y-58161D01*
X80273Y-58142D01*
X80292Y-58123D01*
X80426Y-57895D02*
X80578Y-57895D01*
X80483Y-57761D02*
X80483Y-58104D01*
X80502Y-58142D01*
X80540Y-58161D01*
X80578Y-58161D01*
X80692Y-58142D02*
X80730Y-58161D01*
X80807Y-58161D01*
X80845Y-58142D01*
X80864Y-58104D01*
X80864Y-58085D01*
X80845Y-58047D01*
X80807Y-58028D01*
X80750Y-58028D01*
X80711Y-58009D01*
X80692Y-57971D01*
X80692Y-57952D01*
X80711Y-57914D01*
X80750Y-57895D01*
X80807Y-57895D01*
X80845Y-57914D01*
X81035Y-58161D02*
X81035Y-57895D01*
X81035Y-57761D02*
X81016Y-57780D01*
X81035Y-57800D01*
X81054Y-57780D01*
X81035Y-57761D01*
X81035Y-57800D01*
X81397Y-58161D02*
X81397Y-57761D01*
X81397Y-58142D02*
X81359Y-58161D01*
X81283Y-58161D01*
X81245Y-58142D01*
X81226Y-58123D01*
X81207Y-58085D01*
X81207Y-57971D01*
X81226Y-57933D01*
X81245Y-57914D01*
X81283Y-57895D01*
X81359Y-57895D01*
X81397Y-57914D01*
X81740Y-58142D02*
X81702Y-58161D01*
X81626Y-58161D01*
X81588Y-58142D01*
X81569Y-58104D01*
X81569Y-57952D01*
X81588Y-57914D01*
X81626Y-57895D01*
X81702Y-57895D01*
X81740Y-57914D01*
X81759Y-57952D01*
X81759Y-57990D01*
X81569Y-58028D01*
G54D14*
X78717Y-50739D02*
X78717Y-50345D01*
X78717Y-50457D02*
X78745Y-50401D01*
X78773Y-50373D01*
X78829Y-50345D01*
X78886Y-50345D01*
X79307Y-50710D02*
X79251Y-50739D01*
X79139Y-50739D01*
X79082Y-50710D01*
X79054Y-50654D01*
X79054Y-50429D01*
X79082Y-50373D01*
X79139Y-50345D01*
X79251Y-50345D01*
X79307Y-50373D01*
X79336Y-50429D01*
X79336Y-50485D01*
X79054Y-50542D01*
X79561Y-50710D02*
X79617Y-50739D01*
X79729Y-50739D01*
X79785Y-50710D01*
X79814Y-50654D01*
X79814Y-50626D01*
X79785Y-50570D01*
X79729Y-50542D01*
X79645Y-50542D01*
X79589Y-50514D01*
X79561Y-50457D01*
X79561Y-50429D01*
X79589Y-50373D01*
X79645Y-50345D01*
X79729Y-50345D01*
X79785Y-50373D01*
X80067Y-50739D02*
X80067Y-50345D01*
X80067Y-50148D02*
X80039Y-50176D01*
X80067Y-50204D01*
X80095Y-50176D01*
X80067Y-50148D01*
X80067Y-50204D01*
X80320Y-50710D02*
X80376Y-50739D01*
X80489Y-50739D01*
X80545Y-50710D01*
X80573Y-50654D01*
X80573Y-50626D01*
X80545Y-50570D01*
X80489Y-50542D01*
X80404Y-50542D01*
X80348Y-50514D01*
X80320Y-50457D01*
X80320Y-50429D01*
X80348Y-50373D01*
X80404Y-50345D01*
X80489Y-50345D01*
X80545Y-50373D01*
X80742Y-50345D02*
X80967Y-50345D01*
X80826Y-50148D02*
X80826Y-50654D01*
X80854Y-50710D01*
X80910Y-50739D01*
X80967Y-50739D01*
X81248Y-50739D02*
X81192Y-50710D01*
X81163Y-50682D01*
X81135Y-50626D01*
X81135Y-50457D01*
X81163Y-50401D01*
X81192Y-50373D01*
X81248Y-50345D01*
X81332Y-50345D01*
X81388Y-50373D01*
X81417Y-50401D01*
X81445Y-50457D01*
X81445Y-50626D01*
X81417Y-50682D01*
X81388Y-50710D01*
X81332Y-50739D01*
X81248Y-50739D01*
X81698Y-50739D02*
X81698Y-50345D01*
X81698Y-50457D02*
X81726Y-50401D01*
X81754Y-50373D01*
X81810Y-50345D01*
X81866Y-50345D01*
X79139Y-51683D02*
X79139Y-51093D01*
X79139Y-51318D02*
X79195Y-51290D01*
X79307Y-51290D01*
X79364Y-51318D01*
X79392Y-51346D01*
X79420Y-51402D01*
X79420Y-51571D01*
X79392Y-51627D01*
X79364Y-51655D01*
X79307Y-51683D01*
X79195Y-51683D01*
X79139Y-51655D01*
X79757Y-51683D02*
X79701Y-51655D01*
X79673Y-51627D01*
X79645Y-51571D01*
X79645Y-51402D01*
X79673Y-51346D01*
X79701Y-51318D01*
X79757Y-51290D01*
X79842Y-51290D01*
X79898Y-51318D01*
X79926Y-51346D01*
X79954Y-51402D01*
X79954Y-51571D01*
X79926Y-51627D01*
X79898Y-51655D01*
X79842Y-51683D01*
X79757Y-51683D01*
X80460Y-51683D02*
X80460Y-51374D01*
X80432Y-51318D01*
X80376Y-51290D01*
X80264Y-51290D01*
X80207Y-51318D01*
X80460Y-51655D02*
X80404Y-51683D01*
X80264Y-51683D01*
X80207Y-51655D01*
X80179Y-51599D01*
X80179Y-51543D01*
X80207Y-51487D01*
X80264Y-51458D01*
X80404Y-51458D01*
X80460Y-51430D01*
X80742Y-51683D02*
X80742Y-51290D01*
X80742Y-51402D02*
X80770Y-51346D01*
X80798Y-51318D01*
X80854Y-51290D01*
X80910Y-51290D01*
X81360Y-51683D02*
X81360Y-51093D01*
X81360Y-51655D02*
X81304Y-51683D01*
X81192Y-51683D01*
X81135Y-51655D01*
X81107Y-51627D01*
X81079Y-51571D01*
X81079Y-51402D01*
X81107Y-51346D01*
X81135Y-51318D01*
X81192Y-51290D01*
X81304Y-51290D01*
X81360Y-51318D01*
G54D15*
X92950Y-54500D02*
G75*
G03X92950Y-54500I-7950J0D01*
G74*
G01*
G54D16*
X87500Y-51500D02*
X83500Y-51500D01*
X87500Y-50500D02*
X83500Y-50500D01*
X83500Y-50500D02*
X83500Y-51500D01*
X87500Y-51500D02*
X87500Y-50500D01*
G54D17*
G36*
X92207Y-54977D02*
X92203Y-54969D01*
X92191Y-54950D01*
X92174Y-54924D01*
X92153Y-54893D01*
X92132Y-54862D01*
X92115Y-54836D01*
X92103Y-54818D01*
X92099Y-54811D01*
X92100Y-54807D01*
X92108Y-54792D01*
X92119Y-54770D01*
X92125Y-54758D01*
X92134Y-54738D01*
X92136Y-54728D01*
X92133Y-54727D01*
X92118Y-54719D01*
X92092Y-54708D01*
X92058Y-54693D01*
X92018Y-54676D01*
X91975Y-54658D01*
X91931Y-54640D01*
X91889Y-54622D01*
X91851Y-54607D01*
X91821Y-54594D01*
X91799Y-54586D01*
X91790Y-54583D01*
X91788Y-54584D01*
X91779Y-54594D01*
X91766Y-54611D01*
X91735Y-54649D01*
X91689Y-54685D01*
X91637Y-54708D01*
X91579Y-54715D01*
X91526Y-54709D01*
X91475Y-54688D01*
X91428Y-54652D01*
X91394Y-54608D01*
X91372Y-54557D01*
X91365Y-54500D01*
X91371Y-54445D01*
X91392Y-54393D01*
X91427Y-54346D01*
X91450Y-54327D01*
X91497Y-54300D01*
X91547Y-54284D01*
X91559Y-54283D01*
X91615Y-54285D01*
X91668Y-54301D01*
X91715Y-54330D01*
X91754Y-54371D01*
X91758Y-54376D01*
X91772Y-54395D01*
X91781Y-54407D01*
X91789Y-54417D01*
X91959Y-54347D01*
X91986Y-54336D01*
X92032Y-54316D01*
X92072Y-54299D01*
X92104Y-54286D01*
X92125Y-54276D01*
X92134Y-54272D01*
X92134Y-54272D01*
X92135Y-54266D01*
X92130Y-54253D01*
X92119Y-54229D01*
X92111Y-54213D01*
X92102Y-54195D01*
X92099Y-54187D01*
X92103Y-54180D01*
X92114Y-54163D01*
X92131Y-54138D01*
X92151Y-54108D01*
X92171Y-54079D01*
X92189Y-54052D01*
X92201Y-54033D01*
X92206Y-54023D01*
X92206Y-54022D01*
X92201Y-54014D01*
X92189Y-53998D01*
X92167Y-53975D01*
X92135Y-53943D01*
X92130Y-53938D01*
X92102Y-53911D01*
X92079Y-53889D01*
X92063Y-53874D01*
X92056Y-53869D01*
X92056Y-53869D01*
X92046Y-53874D01*
X92027Y-53886D01*
X92000Y-53904D01*
X91969Y-53925D01*
X91887Y-53981D01*
X91810Y-53950D01*
X91787Y-53941D01*
X91758Y-53929D01*
X91738Y-53920D01*
X91729Y-53915D01*
X91726Y-53907D01*
X91721Y-53886D01*
X91714Y-53855D01*
X91708Y-53819D01*
X91701Y-53784D01*
X91695Y-53753D01*
X91691Y-53730D01*
X91689Y-53720D01*
X91687Y-53718D01*
X91682Y-53716D01*
X91672Y-53714D01*
X91653Y-53714D01*
X91623Y-53713D01*
X91579Y-53713D01*
X91575Y-53713D01*
X91533Y-53714D01*
X91500Y-53714D01*
X91479Y-53715D01*
X91471Y-53717D01*
X91471Y-53717D01*
X91468Y-53727D01*
X91464Y-53749D01*
X91457Y-53780D01*
X91450Y-53818D01*
X91450Y-53820D01*
X91443Y-53857D01*
X91436Y-53888D01*
X91431Y-53910D01*
X91428Y-53919D01*
X91426Y-53921D01*
X91411Y-53929D01*
X91388Y-53940D01*
X91360Y-53952D01*
X91331Y-53964D01*
X91304Y-53975D01*
X91285Y-53982D01*
X91276Y-53984D01*
X91276Y-53984D01*
X91267Y-53978D01*
X91247Y-53965D01*
X91221Y-53947D01*
X91189Y-53925D01*
X91186Y-53924D01*
X91155Y-53902D01*
X91128Y-53885D01*
X91109Y-53873D01*
X91101Y-53869D01*
X91100Y-53869D01*
X91091Y-53876D01*
X91073Y-53892D01*
X91049Y-53915D01*
X91021Y-53943D01*
X91013Y-53952D01*
X90983Y-53982D01*
X90963Y-54003D01*
X90953Y-54017D01*
X90950Y-54023D01*
X90951Y-54023D01*
X90956Y-54033D01*
X90969Y-54053D01*
X90988Y-54080D01*
X91009Y-54112D01*
X91011Y-54114D01*
X91032Y-54145D01*
X91050Y-54171D01*
X91062Y-54190D01*
X91067Y-54198D01*
X91067Y-54200D01*
X91063Y-54212D01*
X91056Y-54235D01*
X91045Y-54262D01*
X91033Y-54291D01*
X91022Y-54318D01*
X91013Y-54338D01*
X91008Y-54347D01*
X91007Y-54347D01*
X90996Y-54351D01*
X90972Y-54356D01*
X90940Y-54363D01*
X90901Y-54370D01*
X90895Y-54371D01*
X90858Y-54378D01*
X90827Y-54384D01*
X90805Y-54389D01*
X90796Y-54391D01*
X90795Y-54396D01*
X90794Y-54415D01*
X90793Y-54443D01*
X90793Y-54477D01*
X90793Y-54512D01*
X90794Y-54546D01*
X90795Y-54576D01*
X90796Y-54597D01*
X90798Y-54606D01*
X90799Y-54607D01*
X90810Y-54610D01*
X90834Y-54615D01*
X90866Y-54622D01*
X90905Y-54629D01*
X90912Y-54630D01*
X90949Y-54637D01*
X90980Y-54644D01*
X91001Y-54648D01*
X91009Y-54651D01*
X91011Y-54654D01*
X91018Y-54669D01*
X91028Y-54694D01*
X91041Y-54726D01*
X91070Y-54798D01*
X91009Y-54886D01*
X91004Y-54894D01*
X90982Y-54926D01*
X90965Y-54952D01*
X90953Y-54970D01*
X90949Y-54978D01*
X90949Y-54978D01*
X90957Y-54987D01*
X90973Y-55005D01*
X90997Y-55029D01*
X91024Y-55056D01*
X91045Y-55077D01*
X91070Y-55101D01*
X91086Y-55117D01*
X91097Y-55125D01*
X91104Y-55128D01*
X91108Y-55127D01*
X91117Y-55122D01*
X91136Y-55109D01*
X91163Y-55091D01*
X91194Y-55069D01*
X91221Y-55051D01*
X91250Y-55032D01*
X91271Y-55020D01*
X91282Y-55015D01*
X91286Y-55016D01*
X91303Y-55023D01*
X91330Y-55033D01*
X91361Y-55046D01*
X91431Y-55077D01*
X91439Y-55123D01*
X91445Y-55151D01*
X91452Y-55190D01*
X91459Y-55227D01*
X91471Y-55285D01*
X91683Y-55287D01*
X91687Y-55278D01*
X91690Y-55269D01*
X91694Y-55248D01*
X91700Y-55217D01*
X91707Y-55181D01*
X91713Y-55150D01*
X91719Y-55119D01*
X91723Y-55097D01*
X91725Y-55087D01*
X91729Y-55084D01*
X91744Y-55076D01*
X91768Y-55065D01*
X91797Y-55053D01*
X91826Y-55041D01*
X91854Y-55030D01*
X91875Y-55022D01*
X91886Y-55019D01*
X91894Y-55023D01*
X91912Y-55035D01*
X91938Y-55052D01*
X91969Y-55073D01*
X92000Y-55095D01*
X92027Y-55112D01*
X92046Y-55125D01*
X92054Y-55130D01*
X92060Y-55127D01*
X92075Y-55115D01*
X92099Y-55092D01*
X92134Y-55057D01*
X92139Y-55051D01*
X92166Y-55024D01*
X92187Y-55000D01*
X92202Y-54984D01*
X92207Y-54977D01*
X92207Y-54977D01*
G37*
G54D18*
X86771Y-48500D02*
G75*
G03X86771Y-48500I-1771J0D01*
G74*
G01*
X86771Y-60500D02*
G75*
G03X86771Y-60500I-1771J0D01*
G74*
G01*
X83500Y-54000D02*
X86500Y-54000D01*
X86500Y-54000D02*
X86500Y-55000D01*
X86500Y-55000D02*
X83500Y-55000D01*
X83500Y-55000D02*
X83500Y-54000D01*
X83500Y-52750D02*
X86500Y-52750D01*
X86500Y-52750D02*
X86500Y-53750D01*
X86500Y-53750D02*
X83500Y-53750D01*
X83500Y-53750D02*
X83500Y-52750D01*
X84500Y-54000D02*
X84500Y-57000D01*
X84500Y-57000D02*
X83500Y-57000D01*
X83500Y-57000D02*
X83500Y-54000D01*
X83500Y-54000D02*
X84500Y-54000D01*
X86500Y-54000D02*
X86500Y-57000D01*
X86500Y-57000D02*
X85500Y-57000D01*
X85500Y-57000D02*
X85500Y-54000D01*
X85500Y-54000D02*
X86500Y-54000D01*
G54D12*
X85258Y-54601D02*
X85175Y-54482D01*
X85115Y-54601D02*
X85115Y-54351D01*
X85210Y-54351D01*
X85234Y-54363D01*
X85246Y-54375D01*
X85258Y-54398D01*
X85258Y-54434D01*
X85246Y-54458D01*
X85234Y-54470D01*
X85210Y-54482D01*
X85115Y-54482D01*
X85341Y-54351D02*
X85496Y-54351D01*
X85413Y-54446D01*
X85448Y-54446D01*
X85472Y-54458D01*
X85484Y-54470D01*
X85496Y-54494D01*
X85496Y-54553D01*
X85484Y-54577D01*
X85472Y-54589D01*
X85448Y-54601D01*
X85377Y-54601D01*
X85353Y-54589D01*
X85341Y-54577D01*
X85258Y-53351D02*
X85175Y-53232D01*
X85115Y-53351D02*
X85115Y-53101D01*
X85210Y-53101D01*
X85234Y-53113D01*
X85246Y-53125D01*
X85258Y-53148D01*
X85258Y-53184D01*
X85246Y-53208D01*
X85234Y-53220D01*
X85210Y-53232D01*
X85115Y-53232D01*
X85353Y-53125D02*
X85365Y-53113D01*
X85389Y-53101D01*
X85448Y-53101D01*
X85472Y-53113D01*
X85484Y-53125D01*
X85496Y-53148D01*
X85496Y-53172D01*
X85484Y-53208D01*
X85341Y-53351D01*
X85496Y-53351D01*
X84101Y-55841D02*
X83982Y-55925D01*
X84101Y-55984D02*
X83851Y-55984D01*
X83851Y-55889D01*
X83863Y-55865D01*
X83875Y-55853D01*
X83898Y-55841D01*
X83934Y-55841D01*
X83958Y-55853D01*
X83970Y-55865D01*
X83982Y-55889D01*
X83982Y-55984D01*
X84101Y-55603D02*
X84101Y-55746D01*
X84101Y-55675D02*
X83851Y-55675D01*
X83886Y-55698D01*
X83910Y-55722D01*
X83922Y-55746D01*
X86101Y-55841D02*
X85982Y-55925D01*
X86101Y-55984D02*
X85851Y-55984D01*
X85851Y-55889D01*
X85863Y-55865D01*
X85875Y-55853D01*
X85898Y-55841D01*
X85934Y-55841D01*
X85958Y-55853D01*
X85970Y-55865D01*
X85982Y-55889D01*
X85982Y-55984D01*
X85934Y-55627D02*
X86101Y-55627D01*
X85839Y-55686D02*
X86017Y-55746D01*
X86017Y-55591D01*
M02*
