M48
INCH,TZ
T1C0.035
T2C0.040
T3C0.108
T4C0.126
%
G90
G05
T1
X8.2Y-6.475
X8.2Y-7.425
X8.25Y-6.375
X8.25Y-7.325
X8.3Y-6.475
X8.3Y-7.425
X8.35Y-6.375
X8.35Y-7.325
T2
X7.69Y-6.625
X7.69Y-6.725
X8.55Y-7.685
X8.6Y-6.325
X8.65Y-7.685
X8.7Y-6.325
X8.75Y-7.685
X8.8Y-6.325
X8.85Y-7.685
X8.9Y-6.325
X9.3293Y-7.4707
X9.4Y-7.4
X9.4707Y-7.3293
T3
X9.15Y-6.675
X9.27Y-6.49
X9.385Y-6.675
T4
X8.1252Y-6.125
X8.1252Y-7.075
X8.4252Y-6.125
X8.4252Y-7.075
X8.7Y-6.075
X8.7Y-7.275
T0
M30
