G04 (created by PCBNEW (2013-07-07 BZR 4022)-stable) date 6/5/2014 11:35:08 PM*
%MOIN*%
G04 Gerber Fmt 3.4, Leading zero omitted, Abs format*
%FSLAX34Y34*%
G01*
G70*
G90*
G04 APERTURE LIST*
%ADD10C,0.00590551*%
%ADD11R,0.06X0.06*%
%ADD12C,0.06*%
%ADD13C,0.23622*%
%ADD14R,0.16X0.16*%
%ADD15C,0.16*%
%ADD16C,0.0590551*%
%ADD17C,0.125984*%
%ADD18C,0.01*%
G04 APERTURE END LIST*
G54D10*
G54D11*
X85500Y-76850D03*
G54D12*
X86500Y-76850D03*
X87500Y-76850D03*
X88500Y-76850D03*
G54D11*
X86000Y-63250D03*
G54D12*
X87000Y-63250D03*
X88000Y-63250D03*
X89000Y-63250D03*
G54D13*
X87000Y-60750D03*
X87000Y-72750D03*
G54D14*
X91500Y-66750D03*
G54D15*
X93850Y-66750D03*
X92700Y-64900D03*
G54D16*
X83000Y-64750D03*
X82000Y-64750D03*
X83500Y-63750D03*
X82500Y-63750D03*
G54D17*
X81251Y-61250D03*
X84251Y-61250D03*
G54D16*
X83000Y-74250D03*
X82000Y-74250D03*
X83500Y-73250D03*
X82500Y-73250D03*
G54D17*
X81251Y-70750D03*
X84251Y-70750D03*
G54D10*
G36*
X93292Y-75131D02*
X92868Y-74707D01*
X93292Y-74282D01*
X93717Y-74707D01*
X93292Y-75131D01*
X93292Y-75131D01*
G37*
G54D12*
X94000Y-74000D03*
X94707Y-73292D03*
G54D11*
X76900Y-66250D03*
G54D12*
X76900Y-67250D03*
G54D10*
G36*
X100120Y-66750D02*
X99123Y-71784D01*
X96287Y-76020D01*
X95250Y-76714D01*
X95250Y-73429D01*
X95250Y-73156D01*
X95157Y-72958D01*
X94994Y-72811D01*
X94901Y-72772D01*
X94901Y-66951D01*
X94898Y-66533D01*
X94744Y-66161D01*
X94597Y-66073D01*
X94526Y-66144D01*
X94526Y-66002D01*
X94438Y-65855D01*
X94051Y-65698D01*
X93751Y-65700D01*
X93751Y-65101D01*
X93748Y-64683D01*
X93594Y-64311D01*
X93447Y-64223D01*
X93376Y-64294D01*
X93376Y-64152D01*
X93288Y-64005D01*
X92901Y-63848D01*
X92483Y-63851D01*
X92111Y-64005D01*
X92023Y-64152D01*
X92700Y-64829D01*
X93376Y-64152D01*
X93376Y-64294D01*
X92770Y-64900D01*
X93447Y-65576D01*
X93594Y-65488D01*
X93751Y-65101D01*
X93751Y-65700D01*
X93633Y-65701D01*
X93376Y-65807D01*
X93376Y-65647D01*
X92700Y-64970D01*
X92629Y-65041D01*
X92629Y-64900D01*
X91952Y-64223D01*
X91805Y-64311D01*
X91648Y-64698D01*
X91651Y-65116D01*
X91805Y-65488D01*
X91952Y-65576D01*
X92629Y-64900D01*
X92629Y-65041D01*
X92023Y-65647D01*
X92055Y-65699D01*
X90650Y-65699D01*
X90558Y-65737D01*
X90488Y-65808D01*
X90450Y-65900D01*
X90449Y-65999D01*
X90449Y-67599D01*
X90487Y-67691D01*
X90558Y-67761D01*
X90650Y-67799D01*
X90749Y-67800D01*
X92349Y-67800D01*
X92441Y-67762D01*
X92511Y-67691D01*
X92549Y-67599D01*
X92550Y-67500D01*
X92550Y-65951D01*
X92916Y-65948D01*
X93288Y-65794D01*
X93376Y-65647D01*
X93376Y-65807D01*
X93261Y-65855D01*
X93173Y-66002D01*
X93850Y-66679D01*
X94526Y-66002D01*
X94526Y-66144D01*
X93920Y-66750D01*
X94597Y-67426D01*
X94744Y-67338D01*
X94901Y-66951D01*
X94901Y-72772D01*
X94843Y-72749D01*
X94757Y-72797D01*
X94757Y-73242D01*
X95202Y-73242D01*
X95250Y-73156D01*
X95250Y-73429D01*
X95202Y-73342D01*
X94757Y-73342D01*
X94757Y-73788D01*
X94843Y-73836D01*
X95041Y-73743D01*
X95188Y-73580D01*
X95250Y-73429D01*
X95250Y-76714D01*
X94701Y-77082D01*
X94701Y-73369D01*
X94657Y-73324D01*
X94657Y-73242D01*
X94657Y-72797D01*
X94570Y-72749D01*
X94526Y-72769D01*
X94526Y-67497D01*
X93850Y-66820D01*
X93779Y-66891D01*
X93779Y-66750D01*
X93102Y-66073D01*
X92955Y-66161D01*
X92798Y-66548D01*
X92801Y-66966D01*
X92955Y-67338D01*
X93102Y-67426D01*
X93779Y-66750D01*
X93779Y-66891D01*
X93173Y-67497D01*
X93261Y-67644D01*
X93648Y-67801D01*
X94066Y-67798D01*
X94438Y-67644D01*
X94526Y-67497D01*
X94526Y-72769D01*
X94372Y-72842D01*
X94225Y-73005D01*
X94163Y-73156D01*
X94211Y-73242D01*
X94657Y-73242D01*
X94657Y-73324D01*
X94630Y-73298D01*
X94586Y-73342D01*
X94211Y-73342D01*
X94163Y-73429D01*
X94185Y-73476D01*
X94136Y-73456D01*
X94050Y-73504D01*
X94050Y-73879D01*
X94005Y-73923D01*
X94076Y-73994D01*
X94120Y-73950D01*
X94495Y-73950D01*
X94543Y-73863D01*
X94521Y-73816D01*
X94570Y-73836D01*
X94657Y-73788D01*
X94657Y-73413D01*
X94701Y-73369D01*
X94701Y-77082D01*
X94657Y-77112D01*
X94543Y-77188D01*
X94543Y-74136D01*
X94495Y-74050D01*
X94050Y-74050D01*
X94050Y-74495D01*
X94136Y-74543D01*
X94334Y-74450D01*
X94481Y-74287D01*
X94543Y-74136D01*
X94543Y-77188D01*
X93994Y-77555D01*
X93994Y-74076D01*
X93950Y-74031D01*
X93950Y-73950D01*
X93950Y-73504D01*
X93863Y-73456D01*
X93665Y-73549D01*
X93518Y-73712D01*
X93456Y-73863D01*
X93504Y-73950D01*
X93950Y-73950D01*
X93950Y-74031D01*
X93923Y-74005D01*
X93879Y-74050D01*
X93504Y-74050D01*
X93471Y-74108D01*
X93434Y-74071D01*
X93342Y-74032D01*
X93243Y-74032D01*
X93151Y-74070D01*
X93081Y-74141D01*
X92656Y-74565D01*
X92618Y-74657D01*
X92618Y-74756D01*
X92656Y-74848D01*
X92726Y-74918D01*
X93151Y-75343D01*
X93242Y-75381D01*
X93342Y-75381D01*
X93434Y-75343D01*
X93504Y-75273D01*
X93928Y-74848D01*
X93967Y-74757D01*
X93967Y-74657D01*
X93929Y-74565D01*
X93891Y-74528D01*
X93950Y-74495D01*
X93950Y-74120D01*
X93994Y-74076D01*
X93994Y-77555D01*
X93967Y-77574D01*
X92012Y-78882D01*
X89550Y-79370D01*
X89550Y-63141D01*
X89466Y-62938D01*
X89311Y-62784D01*
X89109Y-62700D01*
X88891Y-62699D01*
X88688Y-62783D01*
X88534Y-62938D01*
X88500Y-63019D01*
X88466Y-62938D01*
X88431Y-62903D01*
X88431Y-60466D01*
X88213Y-59940D01*
X87811Y-59537D01*
X87285Y-59319D01*
X86716Y-59318D01*
X86190Y-59536D01*
X85787Y-59938D01*
X85569Y-60464D01*
X85568Y-61033D01*
X85786Y-61559D01*
X86188Y-61962D01*
X86714Y-62180D01*
X87283Y-62181D01*
X87809Y-61963D01*
X88212Y-61561D01*
X88430Y-61035D01*
X88431Y-60466D01*
X88431Y-62903D01*
X88311Y-62784D01*
X88109Y-62700D01*
X87891Y-62699D01*
X87688Y-62783D01*
X87534Y-62938D01*
X87500Y-63019D01*
X87466Y-62938D01*
X87311Y-62784D01*
X87109Y-62700D01*
X86891Y-62699D01*
X86688Y-62783D01*
X86550Y-62922D01*
X86550Y-62900D01*
X86512Y-62808D01*
X86441Y-62738D01*
X86349Y-62700D01*
X86250Y-62699D01*
X85650Y-62699D01*
X85558Y-62737D01*
X85488Y-62808D01*
X85450Y-62900D01*
X85449Y-62999D01*
X85449Y-63599D01*
X85487Y-63691D01*
X85558Y-63761D01*
X85650Y-63799D01*
X85749Y-63800D01*
X86349Y-63800D01*
X86441Y-63762D01*
X86511Y-63691D01*
X86549Y-63599D01*
X86549Y-63577D01*
X86688Y-63715D01*
X86890Y-63799D01*
X87108Y-63800D01*
X87311Y-63716D01*
X87465Y-63561D01*
X87499Y-63480D01*
X87533Y-63561D01*
X87688Y-63715D01*
X87890Y-63799D01*
X88108Y-63800D01*
X88311Y-63716D01*
X88465Y-63561D01*
X88499Y-63480D01*
X88533Y-63561D01*
X88688Y-63715D01*
X88890Y-63799D01*
X89108Y-63800D01*
X89311Y-63716D01*
X89465Y-63561D01*
X89549Y-63359D01*
X89550Y-63141D01*
X89550Y-79370D01*
X89050Y-79469D01*
X89050Y-76741D01*
X88966Y-76538D01*
X88811Y-76384D01*
X88609Y-76300D01*
X88431Y-76299D01*
X88431Y-72466D01*
X88213Y-71940D01*
X87811Y-71537D01*
X87285Y-71319D01*
X86716Y-71318D01*
X86190Y-71536D01*
X85787Y-71938D01*
X85569Y-72464D01*
X85568Y-73033D01*
X85786Y-73559D01*
X86188Y-73962D01*
X86714Y-74180D01*
X87283Y-74181D01*
X87809Y-73963D01*
X88212Y-73561D01*
X88430Y-73035D01*
X88431Y-72466D01*
X88431Y-76299D01*
X88391Y-76299D01*
X88188Y-76383D01*
X88034Y-76538D01*
X88000Y-76619D01*
X87966Y-76538D01*
X87811Y-76384D01*
X87609Y-76300D01*
X87391Y-76299D01*
X87188Y-76383D01*
X87034Y-76538D01*
X87000Y-76619D01*
X86966Y-76538D01*
X86811Y-76384D01*
X86609Y-76300D01*
X86391Y-76299D01*
X86188Y-76383D01*
X86050Y-76522D01*
X86050Y-76500D01*
X86012Y-76408D01*
X85941Y-76338D01*
X85849Y-76300D01*
X85750Y-76299D01*
X85150Y-76299D01*
X85132Y-76307D01*
X85132Y-70575D01*
X85132Y-61075D01*
X84998Y-60752D01*
X84751Y-60504D01*
X84427Y-60370D01*
X84077Y-60369D01*
X83754Y-60503D01*
X83506Y-60750D01*
X83372Y-61074D01*
X83371Y-61424D01*
X83505Y-61747D01*
X83752Y-61995D01*
X84076Y-62129D01*
X84426Y-62130D01*
X84749Y-61996D01*
X84997Y-61749D01*
X85131Y-61425D01*
X85132Y-61075D01*
X85132Y-70575D01*
X84998Y-70252D01*
X84751Y-70004D01*
X84427Y-69870D01*
X84077Y-69869D01*
X84045Y-69883D01*
X84045Y-63642D01*
X83962Y-63441D01*
X83809Y-63288D01*
X83608Y-63204D01*
X83392Y-63204D01*
X83191Y-63287D01*
X83038Y-63440D01*
X83000Y-63532D01*
X82962Y-63441D01*
X82809Y-63288D01*
X82608Y-63204D01*
X82392Y-63204D01*
X82191Y-63287D01*
X82132Y-63346D01*
X82132Y-61075D01*
X81998Y-60752D01*
X81751Y-60504D01*
X81427Y-60370D01*
X81077Y-60369D01*
X80754Y-60503D01*
X80506Y-60750D01*
X80372Y-61074D01*
X80371Y-61424D01*
X80505Y-61747D01*
X80752Y-61995D01*
X81076Y-62129D01*
X81426Y-62130D01*
X81749Y-61996D01*
X81997Y-61749D01*
X82131Y-61425D01*
X82132Y-61075D01*
X82132Y-63346D01*
X82038Y-63440D01*
X81954Y-63641D01*
X81954Y-63857D01*
X82037Y-64058D01*
X82190Y-64211D01*
X82391Y-64295D01*
X82607Y-64295D01*
X82808Y-64212D01*
X82961Y-64059D01*
X82999Y-63967D01*
X83037Y-64058D01*
X83190Y-64211D01*
X83391Y-64295D01*
X83607Y-64295D01*
X83808Y-64212D01*
X83961Y-64059D01*
X84045Y-63858D01*
X84045Y-63642D01*
X84045Y-69883D01*
X83754Y-70003D01*
X83545Y-70212D01*
X83545Y-64642D01*
X83462Y-64441D01*
X83309Y-64288D01*
X83108Y-64204D01*
X82892Y-64204D01*
X82691Y-64287D01*
X82538Y-64440D01*
X82500Y-64532D01*
X82462Y-64441D01*
X82309Y-64288D01*
X82108Y-64204D01*
X81892Y-64204D01*
X81691Y-64287D01*
X81538Y-64440D01*
X81454Y-64641D01*
X81454Y-64857D01*
X81537Y-65058D01*
X81690Y-65211D01*
X81891Y-65295D01*
X82107Y-65295D01*
X82308Y-65212D01*
X82461Y-65059D01*
X82499Y-64967D01*
X82537Y-65058D01*
X82690Y-65211D01*
X82891Y-65295D01*
X83107Y-65295D01*
X83308Y-65212D01*
X83461Y-65059D01*
X83545Y-64858D01*
X83545Y-64642D01*
X83545Y-70212D01*
X83506Y-70250D01*
X83372Y-70574D01*
X83371Y-70924D01*
X83505Y-71247D01*
X83752Y-71495D01*
X84076Y-71629D01*
X84426Y-71630D01*
X84749Y-71496D01*
X84997Y-71249D01*
X85131Y-70925D01*
X85132Y-70575D01*
X85132Y-76307D01*
X85058Y-76337D01*
X84988Y-76408D01*
X84950Y-76500D01*
X84949Y-76599D01*
X84949Y-77199D01*
X84987Y-77291D01*
X85058Y-77361D01*
X85150Y-77399D01*
X85249Y-77400D01*
X85849Y-77400D01*
X85941Y-77362D01*
X86011Y-77291D01*
X86049Y-77199D01*
X86049Y-77177D01*
X86188Y-77315D01*
X86390Y-77399D01*
X86608Y-77400D01*
X86811Y-77316D01*
X86965Y-77161D01*
X86999Y-77080D01*
X87033Y-77161D01*
X87188Y-77315D01*
X87390Y-77399D01*
X87608Y-77400D01*
X87811Y-77316D01*
X87965Y-77161D01*
X87999Y-77080D01*
X88033Y-77161D01*
X88188Y-77315D01*
X88390Y-77399D01*
X88608Y-77400D01*
X88811Y-77316D01*
X88965Y-77161D01*
X89049Y-76959D01*
X89050Y-76741D01*
X89050Y-79469D01*
X87011Y-79872D01*
X84045Y-79285D01*
X84045Y-73142D01*
X83962Y-72941D01*
X83809Y-72788D01*
X83608Y-72704D01*
X83392Y-72704D01*
X83191Y-72787D01*
X83038Y-72940D01*
X83000Y-73032D01*
X82962Y-72941D01*
X82809Y-72788D01*
X82608Y-72704D01*
X82392Y-72704D01*
X82191Y-72787D01*
X82132Y-72846D01*
X82132Y-70575D01*
X81998Y-70252D01*
X81751Y-70004D01*
X81427Y-69870D01*
X81077Y-69869D01*
X80754Y-70003D01*
X80506Y-70250D01*
X80372Y-70574D01*
X80371Y-70924D01*
X80505Y-71247D01*
X80752Y-71495D01*
X81076Y-71629D01*
X81426Y-71630D01*
X81749Y-71496D01*
X81997Y-71249D01*
X82131Y-70925D01*
X82132Y-70575D01*
X82132Y-72846D01*
X82038Y-72940D01*
X81954Y-73141D01*
X81954Y-73357D01*
X82037Y-73558D01*
X82190Y-73711D01*
X82391Y-73795D01*
X82607Y-73795D01*
X82808Y-73712D01*
X82961Y-73559D01*
X82999Y-73467D01*
X83037Y-73558D01*
X83190Y-73711D01*
X83391Y-73795D01*
X83607Y-73795D01*
X83808Y-73712D01*
X83961Y-73559D01*
X84045Y-73358D01*
X84045Y-73142D01*
X84045Y-79285D01*
X83545Y-79186D01*
X83545Y-74142D01*
X83462Y-73941D01*
X83309Y-73788D01*
X83108Y-73704D01*
X82892Y-73704D01*
X82691Y-73787D01*
X82538Y-73940D01*
X82500Y-74032D01*
X82462Y-73941D01*
X82309Y-73788D01*
X82108Y-73704D01*
X81892Y-73704D01*
X81691Y-73787D01*
X81538Y-73940D01*
X81454Y-74141D01*
X81454Y-74357D01*
X81537Y-74558D01*
X81690Y-74711D01*
X81891Y-74795D01*
X82107Y-74795D01*
X82308Y-74712D01*
X82461Y-74559D01*
X82499Y-74467D01*
X82537Y-74558D01*
X82690Y-74711D01*
X82891Y-74795D01*
X83107Y-74795D01*
X83308Y-74712D01*
X83461Y-74559D01*
X83545Y-74358D01*
X83545Y-74142D01*
X83545Y-79186D01*
X81965Y-78873D01*
X77729Y-76037D01*
X77450Y-75620D01*
X77450Y-67141D01*
X77366Y-66938D01*
X77227Y-66800D01*
X77249Y-66800D01*
X77341Y-66762D01*
X77411Y-66691D01*
X77449Y-66599D01*
X77450Y-66500D01*
X77450Y-65900D01*
X77412Y-65808D01*
X77341Y-65738D01*
X77249Y-65700D01*
X77150Y-65699D01*
X76550Y-65699D01*
X76458Y-65737D01*
X76388Y-65808D01*
X76350Y-65900D01*
X76349Y-65999D01*
X76349Y-66599D01*
X76387Y-66691D01*
X76458Y-66761D01*
X76550Y-66799D01*
X76572Y-66799D01*
X76434Y-66938D01*
X76350Y-67140D01*
X76349Y-67358D01*
X76433Y-67561D01*
X76588Y-67715D01*
X76790Y-67799D01*
X77008Y-67800D01*
X77211Y-67716D01*
X77365Y-67561D01*
X77449Y-67359D01*
X77450Y-67141D01*
X77450Y-75620D01*
X74867Y-71762D01*
X73874Y-66749D01*
X74867Y-61737D01*
X77729Y-57462D01*
X81965Y-54626D01*
X87011Y-53627D01*
X92012Y-54617D01*
X96287Y-57479D01*
X99123Y-61715D01*
X100120Y-66750D01*
X100120Y-66750D01*
G37*
G54D18*
X100120Y-66750D02*
X99123Y-71784D01*
X96287Y-76020D01*
X95250Y-76714D01*
X95250Y-73429D01*
X95250Y-73156D01*
X95157Y-72958D01*
X94994Y-72811D01*
X94901Y-72772D01*
X94901Y-66951D01*
X94898Y-66533D01*
X94744Y-66161D01*
X94597Y-66073D01*
X94526Y-66144D01*
X94526Y-66002D01*
X94438Y-65855D01*
X94051Y-65698D01*
X93751Y-65700D01*
X93751Y-65101D01*
X93748Y-64683D01*
X93594Y-64311D01*
X93447Y-64223D01*
X93376Y-64294D01*
X93376Y-64152D01*
X93288Y-64005D01*
X92901Y-63848D01*
X92483Y-63851D01*
X92111Y-64005D01*
X92023Y-64152D01*
X92700Y-64829D01*
X93376Y-64152D01*
X93376Y-64294D01*
X92770Y-64900D01*
X93447Y-65576D01*
X93594Y-65488D01*
X93751Y-65101D01*
X93751Y-65700D01*
X93633Y-65701D01*
X93376Y-65807D01*
X93376Y-65647D01*
X92700Y-64970D01*
X92629Y-65041D01*
X92629Y-64900D01*
X91952Y-64223D01*
X91805Y-64311D01*
X91648Y-64698D01*
X91651Y-65116D01*
X91805Y-65488D01*
X91952Y-65576D01*
X92629Y-64900D01*
X92629Y-65041D01*
X92023Y-65647D01*
X92055Y-65699D01*
X90650Y-65699D01*
X90558Y-65737D01*
X90488Y-65808D01*
X90450Y-65900D01*
X90449Y-65999D01*
X90449Y-67599D01*
X90487Y-67691D01*
X90558Y-67761D01*
X90650Y-67799D01*
X90749Y-67800D01*
X92349Y-67800D01*
X92441Y-67762D01*
X92511Y-67691D01*
X92549Y-67599D01*
X92550Y-67500D01*
X92550Y-65951D01*
X92916Y-65948D01*
X93288Y-65794D01*
X93376Y-65647D01*
X93376Y-65807D01*
X93261Y-65855D01*
X93173Y-66002D01*
X93850Y-66679D01*
X94526Y-66002D01*
X94526Y-66144D01*
X93920Y-66750D01*
X94597Y-67426D01*
X94744Y-67338D01*
X94901Y-66951D01*
X94901Y-72772D01*
X94843Y-72749D01*
X94757Y-72797D01*
X94757Y-73242D01*
X95202Y-73242D01*
X95250Y-73156D01*
X95250Y-73429D01*
X95202Y-73342D01*
X94757Y-73342D01*
X94757Y-73788D01*
X94843Y-73836D01*
X95041Y-73743D01*
X95188Y-73580D01*
X95250Y-73429D01*
X95250Y-76714D01*
X94701Y-77082D01*
X94701Y-73369D01*
X94657Y-73324D01*
X94657Y-73242D01*
X94657Y-72797D01*
X94570Y-72749D01*
X94526Y-72769D01*
X94526Y-67497D01*
X93850Y-66820D01*
X93779Y-66891D01*
X93779Y-66750D01*
X93102Y-66073D01*
X92955Y-66161D01*
X92798Y-66548D01*
X92801Y-66966D01*
X92955Y-67338D01*
X93102Y-67426D01*
X93779Y-66750D01*
X93779Y-66891D01*
X93173Y-67497D01*
X93261Y-67644D01*
X93648Y-67801D01*
X94066Y-67798D01*
X94438Y-67644D01*
X94526Y-67497D01*
X94526Y-72769D01*
X94372Y-72842D01*
X94225Y-73005D01*
X94163Y-73156D01*
X94211Y-73242D01*
X94657Y-73242D01*
X94657Y-73324D01*
X94630Y-73298D01*
X94586Y-73342D01*
X94211Y-73342D01*
X94163Y-73429D01*
X94185Y-73476D01*
X94136Y-73456D01*
X94050Y-73504D01*
X94050Y-73879D01*
X94005Y-73923D01*
X94076Y-73994D01*
X94120Y-73950D01*
X94495Y-73950D01*
X94543Y-73863D01*
X94521Y-73816D01*
X94570Y-73836D01*
X94657Y-73788D01*
X94657Y-73413D01*
X94701Y-73369D01*
X94701Y-77082D01*
X94657Y-77112D01*
X94543Y-77188D01*
X94543Y-74136D01*
X94495Y-74050D01*
X94050Y-74050D01*
X94050Y-74495D01*
X94136Y-74543D01*
X94334Y-74450D01*
X94481Y-74287D01*
X94543Y-74136D01*
X94543Y-77188D01*
X93994Y-77555D01*
X93994Y-74076D01*
X93950Y-74031D01*
X93950Y-73950D01*
X93950Y-73504D01*
X93863Y-73456D01*
X93665Y-73549D01*
X93518Y-73712D01*
X93456Y-73863D01*
X93504Y-73950D01*
X93950Y-73950D01*
X93950Y-74031D01*
X93923Y-74005D01*
X93879Y-74050D01*
X93504Y-74050D01*
X93471Y-74108D01*
X93434Y-74071D01*
X93342Y-74032D01*
X93243Y-74032D01*
X93151Y-74070D01*
X93081Y-74141D01*
X92656Y-74565D01*
X92618Y-74657D01*
X92618Y-74756D01*
X92656Y-74848D01*
X92726Y-74918D01*
X93151Y-75343D01*
X93242Y-75381D01*
X93342Y-75381D01*
X93434Y-75343D01*
X93504Y-75273D01*
X93928Y-74848D01*
X93967Y-74757D01*
X93967Y-74657D01*
X93929Y-74565D01*
X93891Y-74528D01*
X93950Y-74495D01*
X93950Y-74120D01*
X93994Y-74076D01*
X93994Y-77555D01*
X93967Y-77574D01*
X92012Y-78882D01*
X89550Y-79370D01*
X89550Y-63141D01*
X89466Y-62938D01*
X89311Y-62784D01*
X89109Y-62700D01*
X88891Y-62699D01*
X88688Y-62783D01*
X88534Y-62938D01*
X88500Y-63019D01*
X88466Y-62938D01*
X88431Y-62903D01*
X88431Y-60466D01*
X88213Y-59940D01*
X87811Y-59537D01*
X87285Y-59319D01*
X86716Y-59318D01*
X86190Y-59536D01*
X85787Y-59938D01*
X85569Y-60464D01*
X85568Y-61033D01*
X85786Y-61559D01*
X86188Y-61962D01*
X86714Y-62180D01*
X87283Y-62181D01*
X87809Y-61963D01*
X88212Y-61561D01*
X88430Y-61035D01*
X88431Y-60466D01*
X88431Y-62903D01*
X88311Y-62784D01*
X88109Y-62700D01*
X87891Y-62699D01*
X87688Y-62783D01*
X87534Y-62938D01*
X87500Y-63019D01*
X87466Y-62938D01*
X87311Y-62784D01*
X87109Y-62700D01*
X86891Y-62699D01*
X86688Y-62783D01*
X86550Y-62922D01*
X86550Y-62900D01*
X86512Y-62808D01*
X86441Y-62738D01*
X86349Y-62700D01*
X86250Y-62699D01*
X85650Y-62699D01*
X85558Y-62737D01*
X85488Y-62808D01*
X85450Y-62900D01*
X85449Y-62999D01*
X85449Y-63599D01*
X85487Y-63691D01*
X85558Y-63761D01*
X85650Y-63799D01*
X85749Y-63800D01*
X86349Y-63800D01*
X86441Y-63762D01*
X86511Y-63691D01*
X86549Y-63599D01*
X86549Y-63577D01*
X86688Y-63715D01*
X86890Y-63799D01*
X87108Y-63800D01*
X87311Y-63716D01*
X87465Y-63561D01*
X87499Y-63480D01*
X87533Y-63561D01*
X87688Y-63715D01*
X87890Y-63799D01*
X88108Y-63800D01*
X88311Y-63716D01*
X88465Y-63561D01*
X88499Y-63480D01*
X88533Y-63561D01*
X88688Y-63715D01*
X88890Y-63799D01*
X89108Y-63800D01*
X89311Y-63716D01*
X89465Y-63561D01*
X89549Y-63359D01*
X89550Y-63141D01*
X89550Y-79370D01*
X89050Y-79469D01*
X89050Y-76741D01*
X88966Y-76538D01*
X88811Y-76384D01*
X88609Y-76300D01*
X88431Y-76299D01*
X88431Y-72466D01*
X88213Y-71940D01*
X87811Y-71537D01*
X87285Y-71319D01*
X86716Y-71318D01*
X86190Y-71536D01*
X85787Y-71938D01*
X85569Y-72464D01*
X85568Y-73033D01*
X85786Y-73559D01*
X86188Y-73962D01*
X86714Y-74180D01*
X87283Y-74181D01*
X87809Y-73963D01*
X88212Y-73561D01*
X88430Y-73035D01*
X88431Y-72466D01*
X88431Y-76299D01*
X88391Y-76299D01*
X88188Y-76383D01*
X88034Y-76538D01*
X88000Y-76619D01*
X87966Y-76538D01*
X87811Y-76384D01*
X87609Y-76300D01*
X87391Y-76299D01*
X87188Y-76383D01*
X87034Y-76538D01*
X87000Y-76619D01*
X86966Y-76538D01*
X86811Y-76384D01*
X86609Y-76300D01*
X86391Y-76299D01*
X86188Y-76383D01*
X86050Y-76522D01*
X86050Y-76500D01*
X86012Y-76408D01*
X85941Y-76338D01*
X85849Y-76300D01*
X85750Y-76299D01*
X85150Y-76299D01*
X85132Y-76307D01*
X85132Y-70575D01*
X85132Y-61075D01*
X84998Y-60752D01*
X84751Y-60504D01*
X84427Y-60370D01*
X84077Y-60369D01*
X83754Y-60503D01*
X83506Y-60750D01*
X83372Y-61074D01*
X83371Y-61424D01*
X83505Y-61747D01*
X83752Y-61995D01*
X84076Y-62129D01*
X84426Y-62130D01*
X84749Y-61996D01*
X84997Y-61749D01*
X85131Y-61425D01*
X85132Y-61075D01*
X85132Y-70575D01*
X84998Y-70252D01*
X84751Y-70004D01*
X84427Y-69870D01*
X84077Y-69869D01*
X84045Y-69883D01*
X84045Y-63642D01*
X83962Y-63441D01*
X83809Y-63288D01*
X83608Y-63204D01*
X83392Y-63204D01*
X83191Y-63287D01*
X83038Y-63440D01*
X83000Y-63532D01*
X82962Y-63441D01*
X82809Y-63288D01*
X82608Y-63204D01*
X82392Y-63204D01*
X82191Y-63287D01*
X82132Y-63346D01*
X82132Y-61075D01*
X81998Y-60752D01*
X81751Y-60504D01*
X81427Y-60370D01*
X81077Y-60369D01*
X80754Y-60503D01*
X80506Y-60750D01*
X80372Y-61074D01*
X80371Y-61424D01*
X80505Y-61747D01*
X80752Y-61995D01*
X81076Y-62129D01*
X81426Y-62130D01*
X81749Y-61996D01*
X81997Y-61749D01*
X82131Y-61425D01*
X82132Y-61075D01*
X82132Y-63346D01*
X82038Y-63440D01*
X81954Y-63641D01*
X81954Y-63857D01*
X82037Y-64058D01*
X82190Y-64211D01*
X82391Y-64295D01*
X82607Y-64295D01*
X82808Y-64212D01*
X82961Y-64059D01*
X82999Y-63967D01*
X83037Y-64058D01*
X83190Y-64211D01*
X83391Y-64295D01*
X83607Y-64295D01*
X83808Y-64212D01*
X83961Y-64059D01*
X84045Y-63858D01*
X84045Y-63642D01*
X84045Y-69883D01*
X83754Y-70003D01*
X83545Y-70212D01*
X83545Y-64642D01*
X83462Y-64441D01*
X83309Y-64288D01*
X83108Y-64204D01*
X82892Y-64204D01*
X82691Y-64287D01*
X82538Y-64440D01*
X82500Y-64532D01*
X82462Y-64441D01*
X82309Y-64288D01*
X82108Y-64204D01*
X81892Y-64204D01*
X81691Y-64287D01*
X81538Y-64440D01*
X81454Y-64641D01*
X81454Y-64857D01*
X81537Y-65058D01*
X81690Y-65211D01*
X81891Y-65295D01*
X82107Y-65295D01*
X82308Y-65212D01*
X82461Y-65059D01*
X82499Y-64967D01*
X82537Y-65058D01*
X82690Y-65211D01*
X82891Y-65295D01*
X83107Y-65295D01*
X83308Y-65212D01*
X83461Y-65059D01*
X83545Y-64858D01*
X83545Y-64642D01*
X83545Y-70212D01*
X83506Y-70250D01*
X83372Y-70574D01*
X83371Y-70924D01*
X83505Y-71247D01*
X83752Y-71495D01*
X84076Y-71629D01*
X84426Y-71630D01*
X84749Y-71496D01*
X84997Y-71249D01*
X85131Y-70925D01*
X85132Y-70575D01*
X85132Y-76307D01*
X85058Y-76337D01*
X84988Y-76408D01*
X84950Y-76500D01*
X84949Y-76599D01*
X84949Y-77199D01*
X84987Y-77291D01*
X85058Y-77361D01*
X85150Y-77399D01*
X85249Y-77400D01*
X85849Y-77400D01*
X85941Y-77362D01*
X86011Y-77291D01*
X86049Y-77199D01*
X86049Y-77177D01*
X86188Y-77315D01*
X86390Y-77399D01*
X86608Y-77400D01*
X86811Y-77316D01*
X86965Y-77161D01*
X86999Y-77080D01*
X87033Y-77161D01*
X87188Y-77315D01*
X87390Y-77399D01*
X87608Y-77400D01*
X87811Y-77316D01*
X87965Y-77161D01*
X87999Y-77080D01*
X88033Y-77161D01*
X88188Y-77315D01*
X88390Y-77399D01*
X88608Y-77400D01*
X88811Y-77316D01*
X88965Y-77161D01*
X89049Y-76959D01*
X89050Y-76741D01*
X89050Y-79469D01*
X87011Y-79872D01*
X84045Y-79285D01*
X84045Y-73142D01*
X83962Y-72941D01*
X83809Y-72788D01*
X83608Y-72704D01*
X83392Y-72704D01*
X83191Y-72787D01*
X83038Y-72940D01*
X83000Y-73032D01*
X82962Y-72941D01*
X82809Y-72788D01*
X82608Y-72704D01*
X82392Y-72704D01*
X82191Y-72787D01*
X82132Y-72846D01*
X82132Y-70575D01*
X81998Y-70252D01*
X81751Y-70004D01*
X81427Y-69870D01*
X81077Y-69869D01*
X80754Y-70003D01*
X80506Y-70250D01*
X80372Y-70574D01*
X80371Y-70924D01*
X80505Y-71247D01*
X80752Y-71495D01*
X81076Y-71629D01*
X81426Y-71630D01*
X81749Y-71496D01*
X81997Y-71249D01*
X82131Y-70925D01*
X82132Y-70575D01*
X82132Y-72846D01*
X82038Y-72940D01*
X81954Y-73141D01*
X81954Y-73357D01*
X82037Y-73558D01*
X82190Y-73711D01*
X82391Y-73795D01*
X82607Y-73795D01*
X82808Y-73712D01*
X82961Y-73559D01*
X82999Y-73467D01*
X83037Y-73558D01*
X83190Y-73711D01*
X83391Y-73795D01*
X83607Y-73795D01*
X83808Y-73712D01*
X83961Y-73559D01*
X84045Y-73358D01*
X84045Y-73142D01*
X84045Y-79285D01*
X83545Y-79186D01*
X83545Y-74142D01*
X83462Y-73941D01*
X83309Y-73788D01*
X83108Y-73704D01*
X82892Y-73704D01*
X82691Y-73787D01*
X82538Y-73940D01*
X82500Y-74032D01*
X82462Y-73941D01*
X82309Y-73788D01*
X82108Y-73704D01*
X81892Y-73704D01*
X81691Y-73787D01*
X81538Y-73940D01*
X81454Y-74141D01*
X81454Y-74357D01*
X81537Y-74558D01*
X81690Y-74711D01*
X81891Y-74795D01*
X82107Y-74795D01*
X82308Y-74712D01*
X82461Y-74559D01*
X82499Y-74467D01*
X82537Y-74558D01*
X82690Y-74711D01*
X82891Y-74795D01*
X83107Y-74795D01*
X83308Y-74712D01*
X83461Y-74559D01*
X83545Y-74358D01*
X83545Y-74142D01*
X83545Y-79186D01*
X81965Y-78873D01*
X77729Y-76037D01*
X77450Y-75620D01*
X77450Y-67141D01*
X77366Y-66938D01*
X77227Y-66800D01*
X77249Y-66800D01*
X77341Y-66762D01*
X77411Y-66691D01*
X77449Y-66599D01*
X77450Y-66500D01*
X77450Y-65900D01*
X77412Y-65808D01*
X77341Y-65738D01*
X77249Y-65700D01*
X77150Y-65699D01*
X76550Y-65699D01*
X76458Y-65737D01*
X76388Y-65808D01*
X76350Y-65900D01*
X76349Y-65999D01*
X76349Y-66599D01*
X76387Y-66691D01*
X76458Y-66761D01*
X76550Y-66799D01*
X76572Y-66799D01*
X76434Y-66938D01*
X76350Y-67140D01*
X76349Y-67358D01*
X76433Y-67561D01*
X76588Y-67715D01*
X76790Y-67799D01*
X77008Y-67800D01*
X77211Y-67716D01*
X77365Y-67561D01*
X77449Y-67359D01*
X77450Y-67141D01*
X77450Y-75620D01*
X74867Y-71762D01*
X73874Y-66749D01*
X74867Y-61737D01*
X77729Y-57462D01*
X81965Y-54626D01*
X87011Y-53627D01*
X92012Y-54617D01*
X96287Y-57479D01*
X99123Y-61715D01*
X100120Y-66750D01*
M02*
