G04 (created by PCBNEW (2013-07-07 BZR 4022)-stable) date 6/5/2014 11:35:08 PM*
%MOIN*%
G04 Gerber Fmt 3.4, Leading zero omitted, Abs format*
%FSLAX34Y34*%
G01*
G70*
G90*
G04 APERTURE LIST*
%ADD10C,0.00590551*%
%ADD11R,0.06X0.06*%
%ADD12C,0.06*%
%ADD13C,0.23622*%
%ADD14R,0.16X0.16*%
%ADD15C,0.16*%
%ADD16C,0.0590551*%
%ADD17C,0.125984*%
%ADD18C,0.02*%
%ADD19C,0.01*%
G04 APERTURE END LIST*
G54D10*
G54D11*
X85500Y-76850D03*
G54D12*
X86500Y-76850D03*
X87500Y-76850D03*
X88500Y-76850D03*
G54D11*
X86000Y-63250D03*
G54D12*
X87000Y-63250D03*
X88000Y-63250D03*
X89000Y-63250D03*
G54D13*
X87000Y-60750D03*
X87000Y-72750D03*
G54D14*
X91500Y-66750D03*
G54D15*
X93850Y-66750D03*
X92700Y-64900D03*
G54D16*
X83000Y-64750D03*
X82000Y-64750D03*
X83500Y-63750D03*
X82500Y-63750D03*
G54D17*
X81251Y-61250D03*
X84251Y-61250D03*
G54D16*
X83000Y-74250D03*
X82000Y-74250D03*
X83500Y-73250D03*
X82500Y-73250D03*
G54D17*
X81251Y-70750D03*
X84251Y-70750D03*
G54D10*
G36*
X93292Y-75131D02*
X92868Y-74707D01*
X93292Y-74282D01*
X93717Y-74707D01*
X93292Y-75131D01*
X93292Y-75131D01*
G37*
G54D12*
X94000Y-74000D03*
X94707Y-73292D03*
G54D11*
X76900Y-66250D03*
G54D12*
X76900Y-67250D03*
G54D18*
X82000Y-64750D02*
X82000Y-65000D01*
X89000Y-63750D02*
X89000Y-63250D01*
X87250Y-65500D02*
X89000Y-63750D01*
X82500Y-65500D02*
X87250Y-65500D01*
X82000Y-65000D02*
X82500Y-65500D01*
X82000Y-74250D02*
X83750Y-76000D01*
X88500Y-77500D02*
X88500Y-76850D01*
X88250Y-77750D02*
X88500Y-77500D01*
X87250Y-77750D02*
X88250Y-77750D01*
X86500Y-78500D02*
X87250Y-77750D01*
X84750Y-78500D02*
X86500Y-78500D01*
X83750Y-77500D02*
X84750Y-78500D01*
X83750Y-76000D02*
X83750Y-77500D01*
X83500Y-63750D02*
X85500Y-63750D01*
X85500Y-63750D02*
X86000Y-63250D01*
X83000Y-64750D02*
X86250Y-64750D01*
X87000Y-64000D02*
X87000Y-63250D01*
X86250Y-64750D02*
X87000Y-64000D01*
X82500Y-63750D02*
X83750Y-62500D01*
X88000Y-62750D02*
X88000Y-63250D01*
X87750Y-62500D02*
X88000Y-62750D01*
X83750Y-62500D02*
X87750Y-62500D01*
X83500Y-73250D02*
X85500Y-75250D01*
X85500Y-75250D02*
X85500Y-76850D01*
X83000Y-74250D02*
X84500Y-75750D01*
X86500Y-77250D02*
X86500Y-76850D01*
X86000Y-77750D02*
X86500Y-77250D01*
X85000Y-77750D02*
X86000Y-77750D01*
X84500Y-77250D02*
X85000Y-77750D01*
X84500Y-75750D02*
X84500Y-77250D01*
X82500Y-73250D02*
X82500Y-73000D01*
X87500Y-76000D02*
X87500Y-76850D01*
X84000Y-72500D02*
X87500Y-76000D01*
X83000Y-72500D02*
X84000Y-72500D01*
X82500Y-73000D02*
X83000Y-72500D01*
G54D10*
G36*
X95116Y-74750D02*
X95104Y-74807D01*
X95069Y-74859D01*
X93602Y-76327D01*
X93602Y-75175D01*
X93602Y-75087D01*
X93292Y-74777D01*
X93222Y-74848D01*
X93222Y-74707D01*
X92912Y-74397D01*
X92824Y-74397D01*
X92656Y-74565D01*
X92618Y-74657D01*
X92618Y-74756D01*
X92656Y-74848D01*
X92726Y-74918D01*
X92824Y-75016D01*
X92912Y-75016D01*
X93222Y-74707D01*
X93222Y-74848D01*
X92983Y-75087D01*
X92983Y-75175D01*
X93081Y-75273D01*
X93151Y-75343D01*
X93243Y-75381D01*
X93342Y-75381D01*
X93434Y-75343D01*
X93602Y-75175D01*
X93602Y-76327D01*
X93359Y-76569D01*
X93307Y-76604D01*
X93250Y-76616D01*
X93192Y-76604D01*
X93140Y-76569D01*
X92550Y-75979D01*
X92550Y-67500D01*
X92550Y-66862D01*
X92487Y-66800D01*
X91550Y-66800D01*
X91550Y-67737D01*
X91612Y-67800D01*
X92349Y-67800D01*
X92441Y-67762D01*
X92511Y-67691D01*
X92549Y-67599D01*
X92550Y-67500D01*
X92550Y-75979D01*
X91450Y-74879D01*
X91450Y-67737D01*
X91450Y-66800D01*
X91450Y-66700D01*
X91450Y-65762D01*
X91387Y-65700D01*
X90650Y-65699D01*
X90558Y-65737D01*
X90488Y-65808D01*
X90450Y-65900D01*
X90449Y-65999D01*
X90450Y-66637D01*
X90512Y-66700D01*
X91450Y-66700D01*
X91450Y-66800D01*
X90512Y-66800D01*
X90450Y-66862D01*
X90449Y-67500D01*
X90450Y-67599D01*
X90488Y-67691D01*
X90558Y-67762D01*
X90650Y-67800D01*
X91387Y-67800D01*
X91450Y-67737D01*
X91450Y-74879D01*
X91327Y-74756D01*
X91300Y-74721D01*
X91284Y-74680D01*
X89804Y-68514D01*
X89800Y-68473D01*
X89800Y-65204D01*
X89812Y-65142D01*
X89844Y-65094D01*
X89892Y-65062D01*
X89954Y-65050D01*
X91649Y-65050D01*
X91649Y-65107D01*
X91809Y-65494D01*
X92014Y-65699D01*
X91612Y-65700D01*
X91550Y-65762D01*
X91550Y-66700D01*
X92487Y-66700D01*
X92550Y-66637D01*
X92550Y-65999D01*
X92549Y-65949D01*
X92907Y-65950D01*
X93200Y-65829D01*
X93200Y-65915D01*
X92960Y-66154D01*
X92800Y-66540D01*
X92799Y-66957D01*
X92959Y-67344D01*
X93200Y-67585D01*
X93200Y-72672D01*
X93218Y-72763D01*
X93269Y-72840D01*
X93882Y-73453D01*
X93688Y-73533D01*
X93534Y-73688D01*
X93450Y-73890D01*
X93449Y-74086D01*
X93434Y-74070D01*
X93342Y-74032D01*
X93242Y-74032D01*
X93151Y-74071D01*
X92983Y-74238D01*
X92983Y-74327D01*
X93292Y-74636D01*
X93298Y-74630D01*
X93369Y-74701D01*
X93363Y-74707D01*
X93672Y-75016D01*
X93761Y-75016D01*
X93928Y-74848D01*
X93967Y-74757D01*
X93967Y-74657D01*
X93929Y-74565D01*
X93913Y-74549D01*
X94108Y-74550D01*
X94311Y-74466D01*
X94465Y-74311D01*
X94546Y-74117D01*
X95069Y-74640D01*
X95104Y-74692D01*
X95116Y-74750D01*
X95116Y-74750D01*
G37*
G54D19*
X95116Y-74750D02*
X95104Y-74807D01*
X95069Y-74859D01*
X93602Y-76327D01*
X93602Y-75175D01*
X93602Y-75087D01*
X93292Y-74777D01*
X93222Y-74848D01*
X93222Y-74707D01*
X92912Y-74397D01*
X92824Y-74397D01*
X92656Y-74565D01*
X92618Y-74657D01*
X92618Y-74756D01*
X92656Y-74848D01*
X92726Y-74918D01*
X92824Y-75016D01*
X92912Y-75016D01*
X93222Y-74707D01*
X93222Y-74848D01*
X92983Y-75087D01*
X92983Y-75175D01*
X93081Y-75273D01*
X93151Y-75343D01*
X93243Y-75381D01*
X93342Y-75381D01*
X93434Y-75343D01*
X93602Y-75175D01*
X93602Y-76327D01*
X93359Y-76569D01*
X93307Y-76604D01*
X93250Y-76616D01*
X93192Y-76604D01*
X93140Y-76569D01*
X92550Y-75979D01*
X92550Y-67500D01*
X92550Y-66862D01*
X92487Y-66800D01*
X91550Y-66800D01*
X91550Y-67737D01*
X91612Y-67800D01*
X92349Y-67800D01*
X92441Y-67762D01*
X92511Y-67691D01*
X92549Y-67599D01*
X92550Y-67500D01*
X92550Y-75979D01*
X91450Y-74879D01*
X91450Y-67737D01*
X91450Y-66800D01*
X91450Y-66700D01*
X91450Y-65762D01*
X91387Y-65700D01*
X90650Y-65699D01*
X90558Y-65737D01*
X90488Y-65808D01*
X90450Y-65900D01*
X90449Y-65999D01*
X90450Y-66637D01*
X90512Y-66700D01*
X91450Y-66700D01*
X91450Y-66800D01*
X90512Y-66800D01*
X90450Y-66862D01*
X90449Y-67500D01*
X90450Y-67599D01*
X90488Y-67691D01*
X90558Y-67762D01*
X90650Y-67800D01*
X91387Y-67800D01*
X91450Y-67737D01*
X91450Y-74879D01*
X91327Y-74756D01*
X91300Y-74721D01*
X91284Y-74680D01*
X89804Y-68514D01*
X89800Y-68473D01*
X89800Y-65204D01*
X89812Y-65142D01*
X89844Y-65094D01*
X89892Y-65062D01*
X89954Y-65050D01*
X91649Y-65050D01*
X91649Y-65107D01*
X91809Y-65494D01*
X92014Y-65699D01*
X91612Y-65700D01*
X91550Y-65762D01*
X91550Y-66700D01*
X92487Y-66700D01*
X92550Y-66637D01*
X92550Y-65999D01*
X92549Y-65949D01*
X92907Y-65950D01*
X93200Y-65829D01*
X93200Y-65915D01*
X92960Y-66154D01*
X92800Y-66540D01*
X92799Y-66957D01*
X92959Y-67344D01*
X93200Y-67585D01*
X93200Y-72672D01*
X93218Y-72763D01*
X93269Y-72840D01*
X93882Y-73453D01*
X93688Y-73533D01*
X93534Y-73688D01*
X93450Y-73890D01*
X93449Y-74086D01*
X93434Y-74070D01*
X93342Y-74032D01*
X93242Y-74032D01*
X93151Y-74071D01*
X92983Y-74238D01*
X92983Y-74327D01*
X93292Y-74636D01*
X93298Y-74630D01*
X93369Y-74701D01*
X93363Y-74707D01*
X93672Y-75016D01*
X93761Y-75016D01*
X93928Y-74848D01*
X93967Y-74757D01*
X93967Y-74657D01*
X93929Y-74565D01*
X93913Y-74549D01*
X94108Y-74550D01*
X94311Y-74466D01*
X94465Y-74311D01*
X94546Y-74117D01*
X95069Y-74640D01*
X95104Y-74692D01*
X95116Y-74750D01*
M02*
