G04 (created by PCBNEW (2013-07-07 BZR 4022)-stable) date 6/17/2014 7:27:19 PM*
%MOIN*%
G04 Gerber Fmt 3.4, Leading zero omitted, Abs format*
%FSLAX34Y34*%
G01*
G70*
G90*
G04 APERTURE LIST*
%ADD10C,0.00393701*%
%ADD11C,0.006*%
%ADD12C,0.00787402*%
%ADD13C,0.008*%
%ADD14C,0.00590551*%
%ADD15C,0.012*%
%ADD16C,0.01*%
%ADD17C,0.005*%
G04 APERTURE END LIST*
G54D10*
G54D11*
X90150Y-55028D02*
X90135Y-55014D01*
X90121Y-54985D01*
X90121Y-54914D01*
X90135Y-54885D01*
X90150Y-54871D01*
X90178Y-54857D01*
X90207Y-54857D01*
X90250Y-54871D01*
X90421Y-55042D01*
X90421Y-54857D01*
X90250Y-54685D02*
X90235Y-54714D01*
X90221Y-54728D01*
X90192Y-54742D01*
X90178Y-54742D01*
X90150Y-54728D01*
X90135Y-54714D01*
X90121Y-54685D01*
X90121Y-54628D01*
X90135Y-54600D01*
X90150Y-54585D01*
X90178Y-54571D01*
X90192Y-54571D01*
X90221Y-54585D01*
X90235Y-54600D01*
X90250Y-54628D01*
X90250Y-54685D01*
X90264Y-54714D01*
X90278Y-54728D01*
X90307Y-54742D01*
X90364Y-54742D01*
X90392Y-54728D01*
X90407Y-54714D01*
X90421Y-54685D01*
X90421Y-54628D01*
X90407Y-54600D01*
X90392Y-54585D01*
X90364Y-54571D01*
X90307Y-54571D01*
X90278Y-54585D01*
X90264Y-54600D01*
X90250Y-54628D01*
X90421Y-54442D02*
X90221Y-54442D01*
X90250Y-54442D02*
X90235Y-54428D01*
X90221Y-54400D01*
X90221Y-54357D01*
X90235Y-54328D01*
X90264Y-54314D01*
X90421Y-54314D01*
X90264Y-54314D02*
X90235Y-54300D01*
X90221Y-54271D01*
X90221Y-54228D01*
X90235Y-54200D01*
X90264Y-54185D01*
X90421Y-54185D01*
X90421Y-54042D02*
X90221Y-54042D01*
X90250Y-54042D02*
X90235Y-54028D01*
X90221Y-54000D01*
X90221Y-53957D01*
X90235Y-53928D01*
X90264Y-53914D01*
X90421Y-53914D01*
X90264Y-53914D02*
X90235Y-53900D01*
X90221Y-53871D01*
X90221Y-53828D01*
X90235Y-53800D01*
X90264Y-53785D01*
X90421Y-53785D01*
X89150Y-55028D02*
X89135Y-55014D01*
X89121Y-54985D01*
X89121Y-54914D01*
X89135Y-54885D01*
X89150Y-54871D01*
X89178Y-54857D01*
X89207Y-54857D01*
X89250Y-54871D01*
X89421Y-55042D01*
X89421Y-54857D01*
X89121Y-54757D02*
X89121Y-54571D01*
X89235Y-54671D01*
X89235Y-54628D01*
X89250Y-54600D01*
X89264Y-54585D01*
X89292Y-54571D01*
X89364Y-54571D01*
X89392Y-54585D01*
X89407Y-54600D01*
X89421Y-54628D01*
X89421Y-54714D01*
X89407Y-54742D01*
X89392Y-54757D01*
X89421Y-54442D02*
X89221Y-54442D01*
X89250Y-54442D02*
X89235Y-54428D01*
X89221Y-54400D01*
X89221Y-54357D01*
X89235Y-54328D01*
X89264Y-54314D01*
X89421Y-54314D01*
X89264Y-54314D02*
X89235Y-54300D01*
X89221Y-54271D01*
X89221Y-54228D01*
X89235Y-54200D01*
X89264Y-54185D01*
X89421Y-54185D01*
X89421Y-54042D02*
X89221Y-54042D01*
X89250Y-54042D02*
X89235Y-54028D01*
X89221Y-54000D01*
X89221Y-53957D01*
X89235Y-53928D01*
X89264Y-53914D01*
X89421Y-53914D01*
X89264Y-53914D02*
X89235Y-53900D01*
X89221Y-53871D01*
X89221Y-53828D01*
X89235Y-53800D01*
X89264Y-53785D01*
X89421Y-53785D01*
G54D12*
X80450Y-59050D02*
X80450Y-49950D01*
X89550Y-59050D02*
X80450Y-59050D01*
X89550Y-49950D02*
X89550Y-59050D01*
X80450Y-49950D02*
X89550Y-49950D01*
X79450Y-60050D02*
X79450Y-48950D01*
X90550Y-60050D02*
X79450Y-60050D01*
X90550Y-48950D02*
X90550Y-60050D01*
X79450Y-48950D02*
X90550Y-48950D01*
G54D13*
X80454Y-60661D02*
X80416Y-60642D01*
X80397Y-60623D01*
X80378Y-60585D01*
X80378Y-60471D01*
X80397Y-60433D01*
X80416Y-60414D01*
X80454Y-60395D01*
X80511Y-60395D01*
X80550Y-60414D01*
X80569Y-60433D01*
X80588Y-60471D01*
X80588Y-60585D01*
X80569Y-60623D01*
X80550Y-60642D01*
X80511Y-60661D01*
X80454Y-60661D01*
X80721Y-60395D02*
X80816Y-60661D01*
X80911Y-60395D01*
X81216Y-60642D02*
X81178Y-60661D01*
X81102Y-60661D01*
X81064Y-60642D01*
X81045Y-60604D01*
X81045Y-60452D01*
X81064Y-60414D01*
X81102Y-60395D01*
X81178Y-60395D01*
X81216Y-60414D01*
X81235Y-60452D01*
X81235Y-60490D01*
X81045Y-60528D01*
X81407Y-60395D02*
X81407Y-60661D01*
X81407Y-60433D02*
X81426Y-60414D01*
X81464Y-60395D01*
X81521Y-60395D01*
X81559Y-60414D01*
X81578Y-60452D01*
X81578Y-60661D01*
X82054Y-60642D02*
X82092Y-60661D01*
X82169Y-60661D01*
X82207Y-60642D01*
X82226Y-60604D01*
X82226Y-60585D01*
X82207Y-60547D01*
X82169Y-60528D01*
X82111Y-60528D01*
X82073Y-60509D01*
X82054Y-60471D01*
X82054Y-60452D01*
X82073Y-60414D01*
X82111Y-60395D01*
X82169Y-60395D01*
X82207Y-60414D01*
X82397Y-60661D02*
X82397Y-60395D01*
X82397Y-60261D02*
X82378Y-60280D01*
X82397Y-60300D01*
X82416Y-60280D01*
X82397Y-60261D01*
X82397Y-60300D01*
X82759Y-60661D02*
X82759Y-60261D01*
X82759Y-60642D02*
X82721Y-60661D01*
X82645Y-60661D01*
X82607Y-60642D01*
X82588Y-60623D01*
X82569Y-60585D01*
X82569Y-60471D01*
X82588Y-60433D01*
X82607Y-60414D01*
X82645Y-60395D01*
X82721Y-60395D01*
X82759Y-60414D01*
X83102Y-60642D02*
X83064Y-60661D01*
X82988Y-60661D01*
X82950Y-60642D01*
X82930Y-60604D01*
X82930Y-60452D01*
X82950Y-60414D01*
X82988Y-60395D01*
X83064Y-60395D01*
X83102Y-60414D01*
X83121Y-60452D01*
X83121Y-60490D01*
X82930Y-60528D01*
X81852Y-47961D02*
X81852Y-47561D01*
X82023Y-47961D02*
X82023Y-47752D01*
X82004Y-47714D01*
X81966Y-47695D01*
X81909Y-47695D01*
X81871Y-47714D01*
X81852Y-47733D01*
X82366Y-47942D02*
X82328Y-47961D01*
X82252Y-47961D01*
X82214Y-47942D01*
X82195Y-47904D01*
X82195Y-47752D01*
X82214Y-47714D01*
X82252Y-47695D01*
X82328Y-47695D01*
X82366Y-47714D01*
X82385Y-47752D01*
X82385Y-47790D01*
X82195Y-47828D01*
X82728Y-47961D02*
X82728Y-47752D01*
X82709Y-47714D01*
X82671Y-47695D01*
X82595Y-47695D01*
X82557Y-47714D01*
X82728Y-47942D02*
X82690Y-47961D01*
X82595Y-47961D01*
X82557Y-47942D01*
X82538Y-47904D01*
X82538Y-47866D01*
X82557Y-47828D01*
X82595Y-47809D01*
X82690Y-47809D01*
X82728Y-47790D01*
X82861Y-47695D02*
X83014Y-47695D01*
X82919Y-47561D02*
X82919Y-47904D01*
X82938Y-47942D01*
X82976Y-47961D01*
X83014Y-47961D01*
X83300Y-47942D02*
X83261Y-47961D01*
X83185Y-47961D01*
X83147Y-47942D01*
X83128Y-47904D01*
X83128Y-47752D01*
X83147Y-47714D01*
X83185Y-47695D01*
X83261Y-47695D01*
X83300Y-47714D01*
X83319Y-47752D01*
X83319Y-47790D01*
X83128Y-47828D01*
X83490Y-47961D02*
X83490Y-47695D01*
X83490Y-47771D02*
X83509Y-47733D01*
X83528Y-47714D01*
X83566Y-47695D01*
X83604Y-47695D01*
X81947Y-48601D02*
X81947Y-48201D01*
X81947Y-48354D02*
X81985Y-48335D01*
X82061Y-48335D01*
X82100Y-48354D01*
X82119Y-48373D01*
X82138Y-48411D01*
X82138Y-48525D01*
X82119Y-48563D01*
X82100Y-48582D01*
X82061Y-48601D01*
X81985Y-48601D01*
X81947Y-48582D01*
X82366Y-48601D02*
X82328Y-48582D01*
X82309Y-48563D01*
X82290Y-48525D01*
X82290Y-48411D01*
X82309Y-48373D01*
X82328Y-48354D01*
X82366Y-48335D01*
X82423Y-48335D01*
X82461Y-48354D01*
X82480Y-48373D01*
X82500Y-48411D01*
X82500Y-48525D01*
X82480Y-48563D01*
X82461Y-48582D01*
X82423Y-48601D01*
X82366Y-48601D01*
X82842Y-48601D02*
X82842Y-48392D01*
X82823Y-48354D01*
X82785Y-48335D01*
X82709Y-48335D01*
X82671Y-48354D01*
X82842Y-48582D02*
X82804Y-48601D01*
X82709Y-48601D01*
X82671Y-48582D01*
X82652Y-48544D01*
X82652Y-48506D01*
X82671Y-48468D01*
X82709Y-48449D01*
X82804Y-48449D01*
X82842Y-48430D01*
X83033Y-48601D02*
X83033Y-48335D01*
X83033Y-48411D02*
X83052Y-48373D01*
X83071Y-48354D01*
X83109Y-48335D01*
X83147Y-48335D01*
X83452Y-48601D02*
X83452Y-48201D01*
X83452Y-48582D02*
X83414Y-48601D01*
X83338Y-48601D01*
X83300Y-48582D01*
X83280Y-48563D01*
X83261Y-48525D01*
X83261Y-48411D01*
X83280Y-48373D01*
X83300Y-48354D01*
X83338Y-48335D01*
X83414Y-48335D01*
X83452Y-48354D01*
G54D12*
X92950Y-54500D02*
G75*
G03X92950Y-54500I-7950J0D01*
G74*
G01*
G54D14*
X82821Y-83150D02*
G75*
G03X82821Y-83150I-1771J0D01*
G74*
G01*
X81621Y-86850D02*
G75*
G03X81621Y-86850I-1771J0D01*
G74*
G01*
G54D11*
X85000Y-48000D02*
X85000Y-47000D01*
X85000Y-47000D02*
X88000Y-47000D01*
X88000Y-47000D02*
X88000Y-48000D01*
X88000Y-48000D02*
X85000Y-48000D01*
X86000Y-47000D02*
X86000Y-48000D01*
G54D15*
X81600Y-56150D02*
X81600Y-53350D01*
X81600Y-53350D02*
X82400Y-53350D01*
X82400Y-53350D02*
X82400Y-56150D01*
X82400Y-56150D02*
X81600Y-56150D01*
X81800Y-56150D02*
X81600Y-55950D01*
G54D14*
X91500Y-55600D02*
X90650Y-55600D01*
X90650Y-55600D02*
X90650Y-57400D01*
X90650Y-57400D02*
X91500Y-57400D01*
X91500Y-57400D02*
G75*
G03X92400Y-56500I0J900D01*
G74*
G01*
X92400Y-56500D02*
G75*
G03X91500Y-55600I-900J0D01*
G74*
G01*
G54D16*
X85250Y-51000D02*
X85250Y-50750D01*
X85250Y-50750D02*
X89250Y-50750D01*
X89250Y-50750D02*
X89250Y-51000D01*
X85250Y-52500D02*
X85250Y-51000D01*
X85250Y-51000D02*
X89250Y-51000D01*
X89250Y-51000D02*
X89250Y-52500D01*
X89250Y-52500D02*
X85250Y-52500D01*
X84750Y-58500D02*
X84750Y-58750D01*
X84750Y-58750D02*
X80750Y-58750D01*
X80750Y-58750D02*
X80750Y-58500D01*
X84750Y-57000D02*
X84750Y-58500D01*
X84750Y-58500D02*
X80750Y-58500D01*
X80750Y-58500D02*
X80750Y-57000D01*
X80750Y-57000D02*
X84750Y-57000D01*
G54D15*
X86500Y-60750D02*
G75*
G03X86500Y-60750I-500J0D01*
G74*
G01*
X86000Y-60750D02*
X86000Y-59750D01*
X85250Y-60750D02*
G75*
G03X85250Y-60750I-500J0D01*
G74*
G01*
X84750Y-60750D02*
X84750Y-59750D01*
X87500Y-59750D02*
G75*
G03X87500Y-59750I-500J0D01*
G74*
G01*
X87000Y-59750D02*
X87000Y-60750D01*
X88100Y-49800D02*
G75*
G03X88100Y-49800I-500J0D01*
G74*
G01*
X87600Y-49800D02*
X87600Y-48800D01*
X89300Y-49800D02*
G75*
G03X89300Y-49800I-500J0D01*
G74*
G01*
X88800Y-49800D02*
X88800Y-48800D01*
X90500Y-49800D02*
G75*
G03X90500Y-49800I-500J0D01*
G74*
G01*
X90000Y-49800D02*
X90000Y-48800D01*
X84750Y-55750D02*
G75*
G03X84750Y-55750I-500J0D01*
G74*
G01*
X84250Y-55750D02*
X84250Y-54750D01*
X83500Y-54750D02*
G75*
G03X83500Y-54750I-500J0D01*
G74*
G01*
X83000Y-54750D02*
X83000Y-55750D01*
G54D14*
X71371Y-82950D02*
G75*
G03X71371Y-82950I-1771J0D01*
G74*
G01*
X75671Y-82900D02*
G75*
G03X75671Y-82900I-1771J0D01*
G74*
G01*
G54D15*
X83000Y-49300D02*
G75*
G03X83300Y-49000I0J300D01*
G74*
G01*
X82700Y-49000D02*
G75*
G03X83000Y-49300I300J0D01*
G74*
G01*
X84000Y-49000D02*
X84000Y-53000D01*
X84000Y-53000D02*
X82000Y-53000D01*
X82000Y-53000D02*
X82000Y-49000D01*
X82000Y-49000D02*
X84000Y-49000D01*
X79250Y-56200D02*
G75*
G03X78950Y-56500I0J-300D01*
G74*
G01*
X79550Y-56500D02*
G75*
G03X79250Y-56200I-300J0D01*
G74*
G01*
X78250Y-56500D02*
X78250Y-52500D01*
X78250Y-52500D02*
X80250Y-52500D01*
X80250Y-52500D02*
X80250Y-56500D01*
X80250Y-56500D02*
X78250Y-56500D01*
X85800Y-57000D02*
G75*
G03X85500Y-56700I-300J0D01*
G74*
G01*
X85500Y-57300D02*
G75*
G03X85800Y-57000I0J300D01*
G74*
G01*
X85500Y-56000D02*
X89500Y-56000D01*
X89500Y-56000D02*
X89500Y-58000D01*
X89500Y-58000D02*
X85500Y-58000D01*
X85500Y-58000D02*
X85500Y-56000D01*
G54D11*
X88128Y-47821D02*
X88128Y-47521D01*
X88242Y-47521D01*
X88271Y-47535D01*
X88285Y-47550D01*
X88300Y-47578D01*
X88300Y-47621D01*
X88285Y-47650D01*
X88271Y-47664D01*
X88242Y-47678D01*
X88128Y-47678D01*
X88585Y-47821D02*
X88414Y-47821D01*
X88500Y-47821D02*
X88500Y-47521D01*
X88471Y-47564D01*
X88442Y-47592D01*
X88414Y-47607D01*
X81442Y-54800D02*
X81457Y-54814D01*
X81471Y-54857D01*
X81471Y-54885D01*
X81457Y-54928D01*
X81428Y-54957D01*
X81400Y-54971D01*
X81342Y-54985D01*
X81300Y-54985D01*
X81242Y-54971D01*
X81214Y-54957D01*
X81185Y-54928D01*
X81171Y-54885D01*
X81171Y-54857D01*
X81185Y-54814D01*
X81200Y-54800D01*
X81271Y-54542D02*
X81471Y-54542D01*
X81157Y-54614D02*
X81371Y-54685D01*
X81371Y-54500D01*
X81871Y-55242D02*
X81871Y-55214D01*
X81885Y-55185D01*
X81900Y-55171D01*
X81928Y-55157D01*
X81985Y-55142D01*
X82057Y-55142D01*
X82114Y-55157D01*
X82142Y-55171D01*
X82157Y-55185D01*
X82171Y-55214D01*
X82171Y-55242D01*
X82157Y-55271D01*
X82142Y-55285D01*
X82114Y-55299D01*
X82057Y-55314D01*
X81985Y-55314D01*
X81928Y-55299D01*
X81900Y-55285D01*
X81885Y-55271D01*
X81871Y-55242D01*
X82142Y-55014D02*
X82157Y-55000D01*
X82171Y-55014D01*
X82157Y-55028D01*
X82142Y-55014D01*
X82171Y-55014D01*
X82171Y-54714D02*
X82171Y-54885D01*
X82171Y-54800D02*
X81871Y-54800D01*
X81914Y-54828D01*
X81942Y-54857D01*
X81957Y-54885D01*
X81971Y-54457D02*
X82171Y-54457D01*
X81971Y-54585D02*
X82128Y-54585D01*
X82157Y-54571D01*
X82171Y-54542D01*
X82171Y-54500D01*
X82157Y-54471D01*
X82142Y-54457D01*
X82014Y-54214D02*
X82014Y-54314D01*
X82171Y-54314D02*
X81871Y-54314D01*
X81871Y-54171D01*
X89971Y-55871D02*
X89971Y-56114D01*
X89985Y-56142D01*
X90000Y-56157D01*
X90028Y-56171D01*
X90085Y-56171D01*
X90114Y-56157D01*
X90128Y-56142D01*
X90142Y-56114D01*
X90142Y-55871D01*
X90442Y-56171D02*
X90271Y-56171D01*
X90357Y-56171D02*
X90357Y-55871D01*
X90328Y-55914D01*
X90300Y-55942D01*
X90271Y-55957D01*
G54D17*
X90683Y-55451D02*
X90683Y-55201D01*
X90766Y-55379D01*
X90850Y-55201D01*
X90850Y-55451D01*
X91111Y-55427D02*
X91100Y-55439D01*
X91064Y-55451D01*
X91040Y-55451D01*
X91004Y-55439D01*
X90980Y-55415D01*
X90969Y-55391D01*
X90957Y-55344D01*
X90957Y-55308D01*
X90969Y-55260D01*
X90980Y-55236D01*
X91004Y-55213D01*
X91040Y-55201D01*
X91064Y-55201D01*
X91100Y-55213D01*
X91111Y-55225D01*
X91219Y-55451D02*
X91219Y-55201D01*
X91314Y-55201D01*
X91338Y-55213D01*
X91350Y-55225D01*
X91361Y-55248D01*
X91361Y-55284D01*
X91350Y-55308D01*
X91338Y-55320D01*
X91314Y-55332D01*
X91219Y-55332D01*
X91480Y-55451D02*
X91528Y-55451D01*
X91552Y-55439D01*
X91564Y-55427D01*
X91588Y-55391D01*
X91600Y-55344D01*
X91600Y-55248D01*
X91588Y-55225D01*
X91576Y-55213D01*
X91552Y-55201D01*
X91504Y-55201D01*
X91480Y-55213D01*
X91469Y-55225D01*
X91457Y-55248D01*
X91457Y-55308D01*
X91469Y-55332D01*
X91480Y-55344D01*
X91504Y-55355D01*
X91552Y-55355D01*
X91576Y-55344D01*
X91588Y-55332D01*
X91600Y-55308D01*
X91683Y-55201D02*
X91850Y-55201D01*
X91742Y-55451D01*
X91992Y-55201D02*
X92016Y-55201D01*
X92040Y-55213D01*
X92052Y-55225D01*
X92064Y-55248D01*
X92076Y-55296D01*
X92076Y-55355D01*
X92064Y-55403D01*
X92052Y-55427D01*
X92040Y-55439D01*
X92016Y-55451D01*
X91992Y-55451D01*
X91969Y-55439D01*
X91957Y-55427D01*
X91945Y-55403D01*
X91933Y-55355D01*
X91933Y-55296D01*
X91945Y-55248D01*
X91957Y-55225D01*
X91969Y-55213D01*
X91992Y-55201D01*
X92314Y-55451D02*
X92171Y-55451D01*
X92242Y-55451D02*
X92242Y-55201D01*
X92219Y-55236D01*
X92195Y-55260D01*
X92171Y-55272D01*
X92409Y-55379D02*
X92528Y-55379D01*
X92385Y-55451D02*
X92469Y-55201D01*
X92552Y-55451D01*
G54D11*
X85471Y-50600D02*
X85442Y-50585D01*
X85414Y-50557D01*
X85371Y-50514D01*
X85342Y-50500D01*
X85314Y-50500D01*
X85328Y-50571D02*
X85300Y-50557D01*
X85271Y-50528D01*
X85257Y-50471D01*
X85257Y-50371D01*
X85271Y-50314D01*
X85300Y-50285D01*
X85328Y-50271D01*
X85385Y-50271D01*
X85414Y-50285D01*
X85442Y-50314D01*
X85457Y-50371D01*
X85457Y-50471D01*
X85442Y-50528D01*
X85414Y-50557D01*
X85385Y-50571D01*
X85328Y-50571D01*
X85742Y-50571D02*
X85571Y-50571D01*
X85657Y-50571D02*
X85657Y-50271D01*
X85628Y-50314D01*
X85600Y-50342D01*
X85571Y-50357D01*
X87764Y-52671D02*
X87935Y-52671D01*
X87850Y-52971D02*
X87850Y-52671D01*
X88035Y-52971D02*
X88035Y-52671D01*
X88178Y-52971D02*
X88178Y-52671D01*
X88292Y-52671D01*
X88321Y-52685D01*
X88335Y-52700D01*
X88350Y-52728D01*
X88350Y-52771D01*
X88335Y-52800D01*
X88321Y-52814D01*
X88292Y-52828D01*
X88178Y-52828D01*
X88635Y-52971D02*
X88464Y-52971D01*
X88550Y-52971D02*
X88550Y-52671D01*
X88521Y-52714D01*
X88492Y-52742D01*
X88464Y-52757D01*
X88750Y-52700D02*
X88764Y-52685D01*
X88792Y-52671D01*
X88864Y-52671D01*
X88892Y-52685D01*
X88907Y-52700D01*
X88921Y-52728D01*
X88921Y-52757D01*
X88907Y-52800D01*
X88735Y-52971D01*
X88921Y-52971D01*
X89107Y-52671D02*
X89135Y-52671D01*
X89164Y-52685D01*
X89178Y-52700D01*
X89192Y-52728D01*
X89207Y-52785D01*
X89207Y-52857D01*
X89192Y-52914D01*
X89178Y-52942D01*
X89164Y-52957D01*
X89135Y-52971D01*
X89107Y-52971D01*
X89078Y-52957D01*
X89064Y-52942D01*
X89050Y-52914D01*
X89035Y-52857D01*
X89035Y-52785D01*
X89050Y-52728D01*
X89064Y-52700D01*
X89078Y-52685D01*
X89107Y-52671D01*
X80771Y-56571D02*
X80771Y-56814D01*
X80785Y-56842D01*
X80800Y-56857D01*
X80828Y-56871D01*
X80885Y-56871D01*
X80914Y-56857D01*
X80928Y-56842D01*
X80942Y-56814D01*
X80942Y-56571D01*
X81057Y-56571D02*
X81242Y-56571D01*
X81142Y-56685D01*
X81185Y-56685D01*
X81214Y-56700D01*
X81228Y-56714D01*
X81242Y-56742D01*
X81242Y-56814D01*
X81228Y-56842D01*
X81214Y-56857D01*
X81185Y-56871D01*
X81100Y-56871D01*
X81071Y-56857D01*
X81057Y-56842D01*
X81721Y-56571D02*
X81921Y-56571D01*
X81792Y-56871D01*
X82078Y-56700D02*
X82050Y-56685D01*
X82035Y-56671D01*
X82021Y-56642D01*
X82021Y-56628D01*
X82035Y-56600D01*
X82050Y-56585D01*
X82078Y-56571D01*
X82135Y-56571D01*
X82164Y-56585D01*
X82178Y-56600D01*
X82192Y-56628D01*
X82192Y-56642D01*
X82178Y-56671D01*
X82164Y-56685D01*
X82135Y-56700D01*
X82078Y-56700D01*
X82050Y-56714D01*
X82035Y-56728D01*
X82021Y-56757D01*
X82021Y-56814D01*
X82035Y-56842D01*
X82050Y-56857D01*
X82078Y-56871D01*
X82135Y-56871D01*
X82164Y-56857D01*
X82178Y-56842D01*
X82192Y-56814D01*
X82192Y-56757D01*
X82178Y-56728D01*
X82164Y-56714D01*
X82135Y-56700D01*
X82378Y-56571D02*
X82407Y-56571D01*
X82435Y-56585D01*
X82450Y-56600D01*
X82464Y-56628D01*
X82478Y-56685D01*
X82478Y-56757D01*
X82464Y-56814D01*
X82450Y-56842D01*
X82435Y-56857D01*
X82407Y-56871D01*
X82378Y-56871D01*
X82350Y-56857D01*
X82335Y-56842D01*
X82321Y-56814D01*
X82307Y-56757D01*
X82307Y-56685D01*
X82321Y-56628D01*
X82335Y-56600D01*
X82350Y-56585D01*
X82378Y-56571D01*
X82750Y-56571D02*
X82607Y-56571D01*
X82592Y-56714D01*
X82607Y-56700D01*
X82635Y-56685D01*
X82707Y-56685D01*
X82735Y-56700D01*
X82750Y-56714D01*
X82764Y-56742D01*
X82764Y-56814D01*
X82750Y-56842D01*
X82735Y-56857D01*
X82707Y-56871D01*
X82635Y-56871D01*
X82607Y-56857D01*
X82592Y-56842D01*
X86471Y-61650D02*
X86328Y-61750D01*
X86471Y-61821D02*
X86171Y-61821D01*
X86171Y-61707D01*
X86185Y-61678D01*
X86200Y-61664D01*
X86228Y-61650D01*
X86271Y-61650D01*
X86300Y-61664D01*
X86314Y-61678D01*
X86328Y-61707D01*
X86328Y-61821D01*
X86171Y-61378D02*
X86171Y-61521D01*
X86314Y-61535D01*
X86300Y-61521D01*
X86285Y-61492D01*
X86285Y-61421D01*
X86300Y-61392D01*
X86314Y-61378D01*
X86342Y-61364D01*
X86414Y-61364D01*
X86442Y-61378D01*
X86457Y-61392D01*
X86471Y-61421D01*
X86471Y-61492D01*
X86457Y-61521D01*
X86442Y-61535D01*
G54D17*
X85601Y-59817D02*
X85601Y-59960D01*
X85601Y-59889D02*
X85351Y-59889D01*
X85386Y-59913D01*
X85410Y-59936D01*
X85422Y-59960D01*
X85351Y-59591D02*
X85351Y-59710D01*
X85470Y-59722D01*
X85458Y-59710D01*
X85446Y-59686D01*
X85446Y-59627D01*
X85458Y-59603D01*
X85470Y-59591D01*
X85494Y-59579D01*
X85553Y-59579D01*
X85577Y-59591D01*
X85589Y-59603D01*
X85601Y-59627D01*
X85601Y-59686D01*
X85589Y-59710D01*
X85577Y-59722D01*
X85351Y-59425D02*
X85351Y-59401D01*
X85363Y-59377D01*
X85375Y-59365D01*
X85398Y-59353D01*
X85446Y-59341D01*
X85505Y-59341D01*
X85553Y-59353D01*
X85577Y-59365D01*
X85589Y-59377D01*
X85601Y-59401D01*
X85601Y-59425D01*
X85589Y-59448D01*
X85577Y-59460D01*
X85553Y-59472D01*
X85505Y-59484D01*
X85446Y-59484D01*
X85398Y-59472D01*
X85375Y-59460D01*
X85363Y-59448D01*
X85351Y-59425D01*
X85601Y-59234D02*
X85351Y-59234D01*
X85505Y-59210D02*
X85601Y-59139D01*
X85434Y-59139D02*
X85529Y-59234D01*
G54D11*
X84121Y-61050D02*
X83978Y-61150D01*
X84121Y-61221D02*
X83821Y-61221D01*
X83821Y-61107D01*
X83835Y-61078D01*
X83850Y-61064D01*
X83878Y-61050D01*
X83921Y-61050D01*
X83950Y-61064D01*
X83964Y-61078D01*
X83978Y-61107D01*
X83978Y-61221D01*
X83921Y-60792D02*
X84121Y-60792D01*
X83807Y-60864D02*
X84021Y-60935D01*
X84021Y-60750D01*
X83850Y-59849D02*
X83835Y-59835D01*
X83821Y-59807D01*
X83821Y-59735D01*
X83835Y-59707D01*
X83850Y-59692D01*
X83878Y-59678D01*
X83907Y-59678D01*
X83950Y-59692D01*
X84121Y-59864D01*
X84121Y-59678D01*
X83850Y-59564D02*
X83835Y-59549D01*
X83821Y-59521D01*
X83821Y-59449D01*
X83835Y-59421D01*
X83850Y-59407D01*
X83878Y-59392D01*
X83907Y-59392D01*
X83950Y-59407D01*
X84121Y-59578D01*
X84121Y-59392D01*
X84121Y-59264D02*
X83821Y-59264D01*
X84007Y-59235D02*
X84121Y-59150D01*
X83921Y-59150D02*
X84035Y-59264D01*
X87921Y-61050D02*
X87778Y-61150D01*
X87921Y-61221D02*
X87621Y-61221D01*
X87621Y-61107D01*
X87635Y-61078D01*
X87650Y-61064D01*
X87678Y-61050D01*
X87721Y-61050D01*
X87750Y-61064D01*
X87764Y-61078D01*
X87778Y-61107D01*
X87778Y-61221D01*
X87621Y-60950D02*
X87621Y-60764D01*
X87735Y-60864D01*
X87735Y-60821D01*
X87750Y-60792D01*
X87764Y-60778D01*
X87792Y-60764D01*
X87864Y-60764D01*
X87892Y-60778D01*
X87907Y-60792D01*
X87921Y-60821D01*
X87921Y-60907D01*
X87907Y-60935D01*
X87892Y-60950D01*
X87921Y-60071D02*
X87921Y-60242D01*
X87921Y-60157D02*
X87621Y-60157D01*
X87664Y-60185D01*
X87692Y-60214D01*
X87707Y-60242D01*
X87621Y-59885D02*
X87621Y-59857D01*
X87635Y-59828D01*
X87650Y-59814D01*
X87678Y-59799D01*
X87735Y-59785D01*
X87807Y-59785D01*
X87864Y-59799D01*
X87892Y-59814D01*
X87907Y-59828D01*
X87921Y-59857D01*
X87921Y-59885D01*
X87907Y-59914D01*
X87892Y-59928D01*
X87864Y-59942D01*
X87807Y-59957D01*
X87735Y-59957D01*
X87678Y-59942D01*
X87650Y-59928D01*
X87635Y-59914D01*
X87621Y-59885D01*
X87621Y-59600D02*
X87621Y-59571D01*
X87635Y-59542D01*
X87650Y-59528D01*
X87678Y-59514D01*
X87735Y-59500D01*
X87807Y-59500D01*
X87864Y-59514D01*
X87892Y-59528D01*
X87907Y-59542D01*
X87921Y-59571D01*
X87921Y-59600D01*
X87907Y-59628D01*
X87892Y-59642D01*
X87864Y-59657D01*
X87807Y-59671D01*
X87735Y-59671D01*
X87678Y-59657D01*
X87650Y-59642D01*
X87635Y-59628D01*
X87621Y-59600D01*
X87921Y-59371D02*
X87621Y-59371D01*
X87807Y-59342D02*
X87921Y-59257D01*
X87721Y-59257D02*
X87835Y-59371D01*
G54D17*
X87151Y-48660D02*
X87032Y-48744D01*
X87151Y-48803D02*
X86901Y-48803D01*
X86901Y-48708D01*
X86913Y-48684D01*
X86925Y-48672D01*
X86948Y-48660D01*
X86984Y-48660D01*
X87008Y-48672D01*
X87020Y-48684D01*
X87032Y-48708D01*
X87032Y-48803D01*
X87151Y-48422D02*
X87151Y-48565D01*
X87151Y-48494D02*
X86901Y-48494D01*
X86936Y-48517D01*
X86960Y-48541D01*
X86972Y-48565D01*
X87151Y-48184D02*
X87151Y-48327D01*
X87151Y-48255D02*
X86901Y-48255D01*
X86936Y-48279D01*
X86960Y-48303D01*
X86972Y-48327D01*
X88001Y-50378D02*
X88001Y-50521D01*
X88001Y-50450D02*
X87751Y-50450D01*
X87786Y-50473D01*
X87810Y-50497D01*
X87822Y-50521D01*
X88351Y-48660D02*
X88232Y-48744D01*
X88351Y-48803D02*
X88101Y-48803D01*
X88101Y-48708D01*
X88113Y-48684D01*
X88125Y-48672D01*
X88148Y-48660D01*
X88184Y-48660D01*
X88208Y-48672D01*
X88220Y-48684D01*
X88232Y-48708D01*
X88232Y-48803D01*
X88351Y-48422D02*
X88351Y-48565D01*
X88351Y-48494D02*
X88101Y-48494D01*
X88136Y-48517D01*
X88160Y-48541D01*
X88172Y-48565D01*
X88125Y-48327D02*
X88113Y-48315D01*
X88101Y-48291D01*
X88101Y-48232D01*
X88113Y-48208D01*
X88125Y-48196D01*
X88148Y-48184D01*
X88172Y-48184D01*
X88208Y-48196D01*
X88351Y-48339D01*
X88351Y-48184D01*
X89201Y-50378D02*
X89201Y-50521D01*
X89201Y-50450D02*
X88951Y-50450D01*
X88986Y-50473D01*
X89010Y-50497D01*
X89022Y-50521D01*
X89551Y-48660D02*
X89432Y-48744D01*
X89551Y-48803D02*
X89301Y-48803D01*
X89301Y-48708D01*
X89313Y-48684D01*
X89325Y-48672D01*
X89348Y-48660D01*
X89384Y-48660D01*
X89408Y-48672D01*
X89420Y-48684D01*
X89432Y-48708D01*
X89432Y-48803D01*
X89551Y-48422D02*
X89551Y-48565D01*
X89551Y-48494D02*
X89301Y-48494D01*
X89336Y-48517D01*
X89360Y-48541D01*
X89372Y-48565D01*
X89301Y-48339D02*
X89301Y-48184D01*
X89396Y-48267D01*
X89396Y-48232D01*
X89408Y-48208D01*
X89420Y-48196D01*
X89444Y-48184D01*
X89503Y-48184D01*
X89527Y-48196D01*
X89539Y-48208D01*
X89551Y-48232D01*
X89551Y-48303D01*
X89539Y-48327D01*
X89527Y-48339D01*
G54D11*
X84371Y-56700D02*
X84228Y-56800D01*
X84371Y-56871D02*
X84071Y-56871D01*
X84071Y-56757D01*
X84085Y-56728D01*
X84100Y-56714D01*
X84128Y-56700D01*
X84171Y-56700D01*
X84200Y-56714D01*
X84214Y-56728D01*
X84228Y-56757D01*
X84228Y-56871D01*
X84071Y-56600D02*
X84071Y-56400D01*
X84371Y-56528D01*
X84371Y-53785D02*
X84371Y-53957D01*
X84371Y-53871D02*
X84071Y-53871D01*
X84114Y-53899D01*
X84142Y-53928D01*
X84157Y-53957D01*
X84371Y-53657D02*
X84071Y-53657D01*
X84257Y-53628D02*
X84371Y-53542D01*
X84171Y-53542D02*
X84285Y-53657D01*
X83371Y-56700D02*
X83228Y-56800D01*
X83371Y-56871D02*
X83071Y-56871D01*
X83071Y-56757D01*
X83085Y-56728D01*
X83100Y-56714D01*
X83128Y-56700D01*
X83171Y-56700D01*
X83200Y-56714D01*
X83214Y-56728D01*
X83228Y-56757D01*
X83228Y-56871D01*
X83071Y-56442D02*
X83071Y-56500D01*
X83085Y-56528D01*
X83100Y-56542D01*
X83142Y-56571D01*
X83200Y-56585D01*
X83314Y-56585D01*
X83342Y-56571D01*
X83357Y-56557D01*
X83371Y-56528D01*
X83371Y-56471D01*
X83357Y-56442D01*
X83342Y-56428D01*
X83314Y-56414D01*
X83242Y-56414D01*
X83214Y-56428D01*
X83200Y-56442D01*
X83185Y-56471D01*
X83185Y-56528D01*
X83200Y-56557D01*
X83214Y-56571D01*
X83242Y-56585D01*
X83121Y-53878D02*
X83121Y-54049D01*
X83121Y-53964D02*
X82821Y-53964D01*
X82864Y-53992D01*
X82892Y-54021D01*
X82907Y-54049D01*
X82821Y-53607D02*
X82821Y-53749D01*
X82964Y-53764D01*
X82950Y-53749D01*
X82935Y-53721D01*
X82935Y-53649D01*
X82950Y-53621D01*
X82964Y-53607D01*
X82992Y-53592D01*
X83064Y-53592D01*
X83092Y-53607D01*
X83107Y-53621D01*
X83121Y-53649D01*
X83121Y-53721D01*
X83107Y-53749D01*
X83092Y-53764D01*
X83121Y-53464D02*
X82821Y-53464D01*
X83007Y-53435D02*
X83121Y-53350D01*
X82921Y-53350D02*
X83035Y-53464D01*
X82771Y-49471D02*
X82771Y-49714D01*
X82785Y-49742D01*
X82800Y-49757D01*
X82828Y-49771D01*
X82885Y-49771D01*
X82914Y-49757D01*
X82928Y-49742D01*
X82942Y-49714D01*
X82942Y-49471D01*
X83214Y-49571D02*
X83214Y-49771D01*
X83142Y-49457D02*
X83071Y-49671D01*
X83257Y-49671D01*
X83121Y-52721D02*
X82821Y-52721D01*
X83035Y-52621D01*
X82821Y-52521D01*
X83121Y-52521D01*
X83092Y-52207D02*
X83107Y-52221D01*
X83121Y-52264D01*
X83121Y-52292D01*
X83107Y-52335D01*
X83078Y-52364D01*
X83050Y-52378D01*
X82992Y-52392D01*
X82950Y-52392D01*
X82892Y-52378D01*
X82864Y-52364D01*
X82835Y-52335D01*
X82821Y-52292D01*
X82821Y-52264D01*
X82835Y-52221D01*
X82850Y-52207D01*
X83121Y-52078D02*
X82821Y-52078D01*
X82821Y-51964D01*
X82835Y-51935D01*
X82850Y-51921D01*
X82878Y-51907D01*
X82921Y-51907D01*
X82950Y-51921D01*
X82964Y-51935D01*
X82978Y-51964D01*
X82978Y-52078D01*
X82921Y-51649D02*
X83121Y-51649D01*
X82807Y-51721D02*
X83021Y-51792D01*
X83021Y-51607D01*
X82950Y-51449D02*
X82935Y-51478D01*
X82921Y-51492D01*
X82892Y-51507D01*
X82878Y-51507D01*
X82850Y-51492D01*
X82835Y-51478D01*
X82821Y-51449D01*
X82821Y-51392D01*
X82835Y-51364D01*
X82850Y-51349D01*
X82878Y-51335D01*
X82892Y-51335D01*
X82921Y-51349D01*
X82935Y-51364D01*
X82950Y-51392D01*
X82950Y-51449D01*
X82964Y-51478D01*
X82978Y-51492D01*
X83007Y-51507D01*
X83064Y-51507D01*
X83092Y-51492D01*
X83107Y-51478D01*
X83121Y-51449D01*
X83121Y-51392D01*
X83107Y-51364D01*
X83092Y-51349D01*
X83064Y-51335D01*
X83007Y-51335D01*
X82978Y-51349D01*
X82964Y-51364D01*
X82950Y-51392D01*
X82850Y-51221D02*
X82835Y-51207D01*
X82821Y-51178D01*
X82821Y-51107D01*
X82835Y-51078D01*
X82850Y-51064D01*
X82878Y-51050D01*
X82907Y-51050D01*
X82950Y-51064D01*
X83121Y-51235D01*
X83121Y-51050D01*
X83121Y-50764D02*
X83121Y-50935D01*
X83121Y-50850D02*
X82821Y-50850D01*
X82864Y-50878D01*
X82892Y-50907D01*
X82907Y-50935D01*
X80021Y-56292D02*
X79721Y-56292D01*
X79992Y-55978D02*
X80007Y-55992D01*
X80021Y-56035D01*
X80021Y-56064D01*
X80007Y-56107D01*
X79978Y-56135D01*
X79950Y-56149D01*
X79892Y-56164D01*
X79850Y-56164D01*
X79792Y-56149D01*
X79764Y-56135D01*
X79735Y-56107D01*
X79721Y-56064D01*
X79721Y-56035D01*
X79735Y-55992D01*
X79750Y-55978D01*
X80021Y-55692D02*
X80021Y-55864D01*
X80021Y-55778D02*
X79721Y-55778D01*
X79764Y-55807D01*
X79792Y-55835D01*
X79807Y-55864D01*
X79935Y-54592D02*
X79935Y-54449D01*
X80021Y-54621D02*
X79721Y-54521D01*
X80021Y-54421D01*
X79721Y-54364D02*
X79721Y-54192D01*
X80021Y-54278D02*
X79721Y-54278D01*
X79721Y-54135D02*
X79721Y-53964D01*
X80021Y-54049D02*
X79721Y-54049D01*
X80021Y-53864D02*
X79721Y-53864D01*
X80021Y-53721D02*
X79721Y-53721D01*
X80021Y-53550D01*
X79721Y-53550D01*
X79878Y-53350D02*
X80021Y-53350D01*
X79721Y-53450D02*
X79878Y-53350D01*
X79721Y-53250D01*
X79850Y-53107D02*
X79835Y-53135D01*
X79821Y-53149D01*
X79792Y-53164D01*
X79778Y-53164D01*
X79750Y-53149D01*
X79735Y-53135D01*
X79721Y-53107D01*
X79721Y-53049D01*
X79735Y-53021D01*
X79750Y-53007D01*
X79778Y-52992D01*
X79792Y-52992D01*
X79821Y-53007D01*
X79835Y-53021D01*
X79850Y-53049D01*
X79850Y-53107D01*
X79864Y-53135D01*
X79878Y-53149D01*
X79907Y-53164D01*
X79964Y-53164D01*
X79992Y-53149D01*
X80007Y-53135D01*
X80021Y-53107D01*
X80021Y-53049D01*
X80007Y-53021D01*
X79992Y-53007D01*
X79964Y-52992D01*
X79907Y-52992D01*
X79878Y-53007D01*
X79864Y-53021D01*
X79850Y-53049D01*
X79721Y-52721D02*
X79721Y-52864D01*
X79864Y-52878D01*
X79850Y-52864D01*
X79835Y-52835D01*
X79835Y-52764D01*
X79850Y-52735D01*
X79864Y-52721D01*
X79892Y-52707D01*
X79964Y-52707D01*
X79992Y-52721D01*
X80007Y-52735D01*
X80021Y-52764D01*
X80021Y-52835D01*
X80007Y-52864D01*
X79992Y-52878D01*
X86071Y-57228D02*
X86314Y-57228D01*
X86342Y-57214D01*
X86357Y-57200D01*
X86371Y-57171D01*
X86371Y-57114D01*
X86357Y-57085D01*
X86342Y-57071D01*
X86314Y-57057D01*
X86071Y-57057D01*
X86100Y-56928D02*
X86085Y-56914D01*
X86071Y-56885D01*
X86071Y-56814D01*
X86085Y-56785D01*
X86100Y-56771D01*
X86128Y-56757D01*
X86157Y-56757D01*
X86200Y-56771D01*
X86371Y-56942D01*
X86371Y-56757D01*
X87492Y-57121D02*
X87350Y-57121D01*
X87350Y-56821D01*
X87592Y-57121D02*
X87592Y-56821D01*
X87692Y-57035D01*
X87792Y-56821D01*
X87792Y-57121D01*
X87907Y-56821D02*
X88092Y-56821D01*
X87992Y-56935D01*
X88035Y-56935D01*
X88064Y-56950D01*
X88078Y-56964D01*
X88092Y-56992D01*
X88092Y-57064D01*
X88078Y-57092D01*
X88064Y-57107D01*
X88035Y-57121D01*
X87950Y-57121D01*
X87921Y-57107D01*
X87907Y-57092D01*
X88364Y-56821D02*
X88221Y-56821D01*
X88207Y-56964D01*
X88221Y-56950D01*
X88250Y-56935D01*
X88321Y-56935D01*
X88350Y-56950D01*
X88364Y-56964D01*
X88378Y-56992D01*
X88378Y-57064D01*
X88364Y-57092D01*
X88350Y-57107D01*
X88321Y-57121D01*
X88250Y-57121D01*
X88221Y-57107D01*
X88207Y-57092D01*
X88550Y-56950D02*
X88521Y-56935D01*
X88507Y-56921D01*
X88492Y-56892D01*
X88492Y-56878D01*
X88507Y-56850D01*
X88521Y-56835D01*
X88550Y-56821D01*
X88607Y-56821D01*
X88635Y-56835D01*
X88650Y-56850D01*
X88664Y-56878D01*
X88664Y-56892D01*
X88650Y-56921D01*
X88635Y-56935D01*
X88607Y-56950D01*
X88550Y-56950D01*
X88521Y-56964D01*
X88507Y-56978D01*
X88492Y-57007D01*
X88492Y-57064D01*
X88507Y-57092D01*
X88521Y-57107D01*
X88550Y-57121D01*
X88607Y-57121D01*
X88635Y-57107D01*
X88650Y-57092D01*
X88664Y-57064D01*
X88664Y-57007D01*
X88650Y-56978D01*
X88635Y-56964D01*
X88607Y-56950D01*
M02*
