G04 (created by PCBNEW (2013-07-07 BZR 4022)-stable) date 6/17/2014 7:27:19 PM*
%MOIN*%
G04 Gerber Fmt 3.4, Leading zero omitted, Abs format*
%FSLAX34Y34*%
G01*
G70*
G90*
G04 APERTURE LIST*
%ADD10C,0.00393701*%
%ADD11C,0.23622*%
%ADD12R,0.06X0.06*%
%ADD13C,0.06*%
%ADD14C,0.055*%
%ADD15O,0.0885X0.059*%
%ADD16R,0.069X0.1035*%
%ADD17O,0.069X0.1035*%
%ADD18O,0.059X0.0885*%
%ADD19C,0.059*%
%ADD20R,0.059X0.0885*%
%ADD21R,0.0885X0.059*%
%ADD22C,0.04*%
%ADD23C,0.01*%
G04 APERTURE END LIST*
G54D10*
G54D11*
X81050Y-83150D03*
X79850Y-86850D03*
G54D12*
X79250Y-57500D03*
G54D13*
X79250Y-56500D03*
X79250Y-55500D03*
X79250Y-54500D03*
G54D12*
X85500Y-47500D03*
G54D13*
X86500Y-47500D03*
X87500Y-47500D03*
G54D12*
X85500Y-62000D03*
G54D13*
X84500Y-62000D03*
G54D14*
X82000Y-55750D03*
X82000Y-53750D03*
X88542Y-59457D03*
X89957Y-58042D03*
G54D15*
X91102Y-56000D03*
X91897Y-56500D03*
X91102Y-57000D03*
G54D16*
X86250Y-51922D03*
G54D17*
X87250Y-51922D03*
X88250Y-51922D03*
G54D16*
X83750Y-57577D03*
G54D17*
X82750Y-57577D03*
X81750Y-57577D03*
G54D18*
X86000Y-60897D03*
X86000Y-59602D03*
X84750Y-60897D03*
X84750Y-59602D03*
X87000Y-59602D03*
X87000Y-60897D03*
X87600Y-49947D03*
X87600Y-48652D03*
X88800Y-49947D03*
X88800Y-48652D03*
X90000Y-49947D03*
X90000Y-48652D03*
X84250Y-55897D03*
X84250Y-54602D03*
X83000Y-54602D03*
X83000Y-55897D03*
G54D19*
X90750Y-51750D02*
X90541Y-51958D01*
X88130Y-54369D02*
X87921Y-54578D01*
X88500Y-61000D02*
X88708Y-60791D01*
X91119Y-58380D02*
X91328Y-58171D01*
X92250Y-54250D02*
X92041Y-54458D01*
X89630Y-56869D02*
X89421Y-57078D01*
X87250Y-53750D02*
X87458Y-53541D01*
X89869Y-51130D02*
X90078Y-50921D01*
G54D18*
X85250Y-57102D03*
X85250Y-53397D03*
G54D11*
X69600Y-82950D03*
X73900Y-82900D03*
G54D20*
X84250Y-48397D03*
G54D18*
X84250Y-47102D03*
G54D21*
X81602Y-59250D03*
G54D15*
X82897Y-59250D03*
G54D21*
X81647Y-49500D03*
G54D15*
X81647Y-50500D03*
X81647Y-51500D03*
X81647Y-52500D03*
X84352Y-52500D03*
X84352Y-51500D03*
X84352Y-49500D03*
X84352Y-50500D03*
G54D21*
X80602Y-56000D03*
G54D15*
X80602Y-55000D03*
X80602Y-54000D03*
X80602Y-53000D03*
X77897Y-53000D03*
X77897Y-54000D03*
X77897Y-56000D03*
X77897Y-55000D03*
G54D20*
X86000Y-58352D03*
G54D18*
X87000Y-58352D03*
X88000Y-58352D03*
X89000Y-58352D03*
X89000Y-55647D03*
X88000Y-55647D03*
X86000Y-55647D03*
X87000Y-55647D03*
G54D22*
X87500Y-47500D02*
X87600Y-47600D01*
X87600Y-47600D02*
X87600Y-48800D01*
X90000Y-48800D02*
X88800Y-48800D01*
X87600Y-48800D02*
X88800Y-48800D01*
G54D23*
X79250Y-57500D02*
X80750Y-56000D01*
X85500Y-62000D02*
X87000Y-62000D01*
X87500Y-62000D02*
X88500Y-61000D01*
X87000Y-62000D02*
X87500Y-62000D01*
X83000Y-55750D02*
X84250Y-55750D01*
X82000Y-55750D02*
X83000Y-55750D01*
X78000Y-55000D02*
X77750Y-55000D01*
X78750Y-54250D02*
X78000Y-55000D01*
X81750Y-51500D02*
X82500Y-52250D01*
X82500Y-52250D02*
X82500Y-52750D01*
X82500Y-52750D02*
X82250Y-53000D01*
X82250Y-53000D02*
X82150Y-53100D01*
X82150Y-53100D02*
X81650Y-53100D01*
X81650Y-53100D02*
X81450Y-53100D01*
X81450Y-53100D02*
X81050Y-53500D01*
X81050Y-53500D02*
X80000Y-53500D01*
X80000Y-53500D02*
X79850Y-53500D01*
X81750Y-51500D02*
X81500Y-51500D01*
X79850Y-53500D02*
X79000Y-53500D01*
X78750Y-53750D02*
X78750Y-54250D01*
X79000Y-53500D02*
X78750Y-53750D01*
X80250Y-52250D02*
X79250Y-52250D01*
X78000Y-54000D02*
X77750Y-54000D01*
X78750Y-53250D02*
X78000Y-54000D01*
X78750Y-52750D02*
X78750Y-53250D01*
X79250Y-52250D02*
X78750Y-52750D01*
X81250Y-52250D02*
X80250Y-52250D01*
X81250Y-52250D02*
X81500Y-52500D01*
X80400Y-51600D02*
X80200Y-51800D01*
X81300Y-50500D02*
X80600Y-51200D01*
X80600Y-51200D02*
X80600Y-51400D01*
X80600Y-51400D02*
X80400Y-51600D01*
X81500Y-50500D02*
X81300Y-50500D01*
X78950Y-51800D02*
X77750Y-53000D01*
X80200Y-51800D02*
X78950Y-51800D01*
X87000Y-55500D02*
X87000Y-56000D01*
X86000Y-56500D02*
X85250Y-57250D01*
X86500Y-56500D02*
X86000Y-56500D01*
X87000Y-56000D02*
X86500Y-56500D01*
X85250Y-53250D02*
X85500Y-53250D01*
X86250Y-52500D02*
X86250Y-51750D01*
X85500Y-53250D02*
X86250Y-52500D01*
X90078Y-50921D02*
X88800Y-50921D01*
G54D22*
X88250Y-51750D02*
X88800Y-51200D01*
X88800Y-51200D02*
X88800Y-50921D01*
X88800Y-50921D02*
X88800Y-49800D01*
X87600Y-49800D02*
X88800Y-49800D01*
X90000Y-49800D02*
X88800Y-49800D01*
G54D23*
X90078Y-50921D02*
X90000Y-50843D01*
X88000Y-58500D02*
X88000Y-58914D01*
X88000Y-58914D02*
X88542Y-59457D01*
X88500Y-57250D02*
X88000Y-57750D01*
X88000Y-57750D02*
X88000Y-58500D01*
X89421Y-57078D02*
X88671Y-57078D01*
X88671Y-57078D02*
X88500Y-57250D01*
X84500Y-49500D02*
X84000Y-49500D01*
X83000Y-50500D02*
X83000Y-54750D01*
X84000Y-49500D02*
X83000Y-50500D01*
X87250Y-53750D02*
X87921Y-54421D01*
X87921Y-54421D02*
X87921Y-54578D01*
X87921Y-54578D02*
X88000Y-54656D01*
X88000Y-54656D02*
X88000Y-55500D01*
X87000Y-59750D02*
X87000Y-58500D01*
X84750Y-60750D02*
X86000Y-60750D01*
X87000Y-60750D02*
X86000Y-60750D01*
X86000Y-59750D02*
X86000Y-58500D01*
X91750Y-56500D02*
X92250Y-56000D01*
X92250Y-56000D02*
X92250Y-54250D01*
X91328Y-58171D02*
X92000Y-57500D01*
X92000Y-56750D02*
X91750Y-56500D01*
X92000Y-57500D02*
X92000Y-56750D01*
X79250Y-54500D02*
X79750Y-54000D01*
X79750Y-54000D02*
X80750Y-54000D01*
G54D22*
X84250Y-48250D02*
X84750Y-48250D01*
X84750Y-48250D02*
X85500Y-47500D01*
X85500Y-47500D02*
X85500Y-47750D01*
X86500Y-48750D02*
X86500Y-50250D01*
X85500Y-47750D02*
X86500Y-48750D01*
G54D23*
X87250Y-51750D02*
X87250Y-52500D01*
X83750Y-57500D02*
X83750Y-57750D01*
X85250Y-56000D02*
X83750Y-57500D01*
X85250Y-54750D02*
X85250Y-56000D01*
X86000Y-54000D02*
X85250Y-54750D01*
X86000Y-53750D02*
X86000Y-54000D01*
X87250Y-52500D02*
X86000Y-53750D01*
G54D22*
X87250Y-51000D02*
X87250Y-51750D01*
X86500Y-50250D02*
X87250Y-51000D01*
G54D10*
G36*
X86800Y-51256D02*
X86736Y-51193D01*
X86644Y-51155D01*
X86545Y-51154D01*
X85855Y-51154D01*
X85763Y-51192D01*
X85693Y-51263D01*
X85655Y-51355D01*
X85654Y-51454D01*
X85654Y-52489D01*
X85692Y-52581D01*
X85718Y-52607D01*
X85539Y-52786D01*
X85458Y-52732D01*
X85250Y-52691D01*
X85041Y-52732D01*
X84968Y-52781D01*
X85017Y-52708D01*
X85058Y-52500D01*
X85017Y-52291D01*
X84898Y-52114D01*
X84722Y-51996D01*
X84717Y-51995D01*
X84754Y-51984D01*
X84920Y-51850D01*
X85022Y-51662D01*
X85028Y-51634D01*
X84979Y-51550D01*
X84402Y-51550D01*
X84402Y-51557D01*
X84302Y-51557D01*
X84302Y-51550D01*
X83725Y-51550D01*
X83676Y-51634D01*
X83682Y-51662D01*
X83784Y-51850D01*
X83950Y-51984D01*
X83987Y-51995D01*
X83982Y-51996D01*
X83806Y-52114D01*
X83687Y-52291D01*
X83646Y-52500D01*
X83687Y-52708D01*
X83806Y-52885D01*
X83982Y-53003D01*
X84191Y-53045D01*
X84513Y-53045D01*
X84722Y-53003D01*
X84795Y-52954D01*
X84746Y-53027D01*
X84705Y-53236D01*
X84705Y-53558D01*
X84746Y-53767D01*
X84864Y-53943D01*
X85041Y-54062D01*
X85250Y-54103D01*
X85458Y-54062D01*
X85624Y-53951D01*
X85037Y-54537D01*
X84972Y-54635D01*
X84950Y-54750D01*
X84950Y-55875D01*
X84795Y-56030D01*
X84795Y-55736D01*
X84753Y-55527D01*
X84635Y-55351D01*
X84484Y-55250D01*
X84635Y-55148D01*
X84753Y-54972D01*
X84795Y-54763D01*
X84795Y-54441D01*
X84753Y-54232D01*
X84635Y-54056D01*
X84458Y-53937D01*
X84250Y-53896D01*
X84041Y-53937D01*
X83864Y-54056D01*
X83746Y-54232D01*
X83705Y-54441D01*
X83705Y-54763D01*
X83746Y-54972D01*
X83864Y-55148D01*
X84015Y-55250D01*
X83864Y-55351D01*
X83798Y-55450D01*
X83451Y-55450D01*
X83385Y-55351D01*
X83234Y-55250D01*
X83385Y-55148D01*
X83503Y-54972D01*
X83545Y-54763D01*
X83545Y-54441D01*
X83503Y-54232D01*
X83385Y-54056D01*
X83300Y-53999D01*
X83300Y-50624D01*
X83798Y-50125D01*
X83687Y-50291D01*
X83646Y-50500D01*
X83687Y-50708D01*
X83806Y-50885D01*
X83982Y-51003D01*
X83987Y-51004D01*
X83950Y-51015D01*
X83784Y-51149D01*
X83682Y-51337D01*
X83676Y-51365D01*
X83725Y-51450D01*
X84302Y-51450D01*
X84302Y-51442D01*
X84402Y-51442D01*
X84402Y-51450D01*
X84979Y-51450D01*
X85028Y-51365D01*
X85022Y-51337D01*
X84920Y-51149D01*
X84754Y-51015D01*
X84717Y-51004D01*
X84722Y-51003D01*
X84898Y-50885D01*
X85017Y-50708D01*
X85058Y-50500D01*
X85017Y-50291D01*
X84898Y-50114D01*
X84727Y-50000D01*
X84898Y-49885D01*
X85017Y-49708D01*
X85058Y-49500D01*
X85017Y-49291D01*
X84898Y-49114D01*
X84734Y-49004D01*
X84756Y-48981D01*
X84794Y-48889D01*
X84795Y-48790D01*
X84795Y-48691D01*
X84922Y-48665D01*
X85068Y-48568D01*
X85375Y-48261D01*
X86050Y-48936D01*
X86050Y-50250D01*
X86084Y-50422D01*
X86181Y-50568D01*
X86800Y-51186D01*
X86800Y-51256D01*
X86800Y-51256D01*
G37*
G54D23*
X86800Y-51256D02*
X86736Y-51193D01*
X86644Y-51155D01*
X86545Y-51154D01*
X85855Y-51154D01*
X85763Y-51192D01*
X85693Y-51263D01*
X85655Y-51355D01*
X85654Y-51454D01*
X85654Y-52489D01*
X85692Y-52581D01*
X85718Y-52607D01*
X85539Y-52786D01*
X85458Y-52732D01*
X85250Y-52691D01*
X85041Y-52732D01*
X84968Y-52781D01*
X85017Y-52708D01*
X85058Y-52500D01*
X85017Y-52291D01*
X84898Y-52114D01*
X84722Y-51996D01*
X84717Y-51995D01*
X84754Y-51984D01*
X84920Y-51850D01*
X85022Y-51662D01*
X85028Y-51634D01*
X84979Y-51550D01*
X84402Y-51550D01*
X84402Y-51557D01*
X84302Y-51557D01*
X84302Y-51550D01*
X83725Y-51550D01*
X83676Y-51634D01*
X83682Y-51662D01*
X83784Y-51850D01*
X83950Y-51984D01*
X83987Y-51995D01*
X83982Y-51996D01*
X83806Y-52114D01*
X83687Y-52291D01*
X83646Y-52500D01*
X83687Y-52708D01*
X83806Y-52885D01*
X83982Y-53003D01*
X84191Y-53045D01*
X84513Y-53045D01*
X84722Y-53003D01*
X84795Y-52954D01*
X84746Y-53027D01*
X84705Y-53236D01*
X84705Y-53558D01*
X84746Y-53767D01*
X84864Y-53943D01*
X85041Y-54062D01*
X85250Y-54103D01*
X85458Y-54062D01*
X85624Y-53951D01*
X85037Y-54537D01*
X84972Y-54635D01*
X84950Y-54750D01*
X84950Y-55875D01*
X84795Y-56030D01*
X84795Y-55736D01*
X84753Y-55527D01*
X84635Y-55351D01*
X84484Y-55250D01*
X84635Y-55148D01*
X84753Y-54972D01*
X84795Y-54763D01*
X84795Y-54441D01*
X84753Y-54232D01*
X84635Y-54056D01*
X84458Y-53937D01*
X84250Y-53896D01*
X84041Y-53937D01*
X83864Y-54056D01*
X83746Y-54232D01*
X83705Y-54441D01*
X83705Y-54763D01*
X83746Y-54972D01*
X83864Y-55148D01*
X84015Y-55250D01*
X83864Y-55351D01*
X83798Y-55450D01*
X83451Y-55450D01*
X83385Y-55351D01*
X83234Y-55250D01*
X83385Y-55148D01*
X83503Y-54972D01*
X83545Y-54763D01*
X83545Y-54441D01*
X83503Y-54232D01*
X83385Y-54056D01*
X83300Y-53999D01*
X83300Y-50624D01*
X83798Y-50125D01*
X83687Y-50291D01*
X83646Y-50500D01*
X83687Y-50708D01*
X83806Y-50885D01*
X83982Y-51003D01*
X83987Y-51004D01*
X83950Y-51015D01*
X83784Y-51149D01*
X83682Y-51337D01*
X83676Y-51365D01*
X83725Y-51450D01*
X84302Y-51450D01*
X84302Y-51442D01*
X84402Y-51442D01*
X84402Y-51450D01*
X84979Y-51450D01*
X85028Y-51365D01*
X85022Y-51337D01*
X84920Y-51149D01*
X84754Y-51015D01*
X84717Y-51004D01*
X84722Y-51003D01*
X84898Y-50885D01*
X85017Y-50708D01*
X85058Y-50500D01*
X85017Y-50291D01*
X84898Y-50114D01*
X84727Y-50000D01*
X84898Y-49885D01*
X85017Y-49708D01*
X85058Y-49500D01*
X85017Y-49291D01*
X84898Y-49114D01*
X84734Y-49004D01*
X84756Y-48981D01*
X84794Y-48889D01*
X84795Y-48790D01*
X84795Y-48691D01*
X84922Y-48665D01*
X85068Y-48568D01*
X85375Y-48261D01*
X86050Y-48936D01*
X86050Y-50250D01*
X86084Y-50422D01*
X86181Y-50568D01*
X86800Y-51186D01*
X86800Y-51256D01*
G54D10*
G36*
X94218Y-54500D02*
X93515Y-58018D01*
X92804Y-59083D01*
X92804Y-54240D01*
X92763Y-54031D01*
X92644Y-53855D01*
X92468Y-53736D01*
X92259Y-53695D01*
X92051Y-53736D01*
X91874Y-53855D01*
X91646Y-54082D01*
X91528Y-54259D01*
X91486Y-54468D01*
X91528Y-54676D01*
X91646Y-54853D01*
X91823Y-54971D01*
X91950Y-54996D01*
X91950Y-55875D01*
X91870Y-55955D01*
X91795Y-55955D01*
X91795Y-55949D01*
X91778Y-55949D01*
X91729Y-55949D01*
X91778Y-55865D01*
X91772Y-55837D01*
X91670Y-55649D01*
X91504Y-55515D01*
X91300Y-55455D01*
X91295Y-55455D01*
X91295Y-51700D01*
X91234Y-51495D01*
X91218Y-51471D01*
X91124Y-51446D01*
X91053Y-51516D01*
X91053Y-51375D01*
X91028Y-51281D01*
X91004Y-51265D01*
X90799Y-51205D01*
X90587Y-51227D01*
X90481Y-51284D01*
X90591Y-51120D01*
X90633Y-50911D01*
X90591Y-50703D01*
X90473Y-50526D01*
X90397Y-50475D01*
X90503Y-50317D01*
X90545Y-50108D01*
X90545Y-49786D01*
X90503Y-49577D01*
X90385Y-49401D01*
X90234Y-49300D01*
X90385Y-49198D01*
X90503Y-49022D01*
X90545Y-48813D01*
X90545Y-48491D01*
X90503Y-48282D01*
X90385Y-48106D01*
X90208Y-47987D01*
X90000Y-47946D01*
X89791Y-47987D01*
X89614Y-48106D01*
X89496Y-48282D01*
X89483Y-48350D01*
X89316Y-48350D01*
X89303Y-48282D01*
X89185Y-48106D01*
X89008Y-47987D01*
X88800Y-47946D01*
X88591Y-47987D01*
X88414Y-48106D01*
X88296Y-48282D01*
X88283Y-48350D01*
X88116Y-48350D01*
X88103Y-48282D01*
X88050Y-48202D01*
X88050Y-47600D01*
X88049Y-47599D01*
X88050Y-47391D01*
X87966Y-47188D01*
X87811Y-47034D01*
X87609Y-46950D01*
X87391Y-46949D01*
X87188Y-47033D01*
X87034Y-47188D01*
X87000Y-47269D01*
X86966Y-47188D01*
X86811Y-47034D01*
X86609Y-46950D01*
X86391Y-46949D01*
X86188Y-47033D01*
X86050Y-47172D01*
X86050Y-47150D01*
X86012Y-47058D01*
X85941Y-46988D01*
X85849Y-46950D01*
X85750Y-46949D01*
X85150Y-46949D01*
X85058Y-46987D01*
X84988Y-47058D01*
X84950Y-47150D01*
X84949Y-47249D01*
X84949Y-47413D01*
X84639Y-47723D01*
X84594Y-47705D01*
X84551Y-47705D01*
X84635Y-47648D01*
X84753Y-47472D01*
X84795Y-47263D01*
X84795Y-46941D01*
X84753Y-46732D01*
X84635Y-46556D01*
X84458Y-46437D01*
X84250Y-46396D01*
X84041Y-46437D01*
X83864Y-46556D01*
X83746Y-46732D01*
X83705Y-46941D01*
X83705Y-47263D01*
X83746Y-47472D01*
X83864Y-47648D01*
X83948Y-47704D01*
X83905Y-47704D01*
X83813Y-47742D01*
X83743Y-47813D01*
X83705Y-47905D01*
X83704Y-48004D01*
X83704Y-48889D01*
X83742Y-48981D01*
X83813Y-49051D01*
X83866Y-49074D01*
X83806Y-49114D01*
X83687Y-49291D01*
X83663Y-49411D01*
X82787Y-50287D01*
X82722Y-50385D01*
X82700Y-50500D01*
X82700Y-52025D01*
X82323Y-51649D01*
X82353Y-51500D01*
X82312Y-51291D01*
X82193Y-51114D01*
X82022Y-51000D01*
X82193Y-50885D01*
X82312Y-50708D01*
X82353Y-50500D01*
X82312Y-50291D01*
X82193Y-50114D01*
X82089Y-50045D01*
X82139Y-50044D01*
X82231Y-50006D01*
X82302Y-49936D01*
X82340Y-49844D01*
X82340Y-49155D01*
X82302Y-49063D01*
X82231Y-48993D01*
X82139Y-48955D01*
X82040Y-48954D01*
X81760Y-48955D01*
X81697Y-49017D01*
X81697Y-49450D01*
X82277Y-49450D01*
X82340Y-49387D01*
X82340Y-49155D01*
X82340Y-49844D01*
X82340Y-49612D01*
X82277Y-49550D01*
X81697Y-49550D01*
X81697Y-49557D01*
X81597Y-49557D01*
X81597Y-49550D01*
X81597Y-49450D01*
X81597Y-49017D01*
X81535Y-48955D01*
X81254Y-48954D01*
X81155Y-48955D01*
X81063Y-48993D01*
X80992Y-49063D01*
X80954Y-49155D01*
X80955Y-49387D01*
X81017Y-49450D01*
X81597Y-49450D01*
X81597Y-49550D01*
X81017Y-49550D01*
X80955Y-49612D01*
X80954Y-49844D01*
X80992Y-49936D01*
X81063Y-50006D01*
X81155Y-50044D01*
X81205Y-50045D01*
X81101Y-50114D01*
X80982Y-50291D01*
X80957Y-50417D01*
X80387Y-50987D01*
X80322Y-51085D01*
X80300Y-51200D01*
X80300Y-51275D01*
X80187Y-51387D01*
X80187Y-51387D01*
X80075Y-51500D01*
X78950Y-51500D01*
X78835Y-51522D01*
X78737Y-51587D01*
X77870Y-52455D01*
X77736Y-52455D01*
X77527Y-52496D01*
X77351Y-52614D01*
X77232Y-52791D01*
X77191Y-53000D01*
X77232Y-53208D01*
X77351Y-53385D01*
X77522Y-53500D01*
X77351Y-53614D01*
X77232Y-53791D01*
X77191Y-54000D01*
X77232Y-54208D01*
X77351Y-54385D01*
X77522Y-54500D01*
X77351Y-54614D01*
X77232Y-54791D01*
X77191Y-55000D01*
X77232Y-55208D01*
X77351Y-55385D01*
X77527Y-55503D01*
X77532Y-55504D01*
X77495Y-55515D01*
X77329Y-55649D01*
X77227Y-55837D01*
X77221Y-55865D01*
X77270Y-55950D01*
X77847Y-55950D01*
X77847Y-55942D01*
X77947Y-55942D01*
X77947Y-55950D01*
X78524Y-55950D01*
X78573Y-55865D01*
X78567Y-55837D01*
X78465Y-55649D01*
X78299Y-55515D01*
X78262Y-55504D01*
X78267Y-55503D01*
X78443Y-55385D01*
X78562Y-55208D01*
X78603Y-55000D01*
X78573Y-54850D01*
X78733Y-54690D01*
X78783Y-54811D01*
X78938Y-54965D01*
X79019Y-54999D01*
X78938Y-55033D01*
X78784Y-55188D01*
X78700Y-55390D01*
X78699Y-55608D01*
X78783Y-55811D01*
X78938Y-55965D01*
X79019Y-55999D01*
X78938Y-56033D01*
X78784Y-56188D01*
X78700Y-56390D01*
X78699Y-56608D01*
X78783Y-56811D01*
X78922Y-56949D01*
X78900Y-56949D01*
X78808Y-56987D01*
X78738Y-57058D01*
X78700Y-57150D01*
X78699Y-57249D01*
X78699Y-57849D01*
X78737Y-57941D01*
X78808Y-58011D01*
X78900Y-58049D01*
X78999Y-58050D01*
X79599Y-58050D01*
X79691Y-58012D01*
X79761Y-57941D01*
X79799Y-57849D01*
X79800Y-57750D01*
X79800Y-57374D01*
X80629Y-56545D01*
X81094Y-56545D01*
X81186Y-56507D01*
X81256Y-56436D01*
X81294Y-56344D01*
X81295Y-56245D01*
X81295Y-55655D01*
X81257Y-55563D01*
X81186Y-55493D01*
X81094Y-55455D01*
X81044Y-55454D01*
X81148Y-55385D01*
X81267Y-55208D01*
X81308Y-55000D01*
X81267Y-54791D01*
X81148Y-54614D01*
X80977Y-54500D01*
X81148Y-54385D01*
X81267Y-54208D01*
X81308Y-54000D01*
X81267Y-53791D01*
X81228Y-53734D01*
X81262Y-53712D01*
X81574Y-53400D01*
X81607Y-53400D01*
X81555Y-53452D01*
X81475Y-53645D01*
X81474Y-53853D01*
X81554Y-54047D01*
X81702Y-54194D01*
X81895Y-54274D01*
X82103Y-54275D01*
X82297Y-54195D01*
X82444Y-54047D01*
X82524Y-53854D01*
X82525Y-53646D01*
X82445Y-53453D01*
X82327Y-53335D01*
X82362Y-53312D01*
X82462Y-53212D01*
X82462Y-53212D01*
X82462Y-53212D01*
X82700Y-52974D01*
X82700Y-53999D01*
X82614Y-54056D01*
X82496Y-54232D01*
X82455Y-54441D01*
X82455Y-54763D01*
X82496Y-54972D01*
X82614Y-55148D01*
X82765Y-55250D01*
X82614Y-55351D01*
X82548Y-55450D01*
X82442Y-55450D01*
X82297Y-55305D01*
X82104Y-55225D01*
X81896Y-55224D01*
X81703Y-55304D01*
X81555Y-55452D01*
X81475Y-55645D01*
X81474Y-55853D01*
X81554Y-56047D01*
X81702Y-56194D01*
X81895Y-56274D01*
X82103Y-56275D01*
X82297Y-56195D01*
X82442Y-56050D01*
X82455Y-56050D01*
X82455Y-56058D01*
X82496Y-56267D01*
X82614Y-56443D01*
X82791Y-56562D01*
X83000Y-56603D01*
X83208Y-56562D01*
X83385Y-56443D01*
X83503Y-56267D01*
X83545Y-56058D01*
X83545Y-56050D01*
X83705Y-56050D01*
X83705Y-56058D01*
X83746Y-56267D01*
X83864Y-56443D01*
X84041Y-56562D01*
X84226Y-56598D01*
X84015Y-56809D01*
X83355Y-56809D01*
X83263Y-56847D01*
X83193Y-56918D01*
X83171Y-56970D01*
X83170Y-56969D01*
X82977Y-56840D01*
X82750Y-56794D01*
X82522Y-56840D01*
X82329Y-56969D01*
X82248Y-57090D01*
X82135Y-56948D01*
X81931Y-56836D01*
X81892Y-56827D01*
X81800Y-56874D01*
X81800Y-57527D01*
X81807Y-57527D01*
X81807Y-57627D01*
X81800Y-57627D01*
X81800Y-58280D01*
X81892Y-58327D01*
X81931Y-58318D01*
X82135Y-58206D01*
X82248Y-58064D01*
X82329Y-58185D01*
X82522Y-58314D01*
X82750Y-58360D01*
X82977Y-58314D01*
X83170Y-58185D01*
X83171Y-58184D01*
X83192Y-58236D01*
X83263Y-58306D01*
X83355Y-58344D01*
X83454Y-58345D01*
X84144Y-58345D01*
X84236Y-58307D01*
X84306Y-58236D01*
X84344Y-58144D01*
X84345Y-58045D01*
X84345Y-57329D01*
X84705Y-56969D01*
X84705Y-57263D01*
X84746Y-57472D01*
X84864Y-57648D01*
X85041Y-57767D01*
X85250Y-57808D01*
X85458Y-57767D01*
X85635Y-57648D01*
X85753Y-57472D01*
X85795Y-57263D01*
X85795Y-57129D01*
X86124Y-56800D01*
X86500Y-56800D01*
X86500Y-56799D01*
X86614Y-56777D01*
X86614Y-56777D01*
X86712Y-56712D01*
X87088Y-56336D01*
X87208Y-56312D01*
X87385Y-56193D01*
X87500Y-56022D01*
X87614Y-56193D01*
X87791Y-56312D01*
X88000Y-56353D01*
X88208Y-56312D01*
X88385Y-56193D01*
X88500Y-56022D01*
X88614Y-56193D01*
X88791Y-56312D01*
X89000Y-56353D01*
X89208Y-56312D01*
X89385Y-56193D01*
X89503Y-56017D01*
X89545Y-55808D01*
X89545Y-55486D01*
X89503Y-55277D01*
X89385Y-55101D01*
X89208Y-54982D01*
X89000Y-54941D01*
X88791Y-54982D01*
X88614Y-55101D01*
X88500Y-55272D01*
X88385Y-55101D01*
X88300Y-55044D01*
X88300Y-54970D01*
X88525Y-54745D01*
X88643Y-54568D01*
X88684Y-54360D01*
X88643Y-54151D01*
X88525Y-53974D01*
X88348Y-53856D01*
X88139Y-53815D01*
X87931Y-53856D01*
X87863Y-53901D01*
X87971Y-53740D01*
X88013Y-53531D01*
X87971Y-53323D01*
X87853Y-53146D01*
X87676Y-53028D01*
X87468Y-52986D01*
X87259Y-53028D01*
X87082Y-53146D01*
X86855Y-53374D01*
X86736Y-53551D01*
X86695Y-53759D01*
X86736Y-53968D01*
X86855Y-54144D01*
X87031Y-54263D01*
X87240Y-54304D01*
X87357Y-54281D01*
X87427Y-54351D01*
X87408Y-54379D01*
X87366Y-54588D01*
X87408Y-54796D01*
X87526Y-54973D01*
X87666Y-55066D01*
X87614Y-55101D01*
X87500Y-55272D01*
X87385Y-55101D01*
X87208Y-54982D01*
X87000Y-54941D01*
X86791Y-54982D01*
X86614Y-55101D01*
X86496Y-55277D01*
X86495Y-55282D01*
X86484Y-55245D01*
X86350Y-55079D01*
X86162Y-54977D01*
X86134Y-54971D01*
X86050Y-55020D01*
X86050Y-55597D01*
X86057Y-55597D01*
X86057Y-55697D01*
X86050Y-55697D01*
X86050Y-55705D01*
X85950Y-55705D01*
X85950Y-55697D01*
X85942Y-55697D01*
X85942Y-55597D01*
X85950Y-55597D01*
X85950Y-55020D01*
X85865Y-54971D01*
X85837Y-54977D01*
X85649Y-55079D01*
X85550Y-55202D01*
X85550Y-54874D01*
X86212Y-54212D01*
X86212Y-54212D01*
X86277Y-54114D01*
X86299Y-54000D01*
X86300Y-54000D01*
X86300Y-53874D01*
X87462Y-52712D01*
X87512Y-52636D01*
X87670Y-52530D01*
X87749Y-52412D01*
X87829Y-52530D01*
X88022Y-52659D01*
X88250Y-52705D01*
X88477Y-52659D01*
X88670Y-52530D01*
X88799Y-52337D01*
X88845Y-52110D01*
X88845Y-51791D01*
X89118Y-51518D01*
X89215Y-51372D01*
X89245Y-51221D01*
X89331Y-51221D01*
X89356Y-51348D01*
X89474Y-51525D01*
X89651Y-51643D01*
X89860Y-51684D01*
X90068Y-51643D01*
X90120Y-51608D01*
X90018Y-51796D01*
X89996Y-52008D01*
X90057Y-52213D01*
X90072Y-52237D01*
X90166Y-52262D01*
X90574Y-51854D01*
X90569Y-51848D01*
X90640Y-51778D01*
X90645Y-51783D01*
X91053Y-51375D01*
X91053Y-51516D01*
X90716Y-51854D01*
X91066Y-52204D01*
X91170Y-52100D01*
X91272Y-51912D01*
X91295Y-51700D01*
X91295Y-55455D01*
X91152Y-55455D01*
X91152Y-55950D01*
X91160Y-55950D01*
X91160Y-56050D01*
X91152Y-56050D01*
X91152Y-56057D01*
X91052Y-56057D01*
X91052Y-56050D01*
X91052Y-55950D01*
X91052Y-55455D01*
X90995Y-55455D01*
X90995Y-52275D01*
X90645Y-51925D01*
X90237Y-52333D01*
X90262Y-52427D01*
X90286Y-52442D01*
X90491Y-52503D01*
X90703Y-52481D01*
X90891Y-52379D01*
X90995Y-52275D01*
X90995Y-55455D01*
X90905Y-55455D01*
X90700Y-55515D01*
X90534Y-55649D01*
X90432Y-55837D01*
X90426Y-55865D01*
X90475Y-55950D01*
X91052Y-55950D01*
X91052Y-56050D01*
X90475Y-56050D01*
X90426Y-56134D01*
X90432Y-56162D01*
X90534Y-56350D01*
X90700Y-56484D01*
X90737Y-56495D01*
X90732Y-56496D01*
X90556Y-56614D01*
X90437Y-56791D01*
X90396Y-57000D01*
X90437Y-57208D01*
X90556Y-57385D01*
X90732Y-57503D01*
X90941Y-57545D01*
X91263Y-57545D01*
X91472Y-57503D01*
X91648Y-57385D01*
X91700Y-57308D01*
X91700Y-57375D01*
X91438Y-57637D01*
X91338Y-57616D01*
X91129Y-57658D01*
X90952Y-57776D01*
X90724Y-58004D01*
X90606Y-58181D01*
X90565Y-58389D01*
X90606Y-58598D01*
X90724Y-58775D01*
X90901Y-58893D01*
X91110Y-58934D01*
X91318Y-58893D01*
X91495Y-58775D01*
X91723Y-58547D01*
X91841Y-58370D01*
X91883Y-58161D01*
X91862Y-58061D01*
X92212Y-57712D01*
X92212Y-57712D01*
X92277Y-57614D01*
X92299Y-57500D01*
X92300Y-57500D01*
X92300Y-56981D01*
X92443Y-56885D01*
X92562Y-56708D01*
X92603Y-56500D01*
X92562Y-56291D01*
X92485Y-56176D01*
X92527Y-56114D01*
X92549Y-56000D01*
X92550Y-56000D01*
X92550Y-54720D01*
X92644Y-54625D01*
X92763Y-54448D01*
X92804Y-54240D01*
X92804Y-59083D01*
X91511Y-61022D01*
X90482Y-61709D01*
X90482Y-57938D01*
X90402Y-57745D01*
X90254Y-57598D01*
X90061Y-57517D01*
X89853Y-57517D01*
X89660Y-57597D01*
X89512Y-57745D01*
X89448Y-57899D01*
X89385Y-57806D01*
X89208Y-57687D01*
X89000Y-57646D01*
X88791Y-57687D01*
X88614Y-57806D01*
X88499Y-57977D01*
X88385Y-57806D01*
X88375Y-57799D01*
X88712Y-57462D01*
X88712Y-57462D01*
X88712Y-57462D01*
X88795Y-57378D01*
X88963Y-57378D01*
X89026Y-57473D01*
X89203Y-57591D01*
X89411Y-57633D01*
X89620Y-57591D01*
X89797Y-57473D01*
X90025Y-57245D01*
X90143Y-57068D01*
X90184Y-56860D01*
X90143Y-56651D01*
X90025Y-56474D01*
X89848Y-56356D01*
X89639Y-56315D01*
X89431Y-56356D01*
X89254Y-56474D01*
X89026Y-56702D01*
X88975Y-56778D01*
X88671Y-56778D01*
X88556Y-56801D01*
X88459Y-56866D01*
X88287Y-57037D01*
X88287Y-57037D01*
X87787Y-57537D01*
X87722Y-57635D01*
X87700Y-57748D01*
X87614Y-57806D01*
X87500Y-57977D01*
X87385Y-57806D01*
X87208Y-57687D01*
X87000Y-57646D01*
X86791Y-57687D01*
X86614Y-57806D01*
X86545Y-57910D01*
X86545Y-57860D01*
X86507Y-57768D01*
X86436Y-57698D01*
X86344Y-57660D01*
X86245Y-57659D01*
X85655Y-57659D01*
X85563Y-57697D01*
X85493Y-57768D01*
X85455Y-57860D01*
X85454Y-57959D01*
X85454Y-58844D01*
X85492Y-58936D01*
X85563Y-59006D01*
X85640Y-59038D01*
X85614Y-59056D01*
X85496Y-59232D01*
X85455Y-59441D01*
X85455Y-59763D01*
X85496Y-59972D01*
X85614Y-60148D01*
X85765Y-60250D01*
X85614Y-60351D01*
X85548Y-60450D01*
X85201Y-60450D01*
X85135Y-60351D01*
X84984Y-60250D01*
X85135Y-60148D01*
X85253Y-59972D01*
X85295Y-59763D01*
X85295Y-59441D01*
X85253Y-59232D01*
X85135Y-59056D01*
X84958Y-58937D01*
X84750Y-58896D01*
X84541Y-58937D01*
X84364Y-59056D01*
X84246Y-59232D01*
X84205Y-59441D01*
X84205Y-59763D01*
X84246Y-59972D01*
X84364Y-60148D01*
X84515Y-60250D01*
X84364Y-60351D01*
X84246Y-60527D01*
X84205Y-60736D01*
X84205Y-61058D01*
X84246Y-61267D01*
X84364Y-61443D01*
X84380Y-61454D01*
X84188Y-61533D01*
X84034Y-61688D01*
X83950Y-61890D01*
X83949Y-62108D01*
X84033Y-62311D01*
X84188Y-62465D01*
X84390Y-62549D01*
X84608Y-62550D01*
X84811Y-62466D01*
X84949Y-62327D01*
X84949Y-62349D01*
X84987Y-62441D01*
X85058Y-62511D01*
X85150Y-62549D01*
X85249Y-62550D01*
X85849Y-62550D01*
X85941Y-62512D01*
X86011Y-62441D01*
X86049Y-62349D01*
X86049Y-62300D01*
X87000Y-62300D01*
X87500Y-62300D01*
X87500Y-62299D01*
X87614Y-62277D01*
X87614Y-62277D01*
X87712Y-62212D01*
X88389Y-61534D01*
X88490Y-61554D01*
X88698Y-61513D01*
X88875Y-61394D01*
X89103Y-61167D01*
X89221Y-60990D01*
X89263Y-60781D01*
X89221Y-60573D01*
X89103Y-60396D01*
X88926Y-60278D01*
X88718Y-60236D01*
X88509Y-60278D01*
X88332Y-60396D01*
X88105Y-60624D01*
X87986Y-60801D01*
X87945Y-61009D01*
X87965Y-61110D01*
X87375Y-61700D01*
X87000Y-61700D01*
X86050Y-61700D01*
X86050Y-61650D01*
X86028Y-61597D01*
X86208Y-61562D01*
X86385Y-61443D01*
X86500Y-61272D01*
X86614Y-61443D01*
X86791Y-61562D01*
X87000Y-61603D01*
X87208Y-61562D01*
X87385Y-61443D01*
X87503Y-61267D01*
X87545Y-61058D01*
X87545Y-60736D01*
X87503Y-60527D01*
X87385Y-60351D01*
X87234Y-60250D01*
X87385Y-60148D01*
X87503Y-59972D01*
X87545Y-59763D01*
X87545Y-59441D01*
X87503Y-59232D01*
X87385Y-59056D01*
X87300Y-58999D01*
X87300Y-58955D01*
X87385Y-58898D01*
X87500Y-58727D01*
X87614Y-58898D01*
X87709Y-58962D01*
X87709Y-58962D01*
X87722Y-59029D01*
X87787Y-59126D01*
X88017Y-59356D01*
X88017Y-59561D01*
X88097Y-59754D01*
X88245Y-59901D01*
X88438Y-59982D01*
X88646Y-59982D01*
X88839Y-59902D01*
X88987Y-59754D01*
X89067Y-59561D01*
X89067Y-59353D01*
X88988Y-59160D01*
X88858Y-59030D01*
X89000Y-59058D01*
X89208Y-59017D01*
X89385Y-58898D01*
X89503Y-58722D01*
X89545Y-58513D01*
X89545Y-58373D01*
X89659Y-58487D01*
X89852Y-58567D01*
X90061Y-58567D01*
X90254Y-58488D01*
X90401Y-58340D01*
X90482Y-58147D01*
X90482Y-57938D01*
X90482Y-61709D01*
X88533Y-63008D01*
X84991Y-63716D01*
X83603Y-63439D01*
X83603Y-59250D01*
X83562Y-59041D01*
X83443Y-58864D01*
X83267Y-58746D01*
X83058Y-58705D01*
X82736Y-58705D01*
X82527Y-58746D01*
X82351Y-58864D01*
X82294Y-58948D01*
X82294Y-58905D01*
X82256Y-58813D01*
X82186Y-58742D01*
X82094Y-58704D01*
X81715Y-58705D01*
X81700Y-58720D01*
X81700Y-58280D01*
X81700Y-57627D01*
X81700Y-57527D01*
X81700Y-56874D01*
X81607Y-56827D01*
X81568Y-56836D01*
X81364Y-56948D01*
X81219Y-57131D01*
X81155Y-57355D01*
X81155Y-57527D01*
X81700Y-57527D01*
X81700Y-57627D01*
X81155Y-57627D01*
X81155Y-57800D01*
X81219Y-58023D01*
X81364Y-58206D01*
X81568Y-58318D01*
X81607Y-58327D01*
X81700Y-58280D01*
X81700Y-58720D01*
X81652Y-58767D01*
X81652Y-59200D01*
X81660Y-59200D01*
X81660Y-59300D01*
X81652Y-59300D01*
X81652Y-59732D01*
X81715Y-59795D01*
X82094Y-59795D01*
X82186Y-59757D01*
X82256Y-59686D01*
X82294Y-59594D01*
X82294Y-59551D01*
X82351Y-59635D01*
X82527Y-59753D01*
X82736Y-59795D01*
X83058Y-59795D01*
X83267Y-59753D01*
X83443Y-59635D01*
X83562Y-59458D01*
X83603Y-59250D01*
X83603Y-63439D01*
X81552Y-63029D01*
X81552Y-59732D01*
X81552Y-59300D01*
X81552Y-59200D01*
X81552Y-58767D01*
X81490Y-58705D01*
X81110Y-58704D01*
X81018Y-58742D01*
X80948Y-58813D01*
X80910Y-58905D01*
X80909Y-59004D01*
X80910Y-59137D01*
X80972Y-59200D01*
X81552Y-59200D01*
X81552Y-59300D01*
X80972Y-59300D01*
X80910Y-59362D01*
X80909Y-59495D01*
X80910Y-59594D01*
X80948Y-59686D01*
X81018Y-59757D01*
X81110Y-59795D01*
X81490Y-59795D01*
X81552Y-59732D01*
X81552Y-63029D01*
X81481Y-63015D01*
X78573Y-61075D01*
X78573Y-56134D01*
X78524Y-56050D01*
X77947Y-56050D01*
X77947Y-56545D01*
X78095Y-56545D01*
X78299Y-56484D01*
X78465Y-56350D01*
X78567Y-56162D01*
X78573Y-56134D01*
X78573Y-61075D01*
X78477Y-61011D01*
X77847Y-60067D01*
X77847Y-56545D01*
X77847Y-56050D01*
X77270Y-56050D01*
X77221Y-56134D01*
X77227Y-56162D01*
X77329Y-56350D01*
X77495Y-56484D01*
X77700Y-56545D01*
X77847Y-56545D01*
X77847Y-60067D01*
X76491Y-58033D01*
X75785Y-54500D01*
X76491Y-50966D01*
X78477Y-47988D01*
X81481Y-45984D01*
X84991Y-45283D01*
X88533Y-45991D01*
X91511Y-47977D01*
X93515Y-50981D01*
X94218Y-54500D01*
X94218Y-54500D01*
G37*
G54D23*
X94218Y-54500D02*
X93515Y-58018D01*
X92804Y-59083D01*
X92804Y-54240D01*
X92763Y-54031D01*
X92644Y-53855D01*
X92468Y-53736D01*
X92259Y-53695D01*
X92051Y-53736D01*
X91874Y-53855D01*
X91646Y-54082D01*
X91528Y-54259D01*
X91486Y-54468D01*
X91528Y-54676D01*
X91646Y-54853D01*
X91823Y-54971D01*
X91950Y-54996D01*
X91950Y-55875D01*
X91870Y-55955D01*
X91795Y-55955D01*
X91795Y-55949D01*
X91778Y-55949D01*
X91729Y-55949D01*
X91778Y-55865D01*
X91772Y-55837D01*
X91670Y-55649D01*
X91504Y-55515D01*
X91300Y-55455D01*
X91295Y-55455D01*
X91295Y-51700D01*
X91234Y-51495D01*
X91218Y-51471D01*
X91124Y-51446D01*
X91053Y-51516D01*
X91053Y-51375D01*
X91028Y-51281D01*
X91004Y-51265D01*
X90799Y-51205D01*
X90587Y-51227D01*
X90481Y-51284D01*
X90591Y-51120D01*
X90633Y-50911D01*
X90591Y-50703D01*
X90473Y-50526D01*
X90397Y-50475D01*
X90503Y-50317D01*
X90545Y-50108D01*
X90545Y-49786D01*
X90503Y-49577D01*
X90385Y-49401D01*
X90234Y-49300D01*
X90385Y-49198D01*
X90503Y-49022D01*
X90545Y-48813D01*
X90545Y-48491D01*
X90503Y-48282D01*
X90385Y-48106D01*
X90208Y-47987D01*
X90000Y-47946D01*
X89791Y-47987D01*
X89614Y-48106D01*
X89496Y-48282D01*
X89483Y-48350D01*
X89316Y-48350D01*
X89303Y-48282D01*
X89185Y-48106D01*
X89008Y-47987D01*
X88800Y-47946D01*
X88591Y-47987D01*
X88414Y-48106D01*
X88296Y-48282D01*
X88283Y-48350D01*
X88116Y-48350D01*
X88103Y-48282D01*
X88050Y-48202D01*
X88050Y-47600D01*
X88049Y-47599D01*
X88050Y-47391D01*
X87966Y-47188D01*
X87811Y-47034D01*
X87609Y-46950D01*
X87391Y-46949D01*
X87188Y-47033D01*
X87034Y-47188D01*
X87000Y-47269D01*
X86966Y-47188D01*
X86811Y-47034D01*
X86609Y-46950D01*
X86391Y-46949D01*
X86188Y-47033D01*
X86050Y-47172D01*
X86050Y-47150D01*
X86012Y-47058D01*
X85941Y-46988D01*
X85849Y-46950D01*
X85750Y-46949D01*
X85150Y-46949D01*
X85058Y-46987D01*
X84988Y-47058D01*
X84950Y-47150D01*
X84949Y-47249D01*
X84949Y-47413D01*
X84639Y-47723D01*
X84594Y-47705D01*
X84551Y-47705D01*
X84635Y-47648D01*
X84753Y-47472D01*
X84795Y-47263D01*
X84795Y-46941D01*
X84753Y-46732D01*
X84635Y-46556D01*
X84458Y-46437D01*
X84250Y-46396D01*
X84041Y-46437D01*
X83864Y-46556D01*
X83746Y-46732D01*
X83705Y-46941D01*
X83705Y-47263D01*
X83746Y-47472D01*
X83864Y-47648D01*
X83948Y-47704D01*
X83905Y-47704D01*
X83813Y-47742D01*
X83743Y-47813D01*
X83705Y-47905D01*
X83704Y-48004D01*
X83704Y-48889D01*
X83742Y-48981D01*
X83813Y-49051D01*
X83866Y-49074D01*
X83806Y-49114D01*
X83687Y-49291D01*
X83663Y-49411D01*
X82787Y-50287D01*
X82722Y-50385D01*
X82700Y-50500D01*
X82700Y-52025D01*
X82323Y-51649D01*
X82353Y-51500D01*
X82312Y-51291D01*
X82193Y-51114D01*
X82022Y-51000D01*
X82193Y-50885D01*
X82312Y-50708D01*
X82353Y-50500D01*
X82312Y-50291D01*
X82193Y-50114D01*
X82089Y-50045D01*
X82139Y-50044D01*
X82231Y-50006D01*
X82302Y-49936D01*
X82340Y-49844D01*
X82340Y-49155D01*
X82302Y-49063D01*
X82231Y-48993D01*
X82139Y-48955D01*
X82040Y-48954D01*
X81760Y-48955D01*
X81697Y-49017D01*
X81697Y-49450D01*
X82277Y-49450D01*
X82340Y-49387D01*
X82340Y-49155D01*
X82340Y-49844D01*
X82340Y-49612D01*
X82277Y-49550D01*
X81697Y-49550D01*
X81697Y-49557D01*
X81597Y-49557D01*
X81597Y-49550D01*
X81597Y-49450D01*
X81597Y-49017D01*
X81535Y-48955D01*
X81254Y-48954D01*
X81155Y-48955D01*
X81063Y-48993D01*
X80992Y-49063D01*
X80954Y-49155D01*
X80955Y-49387D01*
X81017Y-49450D01*
X81597Y-49450D01*
X81597Y-49550D01*
X81017Y-49550D01*
X80955Y-49612D01*
X80954Y-49844D01*
X80992Y-49936D01*
X81063Y-50006D01*
X81155Y-50044D01*
X81205Y-50045D01*
X81101Y-50114D01*
X80982Y-50291D01*
X80957Y-50417D01*
X80387Y-50987D01*
X80322Y-51085D01*
X80300Y-51200D01*
X80300Y-51275D01*
X80187Y-51387D01*
X80187Y-51387D01*
X80075Y-51500D01*
X78950Y-51500D01*
X78835Y-51522D01*
X78737Y-51587D01*
X77870Y-52455D01*
X77736Y-52455D01*
X77527Y-52496D01*
X77351Y-52614D01*
X77232Y-52791D01*
X77191Y-53000D01*
X77232Y-53208D01*
X77351Y-53385D01*
X77522Y-53500D01*
X77351Y-53614D01*
X77232Y-53791D01*
X77191Y-54000D01*
X77232Y-54208D01*
X77351Y-54385D01*
X77522Y-54500D01*
X77351Y-54614D01*
X77232Y-54791D01*
X77191Y-55000D01*
X77232Y-55208D01*
X77351Y-55385D01*
X77527Y-55503D01*
X77532Y-55504D01*
X77495Y-55515D01*
X77329Y-55649D01*
X77227Y-55837D01*
X77221Y-55865D01*
X77270Y-55950D01*
X77847Y-55950D01*
X77847Y-55942D01*
X77947Y-55942D01*
X77947Y-55950D01*
X78524Y-55950D01*
X78573Y-55865D01*
X78567Y-55837D01*
X78465Y-55649D01*
X78299Y-55515D01*
X78262Y-55504D01*
X78267Y-55503D01*
X78443Y-55385D01*
X78562Y-55208D01*
X78603Y-55000D01*
X78573Y-54850D01*
X78733Y-54690D01*
X78783Y-54811D01*
X78938Y-54965D01*
X79019Y-54999D01*
X78938Y-55033D01*
X78784Y-55188D01*
X78700Y-55390D01*
X78699Y-55608D01*
X78783Y-55811D01*
X78938Y-55965D01*
X79019Y-55999D01*
X78938Y-56033D01*
X78784Y-56188D01*
X78700Y-56390D01*
X78699Y-56608D01*
X78783Y-56811D01*
X78922Y-56949D01*
X78900Y-56949D01*
X78808Y-56987D01*
X78738Y-57058D01*
X78700Y-57150D01*
X78699Y-57249D01*
X78699Y-57849D01*
X78737Y-57941D01*
X78808Y-58011D01*
X78900Y-58049D01*
X78999Y-58050D01*
X79599Y-58050D01*
X79691Y-58012D01*
X79761Y-57941D01*
X79799Y-57849D01*
X79800Y-57750D01*
X79800Y-57374D01*
X80629Y-56545D01*
X81094Y-56545D01*
X81186Y-56507D01*
X81256Y-56436D01*
X81294Y-56344D01*
X81295Y-56245D01*
X81295Y-55655D01*
X81257Y-55563D01*
X81186Y-55493D01*
X81094Y-55455D01*
X81044Y-55454D01*
X81148Y-55385D01*
X81267Y-55208D01*
X81308Y-55000D01*
X81267Y-54791D01*
X81148Y-54614D01*
X80977Y-54500D01*
X81148Y-54385D01*
X81267Y-54208D01*
X81308Y-54000D01*
X81267Y-53791D01*
X81228Y-53734D01*
X81262Y-53712D01*
X81574Y-53400D01*
X81607Y-53400D01*
X81555Y-53452D01*
X81475Y-53645D01*
X81474Y-53853D01*
X81554Y-54047D01*
X81702Y-54194D01*
X81895Y-54274D01*
X82103Y-54275D01*
X82297Y-54195D01*
X82444Y-54047D01*
X82524Y-53854D01*
X82525Y-53646D01*
X82445Y-53453D01*
X82327Y-53335D01*
X82362Y-53312D01*
X82462Y-53212D01*
X82462Y-53212D01*
X82462Y-53212D01*
X82700Y-52974D01*
X82700Y-53999D01*
X82614Y-54056D01*
X82496Y-54232D01*
X82455Y-54441D01*
X82455Y-54763D01*
X82496Y-54972D01*
X82614Y-55148D01*
X82765Y-55250D01*
X82614Y-55351D01*
X82548Y-55450D01*
X82442Y-55450D01*
X82297Y-55305D01*
X82104Y-55225D01*
X81896Y-55224D01*
X81703Y-55304D01*
X81555Y-55452D01*
X81475Y-55645D01*
X81474Y-55853D01*
X81554Y-56047D01*
X81702Y-56194D01*
X81895Y-56274D01*
X82103Y-56275D01*
X82297Y-56195D01*
X82442Y-56050D01*
X82455Y-56050D01*
X82455Y-56058D01*
X82496Y-56267D01*
X82614Y-56443D01*
X82791Y-56562D01*
X83000Y-56603D01*
X83208Y-56562D01*
X83385Y-56443D01*
X83503Y-56267D01*
X83545Y-56058D01*
X83545Y-56050D01*
X83705Y-56050D01*
X83705Y-56058D01*
X83746Y-56267D01*
X83864Y-56443D01*
X84041Y-56562D01*
X84226Y-56598D01*
X84015Y-56809D01*
X83355Y-56809D01*
X83263Y-56847D01*
X83193Y-56918D01*
X83171Y-56970D01*
X83170Y-56969D01*
X82977Y-56840D01*
X82750Y-56794D01*
X82522Y-56840D01*
X82329Y-56969D01*
X82248Y-57090D01*
X82135Y-56948D01*
X81931Y-56836D01*
X81892Y-56827D01*
X81800Y-56874D01*
X81800Y-57527D01*
X81807Y-57527D01*
X81807Y-57627D01*
X81800Y-57627D01*
X81800Y-58280D01*
X81892Y-58327D01*
X81931Y-58318D01*
X82135Y-58206D01*
X82248Y-58064D01*
X82329Y-58185D01*
X82522Y-58314D01*
X82750Y-58360D01*
X82977Y-58314D01*
X83170Y-58185D01*
X83171Y-58184D01*
X83192Y-58236D01*
X83263Y-58306D01*
X83355Y-58344D01*
X83454Y-58345D01*
X84144Y-58345D01*
X84236Y-58307D01*
X84306Y-58236D01*
X84344Y-58144D01*
X84345Y-58045D01*
X84345Y-57329D01*
X84705Y-56969D01*
X84705Y-57263D01*
X84746Y-57472D01*
X84864Y-57648D01*
X85041Y-57767D01*
X85250Y-57808D01*
X85458Y-57767D01*
X85635Y-57648D01*
X85753Y-57472D01*
X85795Y-57263D01*
X85795Y-57129D01*
X86124Y-56800D01*
X86500Y-56800D01*
X86500Y-56799D01*
X86614Y-56777D01*
X86614Y-56777D01*
X86712Y-56712D01*
X87088Y-56336D01*
X87208Y-56312D01*
X87385Y-56193D01*
X87500Y-56022D01*
X87614Y-56193D01*
X87791Y-56312D01*
X88000Y-56353D01*
X88208Y-56312D01*
X88385Y-56193D01*
X88500Y-56022D01*
X88614Y-56193D01*
X88791Y-56312D01*
X89000Y-56353D01*
X89208Y-56312D01*
X89385Y-56193D01*
X89503Y-56017D01*
X89545Y-55808D01*
X89545Y-55486D01*
X89503Y-55277D01*
X89385Y-55101D01*
X89208Y-54982D01*
X89000Y-54941D01*
X88791Y-54982D01*
X88614Y-55101D01*
X88500Y-55272D01*
X88385Y-55101D01*
X88300Y-55044D01*
X88300Y-54970D01*
X88525Y-54745D01*
X88643Y-54568D01*
X88684Y-54360D01*
X88643Y-54151D01*
X88525Y-53974D01*
X88348Y-53856D01*
X88139Y-53815D01*
X87931Y-53856D01*
X87863Y-53901D01*
X87971Y-53740D01*
X88013Y-53531D01*
X87971Y-53323D01*
X87853Y-53146D01*
X87676Y-53028D01*
X87468Y-52986D01*
X87259Y-53028D01*
X87082Y-53146D01*
X86855Y-53374D01*
X86736Y-53551D01*
X86695Y-53759D01*
X86736Y-53968D01*
X86855Y-54144D01*
X87031Y-54263D01*
X87240Y-54304D01*
X87357Y-54281D01*
X87427Y-54351D01*
X87408Y-54379D01*
X87366Y-54588D01*
X87408Y-54796D01*
X87526Y-54973D01*
X87666Y-55066D01*
X87614Y-55101D01*
X87500Y-55272D01*
X87385Y-55101D01*
X87208Y-54982D01*
X87000Y-54941D01*
X86791Y-54982D01*
X86614Y-55101D01*
X86496Y-55277D01*
X86495Y-55282D01*
X86484Y-55245D01*
X86350Y-55079D01*
X86162Y-54977D01*
X86134Y-54971D01*
X86050Y-55020D01*
X86050Y-55597D01*
X86057Y-55597D01*
X86057Y-55697D01*
X86050Y-55697D01*
X86050Y-55705D01*
X85950Y-55705D01*
X85950Y-55697D01*
X85942Y-55697D01*
X85942Y-55597D01*
X85950Y-55597D01*
X85950Y-55020D01*
X85865Y-54971D01*
X85837Y-54977D01*
X85649Y-55079D01*
X85550Y-55202D01*
X85550Y-54874D01*
X86212Y-54212D01*
X86212Y-54212D01*
X86277Y-54114D01*
X86299Y-54000D01*
X86300Y-54000D01*
X86300Y-53874D01*
X87462Y-52712D01*
X87512Y-52636D01*
X87670Y-52530D01*
X87749Y-52412D01*
X87829Y-52530D01*
X88022Y-52659D01*
X88250Y-52705D01*
X88477Y-52659D01*
X88670Y-52530D01*
X88799Y-52337D01*
X88845Y-52110D01*
X88845Y-51791D01*
X89118Y-51518D01*
X89215Y-51372D01*
X89245Y-51221D01*
X89331Y-51221D01*
X89356Y-51348D01*
X89474Y-51525D01*
X89651Y-51643D01*
X89860Y-51684D01*
X90068Y-51643D01*
X90120Y-51608D01*
X90018Y-51796D01*
X89996Y-52008D01*
X90057Y-52213D01*
X90072Y-52237D01*
X90166Y-52262D01*
X90574Y-51854D01*
X90569Y-51848D01*
X90640Y-51778D01*
X90645Y-51783D01*
X91053Y-51375D01*
X91053Y-51516D01*
X90716Y-51854D01*
X91066Y-52204D01*
X91170Y-52100D01*
X91272Y-51912D01*
X91295Y-51700D01*
X91295Y-55455D01*
X91152Y-55455D01*
X91152Y-55950D01*
X91160Y-55950D01*
X91160Y-56050D01*
X91152Y-56050D01*
X91152Y-56057D01*
X91052Y-56057D01*
X91052Y-56050D01*
X91052Y-55950D01*
X91052Y-55455D01*
X90995Y-55455D01*
X90995Y-52275D01*
X90645Y-51925D01*
X90237Y-52333D01*
X90262Y-52427D01*
X90286Y-52442D01*
X90491Y-52503D01*
X90703Y-52481D01*
X90891Y-52379D01*
X90995Y-52275D01*
X90995Y-55455D01*
X90905Y-55455D01*
X90700Y-55515D01*
X90534Y-55649D01*
X90432Y-55837D01*
X90426Y-55865D01*
X90475Y-55950D01*
X91052Y-55950D01*
X91052Y-56050D01*
X90475Y-56050D01*
X90426Y-56134D01*
X90432Y-56162D01*
X90534Y-56350D01*
X90700Y-56484D01*
X90737Y-56495D01*
X90732Y-56496D01*
X90556Y-56614D01*
X90437Y-56791D01*
X90396Y-57000D01*
X90437Y-57208D01*
X90556Y-57385D01*
X90732Y-57503D01*
X90941Y-57545D01*
X91263Y-57545D01*
X91472Y-57503D01*
X91648Y-57385D01*
X91700Y-57308D01*
X91700Y-57375D01*
X91438Y-57637D01*
X91338Y-57616D01*
X91129Y-57658D01*
X90952Y-57776D01*
X90724Y-58004D01*
X90606Y-58181D01*
X90565Y-58389D01*
X90606Y-58598D01*
X90724Y-58775D01*
X90901Y-58893D01*
X91110Y-58934D01*
X91318Y-58893D01*
X91495Y-58775D01*
X91723Y-58547D01*
X91841Y-58370D01*
X91883Y-58161D01*
X91862Y-58061D01*
X92212Y-57712D01*
X92212Y-57712D01*
X92277Y-57614D01*
X92299Y-57500D01*
X92300Y-57500D01*
X92300Y-56981D01*
X92443Y-56885D01*
X92562Y-56708D01*
X92603Y-56500D01*
X92562Y-56291D01*
X92485Y-56176D01*
X92527Y-56114D01*
X92549Y-56000D01*
X92550Y-56000D01*
X92550Y-54720D01*
X92644Y-54625D01*
X92763Y-54448D01*
X92804Y-54240D01*
X92804Y-59083D01*
X91511Y-61022D01*
X90482Y-61709D01*
X90482Y-57938D01*
X90402Y-57745D01*
X90254Y-57598D01*
X90061Y-57517D01*
X89853Y-57517D01*
X89660Y-57597D01*
X89512Y-57745D01*
X89448Y-57899D01*
X89385Y-57806D01*
X89208Y-57687D01*
X89000Y-57646D01*
X88791Y-57687D01*
X88614Y-57806D01*
X88499Y-57977D01*
X88385Y-57806D01*
X88375Y-57799D01*
X88712Y-57462D01*
X88712Y-57462D01*
X88712Y-57462D01*
X88795Y-57378D01*
X88963Y-57378D01*
X89026Y-57473D01*
X89203Y-57591D01*
X89411Y-57633D01*
X89620Y-57591D01*
X89797Y-57473D01*
X90025Y-57245D01*
X90143Y-57068D01*
X90184Y-56860D01*
X90143Y-56651D01*
X90025Y-56474D01*
X89848Y-56356D01*
X89639Y-56315D01*
X89431Y-56356D01*
X89254Y-56474D01*
X89026Y-56702D01*
X88975Y-56778D01*
X88671Y-56778D01*
X88556Y-56801D01*
X88459Y-56866D01*
X88287Y-57037D01*
X88287Y-57037D01*
X87787Y-57537D01*
X87722Y-57635D01*
X87700Y-57748D01*
X87614Y-57806D01*
X87500Y-57977D01*
X87385Y-57806D01*
X87208Y-57687D01*
X87000Y-57646D01*
X86791Y-57687D01*
X86614Y-57806D01*
X86545Y-57910D01*
X86545Y-57860D01*
X86507Y-57768D01*
X86436Y-57698D01*
X86344Y-57660D01*
X86245Y-57659D01*
X85655Y-57659D01*
X85563Y-57697D01*
X85493Y-57768D01*
X85455Y-57860D01*
X85454Y-57959D01*
X85454Y-58844D01*
X85492Y-58936D01*
X85563Y-59006D01*
X85640Y-59038D01*
X85614Y-59056D01*
X85496Y-59232D01*
X85455Y-59441D01*
X85455Y-59763D01*
X85496Y-59972D01*
X85614Y-60148D01*
X85765Y-60250D01*
X85614Y-60351D01*
X85548Y-60450D01*
X85201Y-60450D01*
X85135Y-60351D01*
X84984Y-60250D01*
X85135Y-60148D01*
X85253Y-59972D01*
X85295Y-59763D01*
X85295Y-59441D01*
X85253Y-59232D01*
X85135Y-59056D01*
X84958Y-58937D01*
X84750Y-58896D01*
X84541Y-58937D01*
X84364Y-59056D01*
X84246Y-59232D01*
X84205Y-59441D01*
X84205Y-59763D01*
X84246Y-59972D01*
X84364Y-60148D01*
X84515Y-60250D01*
X84364Y-60351D01*
X84246Y-60527D01*
X84205Y-60736D01*
X84205Y-61058D01*
X84246Y-61267D01*
X84364Y-61443D01*
X84380Y-61454D01*
X84188Y-61533D01*
X84034Y-61688D01*
X83950Y-61890D01*
X83949Y-62108D01*
X84033Y-62311D01*
X84188Y-62465D01*
X84390Y-62549D01*
X84608Y-62550D01*
X84811Y-62466D01*
X84949Y-62327D01*
X84949Y-62349D01*
X84987Y-62441D01*
X85058Y-62511D01*
X85150Y-62549D01*
X85249Y-62550D01*
X85849Y-62550D01*
X85941Y-62512D01*
X86011Y-62441D01*
X86049Y-62349D01*
X86049Y-62300D01*
X87000Y-62300D01*
X87500Y-62300D01*
X87500Y-62299D01*
X87614Y-62277D01*
X87614Y-62277D01*
X87712Y-62212D01*
X88389Y-61534D01*
X88490Y-61554D01*
X88698Y-61513D01*
X88875Y-61394D01*
X89103Y-61167D01*
X89221Y-60990D01*
X89263Y-60781D01*
X89221Y-60573D01*
X89103Y-60396D01*
X88926Y-60278D01*
X88718Y-60236D01*
X88509Y-60278D01*
X88332Y-60396D01*
X88105Y-60624D01*
X87986Y-60801D01*
X87945Y-61009D01*
X87965Y-61110D01*
X87375Y-61700D01*
X87000Y-61700D01*
X86050Y-61700D01*
X86050Y-61650D01*
X86028Y-61597D01*
X86208Y-61562D01*
X86385Y-61443D01*
X86500Y-61272D01*
X86614Y-61443D01*
X86791Y-61562D01*
X87000Y-61603D01*
X87208Y-61562D01*
X87385Y-61443D01*
X87503Y-61267D01*
X87545Y-61058D01*
X87545Y-60736D01*
X87503Y-60527D01*
X87385Y-60351D01*
X87234Y-60250D01*
X87385Y-60148D01*
X87503Y-59972D01*
X87545Y-59763D01*
X87545Y-59441D01*
X87503Y-59232D01*
X87385Y-59056D01*
X87300Y-58999D01*
X87300Y-58955D01*
X87385Y-58898D01*
X87500Y-58727D01*
X87614Y-58898D01*
X87709Y-58962D01*
X87709Y-58962D01*
X87722Y-59029D01*
X87787Y-59126D01*
X88017Y-59356D01*
X88017Y-59561D01*
X88097Y-59754D01*
X88245Y-59901D01*
X88438Y-59982D01*
X88646Y-59982D01*
X88839Y-59902D01*
X88987Y-59754D01*
X89067Y-59561D01*
X89067Y-59353D01*
X88988Y-59160D01*
X88858Y-59030D01*
X89000Y-59058D01*
X89208Y-59017D01*
X89385Y-58898D01*
X89503Y-58722D01*
X89545Y-58513D01*
X89545Y-58373D01*
X89659Y-58487D01*
X89852Y-58567D01*
X90061Y-58567D01*
X90254Y-58488D01*
X90401Y-58340D01*
X90482Y-58147D01*
X90482Y-57938D01*
X90482Y-61709D01*
X88533Y-63008D01*
X84991Y-63716D01*
X83603Y-63439D01*
X83603Y-59250D01*
X83562Y-59041D01*
X83443Y-58864D01*
X83267Y-58746D01*
X83058Y-58705D01*
X82736Y-58705D01*
X82527Y-58746D01*
X82351Y-58864D01*
X82294Y-58948D01*
X82294Y-58905D01*
X82256Y-58813D01*
X82186Y-58742D01*
X82094Y-58704D01*
X81715Y-58705D01*
X81700Y-58720D01*
X81700Y-58280D01*
X81700Y-57627D01*
X81700Y-57527D01*
X81700Y-56874D01*
X81607Y-56827D01*
X81568Y-56836D01*
X81364Y-56948D01*
X81219Y-57131D01*
X81155Y-57355D01*
X81155Y-57527D01*
X81700Y-57527D01*
X81700Y-57627D01*
X81155Y-57627D01*
X81155Y-57800D01*
X81219Y-58023D01*
X81364Y-58206D01*
X81568Y-58318D01*
X81607Y-58327D01*
X81700Y-58280D01*
X81700Y-58720D01*
X81652Y-58767D01*
X81652Y-59200D01*
X81660Y-59200D01*
X81660Y-59300D01*
X81652Y-59300D01*
X81652Y-59732D01*
X81715Y-59795D01*
X82094Y-59795D01*
X82186Y-59757D01*
X82256Y-59686D01*
X82294Y-59594D01*
X82294Y-59551D01*
X82351Y-59635D01*
X82527Y-59753D01*
X82736Y-59795D01*
X83058Y-59795D01*
X83267Y-59753D01*
X83443Y-59635D01*
X83562Y-59458D01*
X83603Y-59250D01*
X83603Y-63439D01*
X81552Y-63029D01*
X81552Y-59732D01*
X81552Y-59300D01*
X81552Y-59200D01*
X81552Y-58767D01*
X81490Y-58705D01*
X81110Y-58704D01*
X81018Y-58742D01*
X80948Y-58813D01*
X80910Y-58905D01*
X80909Y-59004D01*
X80910Y-59137D01*
X80972Y-59200D01*
X81552Y-59200D01*
X81552Y-59300D01*
X80972Y-59300D01*
X80910Y-59362D01*
X80909Y-59495D01*
X80910Y-59594D01*
X80948Y-59686D01*
X81018Y-59757D01*
X81110Y-59795D01*
X81490Y-59795D01*
X81552Y-59732D01*
X81552Y-63029D01*
X81481Y-63015D01*
X78573Y-61075D01*
X78573Y-56134D01*
X78524Y-56050D01*
X77947Y-56050D01*
X77947Y-56545D01*
X78095Y-56545D01*
X78299Y-56484D01*
X78465Y-56350D01*
X78567Y-56162D01*
X78573Y-56134D01*
X78573Y-61075D01*
X78477Y-61011D01*
X77847Y-60067D01*
X77847Y-56545D01*
X77847Y-56050D01*
X77270Y-56050D01*
X77221Y-56134D01*
X77227Y-56162D01*
X77329Y-56350D01*
X77495Y-56484D01*
X77700Y-56545D01*
X77847Y-56545D01*
X77847Y-60067D01*
X76491Y-58033D01*
X75785Y-54500D01*
X76491Y-50966D01*
X78477Y-47988D01*
X81481Y-45984D01*
X84991Y-45283D01*
X88533Y-45991D01*
X91511Y-47977D01*
X93515Y-50981D01*
X94218Y-54500D01*
M02*
