G04 (created by PCBNEW (2013-07-07 BZR 4022)-stable) date 6/17/2014 7:27:19 PM*
%MOIN*%
G04 Gerber Fmt 3.4, Leading zero omitted, Abs format*
%FSLAX34Y34*%
G01*
G70*
G90*
G04 APERTURE LIST*
%ADD10C,0.00393701*%
%ADD11C,0.006*%
%ADD12C,0.008*%
%ADD13C,0.00787402*%
%ADD14C,0.01*%
%ADD15C,0.012*%
%ADD16C,0.005*%
G04 APERTURE END LIST*
G54D10*
G54D11*
X87628Y-46649D02*
X87928Y-46649D01*
X87928Y-46535D01*
X87914Y-46507D01*
X87900Y-46492D01*
X87871Y-46478D01*
X87828Y-46478D01*
X87800Y-46492D01*
X87785Y-46507D01*
X87771Y-46535D01*
X87771Y-46649D01*
X87928Y-46378D02*
X87628Y-46307D01*
X87842Y-46249D01*
X87628Y-46192D01*
X87928Y-46121D01*
X87628Y-45835D02*
X87771Y-45935D01*
X87628Y-46007D02*
X87928Y-46007D01*
X87928Y-45892D01*
X87914Y-45864D01*
X87900Y-45850D01*
X87871Y-45835D01*
X87828Y-45835D01*
X87800Y-45850D01*
X87785Y-45864D01*
X87771Y-45892D01*
X87771Y-46007D01*
X87434Y-46478D02*
X87448Y-46507D01*
X87448Y-46550D01*
X87434Y-46592D01*
X87405Y-46621D01*
X87377Y-46635D01*
X87320Y-46650D01*
X87277Y-46650D01*
X87220Y-46635D01*
X87191Y-46621D01*
X87162Y-46592D01*
X87148Y-46550D01*
X87148Y-46521D01*
X87162Y-46478D01*
X87177Y-46464D01*
X87277Y-46464D01*
X87277Y-46521D01*
X87148Y-46335D02*
X87448Y-46335D01*
X87148Y-46164D01*
X87448Y-46164D01*
X87148Y-46021D02*
X87448Y-46021D01*
X87448Y-45950D01*
X87434Y-45907D01*
X87405Y-45878D01*
X87377Y-45864D01*
X87320Y-45850D01*
X87277Y-45850D01*
X87220Y-45864D01*
X87191Y-45878D01*
X87162Y-45907D01*
X87148Y-45950D01*
X87148Y-46021D01*
X86664Y-46271D02*
X86678Y-46300D01*
X86678Y-46342D01*
X86664Y-46385D01*
X86635Y-46414D01*
X86607Y-46428D01*
X86550Y-46442D01*
X86507Y-46442D01*
X86450Y-46428D01*
X86421Y-46414D01*
X86392Y-46385D01*
X86378Y-46342D01*
X86378Y-46314D01*
X86392Y-46271D01*
X86407Y-46257D01*
X86507Y-46257D01*
X86507Y-46314D01*
X86378Y-46128D02*
X86678Y-46128D01*
X86378Y-45957D01*
X86678Y-45957D01*
X86378Y-45814D02*
X86678Y-45814D01*
X86678Y-45742D01*
X86664Y-45700D01*
X86635Y-45671D01*
X86607Y-45657D01*
X86550Y-45642D01*
X86507Y-45642D01*
X86450Y-45657D01*
X86421Y-45671D01*
X86392Y-45700D01*
X86378Y-45742D01*
X86378Y-45814D01*
X85678Y-46221D02*
X85378Y-46121D01*
X85678Y-46021D01*
X85392Y-45792D02*
X85378Y-45821D01*
X85378Y-45878D01*
X85392Y-45907D01*
X85407Y-45921D01*
X85435Y-45935D01*
X85521Y-45935D01*
X85550Y-45921D01*
X85564Y-45907D01*
X85578Y-45878D01*
X85578Y-45821D01*
X85564Y-45792D01*
X85392Y-45535D02*
X85378Y-45564D01*
X85378Y-45621D01*
X85392Y-45650D01*
X85407Y-45664D01*
X85435Y-45678D01*
X85521Y-45678D01*
X85550Y-45664D01*
X85564Y-45650D01*
X85578Y-45621D01*
X85578Y-45564D01*
X85564Y-45535D01*
X79357Y-58157D02*
X79371Y-58200D01*
X79371Y-58271D01*
X79357Y-58300D01*
X79342Y-58314D01*
X79314Y-58328D01*
X79285Y-58328D01*
X79257Y-58314D01*
X79242Y-58300D01*
X79228Y-58271D01*
X79214Y-58214D01*
X79200Y-58185D01*
X79185Y-58171D01*
X79157Y-58157D01*
X79128Y-58157D01*
X79100Y-58171D01*
X79085Y-58185D01*
X79071Y-58214D01*
X79071Y-58285D01*
X79085Y-58328D01*
X79357Y-58571D02*
X79371Y-58542D01*
X79371Y-58485D01*
X79357Y-58457D01*
X79328Y-58442D01*
X79214Y-58442D01*
X79185Y-58457D01*
X79171Y-58485D01*
X79171Y-58542D01*
X79185Y-58571D01*
X79214Y-58585D01*
X79242Y-58585D01*
X79271Y-58442D01*
X79371Y-58714D02*
X79171Y-58714D01*
X79228Y-58714D02*
X79200Y-58728D01*
X79185Y-58742D01*
X79171Y-58771D01*
X79171Y-58800D01*
X79371Y-58900D02*
X79171Y-58900D01*
X79071Y-58900D02*
X79085Y-58885D01*
X79100Y-58900D01*
X79085Y-58914D01*
X79071Y-58900D01*
X79100Y-58900D01*
X79371Y-59171D02*
X79214Y-59171D01*
X79185Y-59157D01*
X79171Y-59128D01*
X79171Y-59071D01*
X79185Y-59042D01*
X79357Y-59171D02*
X79371Y-59142D01*
X79371Y-59071D01*
X79357Y-59042D01*
X79328Y-59028D01*
X79300Y-59028D01*
X79271Y-59042D01*
X79257Y-59071D01*
X79257Y-59142D01*
X79242Y-59171D01*
X79371Y-59357D02*
X79357Y-59328D01*
X79328Y-59314D01*
X79071Y-59314D01*
X84321Y-62578D02*
X84321Y-62750D01*
X84621Y-62664D02*
X84321Y-62664D01*
X84621Y-62850D02*
X84421Y-62850D01*
X84450Y-62850D02*
X84435Y-62864D01*
X84421Y-62892D01*
X84421Y-62935D01*
X84435Y-62964D01*
X84464Y-62978D01*
X84621Y-62978D01*
X84464Y-62978D02*
X84435Y-62992D01*
X84421Y-63021D01*
X84421Y-63064D01*
X84435Y-63092D01*
X84464Y-63107D01*
X84621Y-63107D01*
X84421Y-63250D02*
X84721Y-63250D01*
X84435Y-63250D02*
X84421Y-63278D01*
X84421Y-63335D01*
X84435Y-63364D01*
X84450Y-63378D01*
X84478Y-63392D01*
X84564Y-63392D01*
X84592Y-63378D01*
X84607Y-63364D01*
X84621Y-63335D01*
X84621Y-63278D01*
X84607Y-63250D01*
X84507Y-63521D02*
X84507Y-63750D01*
X85321Y-62578D02*
X85321Y-62750D01*
X85621Y-62664D02*
X85321Y-62664D01*
X85621Y-62850D02*
X85421Y-62850D01*
X85450Y-62850D02*
X85435Y-62864D01*
X85421Y-62892D01*
X85421Y-62935D01*
X85435Y-62964D01*
X85464Y-62978D01*
X85621Y-62978D01*
X85464Y-62978D02*
X85435Y-62992D01*
X85421Y-63021D01*
X85421Y-63064D01*
X85435Y-63092D01*
X85464Y-63107D01*
X85621Y-63107D01*
X85421Y-63250D02*
X85721Y-63250D01*
X85435Y-63250D02*
X85421Y-63278D01*
X85421Y-63335D01*
X85435Y-63364D01*
X85450Y-63378D01*
X85478Y-63392D01*
X85564Y-63392D01*
X85592Y-63378D01*
X85607Y-63364D01*
X85621Y-63335D01*
X85621Y-63278D01*
X85607Y-63250D01*
X85507Y-63521D02*
X85507Y-63750D01*
X85621Y-63635D02*
X85392Y-63635D01*
X80692Y-50057D02*
X80650Y-50071D01*
X80578Y-50071D01*
X80550Y-50057D01*
X80535Y-50042D01*
X80521Y-50014D01*
X80521Y-49985D01*
X80535Y-49957D01*
X80550Y-49942D01*
X80578Y-49928D01*
X80635Y-49914D01*
X80664Y-49900D01*
X80678Y-49885D01*
X80692Y-49857D01*
X80692Y-49828D01*
X80678Y-49800D01*
X80664Y-49785D01*
X80635Y-49771D01*
X80564Y-49771D01*
X80521Y-49785D01*
X80278Y-50057D02*
X80307Y-50071D01*
X80364Y-50071D01*
X80392Y-50057D01*
X80407Y-50028D01*
X80407Y-49914D01*
X80392Y-49885D01*
X80364Y-49871D01*
X80307Y-49871D01*
X80278Y-49885D01*
X80264Y-49914D01*
X80264Y-49942D01*
X80407Y-49971D01*
X80135Y-50071D02*
X80135Y-49871D01*
X80135Y-49928D02*
X80121Y-49900D01*
X80107Y-49885D01*
X80078Y-49871D01*
X80050Y-49871D01*
X79950Y-50071D02*
X79950Y-49871D01*
X79950Y-49771D02*
X79964Y-49785D01*
X79950Y-49800D01*
X79935Y-49785D01*
X79950Y-49771D01*
X79950Y-49800D01*
X79678Y-50071D02*
X79678Y-49914D01*
X79692Y-49885D01*
X79721Y-49871D01*
X79778Y-49871D01*
X79807Y-49885D01*
X79678Y-50057D02*
X79707Y-50071D01*
X79778Y-50071D01*
X79807Y-50057D01*
X79821Y-50028D01*
X79821Y-50000D01*
X79807Y-49971D01*
X79778Y-49957D01*
X79707Y-49957D01*
X79678Y-49942D01*
X79492Y-50071D02*
X79521Y-50057D01*
X79535Y-50028D01*
X79535Y-49771D01*
X80678Y-50551D02*
X80678Y-50251D01*
X80564Y-50251D01*
X80535Y-50265D01*
X80521Y-50280D01*
X80507Y-50308D01*
X80507Y-50351D01*
X80521Y-50380D01*
X80535Y-50394D01*
X80564Y-50408D01*
X80678Y-50408D01*
X80378Y-50551D02*
X80378Y-50351D01*
X80378Y-50251D02*
X80392Y-50265D01*
X80378Y-50280D01*
X80364Y-50265D01*
X80378Y-50251D01*
X80378Y-50280D01*
X80235Y-50351D02*
X80235Y-50551D01*
X80235Y-50380D02*
X80221Y-50365D01*
X80192Y-50351D01*
X80150Y-50351D01*
X80121Y-50365D01*
X80107Y-50394D01*
X80107Y-50551D01*
X79921Y-50551D02*
X79950Y-50537D01*
X79964Y-50522D01*
X79978Y-50494D01*
X79978Y-50408D01*
X79964Y-50380D01*
X79950Y-50365D01*
X79921Y-50351D01*
X79878Y-50351D01*
X79850Y-50365D01*
X79835Y-50380D01*
X79821Y-50408D01*
X79821Y-50494D01*
X79835Y-50522D01*
X79850Y-50537D01*
X79878Y-50551D01*
X79921Y-50551D01*
X79564Y-50351D02*
X79564Y-50551D01*
X79692Y-50351D02*
X79692Y-50508D01*
X79678Y-50537D01*
X79649Y-50551D01*
X79607Y-50551D01*
X79578Y-50537D01*
X79564Y-50522D01*
X79464Y-50351D02*
X79349Y-50351D01*
X79421Y-50251D02*
X79421Y-50508D01*
X79407Y-50537D01*
X79378Y-50551D01*
X79349Y-50551D01*
X79249Y-50522D02*
X79235Y-50537D01*
X79249Y-50551D01*
X79264Y-50537D01*
X79249Y-50522D01*
X79249Y-50551D01*
X79249Y-50365D02*
X79235Y-50380D01*
X79249Y-50394D01*
X79264Y-50380D01*
X79249Y-50365D01*
X79249Y-50394D01*
X80521Y-51031D02*
X80692Y-51031D01*
X80607Y-51031D02*
X80607Y-50731D01*
X80635Y-50774D01*
X80664Y-50802D01*
X80692Y-50817D01*
X80392Y-51002D02*
X80378Y-51017D01*
X80392Y-51031D01*
X80407Y-51017D01*
X80392Y-51002D01*
X80392Y-51031D01*
X80392Y-50845D02*
X80378Y-50860D01*
X80392Y-50874D01*
X80407Y-50860D01*
X80392Y-50845D01*
X80392Y-50874D01*
X80021Y-51031D02*
X80021Y-50731D01*
X79921Y-50945D01*
X79821Y-50731D01*
X79821Y-51031D01*
X79707Y-50831D02*
X79635Y-51031D01*
X79564Y-50831D02*
X79635Y-51031D01*
X79664Y-51102D01*
X79678Y-51117D01*
X79707Y-51131D01*
X79050Y-51031D02*
X79150Y-50888D01*
X79221Y-51031D02*
X79221Y-50731D01*
X79107Y-50731D01*
X79078Y-50745D01*
X79064Y-50760D01*
X79050Y-50788D01*
X79050Y-50831D01*
X79064Y-50860D01*
X79078Y-50874D01*
X79107Y-50888D01*
X79221Y-50888D01*
X78950Y-50731D02*
X78750Y-51031D01*
X78750Y-50731D02*
X78950Y-51031D01*
X78621Y-51017D02*
X78621Y-51031D01*
X78635Y-51060D01*
X78650Y-51074D01*
X78207Y-50888D02*
X78207Y-51031D01*
X78307Y-50731D02*
X78207Y-50888D01*
X78107Y-50731D01*
X77964Y-51031D02*
X77992Y-51017D01*
X78007Y-51002D01*
X78021Y-50974D01*
X78021Y-50888D01*
X78007Y-50860D01*
X77992Y-50845D01*
X77964Y-50831D01*
X77921Y-50831D01*
X77892Y-50845D01*
X77878Y-50860D01*
X77864Y-50888D01*
X77864Y-50974D01*
X77878Y-51002D01*
X77892Y-51017D01*
X77921Y-51031D01*
X77964Y-51031D01*
X77607Y-50831D02*
X77607Y-51031D01*
X77735Y-50831D02*
X77735Y-50988D01*
X77721Y-51017D01*
X77692Y-51031D01*
X77650Y-51031D01*
X77621Y-51017D01*
X77607Y-51002D01*
X77464Y-51031D02*
X77464Y-50831D01*
X77464Y-50888D02*
X77450Y-50860D01*
X77435Y-50845D01*
X77407Y-50831D01*
X77378Y-50831D01*
X77092Y-50731D02*
X76921Y-50731D01*
X77007Y-51031D02*
X77007Y-50731D01*
X76850Y-50731D02*
X76650Y-51031D01*
X76650Y-50731D02*
X76850Y-51031D01*
X80692Y-51240D02*
X80678Y-51225D01*
X80650Y-51211D01*
X80578Y-51211D01*
X80550Y-51225D01*
X80535Y-51240D01*
X80521Y-51268D01*
X80521Y-51297D01*
X80535Y-51340D01*
X80707Y-51511D01*
X80521Y-51511D01*
X80392Y-51482D02*
X80378Y-51497D01*
X80392Y-51511D01*
X80407Y-51497D01*
X80392Y-51482D01*
X80392Y-51511D01*
X80392Y-51325D02*
X80378Y-51340D01*
X80392Y-51354D01*
X80407Y-51340D01*
X80392Y-51325D01*
X80392Y-51354D01*
X79864Y-51225D02*
X79892Y-51211D01*
X79935Y-51211D01*
X79978Y-51225D01*
X80007Y-51254D01*
X80021Y-51282D01*
X80035Y-51340D01*
X80035Y-51382D01*
X80021Y-51440D01*
X80007Y-51468D01*
X79978Y-51497D01*
X79935Y-51511D01*
X79907Y-51511D01*
X79864Y-51497D01*
X79850Y-51482D01*
X79850Y-51382D01*
X79907Y-51382D01*
X79721Y-51511D02*
X79721Y-51211D01*
X79550Y-51511D01*
X79550Y-51211D01*
X79407Y-51511D02*
X79407Y-51211D01*
X79335Y-51211D01*
X79292Y-51225D01*
X79264Y-51254D01*
X79250Y-51282D01*
X79235Y-51340D01*
X79235Y-51382D01*
X79250Y-51440D01*
X79264Y-51468D01*
X79292Y-51497D01*
X79335Y-51511D01*
X79407Y-51511D01*
X80707Y-51691D02*
X80521Y-51691D01*
X80621Y-51805D01*
X80578Y-51805D01*
X80550Y-51820D01*
X80535Y-51834D01*
X80521Y-51862D01*
X80521Y-51934D01*
X80535Y-51962D01*
X80550Y-51977D01*
X80578Y-51991D01*
X80664Y-51991D01*
X80692Y-51977D01*
X80707Y-51962D01*
X80392Y-51962D02*
X80378Y-51977D01*
X80392Y-51991D01*
X80407Y-51977D01*
X80392Y-51962D01*
X80392Y-51991D01*
X80392Y-51805D02*
X80378Y-51820D01*
X80392Y-51834D01*
X80407Y-51820D01*
X80392Y-51805D01*
X80392Y-51834D01*
X79864Y-51705D02*
X79892Y-51691D01*
X79935Y-51691D01*
X79978Y-51705D01*
X80007Y-51734D01*
X80021Y-51762D01*
X80035Y-51820D01*
X80035Y-51862D01*
X80021Y-51920D01*
X80007Y-51948D01*
X79978Y-51977D01*
X79935Y-51991D01*
X79907Y-51991D01*
X79864Y-51977D01*
X79850Y-51962D01*
X79850Y-51862D01*
X79907Y-51862D01*
X79721Y-51991D02*
X79721Y-51691D01*
X79550Y-51991D01*
X79550Y-51691D01*
X79407Y-51991D02*
X79407Y-51691D01*
X79335Y-51691D01*
X79292Y-51705D01*
X79264Y-51734D01*
X79250Y-51762D01*
X79235Y-51820D01*
X79235Y-51862D01*
X79250Y-51920D01*
X79264Y-51948D01*
X79292Y-51977D01*
X79335Y-51991D01*
X79407Y-51991D01*
X80550Y-52271D02*
X80550Y-52471D01*
X80621Y-52157D02*
X80692Y-52371D01*
X80507Y-52371D01*
X80392Y-52442D02*
X80378Y-52457D01*
X80392Y-52471D01*
X80407Y-52457D01*
X80392Y-52442D01*
X80392Y-52471D01*
X80392Y-52285D02*
X80378Y-52300D01*
X80392Y-52314D01*
X80407Y-52300D01*
X80392Y-52285D01*
X80392Y-52314D01*
X80021Y-52471D02*
X80021Y-52171D01*
X79921Y-52385D01*
X79821Y-52171D01*
X79821Y-52471D01*
X79707Y-52271D02*
X79635Y-52471D01*
X79564Y-52271D02*
X79635Y-52471D01*
X79664Y-52542D01*
X79678Y-52557D01*
X79707Y-52571D01*
X79264Y-52171D02*
X79092Y-52171D01*
X79178Y-52471D02*
X79178Y-52171D01*
X79021Y-52171D02*
X78821Y-52471D01*
X78821Y-52171D02*
X79021Y-52471D01*
X78692Y-52457D02*
X78692Y-52471D01*
X78707Y-52500D01*
X78721Y-52514D01*
X78278Y-52328D02*
X78278Y-52471D01*
X78378Y-52171D02*
X78278Y-52328D01*
X78178Y-52171D01*
X78035Y-52471D02*
X78064Y-52457D01*
X78078Y-52442D01*
X78092Y-52414D01*
X78092Y-52328D01*
X78078Y-52300D01*
X78064Y-52285D01*
X78035Y-52271D01*
X77992Y-52271D01*
X77964Y-52285D01*
X77950Y-52300D01*
X77935Y-52328D01*
X77935Y-52414D01*
X77950Y-52442D01*
X77964Y-52457D01*
X77992Y-52471D01*
X78035Y-52471D01*
X77678Y-52271D02*
X77678Y-52471D01*
X77807Y-52271D02*
X77807Y-52428D01*
X77792Y-52457D01*
X77764Y-52471D01*
X77721Y-52471D01*
X77692Y-52457D01*
X77678Y-52442D01*
X77535Y-52471D02*
X77535Y-52271D01*
X77535Y-52328D02*
X77521Y-52300D01*
X77507Y-52285D01*
X77478Y-52271D01*
X77450Y-52271D01*
X76950Y-52471D02*
X77050Y-52328D01*
X77121Y-52471D02*
X77121Y-52171D01*
X77007Y-52171D01*
X76978Y-52185D01*
X76964Y-52200D01*
X76950Y-52228D01*
X76950Y-52271D01*
X76964Y-52300D01*
X76978Y-52314D01*
X77007Y-52328D01*
X77121Y-52328D01*
X76850Y-52171D02*
X76650Y-52471D01*
X76650Y-52171D02*
X76850Y-52471D01*
G54D12*
X82683Y-62661D02*
X82721Y-62642D01*
X82740Y-62623D01*
X82759Y-62585D01*
X82759Y-62471D01*
X82740Y-62433D01*
X82721Y-62414D01*
X82683Y-62395D01*
X82626Y-62395D01*
X82588Y-62414D01*
X82569Y-62433D01*
X82550Y-62471D01*
X82550Y-62585D01*
X82569Y-62623D01*
X82588Y-62642D01*
X82626Y-62661D01*
X82683Y-62661D01*
X82207Y-62395D02*
X82207Y-62661D01*
X82378Y-62395D02*
X82378Y-62604D01*
X82359Y-62642D01*
X82321Y-62661D01*
X82264Y-62661D01*
X82226Y-62642D01*
X82207Y-62623D01*
X82073Y-62395D02*
X81921Y-62395D01*
X82016Y-62261D02*
X82016Y-62604D01*
X81997Y-62642D01*
X81959Y-62661D01*
X81921Y-62661D01*
X81807Y-62642D02*
X81769Y-62661D01*
X81692Y-62661D01*
X81654Y-62642D01*
X81635Y-62604D01*
X81635Y-62585D01*
X81654Y-62547D01*
X81692Y-62528D01*
X81750Y-62528D01*
X81788Y-62509D01*
X81807Y-62471D01*
X81807Y-62452D01*
X81788Y-62414D01*
X81750Y-62395D01*
X81692Y-62395D01*
X81654Y-62414D01*
X81464Y-62661D02*
X81464Y-62395D01*
X81464Y-62261D02*
X81483Y-62280D01*
X81464Y-62300D01*
X81445Y-62280D01*
X81464Y-62261D01*
X81464Y-62300D01*
X81102Y-62661D02*
X81102Y-62261D01*
X81102Y-62642D02*
X81140Y-62661D01*
X81216Y-62661D01*
X81254Y-62642D01*
X81273Y-62623D01*
X81292Y-62585D01*
X81292Y-62471D01*
X81273Y-62433D01*
X81254Y-62414D01*
X81216Y-62395D01*
X81140Y-62395D01*
X81102Y-62414D01*
X80759Y-62642D02*
X80797Y-62661D01*
X80873Y-62661D01*
X80911Y-62642D01*
X80930Y-62604D01*
X80930Y-62452D01*
X80911Y-62414D01*
X80873Y-62395D01*
X80797Y-62395D01*
X80759Y-62414D01*
X80740Y-62452D01*
X80740Y-62490D01*
X80930Y-62528D01*
G54D13*
X92950Y-54500D02*
G75*
G03X92950Y-54500I-7950J0D01*
G74*
G01*
G54D14*
X78750Y-54000D02*
X78750Y-58000D01*
X79750Y-54000D02*
X79750Y-58000D01*
X79750Y-58000D02*
X78750Y-58000D01*
X78750Y-54000D02*
X79750Y-54000D01*
G54D11*
X86000Y-62500D02*
X86000Y-61500D01*
X86000Y-61500D02*
X84000Y-61500D01*
X84000Y-61500D02*
X84000Y-62500D01*
X84000Y-62500D02*
X86000Y-62500D01*
G54D15*
X88542Y-60022D02*
X90522Y-58042D01*
X90522Y-58042D02*
X89957Y-57477D01*
X89957Y-57477D02*
X87977Y-59457D01*
X87977Y-59457D02*
X88542Y-60022D01*
X88401Y-59881D02*
X88684Y-59881D01*
X90750Y-51750D02*
X90467Y-52032D01*
X90467Y-52032D02*
X90184Y-51750D01*
X90184Y-51750D02*
X87921Y-54012D01*
X87921Y-54012D02*
X88487Y-54578D01*
X88487Y-54578D02*
X90750Y-52315D01*
X90750Y-52315D02*
X90467Y-52032D01*
X87921Y-54578D02*
X88204Y-54295D01*
X88500Y-61000D02*
X88782Y-60717D01*
X88782Y-60717D02*
X89065Y-61000D01*
X89065Y-61000D02*
X91328Y-58737D01*
X91328Y-58737D02*
X90762Y-58171D01*
X90762Y-58171D02*
X88500Y-60434D01*
X88500Y-60434D02*
X88782Y-60717D01*
X91328Y-58171D02*
X91045Y-58454D01*
X92250Y-54250D02*
X91967Y-54532D01*
X91967Y-54532D02*
X91684Y-54250D01*
X91684Y-54250D02*
X89421Y-56512D01*
X89421Y-56512D02*
X89987Y-57078D01*
X89987Y-57078D02*
X92250Y-54815D01*
X92250Y-54815D02*
X91967Y-54532D01*
X89421Y-57078D02*
X89704Y-56795D01*
X87250Y-53750D02*
X87532Y-53467D01*
X87532Y-53467D02*
X87815Y-53750D01*
X87815Y-53750D02*
X90078Y-51487D01*
X90078Y-51487D02*
X89512Y-50921D01*
X89512Y-50921D02*
X87250Y-53184D01*
X87250Y-53184D02*
X87532Y-53467D01*
X90078Y-50921D02*
X89795Y-51204D01*
X85250Y-57250D02*
X85250Y-56850D01*
X85250Y-56850D02*
X85650Y-56850D01*
X85650Y-56850D02*
X85650Y-53650D01*
X85650Y-53650D02*
X84850Y-53650D01*
X84850Y-53650D02*
X84850Y-56850D01*
X84850Y-56850D02*
X85250Y-56850D01*
X85250Y-53250D02*
X85250Y-53650D01*
X85250Y-47750D02*
G75*
G03X85250Y-47750I-1000J0D01*
G74*
G01*
X83250Y-59250D02*
G75*
G03X83250Y-59250I-1000J0D01*
G74*
G01*
G54D11*
X79371Y-58228D02*
X79071Y-58228D01*
X79071Y-58342D01*
X79085Y-58371D01*
X79100Y-58385D01*
X79128Y-58400D01*
X79171Y-58400D01*
X79200Y-58385D01*
X79214Y-58371D01*
X79228Y-58342D01*
X79228Y-58228D01*
X79071Y-58500D02*
X79071Y-58685D01*
X79185Y-58585D01*
X79185Y-58628D01*
X79200Y-58657D01*
X79214Y-58671D01*
X79242Y-58685D01*
X79314Y-58685D01*
X79342Y-58671D01*
X79357Y-58657D01*
X79371Y-58628D01*
X79371Y-58542D01*
X79357Y-58514D01*
X79342Y-58500D01*
X83871Y-62121D02*
X83871Y-61821D01*
X83757Y-61821D01*
X83728Y-61835D01*
X83714Y-61850D01*
X83700Y-61878D01*
X83700Y-61921D01*
X83714Y-61950D01*
X83728Y-61964D01*
X83757Y-61978D01*
X83871Y-61978D01*
X83442Y-61921D02*
X83442Y-62121D01*
X83514Y-61807D02*
X83585Y-62021D01*
X83400Y-62021D01*
X90851Y-57780D02*
X90871Y-57780D01*
X90911Y-57760D01*
X90931Y-57739D01*
X90952Y-57699D01*
X90952Y-57659D01*
X90941Y-57628D01*
X90911Y-57578D01*
X90881Y-57547D01*
X90830Y-57517D01*
X90800Y-57507D01*
X90760Y-57507D01*
X90719Y-57527D01*
X90699Y-57547D01*
X90679Y-57588D01*
X90679Y-57608D01*
X90669Y-58002D02*
X90790Y-57881D01*
X90729Y-57941D02*
X90517Y-57729D01*
X90568Y-57739D01*
X90608Y-57739D01*
X90638Y-57729D01*
X88222Y-60025D02*
X88202Y-60045D01*
X88191Y-60075D01*
X88191Y-60095D01*
X88202Y-60126D01*
X88232Y-60176D01*
X88282Y-60227D01*
X88333Y-60257D01*
X88363Y-60267D01*
X88383Y-60267D01*
X88414Y-60257D01*
X88434Y-60237D01*
X88444Y-60207D01*
X88444Y-60186D01*
X88434Y-60156D01*
X88404Y-60106D01*
X88353Y-60055D01*
X88303Y-60025D01*
X88272Y-60015D01*
X88252Y-60015D01*
X88222Y-60025D01*
X88252Y-60378D02*
X88252Y-60398D01*
X88272Y-60398D01*
X88272Y-60378D01*
X88252Y-60378D01*
X88272Y-60398D01*
X88060Y-60611D02*
X88181Y-60489D01*
X88121Y-60550D02*
X87909Y-60338D01*
X87959Y-60348D01*
X88000Y-60348D01*
X88030Y-60338D01*
X87737Y-60651D02*
X87878Y-60792D01*
X87828Y-60560D02*
X87939Y-60671D01*
X87949Y-60702D01*
X87939Y-60732D01*
X87909Y-60762D01*
X87878Y-60772D01*
X87858Y-60772D01*
X87595Y-60853D02*
X87666Y-60782D01*
X87777Y-60893D02*
X87565Y-60681D01*
X87464Y-60782D01*
X90022Y-52649D02*
X89992Y-52477D01*
X90143Y-52527D02*
X89931Y-52315D01*
X89850Y-52396D01*
X89840Y-52426D01*
X89840Y-52447D01*
X89850Y-52477D01*
X89881Y-52507D01*
X89911Y-52517D01*
X89931Y-52517D01*
X89962Y-52507D01*
X90042Y-52426D01*
X89780Y-52649D02*
X89790Y-52618D01*
X89790Y-52598D01*
X89780Y-52568D01*
X89770Y-52558D01*
X89739Y-52548D01*
X89719Y-52548D01*
X89689Y-52558D01*
X89648Y-52598D01*
X89638Y-52628D01*
X89638Y-52649D01*
X89648Y-52679D01*
X89659Y-52689D01*
X89689Y-52699D01*
X89709Y-52699D01*
X89739Y-52689D01*
X89780Y-52649D01*
X89810Y-52638D01*
X89830Y-52638D01*
X89861Y-52649D01*
X89901Y-52689D01*
X89911Y-52719D01*
X89911Y-52739D01*
X89901Y-52770D01*
X89861Y-52810D01*
X89830Y-52820D01*
X89810Y-52820D01*
X89780Y-52810D01*
X89739Y-52770D01*
X89729Y-52739D01*
X89729Y-52719D01*
X89739Y-52689D01*
X88916Y-53755D02*
X89037Y-53633D01*
X88977Y-53694D02*
X88765Y-53482D01*
X88815Y-53492D01*
X88855Y-53492D01*
X88886Y-53482D01*
X88825Y-53846D02*
X88613Y-53633D01*
X88694Y-53856D01*
X88472Y-53775D01*
X88684Y-53987D01*
X89469Y-60201D02*
X89439Y-60030D01*
X89590Y-60080D02*
X89378Y-59868D01*
X89298Y-59949D01*
X89287Y-59979D01*
X89287Y-59999D01*
X89298Y-60030D01*
X89328Y-60060D01*
X89358Y-60070D01*
X89378Y-60070D01*
X89409Y-60060D01*
X89489Y-59979D01*
X89267Y-60404D02*
X89388Y-60282D01*
X89328Y-60343D02*
X89116Y-60131D01*
X89166Y-60141D01*
X89207Y-60141D01*
X89237Y-60131D01*
X90692Y-58979D02*
X90813Y-58858D01*
X90752Y-58919D02*
X90540Y-58706D01*
X90591Y-58717D01*
X90631Y-58717D01*
X90661Y-58706D01*
X90348Y-58898D02*
X90328Y-58919D01*
X90318Y-58949D01*
X90318Y-58969D01*
X90328Y-58999D01*
X90358Y-59050D01*
X90409Y-59100D01*
X90459Y-59131D01*
X90490Y-59141D01*
X90510Y-59141D01*
X90540Y-59131D01*
X90560Y-59111D01*
X90570Y-59080D01*
X90570Y-59060D01*
X90560Y-59030D01*
X90530Y-58979D01*
X90479Y-58929D01*
X90429Y-58898D01*
X90399Y-58888D01*
X90378Y-58888D01*
X90348Y-58898D01*
X90399Y-59272D02*
X90186Y-59060D01*
X90298Y-59212D02*
X90318Y-59353D01*
X90176Y-59212D02*
X90338Y-59212D01*
X91522Y-55149D02*
X91492Y-54977D01*
X91643Y-55027D02*
X91431Y-54815D01*
X91350Y-54896D01*
X91340Y-54926D01*
X91340Y-54947D01*
X91350Y-54977D01*
X91381Y-55007D01*
X91411Y-55017D01*
X91431Y-55017D01*
X91462Y-55007D01*
X91542Y-54926D01*
X91249Y-55037D02*
X91229Y-55037D01*
X91199Y-55048D01*
X91148Y-55098D01*
X91138Y-55128D01*
X91138Y-55149D01*
X91148Y-55179D01*
X91169Y-55199D01*
X91209Y-55219D01*
X91451Y-55219D01*
X91320Y-55351D01*
X90563Y-55108D02*
X90684Y-54987D01*
X90623Y-55047D02*
X90411Y-54835D01*
X90462Y-54845D01*
X90502Y-54845D01*
X90532Y-54835D01*
X90219Y-55027D02*
X90199Y-55047D01*
X90189Y-55078D01*
X90189Y-55098D01*
X90199Y-55128D01*
X90229Y-55179D01*
X90280Y-55229D01*
X90330Y-55260D01*
X90361Y-55270D01*
X90381Y-55270D01*
X90411Y-55260D01*
X90431Y-55239D01*
X90441Y-55209D01*
X90441Y-55189D01*
X90431Y-55159D01*
X90401Y-55108D01*
X90351Y-55058D01*
X90300Y-55027D01*
X90270Y-55017D01*
X90249Y-55017D01*
X90219Y-55027D01*
X90017Y-55229D02*
X89997Y-55250D01*
X89987Y-55280D01*
X89987Y-55300D01*
X89997Y-55330D01*
X90027Y-55381D01*
X90078Y-55431D01*
X90128Y-55462D01*
X90159Y-55472D01*
X90179Y-55472D01*
X90209Y-55462D01*
X90229Y-55441D01*
X90239Y-55411D01*
X90239Y-55391D01*
X90229Y-55361D01*
X90199Y-55310D01*
X90148Y-55260D01*
X90098Y-55229D01*
X90068Y-55219D01*
X90047Y-55219D01*
X90017Y-55229D01*
X90068Y-55603D02*
X89856Y-55391D01*
X89967Y-55542D02*
X89987Y-55684D01*
X89845Y-55542D02*
X90007Y-55542D01*
X88219Y-52951D02*
X88189Y-52780D01*
X88340Y-52830D02*
X88128Y-52618D01*
X88048Y-52699D01*
X88037Y-52729D01*
X88037Y-52749D01*
X88048Y-52780D01*
X88078Y-52810D01*
X88108Y-52820D01*
X88128Y-52820D01*
X88159Y-52810D01*
X88239Y-52729D01*
X88118Y-53052D02*
X88078Y-53093D01*
X88048Y-53103D01*
X88027Y-53103D01*
X87977Y-53093D01*
X87926Y-53063D01*
X87845Y-52982D01*
X87835Y-52951D01*
X87835Y-52931D01*
X87845Y-52901D01*
X87886Y-52861D01*
X87916Y-52850D01*
X87936Y-52850D01*
X87967Y-52861D01*
X88017Y-52911D01*
X88027Y-52941D01*
X88027Y-52962D01*
X88017Y-52992D01*
X87977Y-53032D01*
X87947Y-53042D01*
X87926Y-53042D01*
X87896Y-53032D01*
X89341Y-51830D02*
X89462Y-51709D01*
X89401Y-51770D02*
X89189Y-51557D01*
X89240Y-51568D01*
X89280Y-51568D01*
X89310Y-51557D01*
X89250Y-51921D02*
X89037Y-51709D01*
X89149Y-51861D02*
X89169Y-52002D01*
X89027Y-51861D02*
X89189Y-51861D01*
X85371Y-55857D02*
X85228Y-55757D01*
X85371Y-55685D02*
X85071Y-55685D01*
X85071Y-55800D01*
X85085Y-55828D01*
X85100Y-55842D01*
X85128Y-55857D01*
X85171Y-55857D01*
X85200Y-55842D01*
X85214Y-55828D01*
X85228Y-55800D01*
X85228Y-55685D01*
X85371Y-56142D02*
X85371Y-55971D01*
X85371Y-56057D02*
X85071Y-56057D01*
X85114Y-56028D01*
X85142Y-56000D01*
X85157Y-55971D01*
X85071Y-56328D02*
X85071Y-56357D01*
X85085Y-56385D01*
X85100Y-56400D01*
X85128Y-56414D01*
X85185Y-56428D01*
X85257Y-56428D01*
X85314Y-56414D01*
X85342Y-56400D01*
X85357Y-56385D01*
X85371Y-56357D01*
X85371Y-56328D01*
X85357Y-56300D01*
X85342Y-56285D01*
X85314Y-56271D01*
X85257Y-56257D01*
X85185Y-56257D01*
X85128Y-56271D01*
X85100Y-56285D01*
X85085Y-56300D01*
X85071Y-56328D01*
X85371Y-54414D02*
X85371Y-54242D01*
X85371Y-54328D02*
X85071Y-54328D01*
X85114Y-54300D01*
X85142Y-54271D01*
X85157Y-54242D01*
X85371Y-54542D02*
X85071Y-54542D01*
X85257Y-54571D02*
X85371Y-54657D01*
X85171Y-54657D02*
X85285Y-54542D01*
G54D16*
X84877Y-47708D02*
X84889Y-47696D01*
X84901Y-47660D01*
X84901Y-47636D01*
X84889Y-47601D01*
X84865Y-47577D01*
X84841Y-47565D01*
X84794Y-47553D01*
X84758Y-47553D01*
X84710Y-47565D01*
X84686Y-47577D01*
X84663Y-47601D01*
X84651Y-47636D01*
X84651Y-47660D01*
X84663Y-47696D01*
X84675Y-47708D01*
X84675Y-47803D02*
X84663Y-47815D01*
X84651Y-47839D01*
X84651Y-47898D01*
X84663Y-47922D01*
X84675Y-47934D01*
X84698Y-47946D01*
X84722Y-47946D01*
X84758Y-47934D01*
X84901Y-47791D01*
X84901Y-47946D01*
X83751Y-47482D02*
X83751Y-47339D01*
X83751Y-47410D02*
X83501Y-47410D01*
X83536Y-47386D01*
X83560Y-47363D01*
X83572Y-47339D01*
X83501Y-47636D02*
X83501Y-47660D01*
X83513Y-47684D01*
X83525Y-47696D01*
X83548Y-47708D01*
X83596Y-47720D01*
X83655Y-47720D01*
X83703Y-47708D01*
X83727Y-47696D01*
X83739Y-47684D01*
X83751Y-47660D01*
X83751Y-47636D01*
X83739Y-47613D01*
X83727Y-47601D01*
X83703Y-47589D01*
X83655Y-47577D01*
X83596Y-47577D01*
X83548Y-47589D01*
X83525Y-47601D01*
X83513Y-47613D01*
X83501Y-47636D01*
X83584Y-47934D02*
X83751Y-47934D01*
X83584Y-47827D02*
X83715Y-47827D01*
X83739Y-47839D01*
X83751Y-47863D01*
X83751Y-47898D01*
X83739Y-47922D01*
X83727Y-47934D01*
X83620Y-48136D02*
X83620Y-48053D01*
X83751Y-48053D02*
X83501Y-48053D01*
X83501Y-48172D01*
G54D11*
X85007Y-48635D02*
X85007Y-48864D01*
X85121Y-48750D02*
X84892Y-48750D01*
G54D16*
X82291Y-59877D02*
X82303Y-59889D01*
X82339Y-59901D01*
X82363Y-59901D01*
X82398Y-59889D01*
X82422Y-59865D01*
X82434Y-59841D01*
X82446Y-59794D01*
X82446Y-59758D01*
X82434Y-59710D01*
X82422Y-59686D01*
X82398Y-59663D01*
X82363Y-59651D01*
X82339Y-59651D01*
X82303Y-59663D01*
X82291Y-59675D01*
X82208Y-59651D02*
X82053Y-59651D01*
X82136Y-59746D01*
X82101Y-59746D01*
X82077Y-59758D01*
X82065Y-59770D01*
X82053Y-59794D01*
X82053Y-59853D01*
X82065Y-59877D01*
X82077Y-59889D01*
X82101Y-59901D01*
X82172Y-59901D01*
X82196Y-59889D01*
X82208Y-59877D01*
X82517Y-58751D02*
X82660Y-58751D01*
X82589Y-58751D02*
X82589Y-58501D01*
X82613Y-58536D01*
X82636Y-58560D01*
X82660Y-58572D01*
X82363Y-58501D02*
X82339Y-58501D01*
X82315Y-58513D01*
X82303Y-58525D01*
X82291Y-58548D01*
X82279Y-58596D01*
X82279Y-58655D01*
X82291Y-58703D01*
X82303Y-58727D01*
X82315Y-58739D01*
X82339Y-58751D01*
X82363Y-58751D01*
X82386Y-58739D01*
X82398Y-58727D01*
X82410Y-58703D01*
X82422Y-58655D01*
X82422Y-58596D01*
X82410Y-58548D01*
X82398Y-58525D01*
X82386Y-58513D01*
X82363Y-58501D01*
X82065Y-58584D02*
X82065Y-58751D01*
X82172Y-58584D02*
X82172Y-58715D01*
X82160Y-58739D01*
X82136Y-58751D01*
X82101Y-58751D01*
X82077Y-58739D01*
X82065Y-58727D01*
X81863Y-58620D02*
X81946Y-58620D01*
X81946Y-58751D02*
X81946Y-58501D01*
X81827Y-58501D01*
G54D11*
X81364Y-60007D02*
X81135Y-60007D01*
X81250Y-60121D02*
X81250Y-59892D01*
M02*
