G04 (created by PCBNEW (2013-07-07 BZR 4022)-stable) date 6/17/2014 7:27:19 PM*
%MOIN*%
G04 Gerber Fmt 3.4, Leading zero omitted, Abs format*
%FSLAX34Y34*%
G01*
G70*
G90*
G04 APERTURE LIST*
%ADD10C,0.00393701*%
%ADD11C,0.251968*%
%ADD12R,0.075748X0.075748*%
%ADD13C,0.075748*%
%ADD14C,0.070748*%
%ADD15O,0.104248X0.074748*%
%ADD16R,0.084748X0.119248*%
%ADD17O,0.084748X0.119248*%
%ADD18O,0.074748X0.104248*%
%ADD19C,0.074748*%
%ADD20R,0.074748X0.104248*%
%ADD21R,0.104248X0.074748*%
G04 APERTURE END LIST*
G54D10*
G54D11*
X81050Y-83150D03*
X79850Y-86850D03*
G54D12*
X79250Y-57500D03*
G54D13*
X79250Y-56500D03*
X79250Y-55500D03*
X79250Y-54500D03*
G54D12*
X85500Y-47500D03*
G54D13*
X86500Y-47500D03*
X87500Y-47500D03*
G54D12*
X85500Y-62000D03*
G54D13*
X84500Y-62000D03*
G54D14*
X82000Y-55750D03*
X82000Y-53750D03*
X88542Y-59457D03*
X89957Y-58042D03*
G54D15*
X91102Y-56000D03*
X91897Y-56500D03*
X91102Y-57000D03*
G54D16*
X86250Y-51922D03*
G54D17*
X87250Y-51922D03*
X88250Y-51922D03*
G54D16*
X83750Y-57577D03*
G54D17*
X82750Y-57577D03*
X81750Y-57577D03*
G54D18*
X86000Y-60897D03*
X86000Y-59602D03*
X84750Y-60897D03*
X84750Y-59602D03*
X87000Y-59602D03*
X87000Y-60897D03*
X87600Y-49947D03*
X87600Y-48652D03*
X88800Y-49947D03*
X88800Y-48652D03*
X90000Y-49947D03*
X90000Y-48652D03*
X84250Y-55897D03*
X84250Y-54602D03*
X83000Y-54602D03*
X83000Y-55897D03*
G54D19*
X90750Y-51750D02*
X90541Y-51958D01*
X88130Y-54369D02*
X87921Y-54578D01*
X88500Y-61000D02*
X88708Y-60791D01*
X91119Y-58380D02*
X91328Y-58171D01*
X92250Y-54250D02*
X92041Y-54458D01*
X89630Y-56869D02*
X89421Y-57078D01*
X87250Y-53750D02*
X87458Y-53541D01*
X89869Y-51130D02*
X90078Y-50921D01*
G54D18*
X85250Y-57102D03*
X85250Y-53397D03*
G54D11*
X69600Y-82950D03*
X73900Y-82900D03*
G54D20*
X84250Y-48397D03*
G54D18*
X84250Y-47102D03*
G54D21*
X81602Y-59250D03*
G54D15*
X82897Y-59250D03*
G54D21*
X81647Y-49500D03*
G54D15*
X81647Y-50500D03*
X81647Y-51500D03*
X81647Y-52500D03*
X84352Y-52500D03*
X84352Y-51500D03*
X84352Y-49500D03*
X84352Y-50500D03*
G54D21*
X80602Y-56000D03*
G54D15*
X80602Y-55000D03*
X80602Y-54000D03*
X80602Y-53000D03*
X77897Y-53000D03*
X77897Y-54000D03*
X77897Y-56000D03*
X77897Y-55000D03*
G54D20*
X86000Y-58352D03*
G54D18*
X87000Y-58352D03*
X88000Y-58352D03*
X89000Y-58352D03*
X89000Y-55647D03*
X88000Y-55647D03*
X86000Y-55647D03*
X87000Y-55647D03*
M02*
