M48
;DRILL file {Pcbnew (2013-07-07 BZR 4022)-stable} date 6/17/2014 7:27:25 PM
;FORMAT={-:-/ absolute / inch / decimal}
FMAT,2
INCH,TZ
T1C0.032
T2C0.040
T3C0.126
%
G90
G05
M72
T1
X7.775Y-5.3
X7.775Y-5.4
X7.775Y-5.5
X7.775Y-5.6
X8.075Y-5.3
X8.075Y-5.4
X8.075Y-5.5
X8.075Y-5.6
X8.15Y-4.95
X8.15Y-5.05
X8.15Y-5.15
X8.15Y-5.25
X8.175Y-5.925
X8.2Y-5.375
X8.2Y-5.575
X8.275Y-5.925
X8.3Y-5.475
X8.3Y-5.575
X8.425Y-4.725
X8.425Y-4.825
X8.425Y-5.475
X8.425Y-5.575
X8.45Y-4.95
X8.45Y-5.05
X8.45Y-5.15
X8.45Y-5.25
X8.475Y-5.975
X8.475Y-6.075
X8.525Y-5.325
X8.525Y-5.725
X8.6Y-5.55
X8.6Y-5.85
X8.6Y-5.975
X8.6Y-6.075
X8.7Y-5.55
X8.7Y-5.85
X8.7Y-5.975
X8.7Y-6.075
X8.725Y-5.375
X8.76Y-4.88
X8.76Y-4.98
X8.7922Y-5.4578
X8.8Y-5.55
X8.8Y-5.85
X8.85Y-6.1
X8.8543Y-5.9457
X8.88Y-4.88
X8.88Y-4.98
X8.9Y-5.55
X8.9Y-5.85
X8.9422Y-5.7078
X8.9957Y-5.8043
X9.Y-4.88
X9.Y-4.98
X9.0078Y-5.0922
X9.075Y-5.175
X9.125Y-5.6
X9.125Y-5.7
X9.1328Y-5.8172
X9.175Y-5.65
X9.225Y-5.425
T2
X7.925Y-5.45
X7.925Y-5.55
X7.925Y-5.65
X7.925Y-5.75
X8.175Y-5.775
X8.275Y-5.775
X8.375Y-5.775
X8.45Y-6.2
X8.55Y-4.75
X8.55Y-6.2
X8.625Y-5.175
X8.65Y-4.75
X8.725Y-5.175
X8.75Y-4.75
X8.825Y-5.175
T3
X6.96Y-8.295
X7.39Y-8.29
X7.985Y-8.685
X8.105Y-8.315
T0
M30
