M48
;DRILL file {Pcbnew (2013-07-07 BZR 4022)-stable} date 6/30/2014 7:42:05 PM
;FORMAT={-:-/ absolute / inch / decimal}
FMAT,2
INCH,TZ
T1C0.032
T2C0.126
T3C0.240
%
G90
G05
M72
T1
X5.6Y-5.
X5.6Y-5.1
X5.6Y-5.2
X5.6Y-5.3
X5.7Y-5.05
X5.7Y-5.15
X5.7Y-5.25
X5.7Y-5.35
T2
X5.225Y-4.375
X5.225Y-5.975
X5.35Y-4.95
X5.35Y-5.4
X7.35Y-5.175
X8.8Y-4.375
X8.8Y-5.975
T3
X6.225Y-4.8
X6.225Y-5.55
X6.975Y-4.8
X6.975Y-5.55
X7.725Y-4.8
X7.725Y-5.55
X8.475Y-4.8
X8.475Y-5.55
T0
M30
