G04 (created by PCBNEW (2013-07-07 BZR 4022)-stable) date 6/30/2014 7:42:03 PM*
%MOIN*%
G04 Gerber Fmt 3.4, Leading zero omitted, Abs format*
%FSLAX34Y34*%
G01*
G70*
G90*
G04 APERTURE LIST*
%ADD10C,0.00590551*%
%ADD11C,0.23622*%
%ADD12C,0.36*%
%ADD13R,0.0885X0.059*%
%ADD14O,0.0885X0.059*%
%ADD15C,0.125984*%
%ADD16C,0.01*%
G04 APERTURE END LIST*
G54D10*
G54D11*
X52250Y-43750D03*
X52250Y-59750D03*
X88000Y-43750D03*
X88000Y-59750D03*
G54D12*
X62250Y-48000D03*
X62250Y-55500D03*
X69750Y-48000D03*
X69750Y-55500D03*
X77250Y-48000D03*
X77250Y-55500D03*
X84750Y-48000D03*
X84750Y-55500D03*
G54D13*
X55852Y-50000D03*
G54D14*
X55852Y-51000D03*
X57147Y-50500D03*
X57147Y-51500D03*
G54D15*
X53500Y-54000D03*
X53500Y-49500D03*
G54D14*
X57147Y-52500D03*
X55852Y-52000D03*
X55852Y-53000D03*
X57147Y-53500D03*
G54D11*
X73500Y-51750D03*
G54D10*
G36*
X89480Y-61230D02*
X89432Y-61230D01*
X89432Y-59472D01*
X89432Y-43472D01*
X89431Y-43469D01*
X89431Y-43466D01*
X89323Y-43206D01*
X89217Y-42945D01*
X89213Y-42940D01*
X89213Y-42940D01*
X89213Y-42940D01*
X89209Y-42933D01*
X89200Y-42927D01*
X88820Y-42546D01*
X88816Y-42540D01*
X88813Y-42539D01*
X88811Y-42537D01*
X88551Y-42429D01*
X88291Y-42320D01*
X88288Y-42320D01*
X88285Y-42319D01*
X88004Y-42318D01*
X87722Y-42317D01*
X87719Y-42318D01*
X87716Y-42318D01*
X87456Y-42426D01*
X87195Y-42532D01*
X87190Y-42536D01*
X87190Y-42536D01*
X87190Y-42536D01*
X87183Y-42540D01*
X87177Y-42549D01*
X86796Y-42929D01*
X86790Y-42933D01*
X86789Y-42936D01*
X86787Y-42938D01*
X86679Y-43198D01*
X86570Y-43458D01*
X86570Y-43461D01*
X86569Y-43464D01*
X86568Y-43745D01*
X86567Y-44027D01*
X86568Y-44030D01*
X86568Y-44033D01*
X86676Y-44293D01*
X86782Y-44554D01*
X86786Y-44559D01*
X86786Y-44559D01*
X86786Y-44559D01*
X86790Y-44566D01*
X86799Y-44572D01*
X87179Y-44953D01*
X87183Y-44959D01*
X87186Y-44960D01*
X87188Y-44962D01*
X87448Y-45070D01*
X87708Y-45179D01*
X87711Y-45179D01*
X87714Y-45180D01*
X87995Y-45181D01*
X88277Y-45182D01*
X88280Y-45181D01*
X88283Y-45181D01*
X88543Y-45073D01*
X88804Y-44967D01*
X88809Y-44963D01*
X88809Y-44963D01*
X88809Y-44963D01*
X88816Y-44959D01*
X88822Y-44950D01*
X89203Y-44570D01*
X89209Y-44566D01*
X89210Y-44563D01*
X89212Y-44561D01*
X89320Y-44301D01*
X89429Y-44041D01*
X89429Y-44038D01*
X89430Y-44035D01*
X89431Y-43754D01*
X89432Y-43472D01*
X89432Y-59472D01*
X89431Y-59469D01*
X89431Y-59466D01*
X89323Y-59206D01*
X89217Y-58945D01*
X89213Y-58940D01*
X89213Y-58940D01*
X89213Y-58940D01*
X89209Y-58933D01*
X89200Y-58927D01*
X88820Y-58546D01*
X88816Y-58540D01*
X88813Y-58539D01*
X88811Y-58537D01*
X88551Y-58429D01*
X88291Y-58320D01*
X88288Y-58320D01*
X88285Y-58319D01*
X88004Y-58318D01*
X87722Y-58317D01*
X87719Y-58318D01*
X87716Y-58318D01*
X87456Y-58426D01*
X87195Y-58532D01*
X87190Y-58536D01*
X87190Y-58536D01*
X87190Y-58536D01*
X87183Y-58540D01*
X87177Y-58549D01*
X86800Y-58925D01*
X86800Y-55094D01*
X86800Y-47594D01*
X86488Y-46840D01*
X85912Y-46263D01*
X85159Y-45950D01*
X84344Y-45949D01*
X83590Y-46261D01*
X83013Y-46837D01*
X82700Y-47590D01*
X82699Y-48405D01*
X83011Y-49159D01*
X83587Y-49736D01*
X84340Y-50049D01*
X85155Y-50050D01*
X85909Y-49738D01*
X86486Y-49162D01*
X86799Y-48409D01*
X86800Y-47594D01*
X86800Y-55094D01*
X86488Y-54340D01*
X85912Y-53763D01*
X85159Y-53450D01*
X84344Y-53449D01*
X83590Y-53761D01*
X83013Y-54337D01*
X82700Y-55090D01*
X82699Y-55905D01*
X83011Y-56659D01*
X83587Y-57236D01*
X84340Y-57549D01*
X85155Y-57550D01*
X85909Y-57238D01*
X86486Y-56662D01*
X86799Y-55909D01*
X86800Y-55094D01*
X86800Y-58925D01*
X86796Y-58929D01*
X86790Y-58933D01*
X86789Y-58936D01*
X86787Y-58938D01*
X86679Y-59198D01*
X86570Y-59458D01*
X86570Y-59461D01*
X86569Y-59464D01*
X86568Y-59745D01*
X86567Y-60027D01*
X86568Y-60030D01*
X86568Y-60033D01*
X86676Y-60293D01*
X86782Y-60554D01*
X86786Y-60559D01*
X86786Y-60559D01*
X86786Y-60559D01*
X86790Y-60566D01*
X86799Y-60572D01*
X87179Y-60953D01*
X87183Y-60959D01*
X87186Y-60960D01*
X87188Y-60962D01*
X87448Y-61070D01*
X87708Y-61179D01*
X87711Y-61179D01*
X87714Y-61180D01*
X87995Y-61181D01*
X88277Y-61182D01*
X88280Y-61181D01*
X88283Y-61181D01*
X88543Y-61073D01*
X88804Y-60967D01*
X88809Y-60963D01*
X88809Y-60963D01*
X88809Y-60963D01*
X88816Y-60959D01*
X88822Y-60950D01*
X89203Y-60570D01*
X89209Y-60566D01*
X89210Y-60563D01*
X89212Y-60561D01*
X89320Y-60301D01*
X89429Y-60041D01*
X89429Y-60038D01*
X89430Y-60035D01*
X89431Y-59754D01*
X89432Y-59472D01*
X89432Y-61230D01*
X79300Y-61230D01*
X79300Y-55094D01*
X79300Y-47594D01*
X78988Y-46840D01*
X78412Y-46263D01*
X77659Y-45950D01*
X76844Y-45949D01*
X76090Y-46261D01*
X75513Y-46837D01*
X75200Y-47590D01*
X75199Y-48405D01*
X75511Y-49159D01*
X76087Y-49736D01*
X76840Y-50049D01*
X77655Y-50050D01*
X78409Y-49738D01*
X78986Y-49162D01*
X79299Y-48409D01*
X79300Y-47594D01*
X79300Y-55094D01*
X78988Y-54340D01*
X78412Y-53763D01*
X77659Y-53450D01*
X76844Y-53449D01*
X76090Y-53761D01*
X75513Y-54337D01*
X75200Y-55090D01*
X75199Y-55905D01*
X75511Y-56659D01*
X76087Y-57236D01*
X76840Y-57549D01*
X77655Y-57550D01*
X78409Y-57238D01*
X78986Y-56662D01*
X79299Y-55909D01*
X79300Y-55094D01*
X79300Y-61230D01*
X74932Y-61230D01*
X74932Y-51472D01*
X74931Y-51469D01*
X74931Y-51466D01*
X74823Y-51206D01*
X74717Y-50945D01*
X74713Y-50940D01*
X74713Y-50940D01*
X74713Y-50940D01*
X74709Y-50933D01*
X74700Y-50927D01*
X74320Y-50546D01*
X74316Y-50540D01*
X74313Y-50539D01*
X74311Y-50537D01*
X74051Y-50429D01*
X73791Y-50320D01*
X73788Y-50320D01*
X73785Y-50319D01*
X73504Y-50318D01*
X73222Y-50317D01*
X73219Y-50318D01*
X73216Y-50318D01*
X72956Y-50426D01*
X72695Y-50532D01*
X72690Y-50536D01*
X72690Y-50536D01*
X72690Y-50536D01*
X72683Y-50540D01*
X72677Y-50549D01*
X72296Y-50929D01*
X72290Y-50933D01*
X72289Y-50936D01*
X72287Y-50938D01*
X72179Y-51198D01*
X72070Y-51458D01*
X72070Y-51461D01*
X72069Y-51464D01*
X72068Y-51745D01*
X72067Y-52027D01*
X72068Y-52030D01*
X72068Y-52033D01*
X72176Y-52293D01*
X72282Y-52554D01*
X72286Y-52559D01*
X72286Y-52559D01*
X72286Y-52559D01*
X72290Y-52566D01*
X72299Y-52572D01*
X72679Y-52953D01*
X72683Y-52959D01*
X72686Y-52960D01*
X72688Y-52962D01*
X72948Y-53070D01*
X73208Y-53179D01*
X73211Y-53179D01*
X73214Y-53180D01*
X73495Y-53181D01*
X73777Y-53182D01*
X73780Y-53181D01*
X73783Y-53181D01*
X74043Y-53073D01*
X74304Y-52967D01*
X74309Y-52963D01*
X74309Y-52963D01*
X74309Y-52963D01*
X74316Y-52959D01*
X74322Y-52950D01*
X74703Y-52570D01*
X74709Y-52566D01*
X74710Y-52563D01*
X74712Y-52561D01*
X74820Y-52301D01*
X74929Y-52041D01*
X74929Y-52038D01*
X74930Y-52035D01*
X74931Y-51754D01*
X74932Y-51472D01*
X74932Y-61230D01*
X71800Y-61230D01*
X71800Y-55094D01*
X71800Y-47594D01*
X71488Y-46840D01*
X70912Y-46263D01*
X70159Y-45950D01*
X69344Y-45949D01*
X68590Y-46261D01*
X68013Y-46837D01*
X67700Y-47590D01*
X67699Y-48405D01*
X68011Y-49159D01*
X68587Y-49736D01*
X69340Y-50049D01*
X70155Y-50050D01*
X70909Y-49738D01*
X71486Y-49162D01*
X71799Y-48409D01*
X71800Y-47594D01*
X71800Y-55094D01*
X71488Y-54340D01*
X70912Y-53763D01*
X70159Y-53450D01*
X69344Y-53449D01*
X68590Y-53761D01*
X68013Y-54337D01*
X67700Y-55090D01*
X67699Y-55905D01*
X68011Y-56659D01*
X68587Y-57236D01*
X69340Y-57549D01*
X70155Y-57550D01*
X70909Y-57238D01*
X71486Y-56662D01*
X71799Y-55909D01*
X71800Y-55094D01*
X71800Y-61230D01*
X64300Y-61230D01*
X64300Y-55094D01*
X64300Y-47594D01*
X63988Y-46840D01*
X63412Y-46263D01*
X62659Y-45950D01*
X61844Y-45949D01*
X61090Y-46261D01*
X60513Y-46837D01*
X60200Y-47590D01*
X60199Y-48405D01*
X60511Y-49159D01*
X61087Y-49736D01*
X61840Y-50049D01*
X62655Y-50050D01*
X63409Y-49738D01*
X63986Y-49162D01*
X64299Y-48409D01*
X64300Y-47594D01*
X64300Y-55094D01*
X63988Y-54340D01*
X63412Y-53763D01*
X62659Y-53450D01*
X61844Y-53449D01*
X61090Y-53761D01*
X60513Y-54337D01*
X60200Y-55090D01*
X60199Y-55905D01*
X60511Y-56659D01*
X61087Y-57236D01*
X61840Y-57549D01*
X62655Y-57550D01*
X63409Y-57238D01*
X63986Y-56662D01*
X64299Y-55909D01*
X64300Y-55094D01*
X64300Y-61230D01*
X57853Y-61230D01*
X57853Y-53500D01*
X57812Y-53291D01*
X57693Y-53114D01*
X57522Y-53000D01*
X57693Y-52885D01*
X57812Y-52708D01*
X57853Y-52500D01*
X57812Y-52291D01*
X57693Y-52114D01*
X57522Y-52000D01*
X57693Y-51885D01*
X57812Y-51708D01*
X57853Y-51500D01*
X57812Y-51291D01*
X57693Y-51114D01*
X57522Y-51000D01*
X57693Y-50885D01*
X57812Y-50708D01*
X57853Y-50500D01*
X57812Y-50291D01*
X57693Y-50114D01*
X57517Y-49996D01*
X57308Y-49955D01*
X56986Y-49955D01*
X56777Y-49996D01*
X56601Y-50114D01*
X56545Y-50198D01*
X56545Y-49655D01*
X56507Y-49563D01*
X56436Y-49493D01*
X56344Y-49455D01*
X56245Y-49454D01*
X55360Y-49454D01*
X55268Y-49492D01*
X55198Y-49563D01*
X55160Y-49655D01*
X55159Y-49754D01*
X55159Y-50344D01*
X55197Y-50436D01*
X55268Y-50506D01*
X55360Y-50544D01*
X55410Y-50545D01*
X55306Y-50614D01*
X55187Y-50791D01*
X55146Y-51000D01*
X55187Y-51208D01*
X55306Y-51385D01*
X55477Y-51500D01*
X55306Y-51614D01*
X55187Y-51791D01*
X55146Y-52000D01*
X55187Y-52208D01*
X55306Y-52385D01*
X55477Y-52500D01*
X55306Y-52614D01*
X55187Y-52791D01*
X55146Y-53000D01*
X55187Y-53208D01*
X55306Y-53385D01*
X55482Y-53503D01*
X55691Y-53545D01*
X56013Y-53545D01*
X56222Y-53503D01*
X56398Y-53385D01*
X56517Y-53208D01*
X56558Y-53000D01*
X56517Y-52791D01*
X56398Y-52614D01*
X56227Y-52500D01*
X56398Y-52385D01*
X56517Y-52208D01*
X56558Y-52000D01*
X56517Y-51791D01*
X56398Y-51614D01*
X56227Y-51500D01*
X56398Y-51385D01*
X56517Y-51208D01*
X56558Y-51000D01*
X56517Y-50791D01*
X56398Y-50614D01*
X56294Y-50545D01*
X56344Y-50545D01*
X56436Y-50507D01*
X56441Y-50501D01*
X56482Y-50708D01*
X56601Y-50885D01*
X56772Y-51000D01*
X56601Y-51114D01*
X56482Y-51291D01*
X56441Y-51500D01*
X56482Y-51708D01*
X56601Y-51885D01*
X56772Y-52000D01*
X56601Y-52114D01*
X56482Y-52291D01*
X56441Y-52500D01*
X56482Y-52708D01*
X56601Y-52885D01*
X56772Y-53000D01*
X56601Y-53114D01*
X56482Y-53291D01*
X56441Y-53500D01*
X56482Y-53708D01*
X56601Y-53885D01*
X56777Y-54003D01*
X56986Y-54045D01*
X57308Y-54045D01*
X57517Y-54003D01*
X57693Y-53885D01*
X57812Y-53708D01*
X57853Y-53500D01*
X57853Y-61230D01*
X54382Y-61230D01*
X54382Y-54160D01*
X54382Y-49660D01*
X54379Y-49493D01*
X54380Y-49325D01*
X54377Y-49318D01*
X54376Y-49310D01*
X54254Y-49013D01*
X54250Y-49012D01*
X54246Y-49002D01*
X53999Y-48754D01*
X53988Y-48749D01*
X53986Y-48745D01*
X53830Y-48684D01*
X53682Y-48623D01*
X53682Y-43472D01*
X53681Y-43469D01*
X53681Y-43466D01*
X53573Y-43206D01*
X53467Y-42945D01*
X53463Y-42940D01*
X53463Y-42940D01*
X53463Y-42940D01*
X53459Y-42933D01*
X53450Y-42927D01*
X53070Y-42546D01*
X53066Y-42540D01*
X53063Y-42539D01*
X53061Y-42537D01*
X52801Y-42429D01*
X52541Y-42320D01*
X52538Y-42320D01*
X52535Y-42319D01*
X52254Y-42318D01*
X51972Y-42317D01*
X51969Y-42318D01*
X51966Y-42318D01*
X51706Y-42426D01*
X51445Y-42532D01*
X51440Y-42536D01*
X51440Y-42536D01*
X51440Y-42536D01*
X51433Y-42540D01*
X51427Y-42549D01*
X51046Y-42929D01*
X51040Y-42933D01*
X51039Y-42936D01*
X51037Y-42938D01*
X50929Y-43198D01*
X50820Y-43458D01*
X50820Y-43461D01*
X50819Y-43464D01*
X50818Y-43745D01*
X50817Y-44027D01*
X50818Y-44030D01*
X50818Y-44033D01*
X50926Y-44293D01*
X51032Y-44554D01*
X51036Y-44559D01*
X51036Y-44559D01*
X51036Y-44559D01*
X51040Y-44566D01*
X51049Y-44572D01*
X51429Y-44953D01*
X51433Y-44959D01*
X51436Y-44960D01*
X51438Y-44962D01*
X51698Y-45070D01*
X51958Y-45179D01*
X51961Y-45179D01*
X51964Y-45180D01*
X52245Y-45181D01*
X52527Y-45182D01*
X52530Y-45181D01*
X52533Y-45181D01*
X52793Y-45073D01*
X53054Y-44967D01*
X53059Y-44963D01*
X53059Y-44963D01*
X53059Y-44963D01*
X53066Y-44959D01*
X53072Y-44950D01*
X53453Y-44570D01*
X53459Y-44566D01*
X53460Y-44563D01*
X53462Y-44561D01*
X53570Y-44301D01*
X53679Y-44041D01*
X53679Y-44038D01*
X53680Y-44035D01*
X53681Y-43754D01*
X53682Y-43472D01*
X53682Y-48623D01*
X53675Y-48620D01*
X53667Y-48620D01*
X53660Y-48617D01*
X53493Y-48620D01*
X53325Y-48619D01*
X53318Y-48622D01*
X53310Y-48623D01*
X53013Y-48745D01*
X53012Y-48749D01*
X53002Y-48753D01*
X52754Y-49000D01*
X52749Y-49011D01*
X52745Y-49013D01*
X52684Y-49169D01*
X52620Y-49324D01*
X52620Y-49332D01*
X52617Y-49339D01*
X52620Y-49506D01*
X52619Y-49674D01*
X52622Y-49681D01*
X52623Y-49689D01*
X52745Y-49986D01*
X52749Y-49987D01*
X52753Y-49997D01*
X53000Y-50245D01*
X53011Y-50250D01*
X53013Y-50254D01*
X53169Y-50315D01*
X53324Y-50379D01*
X53332Y-50379D01*
X53339Y-50382D01*
X53506Y-50379D01*
X53674Y-50380D01*
X53681Y-50377D01*
X53689Y-50376D01*
X53986Y-50254D01*
X53987Y-50250D01*
X53997Y-50246D01*
X54245Y-49999D01*
X54250Y-49988D01*
X54254Y-49986D01*
X54315Y-49830D01*
X54379Y-49675D01*
X54379Y-49667D01*
X54382Y-49660D01*
X54382Y-54160D01*
X54379Y-53993D01*
X54380Y-53825D01*
X54377Y-53818D01*
X54376Y-53810D01*
X54254Y-53513D01*
X54250Y-53512D01*
X54246Y-53502D01*
X53999Y-53254D01*
X53988Y-53249D01*
X53986Y-53245D01*
X53830Y-53184D01*
X53675Y-53120D01*
X53667Y-53120D01*
X53660Y-53117D01*
X53493Y-53120D01*
X53325Y-53119D01*
X53318Y-53122D01*
X53310Y-53123D01*
X53013Y-53245D01*
X53012Y-53249D01*
X53002Y-53253D01*
X52754Y-53500D01*
X52749Y-53511D01*
X52745Y-53513D01*
X52684Y-53669D01*
X52620Y-53824D01*
X52620Y-53832D01*
X52617Y-53839D01*
X52620Y-54006D01*
X52619Y-54174D01*
X52622Y-54181D01*
X52623Y-54189D01*
X52745Y-54486D01*
X52749Y-54487D01*
X52753Y-54497D01*
X53000Y-54745D01*
X53011Y-54750D01*
X53013Y-54754D01*
X53169Y-54815D01*
X53324Y-54879D01*
X53332Y-54879D01*
X53339Y-54882D01*
X53506Y-54879D01*
X53674Y-54880D01*
X53681Y-54877D01*
X53689Y-54876D01*
X53986Y-54754D01*
X53987Y-54750D01*
X53997Y-54746D01*
X54245Y-54499D01*
X54250Y-54488D01*
X54254Y-54486D01*
X54315Y-54330D01*
X54379Y-54175D01*
X54379Y-54167D01*
X54382Y-54160D01*
X54382Y-61230D01*
X53682Y-61230D01*
X53682Y-59472D01*
X53681Y-59469D01*
X53681Y-59466D01*
X53573Y-59206D01*
X53467Y-58945D01*
X53463Y-58940D01*
X53463Y-58940D01*
X53463Y-58940D01*
X53459Y-58933D01*
X53450Y-58927D01*
X53070Y-58546D01*
X53066Y-58540D01*
X53063Y-58539D01*
X53061Y-58537D01*
X52801Y-58429D01*
X52541Y-58320D01*
X52538Y-58320D01*
X52535Y-58319D01*
X52254Y-58318D01*
X51972Y-58317D01*
X51969Y-58318D01*
X51966Y-58318D01*
X51706Y-58426D01*
X51445Y-58532D01*
X51440Y-58536D01*
X51440Y-58536D01*
X51440Y-58536D01*
X51433Y-58540D01*
X51427Y-58549D01*
X51046Y-58929D01*
X51040Y-58933D01*
X51039Y-58936D01*
X51037Y-58938D01*
X50929Y-59198D01*
X50820Y-59458D01*
X50820Y-59461D01*
X50819Y-59464D01*
X50818Y-59745D01*
X50817Y-60027D01*
X50818Y-60030D01*
X50818Y-60033D01*
X50926Y-60293D01*
X51032Y-60554D01*
X51036Y-60559D01*
X51036Y-60559D01*
X51036Y-60559D01*
X51040Y-60566D01*
X51049Y-60572D01*
X51429Y-60953D01*
X51433Y-60959D01*
X51436Y-60960D01*
X51438Y-60962D01*
X51698Y-61070D01*
X51958Y-61179D01*
X51961Y-61179D01*
X51964Y-61180D01*
X52245Y-61181D01*
X52527Y-61182D01*
X52530Y-61181D01*
X52533Y-61181D01*
X52793Y-61073D01*
X53054Y-60967D01*
X53059Y-60963D01*
X53059Y-60963D01*
X53059Y-60963D01*
X53066Y-60959D01*
X53072Y-60950D01*
X53453Y-60570D01*
X53459Y-60566D01*
X53460Y-60563D01*
X53462Y-60561D01*
X53570Y-60301D01*
X53679Y-60041D01*
X53679Y-60038D01*
X53680Y-60035D01*
X53681Y-59754D01*
X53682Y-59472D01*
X53682Y-61230D01*
X50769Y-61230D01*
X50769Y-42269D01*
X89480Y-42269D01*
X89480Y-61230D01*
X89480Y-61230D01*
G37*
G54D16*
X89480Y-61230D02*
X89432Y-61230D01*
X89432Y-59472D01*
X89432Y-43472D01*
X89431Y-43469D01*
X89431Y-43466D01*
X89323Y-43206D01*
X89217Y-42945D01*
X89213Y-42940D01*
X89213Y-42940D01*
X89213Y-42940D01*
X89209Y-42933D01*
X89200Y-42927D01*
X88820Y-42546D01*
X88816Y-42540D01*
X88813Y-42539D01*
X88811Y-42537D01*
X88551Y-42429D01*
X88291Y-42320D01*
X88288Y-42320D01*
X88285Y-42319D01*
X88004Y-42318D01*
X87722Y-42317D01*
X87719Y-42318D01*
X87716Y-42318D01*
X87456Y-42426D01*
X87195Y-42532D01*
X87190Y-42536D01*
X87190Y-42536D01*
X87190Y-42536D01*
X87183Y-42540D01*
X87177Y-42549D01*
X86796Y-42929D01*
X86790Y-42933D01*
X86789Y-42936D01*
X86787Y-42938D01*
X86679Y-43198D01*
X86570Y-43458D01*
X86570Y-43461D01*
X86569Y-43464D01*
X86568Y-43745D01*
X86567Y-44027D01*
X86568Y-44030D01*
X86568Y-44033D01*
X86676Y-44293D01*
X86782Y-44554D01*
X86786Y-44559D01*
X86786Y-44559D01*
X86786Y-44559D01*
X86790Y-44566D01*
X86799Y-44572D01*
X87179Y-44953D01*
X87183Y-44959D01*
X87186Y-44960D01*
X87188Y-44962D01*
X87448Y-45070D01*
X87708Y-45179D01*
X87711Y-45179D01*
X87714Y-45180D01*
X87995Y-45181D01*
X88277Y-45182D01*
X88280Y-45181D01*
X88283Y-45181D01*
X88543Y-45073D01*
X88804Y-44967D01*
X88809Y-44963D01*
X88809Y-44963D01*
X88809Y-44963D01*
X88816Y-44959D01*
X88822Y-44950D01*
X89203Y-44570D01*
X89209Y-44566D01*
X89210Y-44563D01*
X89212Y-44561D01*
X89320Y-44301D01*
X89429Y-44041D01*
X89429Y-44038D01*
X89430Y-44035D01*
X89431Y-43754D01*
X89432Y-43472D01*
X89432Y-59472D01*
X89431Y-59469D01*
X89431Y-59466D01*
X89323Y-59206D01*
X89217Y-58945D01*
X89213Y-58940D01*
X89213Y-58940D01*
X89213Y-58940D01*
X89209Y-58933D01*
X89200Y-58927D01*
X88820Y-58546D01*
X88816Y-58540D01*
X88813Y-58539D01*
X88811Y-58537D01*
X88551Y-58429D01*
X88291Y-58320D01*
X88288Y-58320D01*
X88285Y-58319D01*
X88004Y-58318D01*
X87722Y-58317D01*
X87719Y-58318D01*
X87716Y-58318D01*
X87456Y-58426D01*
X87195Y-58532D01*
X87190Y-58536D01*
X87190Y-58536D01*
X87190Y-58536D01*
X87183Y-58540D01*
X87177Y-58549D01*
X86800Y-58925D01*
X86800Y-55094D01*
X86800Y-47594D01*
X86488Y-46840D01*
X85912Y-46263D01*
X85159Y-45950D01*
X84344Y-45949D01*
X83590Y-46261D01*
X83013Y-46837D01*
X82700Y-47590D01*
X82699Y-48405D01*
X83011Y-49159D01*
X83587Y-49736D01*
X84340Y-50049D01*
X85155Y-50050D01*
X85909Y-49738D01*
X86486Y-49162D01*
X86799Y-48409D01*
X86800Y-47594D01*
X86800Y-55094D01*
X86488Y-54340D01*
X85912Y-53763D01*
X85159Y-53450D01*
X84344Y-53449D01*
X83590Y-53761D01*
X83013Y-54337D01*
X82700Y-55090D01*
X82699Y-55905D01*
X83011Y-56659D01*
X83587Y-57236D01*
X84340Y-57549D01*
X85155Y-57550D01*
X85909Y-57238D01*
X86486Y-56662D01*
X86799Y-55909D01*
X86800Y-55094D01*
X86800Y-58925D01*
X86796Y-58929D01*
X86790Y-58933D01*
X86789Y-58936D01*
X86787Y-58938D01*
X86679Y-59198D01*
X86570Y-59458D01*
X86570Y-59461D01*
X86569Y-59464D01*
X86568Y-59745D01*
X86567Y-60027D01*
X86568Y-60030D01*
X86568Y-60033D01*
X86676Y-60293D01*
X86782Y-60554D01*
X86786Y-60559D01*
X86786Y-60559D01*
X86786Y-60559D01*
X86790Y-60566D01*
X86799Y-60572D01*
X87179Y-60953D01*
X87183Y-60959D01*
X87186Y-60960D01*
X87188Y-60962D01*
X87448Y-61070D01*
X87708Y-61179D01*
X87711Y-61179D01*
X87714Y-61180D01*
X87995Y-61181D01*
X88277Y-61182D01*
X88280Y-61181D01*
X88283Y-61181D01*
X88543Y-61073D01*
X88804Y-60967D01*
X88809Y-60963D01*
X88809Y-60963D01*
X88809Y-60963D01*
X88816Y-60959D01*
X88822Y-60950D01*
X89203Y-60570D01*
X89209Y-60566D01*
X89210Y-60563D01*
X89212Y-60561D01*
X89320Y-60301D01*
X89429Y-60041D01*
X89429Y-60038D01*
X89430Y-60035D01*
X89431Y-59754D01*
X89432Y-59472D01*
X89432Y-61230D01*
X79300Y-61230D01*
X79300Y-55094D01*
X79300Y-47594D01*
X78988Y-46840D01*
X78412Y-46263D01*
X77659Y-45950D01*
X76844Y-45949D01*
X76090Y-46261D01*
X75513Y-46837D01*
X75200Y-47590D01*
X75199Y-48405D01*
X75511Y-49159D01*
X76087Y-49736D01*
X76840Y-50049D01*
X77655Y-50050D01*
X78409Y-49738D01*
X78986Y-49162D01*
X79299Y-48409D01*
X79300Y-47594D01*
X79300Y-55094D01*
X78988Y-54340D01*
X78412Y-53763D01*
X77659Y-53450D01*
X76844Y-53449D01*
X76090Y-53761D01*
X75513Y-54337D01*
X75200Y-55090D01*
X75199Y-55905D01*
X75511Y-56659D01*
X76087Y-57236D01*
X76840Y-57549D01*
X77655Y-57550D01*
X78409Y-57238D01*
X78986Y-56662D01*
X79299Y-55909D01*
X79300Y-55094D01*
X79300Y-61230D01*
X74932Y-61230D01*
X74932Y-51472D01*
X74931Y-51469D01*
X74931Y-51466D01*
X74823Y-51206D01*
X74717Y-50945D01*
X74713Y-50940D01*
X74713Y-50940D01*
X74713Y-50940D01*
X74709Y-50933D01*
X74700Y-50927D01*
X74320Y-50546D01*
X74316Y-50540D01*
X74313Y-50539D01*
X74311Y-50537D01*
X74051Y-50429D01*
X73791Y-50320D01*
X73788Y-50320D01*
X73785Y-50319D01*
X73504Y-50318D01*
X73222Y-50317D01*
X73219Y-50318D01*
X73216Y-50318D01*
X72956Y-50426D01*
X72695Y-50532D01*
X72690Y-50536D01*
X72690Y-50536D01*
X72690Y-50536D01*
X72683Y-50540D01*
X72677Y-50549D01*
X72296Y-50929D01*
X72290Y-50933D01*
X72289Y-50936D01*
X72287Y-50938D01*
X72179Y-51198D01*
X72070Y-51458D01*
X72070Y-51461D01*
X72069Y-51464D01*
X72068Y-51745D01*
X72067Y-52027D01*
X72068Y-52030D01*
X72068Y-52033D01*
X72176Y-52293D01*
X72282Y-52554D01*
X72286Y-52559D01*
X72286Y-52559D01*
X72286Y-52559D01*
X72290Y-52566D01*
X72299Y-52572D01*
X72679Y-52953D01*
X72683Y-52959D01*
X72686Y-52960D01*
X72688Y-52962D01*
X72948Y-53070D01*
X73208Y-53179D01*
X73211Y-53179D01*
X73214Y-53180D01*
X73495Y-53181D01*
X73777Y-53182D01*
X73780Y-53181D01*
X73783Y-53181D01*
X74043Y-53073D01*
X74304Y-52967D01*
X74309Y-52963D01*
X74309Y-52963D01*
X74309Y-52963D01*
X74316Y-52959D01*
X74322Y-52950D01*
X74703Y-52570D01*
X74709Y-52566D01*
X74710Y-52563D01*
X74712Y-52561D01*
X74820Y-52301D01*
X74929Y-52041D01*
X74929Y-52038D01*
X74930Y-52035D01*
X74931Y-51754D01*
X74932Y-51472D01*
X74932Y-61230D01*
X71800Y-61230D01*
X71800Y-55094D01*
X71800Y-47594D01*
X71488Y-46840D01*
X70912Y-46263D01*
X70159Y-45950D01*
X69344Y-45949D01*
X68590Y-46261D01*
X68013Y-46837D01*
X67700Y-47590D01*
X67699Y-48405D01*
X68011Y-49159D01*
X68587Y-49736D01*
X69340Y-50049D01*
X70155Y-50050D01*
X70909Y-49738D01*
X71486Y-49162D01*
X71799Y-48409D01*
X71800Y-47594D01*
X71800Y-55094D01*
X71488Y-54340D01*
X70912Y-53763D01*
X70159Y-53450D01*
X69344Y-53449D01*
X68590Y-53761D01*
X68013Y-54337D01*
X67700Y-55090D01*
X67699Y-55905D01*
X68011Y-56659D01*
X68587Y-57236D01*
X69340Y-57549D01*
X70155Y-57550D01*
X70909Y-57238D01*
X71486Y-56662D01*
X71799Y-55909D01*
X71800Y-55094D01*
X71800Y-61230D01*
X64300Y-61230D01*
X64300Y-55094D01*
X64300Y-47594D01*
X63988Y-46840D01*
X63412Y-46263D01*
X62659Y-45950D01*
X61844Y-45949D01*
X61090Y-46261D01*
X60513Y-46837D01*
X60200Y-47590D01*
X60199Y-48405D01*
X60511Y-49159D01*
X61087Y-49736D01*
X61840Y-50049D01*
X62655Y-50050D01*
X63409Y-49738D01*
X63986Y-49162D01*
X64299Y-48409D01*
X64300Y-47594D01*
X64300Y-55094D01*
X63988Y-54340D01*
X63412Y-53763D01*
X62659Y-53450D01*
X61844Y-53449D01*
X61090Y-53761D01*
X60513Y-54337D01*
X60200Y-55090D01*
X60199Y-55905D01*
X60511Y-56659D01*
X61087Y-57236D01*
X61840Y-57549D01*
X62655Y-57550D01*
X63409Y-57238D01*
X63986Y-56662D01*
X64299Y-55909D01*
X64300Y-55094D01*
X64300Y-61230D01*
X57853Y-61230D01*
X57853Y-53500D01*
X57812Y-53291D01*
X57693Y-53114D01*
X57522Y-53000D01*
X57693Y-52885D01*
X57812Y-52708D01*
X57853Y-52500D01*
X57812Y-52291D01*
X57693Y-52114D01*
X57522Y-52000D01*
X57693Y-51885D01*
X57812Y-51708D01*
X57853Y-51500D01*
X57812Y-51291D01*
X57693Y-51114D01*
X57522Y-51000D01*
X57693Y-50885D01*
X57812Y-50708D01*
X57853Y-50500D01*
X57812Y-50291D01*
X57693Y-50114D01*
X57517Y-49996D01*
X57308Y-49955D01*
X56986Y-49955D01*
X56777Y-49996D01*
X56601Y-50114D01*
X56545Y-50198D01*
X56545Y-49655D01*
X56507Y-49563D01*
X56436Y-49493D01*
X56344Y-49455D01*
X56245Y-49454D01*
X55360Y-49454D01*
X55268Y-49492D01*
X55198Y-49563D01*
X55160Y-49655D01*
X55159Y-49754D01*
X55159Y-50344D01*
X55197Y-50436D01*
X55268Y-50506D01*
X55360Y-50544D01*
X55410Y-50545D01*
X55306Y-50614D01*
X55187Y-50791D01*
X55146Y-51000D01*
X55187Y-51208D01*
X55306Y-51385D01*
X55477Y-51500D01*
X55306Y-51614D01*
X55187Y-51791D01*
X55146Y-52000D01*
X55187Y-52208D01*
X55306Y-52385D01*
X55477Y-52500D01*
X55306Y-52614D01*
X55187Y-52791D01*
X55146Y-53000D01*
X55187Y-53208D01*
X55306Y-53385D01*
X55482Y-53503D01*
X55691Y-53545D01*
X56013Y-53545D01*
X56222Y-53503D01*
X56398Y-53385D01*
X56517Y-53208D01*
X56558Y-53000D01*
X56517Y-52791D01*
X56398Y-52614D01*
X56227Y-52500D01*
X56398Y-52385D01*
X56517Y-52208D01*
X56558Y-52000D01*
X56517Y-51791D01*
X56398Y-51614D01*
X56227Y-51500D01*
X56398Y-51385D01*
X56517Y-51208D01*
X56558Y-51000D01*
X56517Y-50791D01*
X56398Y-50614D01*
X56294Y-50545D01*
X56344Y-50545D01*
X56436Y-50507D01*
X56441Y-50501D01*
X56482Y-50708D01*
X56601Y-50885D01*
X56772Y-51000D01*
X56601Y-51114D01*
X56482Y-51291D01*
X56441Y-51500D01*
X56482Y-51708D01*
X56601Y-51885D01*
X56772Y-52000D01*
X56601Y-52114D01*
X56482Y-52291D01*
X56441Y-52500D01*
X56482Y-52708D01*
X56601Y-52885D01*
X56772Y-53000D01*
X56601Y-53114D01*
X56482Y-53291D01*
X56441Y-53500D01*
X56482Y-53708D01*
X56601Y-53885D01*
X56777Y-54003D01*
X56986Y-54045D01*
X57308Y-54045D01*
X57517Y-54003D01*
X57693Y-53885D01*
X57812Y-53708D01*
X57853Y-53500D01*
X57853Y-61230D01*
X54382Y-61230D01*
X54382Y-54160D01*
X54382Y-49660D01*
X54379Y-49493D01*
X54380Y-49325D01*
X54377Y-49318D01*
X54376Y-49310D01*
X54254Y-49013D01*
X54250Y-49012D01*
X54246Y-49002D01*
X53999Y-48754D01*
X53988Y-48749D01*
X53986Y-48745D01*
X53830Y-48684D01*
X53682Y-48623D01*
X53682Y-43472D01*
X53681Y-43469D01*
X53681Y-43466D01*
X53573Y-43206D01*
X53467Y-42945D01*
X53463Y-42940D01*
X53463Y-42940D01*
X53463Y-42940D01*
X53459Y-42933D01*
X53450Y-42927D01*
X53070Y-42546D01*
X53066Y-42540D01*
X53063Y-42539D01*
X53061Y-42537D01*
X52801Y-42429D01*
X52541Y-42320D01*
X52538Y-42320D01*
X52535Y-42319D01*
X52254Y-42318D01*
X51972Y-42317D01*
X51969Y-42318D01*
X51966Y-42318D01*
X51706Y-42426D01*
X51445Y-42532D01*
X51440Y-42536D01*
X51440Y-42536D01*
X51440Y-42536D01*
X51433Y-42540D01*
X51427Y-42549D01*
X51046Y-42929D01*
X51040Y-42933D01*
X51039Y-42936D01*
X51037Y-42938D01*
X50929Y-43198D01*
X50820Y-43458D01*
X50820Y-43461D01*
X50819Y-43464D01*
X50818Y-43745D01*
X50817Y-44027D01*
X50818Y-44030D01*
X50818Y-44033D01*
X50926Y-44293D01*
X51032Y-44554D01*
X51036Y-44559D01*
X51036Y-44559D01*
X51036Y-44559D01*
X51040Y-44566D01*
X51049Y-44572D01*
X51429Y-44953D01*
X51433Y-44959D01*
X51436Y-44960D01*
X51438Y-44962D01*
X51698Y-45070D01*
X51958Y-45179D01*
X51961Y-45179D01*
X51964Y-45180D01*
X52245Y-45181D01*
X52527Y-45182D01*
X52530Y-45181D01*
X52533Y-45181D01*
X52793Y-45073D01*
X53054Y-44967D01*
X53059Y-44963D01*
X53059Y-44963D01*
X53059Y-44963D01*
X53066Y-44959D01*
X53072Y-44950D01*
X53453Y-44570D01*
X53459Y-44566D01*
X53460Y-44563D01*
X53462Y-44561D01*
X53570Y-44301D01*
X53679Y-44041D01*
X53679Y-44038D01*
X53680Y-44035D01*
X53681Y-43754D01*
X53682Y-43472D01*
X53682Y-48623D01*
X53675Y-48620D01*
X53667Y-48620D01*
X53660Y-48617D01*
X53493Y-48620D01*
X53325Y-48619D01*
X53318Y-48622D01*
X53310Y-48623D01*
X53013Y-48745D01*
X53012Y-48749D01*
X53002Y-48753D01*
X52754Y-49000D01*
X52749Y-49011D01*
X52745Y-49013D01*
X52684Y-49169D01*
X52620Y-49324D01*
X52620Y-49332D01*
X52617Y-49339D01*
X52620Y-49506D01*
X52619Y-49674D01*
X52622Y-49681D01*
X52623Y-49689D01*
X52745Y-49986D01*
X52749Y-49987D01*
X52753Y-49997D01*
X53000Y-50245D01*
X53011Y-50250D01*
X53013Y-50254D01*
X53169Y-50315D01*
X53324Y-50379D01*
X53332Y-50379D01*
X53339Y-50382D01*
X53506Y-50379D01*
X53674Y-50380D01*
X53681Y-50377D01*
X53689Y-50376D01*
X53986Y-50254D01*
X53987Y-50250D01*
X53997Y-50246D01*
X54245Y-49999D01*
X54250Y-49988D01*
X54254Y-49986D01*
X54315Y-49830D01*
X54379Y-49675D01*
X54379Y-49667D01*
X54382Y-49660D01*
X54382Y-54160D01*
X54379Y-53993D01*
X54380Y-53825D01*
X54377Y-53818D01*
X54376Y-53810D01*
X54254Y-53513D01*
X54250Y-53512D01*
X54246Y-53502D01*
X53999Y-53254D01*
X53988Y-53249D01*
X53986Y-53245D01*
X53830Y-53184D01*
X53675Y-53120D01*
X53667Y-53120D01*
X53660Y-53117D01*
X53493Y-53120D01*
X53325Y-53119D01*
X53318Y-53122D01*
X53310Y-53123D01*
X53013Y-53245D01*
X53012Y-53249D01*
X53002Y-53253D01*
X52754Y-53500D01*
X52749Y-53511D01*
X52745Y-53513D01*
X52684Y-53669D01*
X52620Y-53824D01*
X52620Y-53832D01*
X52617Y-53839D01*
X52620Y-54006D01*
X52619Y-54174D01*
X52622Y-54181D01*
X52623Y-54189D01*
X52745Y-54486D01*
X52749Y-54487D01*
X52753Y-54497D01*
X53000Y-54745D01*
X53011Y-54750D01*
X53013Y-54754D01*
X53169Y-54815D01*
X53324Y-54879D01*
X53332Y-54879D01*
X53339Y-54882D01*
X53506Y-54879D01*
X53674Y-54880D01*
X53681Y-54877D01*
X53689Y-54876D01*
X53986Y-54754D01*
X53987Y-54750D01*
X53997Y-54746D01*
X54245Y-54499D01*
X54250Y-54488D01*
X54254Y-54486D01*
X54315Y-54330D01*
X54379Y-54175D01*
X54379Y-54167D01*
X54382Y-54160D01*
X54382Y-61230D01*
X53682Y-61230D01*
X53682Y-59472D01*
X53681Y-59469D01*
X53681Y-59466D01*
X53573Y-59206D01*
X53467Y-58945D01*
X53463Y-58940D01*
X53463Y-58940D01*
X53463Y-58940D01*
X53459Y-58933D01*
X53450Y-58927D01*
X53070Y-58546D01*
X53066Y-58540D01*
X53063Y-58539D01*
X53061Y-58537D01*
X52801Y-58429D01*
X52541Y-58320D01*
X52538Y-58320D01*
X52535Y-58319D01*
X52254Y-58318D01*
X51972Y-58317D01*
X51969Y-58318D01*
X51966Y-58318D01*
X51706Y-58426D01*
X51445Y-58532D01*
X51440Y-58536D01*
X51440Y-58536D01*
X51440Y-58536D01*
X51433Y-58540D01*
X51427Y-58549D01*
X51046Y-58929D01*
X51040Y-58933D01*
X51039Y-58936D01*
X51037Y-58938D01*
X50929Y-59198D01*
X50820Y-59458D01*
X50820Y-59461D01*
X50819Y-59464D01*
X50818Y-59745D01*
X50817Y-60027D01*
X50818Y-60030D01*
X50818Y-60033D01*
X50926Y-60293D01*
X51032Y-60554D01*
X51036Y-60559D01*
X51036Y-60559D01*
X51036Y-60559D01*
X51040Y-60566D01*
X51049Y-60572D01*
X51429Y-60953D01*
X51433Y-60959D01*
X51436Y-60960D01*
X51438Y-60962D01*
X51698Y-61070D01*
X51958Y-61179D01*
X51961Y-61179D01*
X51964Y-61180D01*
X52245Y-61181D01*
X52527Y-61182D01*
X52530Y-61181D01*
X52533Y-61181D01*
X52793Y-61073D01*
X53054Y-60967D01*
X53059Y-60963D01*
X53059Y-60963D01*
X53059Y-60963D01*
X53066Y-60959D01*
X53072Y-60950D01*
X53453Y-60570D01*
X53459Y-60566D01*
X53460Y-60563D01*
X53462Y-60561D01*
X53570Y-60301D01*
X53679Y-60041D01*
X53679Y-60038D01*
X53680Y-60035D01*
X53681Y-59754D01*
X53682Y-59472D01*
X53682Y-61230D01*
X50769Y-61230D01*
X50769Y-42269D01*
X89480Y-42269D01*
X89480Y-61230D01*
M02*
