G04 (created by PCBNEW (2013-07-07 BZR 4022)-stable) date 6/29/2014 1:08:27 PM*
%MOIN*%
G04 Gerber Fmt 3.4, Leading zero omitted, Abs format*
%FSLAX34Y34*%
G01*
G70*
G90*
G04 APERTURE LIST*
%ADD10C,0.00590551*%
%ADD11R,0.055X0.035*%
%ADD12R,0.035X0.055*%
%ADD13C,0.059*%
%ADD14R,0.06X0.06*%
%ADD15C,0.06*%
%ADD16C,0.039*%
%ADD17R,0.07X0.019*%
%ADD18R,0.019X0.07*%
%ADD19C,0.035*%
%ADD20C,0.01*%
%ADD21C,0.02*%
G04 APERTURE END LIST*
G54D10*
G54D11*
X76500Y-62125D03*
X76500Y-61375D03*
X83750Y-67125D03*
X83750Y-67875D03*
G54D12*
X85875Y-61000D03*
X86625Y-61000D03*
G54D11*
X83750Y-57625D03*
X83750Y-56875D03*
X82750Y-64125D03*
X82750Y-63375D03*
G54D12*
X84125Y-62000D03*
X83375Y-62000D03*
G54D11*
X80500Y-57875D03*
X80500Y-57125D03*
G54D12*
X77875Y-63750D03*
X78625Y-63750D03*
G54D13*
X82750Y-65000D03*
X80750Y-65000D03*
X84000Y-63000D03*
X84000Y-65000D03*
X84000Y-59000D03*
X84000Y-61000D03*
X77500Y-57750D03*
X79500Y-57750D03*
X77500Y-60250D03*
X79500Y-60250D03*
X79500Y-56500D03*
X77500Y-56500D03*
X77500Y-59000D03*
X79500Y-59000D03*
G54D14*
X81250Y-68750D03*
G54D15*
X82250Y-68750D03*
G54D10*
G36*
X81250Y-62275D02*
X80974Y-62000D01*
X81250Y-61724D01*
X81525Y-62000D01*
X81250Y-62275D01*
X81250Y-62275D01*
G37*
G54D16*
X82250Y-62000D03*
X81750Y-61500D03*
X81750Y-62500D03*
G54D14*
X76250Y-59000D03*
G54D15*
X76250Y-60000D03*
G54D14*
X81250Y-55250D03*
G54D15*
X82250Y-55250D03*
G54D14*
X87750Y-63500D03*
G54D15*
X87750Y-62500D03*
G54D14*
X84000Y-66250D03*
G54D15*
X85000Y-66250D03*
G54D17*
X80600Y-67500D03*
X80600Y-67000D03*
X80600Y-66500D03*
X80600Y-66000D03*
X82900Y-66000D03*
X82900Y-66500D03*
X82900Y-67000D03*
X82900Y-67500D03*
G54D18*
X86500Y-64150D03*
X86000Y-64150D03*
X85500Y-64150D03*
X85000Y-64150D03*
X85000Y-61850D03*
X85500Y-61850D03*
X86000Y-61850D03*
X86500Y-61850D03*
X82750Y-58900D03*
X82250Y-58900D03*
X81750Y-58900D03*
X81250Y-58900D03*
X81250Y-56600D03*
X81750Y-56600D03*
X82250Y-56600D03*
X82750Y-56600D03*
G54D17*
X79650Y-61500D03*
X79650Y-62000D03*
X79650Y-62500D03*
X79650Y-63000D03*
X77350Y-63000D03*
X77350Y-62500D03*
X77350Y-62000D03*
X77350Y-61500D03*
G54D14*
X75000Y-62000D03*
G54D15*
X75000Y-63000D03*
X75000Y-64000D03*
G54D14*
X85250Y-56750D03*
G54D15*
X85250Y-55750D03*
G54D19*
X80250Y-58500D03*
X82500Y-58000D03*
X86500Y-62950D03*
X85450Y-62950D03*
X79500Y-61000D03*
X76500Y-63000D03*
G54D20*
X81750Y-59500D02*
X83500Y-59500D01*
X81750Y-58900D02*
X81750Y-59500D01*
X83500Y-59500D02*
X84000Y-59000D01*
X80500Y-57875D02*
X81625Y-57875D01*
X81750Y-58000D02*
X81750Y-58900D01*
X81625Y-57875D02*
X81750Y-58000D01*
X79500Y-57750D02*
X80375Y-57750D01*
X80375Y-57750D02*
X80500Y-57875D01*
X79500Y-57750D02*
X79500Y-57500D01*
G54D21*
X84000Y-63000D02*
X84000Y-62125D01*
X84000Y-62125D02*
X84125Y-62000D01*
X84000Y-61000D02*
X84000Y-61875D01*
X84000Y-61875D02*
X84125Y-62000D01*
G54D20*
X84000Y-63000D02*
X85000Y-63000D01*
X85500Y-63500D02*
X85500Y-64150D01*
X85000Y-63000D02*
X85500Y-63500D01*
G54D21*
X82750Y-65000D02*
X82750Y-64125D01*
X82750Y-65000D02*
X81250Y-66500D01*
X81250Y-66500D02*
X80500Y-66500D01*
X82750Y-65000D02*
X84000Y-65000D01*
G54D20*
X79500Y-59000D02*
X78500Y-60000D01*
X79000Y-62500D02*
X79650Y-62500D01*
X78500Y-62000D02*
X79000Y-62500D01*
X78500Y-60000D02*
X78500Y-62000D01*
G54D21*
X79650Y-62500D02*
X78500Y-62500D01*
X78000Y-63625D02*
X77875Y-63750D01*
X78000Y-63000D02*
X78500Y-62500D01*
X78000Y-63625D02*
X78000Y-63000D01*
G54D20*
X79500Y-59000D02*
X78750Y-58250D01*
X78750Y-57250D02*
X79500Y-56500D01*
X78750Y-58250D02*
X78750Y-57250D01*
X79650Y-62000D02*
X79000Y-62000D01*
X79000Y-60750D02*
X79500Y-60250D01*
X79000Y-61000D02*
X79000Y-60750D01*
X79000Y-62000D02*
X79000Y-61000D01*
X81250Y-62000D02*
X79650Y-62000D01*
X82250Y-58900D02*
X82250Y-58500D01*
X81750Y-57500D02*
X81750Y-56600D01*
X82000Y-57750D02*
X81750Y-57500D01*
X82000Y-58250D02*
X82000Y-57750D01*
X82250Y-58500D02*
X82000Y-58250D01*
X81750Y-56600D02*
X81750Y-55750D01*
X81750Y-55750D02*
X81250Y-55250D01*
X86000Y-64150D02*
X86000Y-64750D01*
X87000Y-64250D02*
X87750Y-63500D01*
X87000Y-64750D02*
X87000Y-64250D01*
X86750Y-65000D02*
X87000Y-64750D01*
X86250Y-65000D02*
X86750Y-65000D01*
X86000Y-64750D02*
X86250Y-65000D01*
X85500Y-61850D02*
X85500Y-62500D01*
X86000Y-63000D02*
X86000Y-63500D01*
X86000Y-63500D02*
X86000Y-64150D01*
X85500Y-62500D02*
X86000Y-63000D01*
X76250Y-59000D02*
X77500Y-59000D01*
X77500Y-59000D02*
X77500Y-57750D01*
X77500Y-60250D02*
X77500Y-59000D01*
X77350Y-62500D02*
X78000Y-62500D01*
X78000Y-60750D02*
X77500Y-60250D01*
X78000Y-61500D02*
X78000Y-60750D01*
X78000Y-62500D02*
X78000Y-61500D01*
X82900Y-66500D02*
X83750Y-66500D01*
X83750Y-66500D02*
X84000Y-66250D01*
X83000Y-66500D02*
X82000Y-66500D01*
X81500Y-67000D02*
X80500Y-67000D01*
X82000Y-66500D02*
X81500Y-67000D01*
G54D21*
X75000Y-62000D02*
X75125Y-62125D01*
X75125Y-62125D02*
X76500Y-62125D01*
X76500Y-62125D02*
X76625Y-62000D01*
X76625Y-62000D02*
X77350Y-62000D01*
X85250Y-56750D02*
X85250Y-57500D01*
X85250Y-57500D02*
X85125Y-57625D01*
X83750Y-57625D02*
X85125Y-57625D01*
X85125Y-57625D02*
X85500Y-58000D01*
X85500Y-58000D02*
X85500Y-59250D01*
X85500Y-59250D02*
X86000Y-59750D01*
X86250Y-59750D02*
X86000Y-59750D01*
X86000Y-59750D02*
X85875Y-59875D01*
X85875Y-59875D02*
X85875Y-61000D01*
X84500Y-67250D02*
X83750Y-67125D01*
X86250Y-59750D02*
X90250Y-59750D01*
X90250Y-59750D02*
X90750Y-62000D01*
X90750Y-62000D02*
X90000Y-65500D01*
X90000Y-65500D02*
X88250Y-68250D01*
X88250Y-68250D02*
X84500Y-67250D01*
X82250Y-57250D02*
X82625Y-57625D01*
X82250Y-56600D02*
X82250Y-57250D01*
X82625Y-57625D02*
X83750Y-57625D01*
X86000Y-61850D02*
X86000Y-61125D01*
X86000Y-61125D02*
X85875Y-61000D01*
X83000Y-67000D02*
X83625Y-67000D01*
X83625Y-67000D02*
X83750Y-67125D01*
X81750Y-61500D02*
X81750Y-62500D01*
X86500Y-61850D02*
X86500Y-61125D01*
X86500Y-61125D02*
X86625Y-61000D01*
X76500Y-61375D02*
X76625Y-61500D01*
X76625Y-61500D02*
X77350Y-61500D01*
G54D20*
X82750Y-58250D02*
X84500Y-58250D01*
X84500Y-58250D02*
X84700Y-58450D01*
X80000Y-61000D02*
X80250Y-60750D01*
X80250Y-60750D02*
X80250Y-58750D01*
X80250Y-58750D02*
X80250Y-58500D01*
X79500Y-61000D02*
X80000Y-61000D01*
X82750Y-58250D02*
X82750Y-58900D01*
X82500Y-58000D02*
X82750Y-58250D01*
X86500Y-64150D02*
X86500Y-62950D01*
X84700Y-61100D02*
X84700Y-61150D01*
X84700Y-58450D02*
X84700Y-61100D01*
X85100Y-62600D02*
X85450Y-62950D01*
X84800Y-62600D02*
X85100Y-62600D01*
X84600Y-62400D02*
X84800Y-62600D01*
X84600Y-61250D02*
X84600Y-62400D01*
X84700Y-61150D02*
X84600Y-61250D01*
X80600Y-67500D02*
X78750Y-67500D01*
X76500Y-63750D02*
X76500Y-63000D01*
X78000Y-65250D02*
X76500Y-63750D01*
X78750Y-66000D02*
X78000Y-65250D01*
X78750Y-67500D02*
X78750Y-66000D01*
X75000Y-63000D02*
X76500Y-63000D01*
X79650Y-61150D02*
X79650Y-61500D01*
X79500Y-61000D02*
X79650Y-61150D01*
G54D10*
G36*
X90391Y-62004D02*
X89669Y-65369D01*
X88304Y-67512D01*
X88304Y-62581D01*
X88293Y-62363D01*
X88231Y-62212D01*
X88135Y-62184D01*
X88065Y-62255D01*
X88065Y-62114D01*
X88037Y-62018D01*
X87831Y-61945D01*
X87613Y-61956D01*
X87462Y-62018D01*
X87434Y-62114D01*
X87750Y-62429D01*
X88065Y-62114D01*
X88065Y-62255D01*
X87820Y-62500D01*
X88135Y-62815D01*
X88231Y-62787D01*
X88304Y-62581D01*
X88304Y-67512D01*
X88093Y-67844D01*
X85554Y-67168D01*
X85554Y-66331D01*
X85543Y-66113D01*
X85481Y-65962D01*
X85385Y-65934D01*
X85315Y-66005D01*
X85315Y-65864D01*
X85287Y-65768D01*
X85081Y-65695D01*
X84952Y-65701D01*
X84952Y-64687D01*
X84952Y-64200D01*
X84952Y-64100D01*
X84952Y-63612D01*
X84890Y-63550D01*
X84855Y-63549D01*
X84763Y-63587D01*
X84693Y-63658D01*
X84655Y-63750D01*
X84654Y-63849D01*
X84655Y-64037D01*
X84717Y-64100D01*
X84952Y-64100D01*
X84952Y-64200D01*
X84717Y-64200D01*
X84655Y-64262D01*
X84654Y-64450D01*
X84655Y-64549D01*
X84693Y-64641D01*
X84763Y-64712D01*
X84855Y-64750D01*
X84890Y-64750D01*
X84952Y-64687D01*
X84952Y-65701D01*
X84863Y-65706D01*
X84712Y-65768D01*
X84684Y-65864D01*
X85000Y-66179D01*
X85315Y-65864D01*
X85315Y-66005D01*
X85070Y-66250D01*
X85385Y-66565D01*
X85481Y-66537D01*
X85554Y-66331D01*
X85554Y-67168D01*
X85315Y-67104D01*
X85315Y-66635D01*
X85000Y-66320D01*
X84684Y-66635D01*
X84712Y-66731D01*
X84918Y-66804D01*
X85136Y-66793D01*
X85287Y-66731D01*
X85315Y-66635D01*
X85315Y-67104D01*
X84589Y-66911D01*
X84571Y-66910D01*
X84557Y-66905D01*
X84256Y-66854D01*
X84237Y-66808D01*
X84228Y-66800D01*
X84349Y-66800D01*
X84441Y-66762D01*
X84511Y-66691D01*
X84549Y-66599D01*
X84550Y-66546D01*
X84614Y-66565D01*
X84929Y-66250D01*
X84614Y-65934D01*
X84550Y-65953D01*
X84550Y-65900D01*
X84512Y-65808D01*
X84441Y-65738D01*
X84349Y-65700D01*
X84250Y-65699D01*
X83650Y-65699D01*
X83558Y-65737D01*
X83488Y-65808D01*
X83484Y-65817D01*
X83462Y-65763D01*
X83391Y-65693D01*
X83299Y-65655D01*
X83200Y-65654D01*
X82590Y-65654D01*
X82700Y-65544D01*
X82857Y-65545D01*
X83058Y-65462D01*
X83170Y-65350D01*
X83579Y-65350D01*
X83690Y-65461D01*
X83891Y-65544D01*
X84107Y-65545D01*
X84308Y-65462D01*
X84461Y-65309D01*
X84544Y-65108D01*
X84545Y-64892D01*
X84462Y-64691D01*
X84309Y-64538D01*
X84108Y-64455D01*
X83892Y-64454D01*
X83691Y-64537D01*
X83579Y-64650D01*
X83325Y-64650D01*
X83325Y-62462D01*
X83325Y-62050D01*
X83325Y-61950D01*
X83325Y-61537D01*
X83262Y-61475D01*
X83150Y-61474D01*
X83058Y-61512D01*
X82988Y-61583D01*
X82950Y-61675D01*
X82949Y-61774D01*
X82950Y-61887D01*
X83012Y-61950D01*
X83325Y-61950D01*
X83325Y-62050D01*
X83012Y-62050D01*
X82950Y-62112D01*
X82949Y-62225D01*
X82950Y-62324D01*
X82988Y-62416D01*
X83058Y-62487D01*
X83150Y-62525D01*
X83262Y-62525D01*
X83325Y-62462D01*
X83325Y-64650D01*
X83170Y-64650D01*
X83100Y-64579D01*
X83100Y-64539D01*
X83166Y-64512D01*
X83236Y-64441D01*
X83274Y-64349D01*
X83275Y-64250D01*
X83275Y-63900D01*
X83237Y-63808D01*
X83178Y-63750D01*
X83237Y-63691D01*
X83275Y-63599D01*
X83275Y-63150D01*
X83237Y-63058D01*
X83166Y-62988D01*
X83074Y-62950D01*
X82975Y-62949D01*
X82862Y-62950D01*
X82800Y-63012D01*
X82800Y-63325D01*
X83212Y-63325D01*
X83275Y-63262D01*
X83275Y-63150D01*
X83275Y-63599D01*
X83275Y-63487D01*
X83212Y-63425D01*
X82800Y-63425D01*
X82800Y-63432D01*
X82700Y-63432D01*
X82700Y-63425D01*
X82700Y-63325D01*
X82700Y-63012D01*
X82637Y-62950D01*
X82524Y-62949D01*
X82425Y-62950D01*
X82333Y-62988D01*
X82262Y-63058D01*
X82224Y-63150D01*
X82225Y-63262D01*
X82287Y-63325D01*
X82700Y-63325D01*
X82700Y-63425D01*
X82287Y-63425D01*
X82225Y-63487D01*
X82224Y-63599D01*
X82262Y-63691D01*
X82321Y-63750D01*
X82263Y-63808D01*
X82225Y-63900D01*
X82224Y-63999D01*
X82224Y-64349D01*
X82262Y-64441D01*
X82333Y-64511D01*
X82400Y-64539D01*
X82400Y-64579D01*
X82288Y-64690D01*
X82205Y-64891D01*
X82204Y-65050D01*
X81989Y-65266D01*
X81989Y-62809D01*
X81750Y-62570D01*
X81510Y-62809D01*
X81525Y-62894D01*
X81693Y-62950D01*
X81869Y-62937D01*
X81974Y-62894D01*
X81989Y-62809D01*
X81989Y-65266D01*
X81299Y-65955D01*
X81299Y-65080D01*
X81288Y-64864D01*
X81227Y-64715D01*
X81132Y-64688D01*
X81061Y-64759D01*
X81061Y-64617D01*
X81034Y-64522D01*
X80830Y-64450D01*
X80614Y-64461D01*
X80465Y-64522D01*
X80438Y-64617D01*
X80750Y-64929D01*
X81061Y-64617D01*
X81061Y-64759D01*
X80820Y-65000D01*
X81132Y-65311D01*
X81227Y-65284D01*
X81299Y-65080D01*
X81299Y-65955D01*
X81200Y-66054D01*
X81200Y-65855D01*
X81162Y-65763D01*
X81091Y-65693D01*
X81061Y-65680D01*
X81061Y-65382D01*
X80750Y-65070D01*
X80679Y-65141D01*
X80679Y-65000D01*
X80367Y-64688D01*
X80272Y-64715D01*
X80250Y-64779D01*
X80250Y-63144D01*
X80250Y-63110D01*
X80187Y-63047D01*
X79700Y-63047D01*
X79700Y-63282D01*
X79762Y-63345D01*
X79950Y-63345D01*
X80049Y-63344D01*
X80141Y-63306D01*
X80212Y-63236D01*
X80250Y-63144D01*
X80250Y-64779D01*
X80200Y-64919D01*
X80211Y-65135D01*
X80272Y-65284D01*
X80367Y-65311D01*
X80679Y-65000D01*
X80679Y-65141D01*
X80438Y-65382D01*
X80465Y-65477D01*
X80669Y-65549D01*
X80885Y-65538D01*
X81034Y-65477D01*
X81061Y-65382D01*
X81061Y-65680D01*
X80999Y-65655D01*
X80900Y-65654D01*
X80712Y-65655D01*
X80650Y-65717D01*
X80650Y-65952D01*
X81137Y-65952D01*
X81200Y-65890D01*
X81200Y-65855D01*
X81200Y-66054D01*
X81172Y-66082D01*
X81137Y-66047D01*
X80650Y-66047D01*
X80650Y-66057D01*
X80550Y-66057D01*
X80550Y-66047D01*
X80550Y-65952D01*
X80550Y-65717D01*
X80487Y-65655D01*
X80299Y-65654D01*
X80200Y-65655D01*
X80108Y-65693D01*
X80037Y-65763D01*
X79999Y-65855D01*
X80000Y-65890D01*
X80062Y-65952D01*
X80550Y-65952D01*
X80550Y-66047D01*
X80062Y-66047D01*
X80000Y-66110D01*
X79999Y-66144D01*
X80037Y-66236D01*
X80051Y-66249D01*
X80038Y-66263D01*
X80000Y-66355D01*
X79999Y-66454D01*
X79999Y-66644D01*
X80037Y-66736D01*
X80051Y-66749D01*
X80038Y-66763D01*
X80000Y-66855D01*
X79999Y-66954D01*
X79999Y-67144D01*
X80022Y-67200D01*
X79600Y-67200D01*
X79600Y-63282D01*
X79600Y-63047D01*
X79112Y-63047D01*
X79050Y-63110D01*
X79049Y-63144D01*
X79087Y-63236D01*
X79158Y-63306D01*
X79250Y-63344D01*
X79349Y-63345D01*
X79537Y-63345D01*
X79600Y-63282D01*
X79600Y-67200D01*
X79050Y-67200D01*
X79050Y-63975D01*
X79050Y-63524D01*
X79049Y-63425D01*
X79011Y-63333D01*
X78941Y-63262D01*
X78849Y-63224D01*
X78737Y-63225D01*
X78675Y-63287D01*
X78675Y-63700D01*
X78987Y-63700D01*
X79050Y-63637D01*
X79050Y-63524D01*
X79050Y-63975D01*
X79050Y-63862D01*
X78987Y-63800D01*
X78675Y-63800D01*
X78675Y-64212D01*
X78737Y-64275D01*
X78849Y-64275D01*
X78941Y-64237D01*
X79011Y-64166D01*
X79049Y-64074D01*
X79050Y-63975D01*
X79050Y-67200D01*
X79050Y-67200D01*
X79050Y-66000D01*
X79049Y-65999D01*
X79027Y-65885D01*
X78962Y-65787D01*
X78962Y-65787D01*
X78212Y-65037D01*
X78212Y-65037D01*
X78212Y-65037D01*
X76800Y-63625D01*
X76800Y-63301D01*
X76826Y-63274D01*
X76858Y-63306D01*
X76950Y-63344D01*
X77049Y-63345D01*
X77483Y-63345D01*
X77450Y-63425D01*
X77449Y-63524D01*
X77449Y-64074D01*
X77487Y-64166D01*
X77558Y-64236D01*
X77650Y-64274D01*
X77749Y-64275D01*
X78099Y-64275D01*
X78191Y-64237D01*
X78250Y-64178D01*
X78308Y-64237D01*
X78400Y-64275D01*
X78512Y-64275D01*
X78575Y-64212D01*
X78575Y-63800D01*
X78567Y-63800D01*
X78567Y-63700D01*
X78575Y-63700D01*
X78575Y-63287D01*
X78512Y-63225D01*
X78400Y-63224D01*
X78350Y-63245D01*
X78350Y-63144D01*
X78644Y-62850D01*
X79052Y-62850D01*
X79049Y-62855D01*
X79050Y-62890D01*
X79112Y-62952D01*
X79600Y-62952D01*
X79600Y-62942D01*
X79700Y-62942D01*
X79700Y-62952D01*
X80187Y-62952D01*
X80250Y-62890D01*
X80250Y-62855D01*
X80212Y-62763D01*
X80198Y-62750D01*
X80211Y-62736D01*
X80249Y-62644D01*
X80250Y-62545D01*
X80250Y-62355D01*
X80227Y-62300D01*
X80920Y-62300D01*
X81108Y-62487D01*
X81200Y-62525D01*
X81299Y-62525D01*
X81305Y-62523D01*
X81312Y-62619D01*
X81355Y-62724D01*
X81440Y-62739D01*
X81679Y-62500D01*
X81673Y-62494D01*
X81744Y-62423D01*
X81750Y-62429D01*
X81755Y-62423D01*
X81826Y-62494D01*
X81820Y-62500D01*
X82059Y-62739D01*
X82144Y-62724D01*
X82200Y-62556D01*
X82192Y-62444D01*
X82338Y-62445D01*
X82501Y-62377D01*
X82627Y-62252D01*
X82694Y-62088D01*
X82695Y-61911D01*
X82627Y-61748D01*
X82502Y-61622D01*
X82338Y-61555D01*
X82200Y-61554D01*
X82187Y-61380D01*
X82144Y-61275D01*
X82059Y-61260D01*
X81989Y-61331D01*
X81989Y-61190D01*
X81974Y-61105D01*
X81806Y-61049D01*
X81630Y-61062D01*
X81525Y-61105D01*
X81510Y-61190D01*
X81750Y-61429D01*
X81989Y-61190D01*
X81989Y-61331D01*
X81820Y-61500D01*
X81826Y-61505D01*
X81755Y-61576D01*
X81750Y-61570D01*
X81744Y-61576D01*
X81673Y-61505D01*
X81679Y-61500D01*
X81440Y-61260D01*
X81355Y-61275D01*
X81299Y-61443D01*
X81302Y-61475D01*
X81299Y-61474D01*
X81202Y-61474D01*
X81202Y-59437D01*
X81202Y-58950D01*
X81202Y-58850D01*
X81202Y-58362D01*
X81140Y-58300D01*
X81105Y-58299D01*
X81013Y-58337D01*
X80943Y-58408D01*
X80905Y-58500D01*
X80904Y-58599D01*
X80905Y-58787D01*
X80967Y-58850D01*
X81202Y-58850D01*
X81202Y-58950D01*
X80967Y-58950D01*
X80905Y-59012D01*
X80904Y-59200D01*
X80905Y-59299D01*
X80943Y-59391D01*
X81013Y-59462D01*
X81105Y-59500D01*
X81140Y-59500D01*
X81202Y-59437D01*
X81202Y-61474D01*
X81200Y-61474D01*
X81108Y-61512D01*
X81038Y-61582D01*
X80920Y-61700D01*
X80227Y-61700D01*
X80249Y-61644D01*
X80250Y-61545D01*
X80250Y-61355D01*
X80212Y-61263D01*
X80181Y-61232D01*
X80212Y-61212D01*
X80462Y-60962D01*
X80462Y-60962D01*
X80527Y-60864D01*
X80549Y-60750D01*
X80550Y-60750D01*
X80550Y-58801D01*
X80610Y-58741D01*
X80674Y-58584D01*
X80675Y-58415D01*
X80627Y-58300D01*
X80824Y-58300D01*
X80916Y-58262D01*
X80986Y-58191D01*
X80993Y-58175D01*
X81450Y-58175D01*
X81450Y-58322D01*
X81394Y-58299D01*
X81360Y-58300D01*
X81297Y-58362D01*
X81297Y-58850D01*
X81307Y-58850D01*
X81307Y-58950D01*
X81297Y-58950D01*
X81297Y-59437D01*
X81360Y-59500D01*
X81394Y-59500D01*
X81450Y-59477D01*
X81450Y-59500D01*
X81472Y-59614D01*
X81537Y-59712D01*
X81635Y-59777D01*
X81750Y-59800D01*
X83500Y-59800D01*
X83500Y-59799D01*
X83614Y-59777D01*
X83614Y-59777D01*
X83712Y-59712D01*
X83882Y-59541D01*
X83891Y-59544D01*
X84107Y-59545D01*
X84308Y-59462D01*
X84400Y-59370D01*
X84400Y-60629D01*
X84309Y-60538D01*
X84108Y-60455D01*
X83892Y-60454D01*
X83691Y-60537D01*
X83538Y-60690D01*
X83455Y-60891D01*
X83454Y-61107D01*
X83537Y-61308D01*
X83650Y-61420D01*
X83650Y-61495D01*
X83599Y-61474D01*
X83487Y-61475D01*
X83425Y-61537D01*
X83425Y-61950D01*
X83432Y-61950D01*
X83432Y-62050D01*
X83425Y-62050D01*
X83425Y-62462D01*
X83487Y-62525D01*
X83599Y-62525D01*
X83650Y-62504D01*
X83650Y-62579D01*
X83538Y-62690D01*
X83455Y-62891D01*
X83454Y-63107D01*
X83537Y-63308D01*
X83690Y-63461D01*
X83891Y-63544D01*
X84107Y-63545D01*
X84308Y-63462D01*
X84461Y-63309D01*
X84465Y-63300D01*
X84875Y-63300D01*
X85125Y-63549D01*
X85110Y-63550D01*
X85047Y-63612D01*
X85047Y-64100D01*
X85057Y-64100D01*
X85057Y-64200D01*
X85047Y-64200D01*
X85047Y-64687D01*
X85110Y-64750D01*
X85144Y-64750D01*
X85236Y-64712D01*
X85249Y-64698D01*
X85263Y-64711D01*
X85355Y-64749D01*
X85454Y-64750D01*
X85644Y-64750D01*
X85700Y-64727D01*
X85700Y-64750D01*
X85722Y-64864D01*
X85787Y-64962D01*
X86037Y-65212D01*
X86037Y-65212D01*
X86135Y-65277D01*
X86250Y-65300D01*
X86750Y-65300D01*
X86750Y-65299D01*
X86864Y-65277D01*
X86864Y-65277D01*
X86962Y-65212D01*
X87212Y-64962D01*
X87212Y-64962D01*
X87277Y-64864D01*
X87299Y-64750D01*
X87300Y-64750D01*
X87300Y-64374D01*
X87624Y-64050D01*
X88099Y-64050D01*
X88191Y-64012D01*
X88261Y-63941D01*
X88299Y-63849D01*
X88300Y-63750D01*
X88300Y-63150D01*
X88262Y-63058D01*
X88191Y-62988D01*
X88099Y-62950D01*
X88046Y-62949D01*
X88065Y-62885D01*
X87750Y-62570D01*
X87679Y-62641D01*
X87679Y-62500D01*
X87364Y-62184D01*
X87268Y-62212D01*
X87195Y-62418D01*
X87206Y-62636D01*
X87268Y-62787D01*
X87364Y-62815D01*
X87679Y-62500D01*
X87679Y-62641D01*
X87434Y-62885D01*
X87453Y-62949D01*
X87400Y-62949D01*
X87308Y-62987D01*
X87238Y-63058D01*
X87200Y-63150D01*
X87199Y-63249D01*
X87199Y-63625D01*
X86845Y-63980D01*
X86845Y-63750D01*
X86807Y-63658D01*
X86800Y-63651D01*
X86800Y-63251D01*
X86860Y-63191D01*
X86924Y-63034D01*
X86925Y-62865D01*
X86860Y-62709D01*
X86845Y-62694D01*
X86845Y-62150D01*
X86845Y-61962D01*
X86782Y-61900D01*
X86547Y-61900D01*
X86547Y-62387D01*
X86610Y-62450D01*
X86644Y-62450D01*
X86736Y-62412D01*
X86806Y-62341D01*
X86844Y-62249D01*
X86845Y-62150D01*
X86845Y-62694D01*
X86741Y-62589D01*
X86584Y-62525D01*
X86415Y-62524D01*
X86259Y-62589D01*
X86139Y-62708D01*
X86137Y-62713D01*
X85874Y-62449D01*
X85954Y-62450D01*
X86144Y-62450D01*
X86236Y-62412D01*
X86250Y-62398D01*
X86263Y-62412D01*
X86355Y-62450D01*
X86390Y-62450D01*
X86452Y-62387D01*
X86452Y-61900D01*
X86442Y-61900D01*
X86442Y-61800D01*
X86452Y-61800D01*
X86452Y-61792D01*
X86547Y-61792D01*
X86547Y-61800D01*
X86782Y-61800D01*
X86845Y-61737D01*
X86845Y-61549D01*
X86845Y-61525D01*
X86849Y-61525D01*
X86941Y-61487D01*
X87011Y-61416D01*
X87049Y-61324D01*
X87050Y-61225D01*
X87050Y-60774D01*
X87049Y-60675D01*
X87011Y-60583D01*
X86941Y-60512D01*
X86849Y-60474D01*
X86737Y-60475D01*
X86675Y-60537D01*
X86675Y-60950D01*
X86987Y-60950D01*
X87050Y-60887D01*
X87050Y-60774D01*
X87050Y-61225D01*
X87050Y-61112D01*
X86987Y-61050D01*
X86675Y-61050D01*
X86675Y-61057D01*
X86575Y-61057D01*
X86575Y-61050D01*
X86567Y-61050D01*
X86567Y-60950D01*
X86575Y-60950D01*
X86575Y-60537D01*
X86512Y-60475D01*
X86400Y-60474D01*
X86308Y-60512D01*
X86249Y-60571D01*
X86225Y-60546D01*
X86225Y-60100D01*
X86250Y-60100D01*
X89969Y-60100D01*
X90391Y-62004D01*
X90391Y-62004D01*
G37*
G54D20*
X90391Y-62004D02*
X89669Y-65369D01*
X88304Y-67512D01*
X88304Y-62581D01*
X88293Y-62363D01*
X88231Y-62212D01*
X88135Y-62184D01*
X88065Y-62255D01*
X88065Y-62114D01*
X88037Y-62018D01*
X87831Y-61945D01*
X87613Y-61956D01*
X87462Y-62018D01*
X87434Y-62114D01*
X87750Y-62429D01*
X88065Y-62114D01*
X88065Y-62255D01*
X87820Y-62500D01*
X88135Y-62815D01*
X88231Y-62787D01*
X88304Y-62581D01*
X88304Y-67512D01*
X88093Y-67844D01*
X85554Y-67168D01*
X85554Y-66331D01*
X85543Y-66113D01*
X85481Y-65962D01*
X85385Y-65934D01*
X85315Y-66005D01*
X85315Y-65864D01*
X85287Y-65768D01*
X85081Y-65695D01*
X84952Y-65701D01*
X84952Y-64687D01*
X84952Y-64200D01*
X84952Y-64100D01*
X84952Y-63612D01*
X84890Y-63550D01*
X84855Y-63549D01*
X84763Y-63587D01*
X84693Y-63658D01*
X84655Y-63750D01*
X84654Y-63849D01*
X84655Y-64037D01*
X84717Y-64100D01*
X84952Y-64100D01*
X84952Y-64200D01*
X84717Y-64200D01*
X84655Y-64262D01*
X84654Y-64450D01*
X84655Y-64549D01*
X84693Y-64641D01*
X84763Y-64712D01*
X84855Y-64750D01*
X84890Y-64750D01*
X84952Y-64687D01*
X84952Y-65701D01*
X84863Y-65706D01*
X84712Y-65768D01*
X84684Y-65864D01*
X85000Y-66179D01*
X85315Y-65864D01*
X85315Y-66005D01*
X85070Y-66250D01*
X85385Y-66565D01*
X85481Y-66537D01*
X85554Y-66331D01*
X85554Y-67168D01*
X85315Y-67104D01*
X85315Y-66635D01*
X85000Y-66320D01*
X84684Y-66635D01*
X84712Y-66731D01*
X84918Y-66804D01*
X85136Y-66793D01*
X85287Y-66731D01*
X85315Y-66635D01*
X85315Y-67104D01*
X84589Y-66911D01*
X84571Y-66910D01*
X84557Y-66905D01*
X84256Y-66854D01*
X84237Y-66808D01*
X84228Y-66800D01*
X84349Y-66800D01*
X84441Y-66762D01*
X84511Y-66691D01*
X84549Y-66599D01*
X84550Y-66546D01*
X84614Y-66565D01*
X84929Y-66250D01*
X84614Y-65934D01*
X84550Y-65953D01*
X84550Y-65900D01*
X84512Y-65808D01*
X84441Y-65738D01*
X84349Y-65700D01*
X84250Y-65699D01*
X83650Y-65699D01*
X83558Y-65737D01*
X83488Y-65808D01*
X83484Y-65817D01*
X83462Y-65763D01*
X83391Y-65693D01*
X83299Y-65655D01*
X83200Y-65654D01*
X82590Y-65654D01*
X82700Y-65544D01*
X82857Y-65545D01*
X83058Y-65462D01*
X83170Y-65350D01*
X83579Y-65350D01*
X83690Y-65461D01*
X83891Y-65544D01*
X84107Y-65545D01*
X84308Y-65462D01*
X84461Y-65309D01*
X84544Y-65108D01*
X84545Y-64892D01*
X84462Y-64691D01*
X84309Y-64538D01*
X84108Y-64455D01*
X83892Y-64454D01*
X83691Y-64537D01*
X83579Y-64650D01*
X83325Y-64650D01*
X83325Y-62462D01*
X83325Y-62050D01*
X83325Y-61950D01*
X83325Y-61537D01*
X83262Y-61475D01*
X83150Y-61474D01*
X83058Y-61512D01*
X82988Y-61583D01*
X82950Y-61675D01*
X82949Y-61774D01*
X82950Y-61887D01*
X83012Y-61950D01*
X83325Y-61950D01*
X83325Y-62050D01*
X83012Y-62050D01*
X82950Y-62112D01*
X82949Y-62225D01*
X82950Y-62324D01*
X82988Y-62416D01*
X83058Y-62487D01*
X83150Y-62525D01*
X83262Y-62525D01*
X83325Y-62462D01*
X83325Y-64650D01*
X83170Y-64650D01*
X83100Y-64579D01*
X83100Y-64539D01*
X83166Y-64512D01*
X83236Y-64441D01*
X83274Y-64349D01*
X83275Y-64250D01*
X83275Y-63900D01*
X83237Y-63808D01*
X83178Y-63750D01*
X83237Y-63691D01*
X83275Y-63599D01*
X83275Y-63150D01*
X83237Y-63058D01*
X83166Y-62988D01*
X83074Y-62950D01*
X82975Y-62949D01*
X82862Y-62950D01*
X82800Y-63012D01*
X82800Y-63325D01*
X83212Y-63325D01*
X83275Y-63262D01*
X83275Y-63150D01*
X83275Y-63599D01*
X83275Y-63487D01*
X83212Y-63425D01*
X82800Y-63425D01*
X82800Y-63432D01*
X82700Y-63432D01*
X82700Y-63425D01*
X82700Y-63325D01*
X82700Y-63012D01*
X82637Y-62950D01*
X82524Y-62949D01*
X82425Y-62950D01*
X82333Y-62988D01*
X82262Y-63058D01*
X82224Y-63150D01*
X82225Y-63262D01*
X82287Y-63325D01*
X82700Y-63325D01*
X82700Y-63425D01*
X82287Y-63425D01*
X82225Y-63487D01*
X82224Y-63599D01*
X82262Y-63691D01*
X82321Y-63750D01*
X82263Y-63808D01*
X82225Y-63900D01*
X82224Y-63999D01*
X82224Y-64349D01*
X82262Y-64441D01*
X82333Y-64511D01*
X82400Y-64539D01*
X82400Y-64579D01*
X82288Y-64690D01*
X82205Y-64891D01*
X82204Y-65050D01*
X81989Y-65266D01*
X81989Y-62809D01*
X81750Y-62570D01*
X81510Y-62809D01*
X81525Y-62894D01*
X81693Y-62950D01*
X81869Y-62937D01*
X81974Y-62894D01*
X81989Y-62809D01*
X81989Y-65266D01*
X81299Y-65955D01*
X81299Y-65080D01*
X81288Y-64864D01*
X81227Y-64715D01*
X81132Y-64688D01*
X81061Y-64759D01*
X81061Y-64617D01*
X81034Y-64522D01*
X80830Y-64450D01*
X80614Y-64461D01*
X80465Y-64522D01*
X80438Y-64617D01*
X80750Y-64929D01*
X81061Y-64617D01*
X81061Y-64759D01*
X80820Y-65000D01*
X81132Y-65311D01*
X81227Y-65284D01*
X81299Y-65080D01*
X81299Y-65955D01*
X81200Y-66054D01*
X81200Y-65855D01*
X81162Y-65763D01*
X81091Y-65693D01*
X81061Y-65680D01*
X81061Y-65382D01*
X80750Y-65070D01*
X80679Y-65141D01*
X80679Y-65000D01*
X80367Y-64688D01*
X80272Y-64715D01*
X80250Y-64779D01*
X80250Y-63144D01*
X80250Y-63110D01*
X80187Y-63047D01*
X79700Y-63047D01*
X79700Y-63282D01*
X79762Y-63345D01*
X79950Y-63345D01*
X80049Y-63344D01*
X80141Y-63306D01*
X80212Y-63236D01*
X80250Y-63144D01*
X80250Y-64779D01*
X80200Y-64919D01*
X80211Y-65135D01*
X80272Y-65284D01*
X80367Y-65311D01*
X80679Y-65000D01*
X80679Y-65141D01*
X80438Y-65382D01*
X80465Y-65477D01*
X80669Y-65549D01*
X80885Y-65538D01*
X81034Y-65477D01*
X81061Y-65382D01*
X81061Y-65680D01*
X80999Y-65655D01*
X80900Y-65654D01*
X80712Y-65655D01*
X80650Y-65717D01*
X80650Y-65952D01*
X81137Y-65952D01*
X81200Y-65890D01*
X81200Y-65855D01*
X81200Y-66054D01*
X81172Y-66082D01*
X81137Y-66047D01*
X80650Y-66047D01*
X80650Y-66057D01*
X80550Y-66057D01*
X80550Y-66047D01*
X80550Y-65952D01*
X80550Y-65717D01*
X80487Y-65655D01*
X80299Y-65654D01*
X80200Y-65655D01*
X80108Y-65693D01*
X80037Y-65763D01*
X79999Y-65855D01*
X80000Y-65890D01*
X80062Y-65952D01*
X80550Y-65952D01*
X80550Y-66047D01*
X80062Y-66047D01*
X80000Y-66110D01*
X79999Y-66144D01*
X80037Y-66236D01*
X80051Y-66249D01*
X80038Y-66263D01*
X80000Y-66355D01*
X79999Y-66454D01*
X79999Y-66644D01*
X80037Y-66736D01*
X80051Y-66749D01*
X80038Y-66763D01*
X80000Y-66855D01*
X79999Y-66954D01*
X79999Y-67144D01*
X80022Y-67200D01*
X79600Y-67200D01*
X79600Y-63282D01*
X79600Y-63047D01*
X79112Y-63047D01*
X79050Y-63110D01*
X79049Y-63144D01*
X79087Y-63236D01*
X79158Y-63306D01*
X79250Y-63344D01*
X79349Y-63345D01*
X79537Y-63345D01*
X79600Y-63282D01*
X79600Y-67200D01*
X79050Y-67200D01*
X79050Y-63975D01*
X79050Y-63524D01*
X79049Y-63425D01*
X79011Y-63333D01*
X78941Y-63262D01*
X78849Y-63224D01*
X78737Y-63225D01*
X78675Y-63287D01*
X78675Y-63700D01*
X78987Y-63700D01*
X79050Y-63637D01*
X79050Y-63524D01*
X79050Y-63975D01*
X79050Y-63862D01*
X78987Y-63800D01*
X78675Y-63800D01*
X78675Y-64212D01*
X78737Y-64275D01*
X78849Y-64275D01*
X78941Y-64237D01*
X79011Y-64166D01*
X79049Y-64074D01*
X79050Y-63975D01*
X79050Y-67200D01*
X79050Y-67200D01*
X79050Y-66000D01*
X79049Y-65999D01*
X79027Y-65885D01*
X78962Y-65787D01*
X78962Y-65787D01*
X78212Y-65037D01*
X78212Y-65037D01*
X78212Y-65037D01*
X76800Y-63625D01*
X76800Y-63301D01*
X76826Y-63274D01*
X76858Y-63306D01*
X76950Y-63344D01*
X77049Y-63345D01*
X77483Y-63345D01*
X77450Y-63425D01*
X77449Y-63524D01*
X77449Y-64074D01*
X77487Y-64166D01*
X77558Y-64236D01*
X77650Y-64274D01*
X77749Y-64275D01*
X78099Y-64275D01*
X78191Y-64237D01*
X78250Y-64178D01*
X78308Y-64237D01*
X78400Y-64275D01*
X78512Y-64275D01*
X78575Y-64212D01*
X78575Y-63800D01*
X78567Y-63800D01*
X78567Y-63700D01*
X78575Y-63700D01*
X78575Y-63287D01*
X78512Y-63225D01*
X78400Y-63224D01*
X78350Y-63245D01*
X78350Y-63144D01*
X78644Y-62850D01*
X79052Y-62850D01*
X79049Y-62855D01*
X79050Y-62890D01*
X79112Y-62952D01*
X79600Y-62952D01*
X79600Y-62942D01*
X79700Y-62942D01*
X79700Y-62952D01*
X80187Y-62952D01*
X80250Y-62890D01*
X80250Y-62855D01*
X80212Y-62763D01*
X80198Y-62750D01*
X80211Y-62736D01*
X80249Y-62644D01*
X80250Y-62545D01*
X80250Y-62355D01*
X80227Y-62300D01*
X80920Y-62300D01*
X81108Y-62487D01*
X81200Y-62525D01*
X81299Y-62525D01*
X81305Y-62523D01*
X81312Y-62619D01*
X81355Y-62724D01*
X81440Y-62739D01*
X81679Y-62500D01*
X81673Y-62494D01*
X81744Y-62423D01*
X81750Y-62429D01*
X81755Y-62423D01*
X81826Y-62494D01*
X81820Y-62500D01*
X82059Y-62739D01*
X82144Y-62724D01*
X82200Y-62556D01*
X82192Y-62444D01*
X82338Y-62445D01*
X82501Y-62377D01*
X82627Y-62252D01*
X82694Y-62088D01*
X82695Y-61911D01*
X82627Y-61748D01*
X82502Y-61622D01*
X82338Y-61555D01*
X82200Y-61554D01*
X82187Y-61380D01*
X82144Y-61275D01*
X82059Y-61260D01*
X81989Y-61331D01*
X81989Y-61190D01*
X81974Y-61105D01*
X81806Y-61049D01*
X81630Y-61062D01*
X81525Y-61105D01*
X81510Y-61190D01*
X81750Y-61429D01*
X81989Y-61190D01*
X81989Y-61331D01*
X81820Y-61500D01*
X81826Y-61505D01*
X81755Y-61576D01*
X81750Y-61570D01*
X81744Y-61576D01*
X81673Y-61505D01*
X81679Y-61500D01*
X81440Y-61260D01*
X81355Y-61275D01*
X81299Y-61443D01*
X81302Y-61475D01*
X81299Y-61474D01*
X81202Y-61474D01*
X81202Y-59437D01*
X81202Y-58950D01*
X81202Y-58850D01*
X81202Y-58362D01*
X81140Y-58300D01*
X81105Y-58299D01*
X81013Y-58337D01*
X80943Y-58408D01*
X80905Y-58500D01*
X80904Y-58599D01*
X80905Y-58787D01*
X80967Y-58850D01*
X81202Y-58850D01*
X81202Y-58950D01*
X80967Y-58950D01*
X80905Y-59012D01*
X80904Y-59200D01*
X80905Y-59299D01*
X80943Y-59391D01*
X81013Y-59462D01*
X81105Y-59500D01*
X81140Y-59500D01*
X81202Y-59437D01*
X81202Y-61474D01*
X81200Y-61474D01*
X81108Y-61512D01*
X81038Y-61582D01*
X80920Y-61700D01*
X80227Y-61700D01*
X80249Y-61644D01*
X80250Y-61545D01*
X80250Y-61355D01*
X80212Y-61263D01*
X80181Y-61232D01*
X80212Y-61212D01*
X80462Y-60962D01*
X80462Y-60962D01*
X80527Y-60864D01*
X80549Y-60750D01*
X80550Y-60750D01*
X80550Y-58801D01*
X80610Y-58741D01*
X80674Y-58584D01*
X80675Y-58415D01*
X80627Y-58300D01*
X80824Y-58300D01*
X80916Y-58262D01*
X80986Y-58191D01*
X80993Y-58175D01*
X81450Y-58175D01*
X81450Y-58322D01*
X81394Y-58299D01*
X81360Y-58300D01*
X81297Y-58362D01*
X81297Y-58850D01*
X81307Y-58850D01*
X81307Y-58950D01*
X81297Y-58950D01*
X81297Y-59437D01*
X81360Y-59500D01*
X81394Y-59500D01*
X81450Y-59477D01*
X81450Y-59500D01*
X81472Y-59614D01*
X81537Y-59712D01*
X81635Y-59777D01*
X81750Y-59800D01*
X83500Y-59800D01*
X83500Y-59799D01*
X83614Y-59777D01*
X83614Y-59777D01*
X83712Y-59712D01*
X83882Y-59541D01*
X83891Y-59544D01*
X84107Y-59545D01*
X84308Y-59462D01*
X84400Y-59370D01*
X84400Y-60629D01*
X84309Y-60538D01*
X84108Y-60455D01*
X83892Y-60454D01*
X83691Y-60537D01*
X83538Y-60690D01*
X83455Y-60891D01*
X83454Y-61107D01*
X83537Y-61308D01*
X83650Y-61420D01*
X83650Y-61495D01*
X83599Y-61474D01*
X83487Y-61475D01*
X83425Y-61537D01*
X83425Y-61950D01*
X83432Y-61950D01*
X83432Y-62050D01*
X83425Y-62050D01*
X83425Y-62462D01*
X83487Y-62525D01*
X83599Y-62525D01*
X83650Y-62504D01*
X83650Y-62579D01*
X83538Y-62690D01*
X83455Y-62891D01*
X83454Y-63107D01*
X83537Y-63308D01*
X83690Y-63461D01*
X83891Y-63544D01*
X84107Y-63545D01*
X84308Y-63462D01*
X84461Y-63309D01*
X84465Y-63300D01*
X84875Y-63300D01*
X85125Y-63549D01*
X85110Y-63550D01*
X85047Y-63612D01*
X85047Y-64100D01*
X85057Y-64100D01*
X85057Y-64200D01*
X85047Y-64200D01*
X85047Y-64687D01*
X85110Y-64750D01*
X85144Y-64750D01*
X85236Y-64712D01*
X85249Y-64698D01*
X85263Y-64711D01*
X85355Y-64749D01*
X85454Y-64750D01*
X85644Y-64750D01*
X85700Y-64727D01*
X85700Y-64750D01*
X85722Y-64864D01*
X85787Y-64962D01*
X86037Y-65212D01*
X86037Y-65212D01*
X86135Y-65277D01*
X86250Y-65300D01*
X86750Y-65300D01*
X86750Y-65299D01*
X86864Y-65277D01*
X86864Y-65277D01*
X86962Y-65212D01*
X87212Y-64962D01*
X87212Y-64962D01*
X87277Y-64864D01*
X87299Y-64750D01*
X87300Y-64750D01*
X87300Y-64374D01*
X87624Y-64050D01*
X88099Y-64050D01*
X88191Y-64012D01*
X88261Y-63941D01*
X88299Y-63849D01*
X88300Y-63750D01*
X88300Y-63150D01*
X88262Y-63058D01*
X88191Y-62988D01*
X88099Y-62950D01*
X88046Y-62949D01*
X88065Y-62885D01*
X87750Y-62570D01*
X87679Y-62641D01*
X87679Y-62500D01*
X87364Y-62184D01*
X87268Y-62212D01*
X87195Y-62418D01*
X87206Y-62636D01*
X87268Y-62787D01*
X87364Y-62815D01*
X87679Y-62500D01*
X87679Y-62641D01*
X87434Y-62885D01*
X87453Y-62949D01*
X87400Y-62949D01*
X87308Y-62987D01*
X87238Y-63058D01*
X87200Y-63150D01*
X87199Y-63249D01*
X87199Y-63625D01*
X86845Y-63980D01*
X86845Y-63750D01*
X86807Y-63658D01*
X86800Y-63651D01*
X86800Y-63251D01*
X86860Y-63191D01*
X86924Y-63034D01*
X86925Y-62865D01*
X86860Y-62709D01*
X86845Y-62694D01*
X86845Y-62150D01*
X86845Y-61962D01*
X86782Y-61900D01*
X86547Y-61900D01*
X86547Y-62387D01*
X86610Y-62450D01*
X86644Y-62450D01*
X86736Y-62412D01*
X86806Y-62341D01*
X86844Y-62249D01*
X86845Y-62150D01*
X86845Y-62694D01*
X86741Y-62589D01*
X86584Y-62525D01*
X86415Y-62524D01*
X86259Y-62589D01*
X86139Y-62708D01*
X86137Y-62713D01*
X85874Y-62449D01*
X85954Y-62450D01*
X86144Y-62450D01*
X86236Y-62412D01*
X86250Y-62398D01*
X86263Y-62412D01*
X86355Y-62450D01*
X86390Y-62450D01*
X86452Y-62387D01*
X86452Y-61900D01*
X86442Y-61900D01*
X86442Y-61800D01*
X86452Y-61800D01*
X86452Y-61792D01*
X86547Y-61792D01*
X86547Y-61800D01*
X86782Y-61800D01*
X86845Y-61737D01*
X86845Y-61549D01*
X86845Y-61525D01*
X86849Y-61525D01*
X86941Y-61487D01*
X87011Y-61416D01*
X87049Y-61324D01*
X87050Y-61225D01*
X87050Y-60774D01*
X87049Y-60675D01*
X87011Y-60583D01*
X86941Y-60512D01*
X86849Y-60474D01*
X86737Y-60475D01*
X86675Y-60537D01*
X86675Y-60950D01*
X86987Y-60950D01*
X87050Y-60887D01*
X87050Y-60774D01*
X87050Y-61225D01*
X87050Y-61112D01*
X86987Y-61050D01*
X86675Y-61050D01*
X86675Y-61057D01*
X86575Y-61057D01*
X86575Y-61050D01*
X86567Y-61050D01*
X86567Y-60950D01*
X86575Y-60950D01*
X86575Y-60537D01*
X86512Y-60475D01*
X86400Y-60474D01*
X86308Y-60512D01*
X86249Y-60571D01*
X86225Y-60546D01*
X86225Y-60100D01*
X86250Y-60100D01*
X89969Y-60100D01*
X90391Y-62004D01*
G54D10*
G36*
X90476Y-59488D02*
X90465Y-59481D01*
X90438Y-59454D01*
X90409Y-59443D01*
X90383Y-59426D01*
X90346Y-59419D01*
X90310Y-59405D01*
X90280Y-59405D01*
X90250Y-59400D01*
X87344Y-59400D01*
X87495Y-59249D01*
X87629Y-58925D01*
X87630Y-58575D01*
X87496Y-58252D01*
X87249Y-58004D01*
X86925Y-57870D01*
X86575Y-57869D01*
X86252Y-58003D01*
X86004Y-58250D01*
X85870Y-58574D01*
X85869Y-58924D01*
X86003Y-59247D01*
X86155Y-59400D01*
X86144Y-59400D01*
X85850Y-59105D01*
X85850Y-58000D01*
X85823Y-57866D01*
X85804Y-57838D01*
X85804Y-55831D01*
X85793Y-55613D01*
X85731Y-55462D01*
X85635Y-55434D01*
X85565Y-55505D01*
X85565Y-55364D01*
X85537Y-55268D01*
X85331Y-55195D01*
X85113Y-55206D01*
X84962Y-55268D01*
X84934Y-55364D01*
X85250Y-55679D01*
X85565Y-55364D01*
X85565Y-55505D01*
X85320Y-55750D01*
X85635Y-56065D01*
X85731Y-56037D01*
X85804Y-55831D01*
X85804Y-57838D01*
X85747Y-57752D01*
X85582Y-57587D01*
X85600Y-57500D01*
X85599Y-57500D01*
X85600Y-57500D01*
X85600Y-57299D01*
X85691Y-57262D01*
X85761Y-57191D01*
X85799Y-57099D01*
X85800Y-57000D01*
X85800Y-56400D01*
X85762Y-56308D01*
X85691Y-56238D01*
X85599Y-56200D01*
X85546Y-56199D01*
X85565Y-56135D01*
X85250Y-55820D01*
X85179Y-55891D01*
X85179Y-55750D01*
X84864Y-55434D01*
X84768Y-55462D01*
X84695Y-55668D01*
X84706Y-55886D01*
X84768Y-56037D01*
X84864Y-56065D01*
X85179Y-55750D01*
X85179Y-55891D01*
X84934Y-56135D01*
X84953Y-56199D01*
X84900Y-56199D01*
X84808Y-56237D01*
X84738Y-56308D01*
X84700Y-56400D01*
X84699Y-56499D01*
X84699Y-57099D01*
X84737Y-57191D01*
X84808Y-57261D01*
X84839Y-57275D01*
X84203Y-57275D01*
X84178Y-57250D01*
X84237Y-57191D01*
X84275Y-57099D01*
X84275Y-56650D01*
X84237Y-56558D01*
X84166Y-56488D01*
X84074Y-56450D01*
X83975Y-56449D01*
X83862Y-56450D01*
X83800Y-56512D01*
X83800Y-56825D01*
X84212Y-56825D01*
X84275Y-56762D01*
X84275Y-56650D01*
X84275Y-57099D01*
X84275Y-56987D01*
X84212Y-56925D01*
X83800Y-56925D01*
X83800Y-56932D01*
X83700Y-56932D01*
X83700Y-56925D01*
X83700Y-56825D01*
X83700Y-56512D01*
X83637Y-56450D01*
X83524Y-56449D01*
X83425Y-56450D01*
X83333Y-56488D01*
X83262Y-56558D01*
X83224Y-56650D01*
X83225Y-56762D01*
X83287Y-56825D01*
X83700Y-56825D01*
X83700Y-56925D01*
X83287Y-56925D01*
X83225Y-56987D01*
X83224Y-57099D01*
X83262Y-57191D01*
X83321Y-57250D01*
X83296Y-57275D01*
X83095Y-57275D01*
X83095Y-56900D01*
X83095Y-56299D01*
X83094Y-56200D01*
X83056Y-56108D01*
X82986Y-56037D01*
X82894Y-55999D01*
X82860Y-56000D01*
X82804Y-56055D01*
X82804Y-55331D01*
X82793Y-55113D01*
X82731Y-54962D01*
X82635Y-54934D01*
X82565Y-55005D01*
X82565Y-54864D01*
X82537Y-54768D01*
X82331Y-54695D01*
X82113Y-54706D01*
X81962Y-54768D01*
X81934Y-54864D01*
X82250Y-55179D01*
X82565Y-54864D01*
X82565Y-55005D01*
X82320Y-55250D01*
X82635Y-55565D01*
X82731Y-55537D01*
X82804Y-55331D01*
X82804Y-56055D01*
X82797Y-56062D01*
X82797Y-56550D01*
X83032Y-56550D01*
X83095Y-56487D01*
X83095Y-56299D01*
X83095Y-56900D01*
X83095Y-56712D01*
X83032Y-56650D01*
X82797Y-56650D01*
X82797Y-57137D01*
X82860Y-57200D01*
X82894Y-57200D01*
X82986Y-57162D01*
X83056Y-57091D01*
X83094Y-56999D01*
X83095Y-56900D01*
X83095Y-57275D01*
X82769Y-57275D01*
X82667Y-57172D01*
X82702Y-57137D01*
X82702Y-56650D01*
X82692Y-56650D01*
X82692Y-56550D01*
X82702Y-56550D01*
X82702Y-56062D01*
X82640Y-56000D01*
X82605Y-55999D01*
X82513Y-56037D01*
X82500Y-56051D01*
X82486Y-56038D01*
X82394Y-56000D01*
X82295Y-55999D01*
X82105Y-55999D01*
X82050Y-56022D01*
X82050Y-55762D01*
X82168Y-55804D01*
X82386Y-55793D01*
X82537Y-55731D01*
X82565Y-55635D01*
X82250Y-55320D01*
X82244Y-55326D01*
X82173Y-55255D01*
X82179Y-55250D01*
X81864Y-54934D01*
X81800Y-54953D01*
X81800Y-54900D01*
X81762Y-54808D01*
X81691Y-54738D01*
X81599Y-54700D01*
X81500Y-54699D01*
X80900Y-54699D01*
X80808Y-54737D01*
X80738Y-54808D01*
X80700Y-54900D01*
X80699Y-54999D01*
X80699Y-55599D01*
X80737Y-55691D01*
X80808Y-55761D01*
X80900Y-55799D01*
X80999Y-55800D01*
X81375Y-55800D01*
X81450Y-55874D01*
X81450Y-56022D01*
X81394Y-56000D01*
X81295Y-55999D01*
X81105Y-55999D01*
X81013Y-56037D01*
X80943Y-56108D01*
X80905Y-56200D01*
X80904Y-56299D01*
X80904Y-56733D01*
X80824Y-56700D01*
X80725Y-56699D01*
X80612Y-56700D01*
X80550Y-56762D01*
X80550Y-57075D01*
X80557Y-57075D01*
X80557Y-57175D01*
X80550Y-57175D01*
X80550Y-57182D01*
X80450Y-57182D01*
X80450Y-57175D01*
X80450Y-57075D01*
X80450Y-56762D01*
X80387Y-56700D01*
X80274Y-56699D01*
X80175Y-56700D01*
X80083Y-56738D01*
X80012Y-56808D01*
X79974Y-56900D01*
X79975Y-57012D01*
X80037Y-57075D01*
X80450Y-57075D01*
X80450Y-57175D01*
X80037Y-57175D01*
X79975Y-57237D01*
X79974Y-57349D01*
X80012Y-57441D01*
X80021Y-57450D01*
X79965Y-57450D01*
X79962Y-57441D01*
X79809Y-57288D01*
X79608Y-57205D01*
X79525Y-57205D01*
X79500Y-57200D01*
X79474Y-57204D01*
X79392Y-57204D01*
X79191Y-57287D01*
X79050Y-57429D01*
X79050Y-57374D01*
X79382Y-57041D01*
X79391Y-57044D01*
X79607Y-57045D01*
X79808Y-56962D01*
X79961Y-56809D01*
X80044Y-56608D01*
X80045Y-56392D01*
X79962Y-56191D01*
X79809Y-56038D01*
X79608Y-55955D01*
X79392Y-55954D01*
X79191Y-56037D01*
X79038Y-56190D01*
X78955Y-56391D01*
X78954Y-56607D01*
X78958Y-56617D01*
X78537Y-57037D01*
X78472Y-57135D01*
X78450Y-57250D01*
X78450Y-58250D01*
X78472Y-58364D01*
X78537Y-58462D01*
X78958Y-58882D01*
X78955Y-58891D01*
X78954Y-59107D01*
X78958Y-59117D01*
X78287Y-59787D01*
X78222Y-59885D01*
X78200Y-60000D01*
X78200Y-60525D01*
X78049Y-60375D01*
X78049Y-56580D01*
X78038Y-56364D01*
X77977Y-56215D01*
X77882Y-56188D01*
X77811Y-56259D01*
X77811Y-56117D01*
X77784Y-56022D01*
X77580Y-55950D01*
X77364Y-55961D01*
X77215Y-56022D01*
X77188Y-56117D01*
X77500Y-56429D01*
X77811Y-56117D01*
X77811Y-56259D01*
X77570Y-56500D01*
X77882Y-56811D01*
X77977Y-56784D01*
X78049Y-56580D01*
X78049Y-60375D01*
X78041Y-60367D01*
X78044Y-60358D01*
X78045Y-60142D01*
X77962Y-59941D01*
X77809Y-59788D01*
X77800Y-59784D01*
X77800Y-59465D01*
X77808Y-59462D01*
X77961Y-59309D01*
X78044Y-59108D01*
X78045Y-58892D01*
X77962Y-58691D01*
X77809Y-58538D01*
X77800Y-58534D01*
X77800Y-58215D01*
X77808Y-58212D01*
X77961Y-58059D01*
X78044Y-57858D01*
X78045Y-57642D01*
X77962Y-57441D01*
X77811Y-57290D01*
X77811Y-56882D01*
X77500Y-56570D01*
X77429Y-56641D01*
X77429Y-56500D01*
X77117Y-56188D01*
X77022Y-56215D01*
X76950Y-56419D01*
X76961Y-56635D01*
X77022Y-56784D01*
X77117Y-56811D01*
X77429Y-56500D01*
X77429Y-56641D01*
X77188Y-56882D01*
X77215Y-56977D01*
X77419Y-57049D01*
X77635Y-57038D01*
X77784Y-56977D01*
X77811Y-56882D01*
X77811Y-57290D01*
X77809Y-57288D01*
X77608Y-57205D01*
X77392Y-57204D01*
X77191Y-57287D01*
X77038Y-57440D01*
X76955Y-57641D01*
X76954Y-57857D01*
X77037Y-58058D01*
X77190Y-58211D01*
X77200Y-58215D01*
X77200Y-58534D01*
X77191Y-58537D01*
X77038Y-58690D01*
X77034Y-58700D01*
X76800Y-58700D01*
X76800Y-58650D01*
X76762Y-58558D01*
X76691Y-58488D01*
X76599Y-58450D01*
X76500Y-58449D01*
X75900Y-58449D01*
X75808Y-58487D01*
X75738Y-58558D01*
X75700Y-58650D01*
X75699Y-58749D01*
X75699Y-59349D01*
X75737Y-59441D01*
X75808Y-59511D01*
X75900Y-59549D01*
X75953Y-59550D01*
X75934Y-59614D01*
X76250Y-59929D01*
X76565Y-59614D01*
X76546Y-59550D01*
X76599Y-59550D01*
X76691Y-59512D01*
X76761Y-59441D01*
X76799Y-59349D01*
X76799Y-59300D01*
X77034Y-59300D01*
X77037Y-59308D01*
X77190Y-59461D01*
X77200Y-59465D01*
X77200Y-59784D01*
X77191Y-59787D01*
X77038Y-59940D01*
X76955Y-60141D01*
X76954Y-60357D01*
X77037Y-60558D01*
X77190Y-60711D01*
X77391Y-60794D01*
X77607Y-60795D01*
X77617Y-60791D01*
X77700Y-60874D01*
X77700Y-61155D01*
X77650Y-61154D01*
X77462Y-61155D01*
X77400Y-61217D01*
X77400Y-61452D01*
X77407Y-61452D01*
X77407Y-61547D01*
X77400Y-61547D01*
X77400Y-61557D01*
X77300Y-61557D01*
X77300Y-61547D01*
X77292Y-61547D01*
X77292Y-61452D01*
X77300Y-61452D01*
X77300Y-61217D01*
X77237Y-61155D01*
X77049Y-61154D01*
X77025Y-61154D01*
X77025Y-61150D01*
X76987Y-61058D01*
X76916Y-60988D01*
X76824Y-60950D01*
X76804Y-60950D01*
X76804Y-60081D01*
X76793Y-59863D01*
X76731Y-59712D01*
X76635Y-59684D01*
X76320Y-60000D01*
X76635Y-60315D01*
X76731Y-60287D01*
X76804Y-60081D01*
X76804Y-60950D01*
X76725Y-60949D01*
X76612Y-60950D01*
X76565Y-60997D01*
X76565Y-60385D01*
X76250Y-60070D01*
X76179Y-60141D01*
X76179Y-60000D01*
X75864Y-59684D01*
X75768Y-59712D01*
X75695Y-59918D01*
X75706Y-60136D01*
X75768Y-60287D01*
X75864Y-60315D01*
X76179Y-60000D01*
X76179Y-60141D01*
X75934Y-60385D01*
X75962Y-60481D01*
X76168Y-60554D01*
X76386Y-60543D01*
X76537Y-60481D01*
X76565Y-60385D01*
X76565Y-60997D01*
X76550Y-61012D01*
X76550Y-61325D01*
X76557Y-61325D01*
X76557Y-61425D01*
X76550Y-61425D01*
X76550Y-61432D01*
X76450Y-61432D01*
X76450Y-61425D01*
X76450Y-61325D01*
X76450Y-61012D01*
X76387Y-60950D01*
X76274Y-60949D01*
X76175Y-60950D01*
X76083Y-60988D01*
X76012Y-61058D01*
X75974Y-61150D01*
X75975Y-61262D01*
X76037Y-61325D01*
X76450Y-61325D01*
X76450Y-61425D01*
X76037Y-61425D01*
X75975Y-61487D01*
X75974Y-61599D01*
X76012Y-61691D01*
X76071Y-61750D01*
X76046Y-61775D01*
X75550Y-61775D01*
X75550Y-61650D01*
X75512Y-61558D01*
X75441Y-61488D01*
X75349Y-61450D01*
X75250Y-61449D01*
X74650Y-61449D01*
X74558Y-61487D01*
X74488Y-61558D01*
X74450Y-61650D01*
X74449Y-61749D01*
X74449Y-62349D01*
X74487Y-62441D01*
X74558Y-62511D01*
X74650Y-62549D01*
X74672Y-62549D01*
X74534Y-62688D01*
X74450Y-62890D01*
X74449Y-63108D01*
X74533Y-63311D01*
X74688Y-63465D01*
X74763Y-63497D01*
X74712Y-63518D01*
X74684Y-63614D01*
X75000Y-63929D01*
X75315Y-63614D01*
X75287Y-63518D01*
X75232Y-63499D01*
X75311Y-63466D01*
X75465Y-63311D01*
X75470Y-63300D01*
X76198Y-63300D01*
X76200Y-63301D01*
X76200Y-63750D01*
X76222Y-63864D01*
X76287Y-63962D01*
X77787Y-65462D01*
X77787Y-65462D01*
X77787Y-65462D01*
X77960Y-65634D01*
X77925Y-65620D01*
X77575Y-65619D01*
X77252Y-65753D01*
X77004Y-66000D01*
X76870Y-66324D01*
X76869Y-66674D01*
X77003Y-66997D01*
X77250Y-67245D01*
X77574Y-67379D01*
X77924Y-67380D01*
X78247Y-67246D01*
X78450Y-67044D01*
X78450Y-67500D01*
X78472Y-67614D01*
X78537Y-67712D01*
X78635Y-67777D01*
X78750Y-67800D01*
X80101Y-67800D01*
X80108Y-67806D01*
X80200Y-67844D01*
X80299Y-67845D01*
X80999Y-67845D01*
X81091Y-67807D01*
X81161Y-67736D01*
X81199Y-67644D01*
X81200Y-67545D01*
X81200Y-67355D01*
X81177Y-67300D01*
X81500Y-67300D01*
X81500Y-67299D01*
X81614Y-67277D01*
X81614Y-67277D01*
X81712Y-67212D01*
X82124Y-66800D01*
X82322Y-66800D01*
X82300Y-66855D01*
X82299Y-66954D01*
X82299Y-67144D01*
X82337Y-67236D01*
X82351Y-67250D01*
X82337Y-67263D01*
X82299Y-67355D01*
X82300Y-67390D01*
X82362Y-67452D01*
X82850Y-67452D01*
X82850Y-67442D01*
X82950Y-67442D01*
X82950Y-67452D01*
X82957Y-67452D01*
X82957Y-67547D01*
X82950Y-67547D01*
X82950Y-67782D01*
X83012Y-67845D01*
X83200Y-67845D01*
X83299Y-67844D01*
X83348Y-67825D01*
X83700Y-67825D01*
X83700Y-67817D01*
X83800Y-67817D01*
X83800Y-67825D01*
X84212Y-67825D01*
X84275Y-67762D01*
X84275Y-67650D01*
X84238Y-67561D01*
X84431Y-67593D01*
X88160Y-68586D01*
X88168Y-68586D01*
X88178Y-68590D01*
X85287Y-70518D01*
X84275Y-70720D01*
X84275Y-68099D01*
X84275Y-67987D01*
X84212Y-67925D01*
X83800Y-67925D01*
X83800Y-68237D01*
X83862Y-68300D01*
X83975Y-68300D01*
X84074Y-68299D01*
X84166Y-68261D01*
X84237Y-68191D01*
X84275Y-68099D01*
X84275Y-70720D01*
X83700Y-70835D01*
X83700Y-68237D01*
X83700Y-67925D01*
X83287Y-67925D01*
X83225Y-67987D01*
X83224Y-68099D01*
X83262Y-68191D01*
X83333Y-68261D01*
X83425Y-68299D01*
X83524Y-68300D01*
X83637Y-68300D01*
X83700Y-68237D01*
X83700Y-70835D01*
X82850Y-71005D01*
X82850Y-67782D01*
X82850Y-67547D01*
X82362Y-67547D01*
X82300Y-67610D01*
X82299Y-67644D01*
X82337Y-67736D01*
X82408Y-67806D01*
X82500Y-67844D01*
X82599Y-67845D01*
X82787Y-67845D01*
X82850Y-67782D01*
X82850Y-71005D01*
X82804Y-71014D01*
X82804Y-68831D01*
X82793Y-68613D01*
X82731Y-68462D01*
X82635Y-68434D01*
X82565Y-68505D01*
X82565Y-68364D01*
X82537Y-68268D01*
X82331Y-68195D01*
X82113Y-68206D01*
X81962Y-68268D01*
X81934Y-68364D01*
X82250Y-68679D01*
X82565Y-68364D01*
X82565Y-68505D01*
X82320Y-68750D01*
X82635Y-69065D01*
X82731Y-69037D01*
X82804Y-68831D01*
X82804Y-71014D01*
X82565Y-71062D01*
X82565Y-69135D01*
X82250Y-68820D01*
X82179Y-68891D01*
X82179Y-68750D01*
X81864Y-68434D01*
X81800Y-68453D01*
X81800Y-68400D01*
X81762Y-68308D01*
X81691Y-68238D01*
X81599Y-68200D01*
X81500Y-68199D01*
X80900Y-68199D01*
X80808Y-68237D01*
X80738Y-68308D01*
X80700Y-68400D01*
X80699Y-68499D01*
X80699Y-69099D01*
X80737Y-69191D01*
X80808Y-69261D01*
X80900Y-69299D01*
X80999Y-69300D01*
X81599Y-69300D01*
X81691Y-69262D01*
X81761Y-69191D01*
X81799Y-69099D01*
X81800Y-69046D01*
X81864Y-69065D01*
X82179Y-68750D01*
X82179Y-68891D01*
X81934Y-69135D01*
X81962Y-69231D01*
X82168Y-69304D01*
X82386Y-69293D01*
X82537Y-69231D01*
X82565Y-69135D01*
X82565Y-71062D01*
X81741Y-71226D01*
X78228Y-70524D01*
X75554Y-68741D01*
X75554Y-64081D01*
X75543Y-63863D01*
X75481Y-63712D01*
X75385Y-63684D01*
X75070Y-64000D01*
X75385Y-64315D01*
X75481Y-64287D01*
X75554Y-64081D01*
X75554Y-68741D01*
X75315Y-68581D01*
X75315Y-64385D01*
X75000Y-64070D01*
X74929Y-64141D01*
X74929Y-64000D01*
X74614Y-63684D01*
X74518Y-63712D01*
X74445Y-63918D01*
X74456Y-64136D01*
X74518Y-64287D01*
X74614Y-64315D01*
X74929Y-64000D01*
X74929Y-64141D01*
X74684Y-64385D01*
X74712Y-64481D01*
X74918Y-64554D01*
X75136Y-64543D01*
X75287Y-64481D01*
X75315Y-64385D01*
X75315Y-68581D01*
X75219Y-68518D01*
X73231Y-65537D01*
X72525Y-61999D01*
X73231Y-58462D01*
X75219Y-55481D01*
X78228Y-53475D01*
X81741Y-52773D01*
X85287Y-53481D01*
X88268Y-55469D01*
X90274Y-58478D01*
X90476Y-59488D01*
X90476Y-59488D01*
G37*
G54D20*
X90476Y-59488D02*
X90465Y-59481D01*
X90438Y-59454D01*
X90409Y-59443D01*
X90383Y-59426D01*
X90346Y-59419D01*
X90310Y-59405D01*
X90280Y-59405D01*
X90250Y-59400D01*
X87344Y-59400D01*
X87495Y-59249D01*
X87629Y-58925D01*
X87630Y-58575D01*
X87496Y-58252D01*
X87249Y-58004D01*
X86925Y-57870D01*
X86575Y-57869D01*
X86252Y-58003D01*
X86004Y-58250D01*
X85870Y-58574D01*
X85869Y-58924D01*
X86003Y-59247D01*
X86155Y-59400D01*
X86144Y-59400D01*
X85850Y-59105D01*
X85850Y-58000D01*
X85823Y-57866D01*
X85804Y-57838D01*
X85804Y-55831D01*
X85793Y-55613D01*
X85731Y-55462D01*
X85635Y-55434D01*
X85565Y-55505D01*
X85565Y-55364D01*
X85537Y-55268D01*
X85331Y-55195D01*
X85113Y-55206D01*
X84962Y-55268D01*
X84934Y-55364D01*
X85250Y-55679D01*
X85565Y-55364D01*
X85565Y-55505D01*
X85320Y-55750D01*
X85635Y-56065D01*
X85731Y-56037D01*
X85804Y-55831D01*
X85804Y-57838D01*
X85747Y-57752D01*
X85582Y-57587D01*
X85600Y-57500D01*
X85599Y-57500D01*
X85600Y-57500D01*
X85600Y-57299D01*
X85691Y-57262D01*
X85761Y-57191D01*
X85799Y-57099D01*
X85800Y-57000D01*
X85800Y-56400D01*
X85762Y-56308D01*
X85691Y-56238D01*
X85599Y-56200D01*
X85546Y-56199D01*
X85565Y-56135D01*
X85250Y-55820D01*
X85179Y-55891D01*
X85179Y-55750D01*
X84864Y-55434D01*
X84768Y-55462D01*
X84695Y-55668D01*
X84706Y-55886D01*
X84768Y-56037D01*
X84864Y-56065D01*
X85179Y-55750D01*
X85179Y-55891D01*
X84934Y-56135D01*
X84953Y-56199D01*
X84900Y-56199D01*
X84808Y-56237D01*
X84738Y-56308D01*
X84700Y-56400D01*
X84699Y-56499D01*
X84699Y-57099D01*
X84737Y-57191D01*
X84808Y-57261D01*
X84839Y-57275D01*
X84203Y-57275D01*
X84178Y-57250D01*
X84237Y-57191D01*
X84275Y-57099D01*
X84275Y-56650D01*
X84237Y-56558D01*
X84166Y-56488D01*
X84074Y-56450D01*
X83975Y-56449D01*
X83862Y-56450D01*
X83800Y-56512D01*
X83800Y-56825D01*
X84212Y-56825D01*
X84275Y-56762D01*
X84275Y-56650D01*
X84275Y-57099D01*
X84275Y-56987D01*
X84212Y-56925D01*
X83800Y-56925D01*
X83800Y-56932D01*
X83700Y-56932D01*
X83700Y-56925D01*
X83700Y-56825D01*
X83700Y-56512D01*
X83637Y-56450D01*
X83524Y-56449D01*
X83425Y-56450D01*
X83333Y-56488D01*
X83262Y-56558D01*
X83224Y-56650D01*
X83225Y-56762D01*
X83287Y-56825D01*
X83700Y-56825D01*
X83700Y-56925D01*
X83287Y-56925D01*
X83225Y-56987D01*
X83224Y-57099D01*
X83262Y-57191D01*
X83321Y-57250D01*
X83296Y-57275D01*
X83095Y-57275D01*
X83095Y-56900D01*
X83095Y-56299D01*
X83094Y-56200D01*
X83056Y-56108D01*
X82986Y-56037D01*
X82894Y-55999D01*
X82860Y-56000D01*
X82804Y-56055D01*
X82804Y-55331D01*
X82793Y-55113D01*
X82731Y-54962D01*
X82635Y-54934D01*
X82565Y-55005D01*
X82565Y-54864D01*
X82537Y-54768D01*
X82331Y-54695D01*
X82113Y-54706D01*
X81962Y-54768D01*
X81934Y-54864D01*
X82250Y-55179D01*
X82565Y-54864D01*
X82565Y-55005D01*
X82320Y-55250D01*
X82635Y-55565D01*
X82731Y-55537D01*
X82804Y-55331D01*
X82804Y-56055D01*
X82797Y-56062D01*
X82797Y-56550D01*
X83032Y-56550D01*
X83095Y-56487D01*
X83095Y-56299D01*
X83095Y-56900D01*
X83095Y-56712D01*
X83032Y-56650D01*
X82797Y-56650D01*
X82797Y-57137D01*
X82860Y-57200D01*
X82894Y-57200D01*
X82986Y-57162D01*
X83056Y-57091D01*
X83094Y-56999D01*
X83095Y-56900D01*
X83095Y-57275D01*
X82769Y-57275D01*
X82667Y-57172D01*
X82702Y-57137D01*
X82702Y-56650D01*
X82692Y-56650D01*
X82692Y-56550D01*
X82702Y-56550D01*
X82702Y-56062D01*
X82640Y-56000D01*
X82605Y-55999D01*
X82513Y-56037D01*
X82500Y-56051D01*
X82486Y-56038D01*
X82394Y-56000D01*
X82295Y-55999D01*
X82105Y-55999D01*
X82050Y-56022D01*
X82050Y-55762D01*
X82168Y-55804D01*
X82386Y-55793D01*
X82537Y-55731D01*
X82565Y-55635D01*
X82250Y-55320D01*
X82244Y-55326D01*
X82173Y-55255D01*
X82179Y-55250D01*
X81864Y-54934D01*
X81800Y-54953D01*
X81800Y-54900D01*
X81762Y-54808D01*
X81691Y-54738D01*
X81599Y-54700D01*
X81500Y-54699D01*
X80900Y-54699D01*
X80808Y-54737D01*
X80738Y-54808D01*
X80700Y-54900D01*
X80699Y-54999D01*
X80699Y-55599D01*
X80737Y-55691D01*
X80808Y-55761D01*
X80900Y-55799D01*
X80999Y-55800D01*
X81375Y-55800D01*
X81450Y-55874D01*
X81450Y-56022D01*
X81394Y-56000D01*
X81295Y-55999D01*
X81105Y-55999D01*
X81013Y-56037D01*
X80943Y-56108D01*
X80905Y-56200D01*
X80904Y-56299D01*
X80904Y-56733D01*
X80824Y-56700D01*
X80725Y-56699D01*
X80612Y-56700D01*
X80550Y-56762D01*
X80550Y-57075D01*
X80557Y-57075D01*
X80557Y-57175D01*
X80550Y-57175D01*
X80550Y-57182D01*
X80450Y-57182D01*
X80450Y-57175D01*
X80450Y-57075D01*
X80450Y-56762D01*
X80387Y-56700D01*
X80274Y-56699D01*
X80175Y-56700D01*
X80083Y-56738D01*
X80012Y-56808D01*
X79974Y-56900D01*
X79975Y-57012D01*
X80037Y-57075D01*
X80450Y-57075D01*
X80450Y-57175D01*
X80037Y-57175D01*
X79975Y-57237D01*
X79974Y-57349D01*
X80012Y-57441D01*
X80021Y-57450D01*
X79965Y-57450D01*
X79962Y-57441D01*
X79809Y-57288D01*
X79608Y-57205D01*
X79525Y-57205D01*
X79500Y-57200D01*
X79474Y-57204D01*
X79392Y-57204D01*
X79191Y-57287D01*
X79050Y-57429D01*
X79050Y-57374D01*
X79382Y-57041D01*
X79391Y-57044D01*
X79607Y-57045D01*
X79808Y-56962D01*
X79961Y-56809D01*
X80044Y-56608D01*
X80045Y-56392D01*
X79962Y-56191D01*
X79809Y-56038D01*
X79608Y-55955D01*
X79392Y-55954D01*
X79191Y-56037D01*
X79038Y-56190D01*
X78955Y-56391D01*
X78954Y-56607D01*
X78958Y-56617D01*
X78537Y-57037D01*
X78472Y-57135D01*
X78450Y-57250D01*
X78450Y-58250D01*
X78472Y-58364D01*
X78537Y-58462D01*
X78958Y-58882D01*
X78955Y-58891D01*
X78954Y-59107D01*
X78958Y-59117D01*
X78287Y-59787D01*
X78222Y-59885D01*
X78200Y-60000D01*
X78200Y-60525D01*
X78049Y-60375D01*
X78049Y-56580D01*
X78038Y-56364D01*
X77977Y-56215D01*
X77882Y-56188D01*
X77811Y-56259D01*
X77811Y-56117D01*
X77784Y-56022D01*
X77580Y-55950D01*
X77364Y-55961D01*
X77215Y-56022D01*
X77188Y-56117D01*
X77500Y-56429D01*
X77811Y-56117D01*
X77811Y-56259D01*
X77570Y-56500D01*
X77882Y-56811D01*
X77977Y-56784D01*
X78049Y-56580D01*
X78049Y-60375D01*
X78041Y-60367D01*
X78044Y-60358D01*
X78045Y-60142D01*
X77962Y-59941D01*
X77809Y-59788D01*
X77800Y-59784D01*
X77800Y-59465D01*
X77808Y-59462D01*
X77961Y-59309D01*
X78044Y-59108D01*
X78045Y-58892D01*
X77962Y-58691D01*
X77809Y-58538D01*
X77800Y-58534D01*
X77800Y-58215D01*
X77808Y-58212D01*
X77961Y-58059D01*
X78044Y-57858D01*
X78045Y-57642D01*
X77962Y-57441D01*
X77811Y-57290D01*
X77811Y-56882D01*
X77500Y-56570D01*
X77429Y-56641D01*
X77429Y-56500D01*
X77117Y-56188D01*
X77022Y-56215D01*
X76950Y-56419D01*
X76961Y-56635D01*
X77022Y-56784D01*
X77117Y-56811D01*
X77429Y-56500D01*
X77429Y-56641D01*
X77188Y-56882D01*
X77215Y-56977D01*
X77419Y-57049D01*
X77635Y-57038D01*
X77784Y-56977D01*
X77811Y-56882D01*
X77811Y-57290D01*
X77809Y-57288D01*
X77608Y-57205D01*
X77392Y-57204D01*
X77191Y-57287D01*
X77038Y-57440D01*
X76955Y-57641D01*
X76954Y-57857D01*
X77037Y-58058D01*
X77190Y-58211D01*
X77200Y-58215D01*
X77200Y-58534D01*
X77191Y-58537D01*
X77038Y-58690D01*
X77034Y-58700D01*
X76800Y-58700D01*
X76800Y-58650D01*
X76762Y-58558D01*
X76691Y-58488D01*
X76599Y-58450D01*
X76500Y-58449D01*
X75900Y-58449D01*
X75808Y-58487D01*
X75738Y-58558D01*
X75700Y-58650D01*
X75699Y-58749D01*
X75699Y-59349D01*
X75737Y-59441D01*
X75808Y-59511D01*
X75900Y-59549D01*
X75953Y-59550D01*
X75934Y-59614D01*
X76250Y-59929D01*
X76565Y-59614D01*
X76546Y-59550D01*
X76599Y-59550D01*
X76691Y-59512D01*
X76761Y-59441D01*
X76799Y-59349D01*
X76799Y-59300D01*
X77034Y-59300D01*
X77037Y-59308D01*
X77190Y-59461D01*
X77200Y-59465D01*
X77200Y-59784D01*
X77191Y-59787D01*
X77038Y-59940D01*
X76955Y-60141D01*
X76954Y-60357D01*
X77037Y-60558D01*
X77190Y-60711D01*
X77391Y-60794D01*
X77607Y-60795D01*
X77617Y-60791D01*
X77700Y-60874D01*
X77700Y-61155D01*
X77650Y-61154D01*
X77462Y-61155D01*
X77400Y-61217D01*
X77400Y-61452D01*
X77407Y-61452D01*
X77407Y-61547D01*
X77400Y-61547D01*
X77400Y-61557D01*
X77300Y-61557D01*
X77300Y-61547D01*
X77292Y-61547D01*
X77292Y-61452D01*
X77300Y-61452D01*
X77300Y-61217D01*
X77237Y-61155D01*
X77049Y-61154D01*
X77025Y-61154D01*
X77025Y-61150D01*
X76987Y-61058D01*
X76916Y-60988D01*
X76824Y-60950D01*
X76804Y-60950D01*
X76804Y-60081D01*
X76793Y-59863D01*
X76731Y-59712D01*
X76635Y-59684D01*
X76320Y-60000D01*
X76635Y-60315D01*
X76731Y-60287D01*
X76804Y-60081D01*
X76804Y-60950D01*
X76725Y-60949D01*
X76612Y-60950D01*
X76565Y-60997D01*
X76565Y-60385D01*
X76250Y-60070D01*
X76179Y-60141D01*
X76179Y-60000D01*
X75864Y-59684D01*
X75768Y-59712D01*
X75695Y-59918D01*
X75706Y-60136D01*
X75768Y-60287D01*
X75864Y-60315D01*
X76179Y-60000D01*
X76179Y-60141D01*
X75934Y-60385D01*
X75962Y-60481D01*
X76168Y-60554D01*
X76386Y-60543D01*
X76537Y-60481D01*
X76565Y-60385D01*
X76565Y-60997D01*
X76550Y-61012D01*
X76550Y-61325D01*
X76557Y-61325D01*
X76557Y-61425D01*
X76550Y-61425D01*
X76550Y-61432D01*
X76450Y-61432D01*
X76450Y-61425D01*
X76450Y-61325D01*
X76450Y-61012D01*
X76387Y-60950D01*
X76274Y-60949D01*
X76175Y-60950D01*
X76083Y-60988D01*
X76012Y-61058D01*
X75974Y-61150D01*
X75975Y-61262D01*
X76037Y-61325D01*
X76450Y-61325D01*
X76450Y-61425D01*
X76037Y-61425D01*
X75975Y-61487D01*
X75974Y-61599D01*
X76012Y-61691D01*
X76071Y-61750D01*
X76046Y-61775D01*
X75550Y-61775D01*
X75550Y-61650D01*
X75512Y-61558D01*
X75441Y-61488D01*
X75349Y-61450D01*
X75250Y-61449D01*
X74650Y-61449D01*
X74558Y-61487D01*
X74488Y-61558D01*
X74450Y-61650D01*
X74449Y-61749D01*
X74449Y-62349D01*
X74487Y-62441D01*
X74558Y-62511D01*
X74650Y-62549D01*
X74672Y-62549D01*
X74534Y-62688D01*
X74450Y-62890D01*
X74449Y-63108D01*
X74533Y-63311D01*
X74688Y-63465D01*
X74763Y-63497D01*
X74712Y-63518D01*
X74684Y-63614D01*
X75000Y-63929D01*
X75315Y-63614D01*
X75287Y-63518D01*
X75232Y-63499D01*
X75311Y-63466D01*
X75465Y-63311D01*
X75470Y-63300D01*
X76198Y-63300D01*
X76200Y-63301D01*
X76200Y-63750D01*
X76222Y-63864D01*
X76287Y-63962D01*
X77787Y-65462D01*
X77787Y-65462D01*
X77787Y-65462D01*
X77960Y-65634D01*
X77925Y-65620D01*
X77575Y-65619D01*
X77252Y-65753D01*
X77004Y-66000D01*
X76870Y-66324D01*
X76869Y-66674D01*
X77003Y-66997D01*
X77250Y-67245D01*
X77574Y-67379D01*
X77924Y-67380D01*
X78247Y-67246D01*
X78450Y-67044D01*
X78450Y-67500D01*
X78472Y-67614D01*
X78537Y-67712D01*
X78635Y-67777D01*
X78750Y-67800D01*
X80101Y-67800D01*
X80108Y-67806D01*
X80200Y-67844D01*
X80299Y-67845D01*
X80999Y-67845D01*
X81091Y-67807D01*
X81161Y-67736D01*
X81199Y-67644D01*
X81200Y-67545D01*
X81200Y-67355D01*
X81177Y-67300D01*
X81500Y-67300D01*
X81500Y-67299D01*
X81614Y-67277D01*
X81614Y-67277D01*
X81712Y-67212D01*
X82124Y-66800D01*
X82322Y-66800D01*
X82300Y-66855D01*
X82299Y-66954D01*
X82299Y-67144D01*
X82337Y-67236D01*
X82351Y-67250D01*
X82337Y-67263D01*
X82299Y-67355D01*
X82300Y-67390D01*
X82362Y-67452D01*
X82850Y-67452D01*
X82850Y-67442D01*
X82950Y-67442D01*
X82950Y-67452D01*
X82957Y-67452D01*
X82957Y-67547D01*
X82950Y-67547D01*
X82950Y-67782D01*
X83012Y-67845D01*
X83200Y-67845D01*
X83299Y-67844D01*
X83348Y-67825D01*
X83700Y-67825D01*
X83700Y-67817D01*
X83800Y-67817D01*
X83800Y-67825D01*
X84212Y-67825D01*
X84275Y-67762D01*
X84275Y-67650D01*
X84238Y-67561D01*
X84431Y-67593D01*
X88160Y-68586D01*
X88168Y-68586D01*
X88178Y-68590D01*
X85287Y-70518D01*
X84275Y-70720D01*
X84275Y-68099D01*
X84275Y-67987D01*
X84212Y-67925D01*
X83800Y-67925D01*
X83800Y-68237D01*
X83862Y-68300D01*
X83975Y-68300D01*
X84074Y-68299D01*
X84166Y-68261D01*
X84237Y-68191D01*
X84275Y-68099D01*
X84275Y-70720D01*
X83700Y-70835D01*
X83700Y-68237D01*
X83700Y-67925D01*
X83287Y-67925D01*
X83225Y-67987D01*
X83224Y-68099D01*
X83262Y-68191D01*
X83333Y-68261D01*
X83425Y-68299D01*
X83524Y-68300D01*
X83637Y-68300D01*
X83700Y-68237D01*
X83700Y-70835D01*
X82850Y-71005D01*
X82850Y-67782D01*
X82850Y-67547D01*
X82362Y-67547D01*
X82300Y-67610D01*
X82299Y-67644D01*
X82337Y-67736D01*
X82408Y-67806D01*
X82500Y-67844D01*
X82599Y-67845D01*
X82787Y-67845D01*
X82850Y-67782D01*
X82850Y-71005D01*
X82804Y-71014D01*
X82804Y-68831D01*
X82793Y-68613D01*
X82731Y-68462D01*
X82635Y-68434D01*
X82565Y-68505D01*
X82565Y-68364D01*
X82537Y-68268D01*
X82331Y-68195D01*
X82113Y-68206D01*
X81962Y-68268D01*
X81934Y-68364D01*
X82250Y-68679D01*
X82565Y-68364D01*
X82565Y-68505D01*
X82320Y-68750D01*
X82635Y-69065D01*
X82731Y-69037D01*
X82804Y-68831D01*
X82804Y-71014D01*
X82565Y-71062D01*
X82565Y-69135D01*
X82250Y-68820D01*
X82179Y-68891D01*
X82179Y-68750D01*
X81864Y-68434D01*
X81800Y-68453D01*
X81800Y-68400D01*
X81762Y-68308D01*
X81691Y-68238D01*
X81599Y-68200D01*
X81500Y-68199D01*
X80900Y-68199D01*
X80808Y-68237D01*
X80738Y-68308D01*
X80700Y-68400D01*
X80699Y-68499D01*
X80699Y-69099D01*
X80737Y-69191D01*
X80808Y-69261D01*
X80900Y-69299D01*
X80999Y-69300D01*
X81599Y-69300D01*
X81691Y-69262D01*
X81761Y-69191D01*
X81799Y-69099D01*
X81800Y-69046D01*
X81864Y-69065D01*
X82179Y-68750D01*
X82179Y-68891D01*
X81934Y-69135D01*
X81962Y-69231D01*
X82168Y-69304D01*
X82386Y-69293D01*
X82537Y-69231D01*
X82565Y-69135D01*
X82565Y-71062D01*
X81741Y-71226D01*
X78228Y-70524D01*
X75554Y-68741D01*
X75554Y-64081D01*
X75543Y-63863D01*
X75481Y-63712D01*
X75385Y-63684D01*
X75070Y-64000D01*
X75385Y-64315D01*
X75481Y-64287D01*
X75554Y-64081D01*
X75554Y-68741D01*
X75315Y-68581D01*
X75315Y-64385D01*
X75000Y-64070D01*
X74929Y-64141D01*
X74929Y-64000D01*
X74614Y-63684D01*
X74518Y-63712D01*
X74445Y-63918D01*
X74456Y-64136D01*
X74518Y-64287D01*
X74614Y-64315D01*
X74929Y-64000D01*
X74929Y-64141D01*
X74684Y-64385D01*
X74712Y-64481D01*
X74918Y-64554D01*
X75136Y-64543D01*
X75287Y-64481D01*
X75315Y-64385D01*
X75315Y-68581D01*
X75219Y-68518D01*
X73231Y-65537D01*
X72525Y-61999D01*
X73231Y-58462D01*
X75219Y-55481D01*
X78228Y-53475D01*
X81741Y-52773D01*
X85287Y-53481D01*
X88268Y-55469D01*
X90274Y-58478D01*
X90476Y-59488D01*
M02*
