M48
INCH,TZ
T1C0.024
T2C0.032
T3C0.040
%
G90
G05
T1
X8.125Y-6.2
X8.175Y-6.15
X8.175Y-6.25
X8.225Y-6.2
T2
X7.75Y-5.65
X7.75Y-5.775
X7.75Y-5.9
X7.75Y-6.025
X7.95Y-5.65
X7.95Y-5.775
X7.95Y-5.9
X7.95Y-6.025
X8.075Y-6.5
X8.275Y-6.5
X8.4Y-5.9
X8.4Y-6.1
X8.4Y-6.3
X8.4Y-6.5
T3
X7.5Y-6.2
X7.5Y-6.3
X7.625Y-5.9
X7.625Y-6.
X8.125Y-5.525
X8.125Y-6.875
X8.225Y-5.525
X8.225Y-6.875
X8.4Y-6.625
X8.5Y-6.625
X8.525Y-5.575
X8.525Y-5.675
X8.775Y-6.25
X8.775Y-6.35
T0
M30
