G04 (created by PCBNEW (2013-07-07 BZR 4022)-stable) date 6/29/2014 1:08:28 PM*
%MOIN*%
G04 Gerber Fmt 3.4, Leading zero omitted, Abs format*
%FSLAX34Y34*%
G01*
G70*
G90*
G04 APERTURE LIST*
%ADD10C,0.00590551*%
%ADD11R,0.055X0.035*%
%ADD12R,0.035X0.055*%
%ADD13C,0.059*%
%ADD14R,0.06X0.06*%
%ADD15C,0.06*%
%ADD16C,0.039*%
%ADD17R,0.07X0.019*%
%ADD18R,0.019X0.07*%
%ADD19C,0.125984*%
G04 APERTURE END LIST*
G54D10*
G54D11*
X76500Y-62125D03*
X76500Y-61375D03*
X83750Y-67125D03*
X83750Y-67875D03*
G54D12*
X85875Y-61000D03*
X86625Y-61000D03*
G54D11*
X83750Y-57625D03*
X83750Y-56875D03*
X82750Y-64125D03*
X82750Y-63375D03*
G54D12*
X84125Y-62000D03*
X83375Y-62000D03*
G54D11*
X80500Y-57875D03*
X80500Y-57125D03*
G54D12*
X77875Y-63750D03*
X78625Y-63750D03*
G54D13*
X82750Y-65000D03*
X80750Y-65000D03*
X84000Y-63000D03*
X84000Y-65000D03*
X84000Y-59000D03*
X84000Y-61000D03*
X77500Y-57750D03*
X79500Y-57750D03*
X77500Y-60250D03*
X79500Y-60250D03*
X79500Y-56500D03*
X77500Y-56500D03*
X77500Y-59000D03*
X79500Y-59000D03*
G54D14*
X81250Y-68750D03*
G54D15*
X82250Y-68750D03*
G54D10*
G36*
X81250Y-62275D02*
X80974Y-62000D01*
X81250Y-61724D01*
X81525Y-62000D01*
X81250Y-62275D01*
X81250Y-62275D01*
G37*
G54D16*
X82250Y-62000D03*
X81750Y-61500D03*
X81750Y-62500D03*
G54D14*
X76250Y-59000D03*
G54D15*
X76250Y-60000D03*
G54D14*
X81250Y-55250D03*
G54D15*
X82250Y-55250D03*
G54D14*
X87750Y-63500D03*
G54D15*
X87750Y-62500D03*
G54D14*
X84000Y-66250D03*
G54D15*
X85000Y-66250D03*
G54D17*
X80600Y-67500D03*
X80600Y-67000D03*
X80600Y-66500D03*
X80600Y-66000D03*
X82900Y-66000D03*
X82900Y-66500D03*
X82900Y-67000D03*
X82900Y-67500D03*
G54D18*
X86500Y-64150D03*
X86000Y-64150D03*
X85500Y-64150D03*
X85000Y-64150D03*
X85000Y-61850D03*
X85500Y-61850D03*
X86000Y-61850D03*
X86500Y-61850D03*
X82750Y-58900D03*
X82250Y-58900D03*
X81750Y-58900D03*
X81250Y-58900D03*
X81250Y-56600D03*
X81750Y-56600D03*
X82250Y-56600D03*
X82750Y-56600D03*
G54D17*
X79650Y-61500D03*
X79650Y-62000D03*
X79650Y-62500D03*
X79650Y-63000D03*
X77350Y-63000D03*
X77350Y-62500D03*
X77350Y-62000D03*
X77350Y-61500D03*
G54D19*
X86750Y-58750D03*
X77750Y-66500D03*
G54D14*
X75000Y-62000D03*
G54D15*
X75000Y-63000D03*
X75000Y-64000D03*
G54D14*
X85250Y-56750D03*
G54D15*
X85250Y-55750D03*
M02*
