G04 (created by PCBNEW (2013-07-07 BZR 4022)-stable) date 6/29/2014 5:28:36 PM*
%MOIN*%
G04 Gerber Fmt 3.4, Leading zero omitted, Abs format*
%FSLAX34Y34*%
G01*
G70*
G90*
G04 APERTURE LIST*
%ADD10C,0.00590551*%
%ADD11R,0.055X0.035*%
%ADD12R,0.035X0.055*%
%ADD13C,0.059*%
%ADD14R,0.06X0.06*%
%ADD15C,0.06*%
%ADD16C,0.039*%
%ADD17R,0.07X0.019*%
%ADD18R,0.019X0.07*%
%ADD19C,0.125984*%
%ADD20C,0.01*%
%ADD21C,0.001*%
G04 APERTURE END LIST*
G54D10*
G54D11*
X76500Y-62125D03*
X76500Y-61375D03*
X83750Y-67125D03*
X83750Y-67875D03*
G54D12*
X85875Y-61000D03*
X86625Y-61000D03*
G54D11*
X83500Y-57625D03*
X83500Y-56875D03*
X82750Y-64125D03*
X82750Y-63375D03*
G54D12*
X84125Y-62000D03*
X83375Y-62000D03*
G54D11*
X80500Y-57875D03*
X80500Y-57125D03*
X78500Y-63625D03*
X78500Y-64375D03*
G54D13*
X82750Y-65000D03*
X80750Y-65000D03*
X84000Y-63000D03*
X84000Y-65000D03*
X84000Y-59000D03*
X84000Y-61000D03*
X77500Y-57750D03*
X79500Y-57750D03*
X77500Y-60250D03*
X79500Y-60250D03*
X79500Y-56500D03*
X77500Y-56500D03*
X77500Y-59000D03*
X79500Y-59000D03*
G54D14*
X81250Y-68750D03*
G54D15*
X82250Y-68750D03*
G54D10*
G36*
X81250Y-62275D02*
X80974Y-62000D01*
X81250Y-61724D01*
X81525Y-62000D01*
X81250Y-62275D01*
X81250Y-62275D01*
G37*
G54D16*
X82250Y-62000D03*
X81750Y-61500D03*
X81750Y-62500D03*
G54D14*
X76250Y-59000D03*
G54D15*
X76250Y-60000D03*
G54D14*
X81250Y-55250D03*
G54D15*
X82250Y-55250D03*
G54D14*
X87750Y-63500D03*
G54D15*
X87750Y-62500D03*
G54D14*
X84000Y-66250D03*
G54D15*
X85000Y-66250D03*
G54D17*
X80600Y-67500D03*
X80600Y-67000D03*
X80600Y-66500D03*
X80600Y-66000D03*
X82900Y-66000D03*
X82900Y-66500D03*
X82900Y-67000D03*
X82900Y-67500D03*
G54D18*
X86500Y-64150D03*
X86000Y-64150D03*
X85500Y-64150D03*
X85000Y-64150D03*
X85000Y-61850D03*
X85500Y-61850D03*
X86000Y-61850D03*
X86500Y-61850D03*
X82750Y-58900D03*
X82250Y-58900D03*
X81750Y-58900D03*
X81250Y-58900D03*
X81250Y-56600D03*
X81750Y-56600D03*
X82250Y-56600D03*
X82750Y-56600D03*
G54D17*
X79650Y-61500D03*
X79650Y-62000D03*
X79650Y-62500D03*
X79650Y-63000D03*
X77350Y-63000D03*
X77350Y-62500D03*
X77350Y-62000D03*
X77350Y-61500D03*
G54D19*
X86750Y-58750D03*
X77750Y-66500D03*
G54D14*
X85250Y-56750D03*
G54D15*
X85250Y-55750D03*
G54D14*
X75000Y-62000D03*
G54D15*
X75000Y-63000D03*
G54D10*
G36*
X84510Y-59510D02*
X84490Y-59510D01*
X84490Y-59490D01*
X84490Y-58510D01*
X83510Y-58510D01*
X83510Y-58760D01*
X83010Y-58760D01*
X83010Y-59510D01*
X81990Y-59510D01*
X81990Y-57760D01*
X81240Y-57760D01*
X81240Y-57510D01*
X79990Y-57510D01*
X79990Y-57260D01*
X79010Y-57260D01*
X79010Y-58240D01*
X81450Y-58240D01*
X81510Y-58240D01*
X81510Y-58300D01*
X81510Y-59990D01*
X83490Y-59990D01*
X83490Y-59490D01*
X84490Y-59490D01*
X84490Y-59510D01*
X84440Y-59510D01*
X83510Y-59510D01*
X83510Y-60010D01*
X81490Y-60010D01*
X81490Y-58260D01*
X78990Y-58260D01*
X78990Y-57240D01*
X80010Y-57240D01*
X80010Y-57490D01*
X81260Y-57490D01*
X81260Y-57740D01*
X82010Y-57740D01*
X82010Y-59490D01*
X82990Y-59490D01*
X82990Y-58740D01*
X83490Y-58740D01*
X83490Y-58490D01*
X84510Y-58490D01*
X84510Y-59510D01*
X84510Y-59510D01*
G37*
G54D20*
X84510Y-59510D02*
X84490Y-59510D01*
X84490Y-59490D01*
X84490Y-58510D01*
X83510Y-58510D01*
X83510Y-58760D01*
X83010Y-58760D01*
X83010Y-59510D01*
X81990Y-59510D01*
X81990Y-57760D01*
X81240Y-57760D01*
X81240Y-57510D01*
X79990Y-57510D01*
X79990Y-57260D01*
X79010Y-57260D01*
X79010Y-58240D01*
X81450Y-58240D01*
X81510Y-58240D01*
X81510Y-58300D01*
X81510Y-59990D01*
X83490Y-59990D01*
X83490Y-59490D01*
X84490Y-59490D01*
X84490Y-59510D01*
X84440Y-59510D01*
X83510Y-59510D01*
X83510Y-60010D01*
X81490Y-60010D01*
X81490Y-58260D01*
X78990Y-58260D01*
X78990Y-57240D01*
X80010Y-57240D01*
X80010Y-57490D01*
X81260Y-57490D01*
X81260Y-57740D01*
X82010Y-57740D01*
X82010Y-59490D01*
X82990Y-59490D01*
X82990Y-58740D01*
X83490Y-58740D01*
X83490Y-58490D01*
X84510Y-58490D01*
X84510Y-59510D01*
G54D10*
G36*
X80305Y-62805D02*
X80195Y-62805D01*
X80195Y-62695D01*
X80195Y-62305D01*
X78810Y-62305D01*
X78695Y-62305D01*
X78695Y-62190D01*
X78695Y-59310D01*
X78695Y-59195D01*
X78810Y-59195D01*
X78940Y-59195D01*
X79055Y-59195D01*
X79055Y-59310D01*
X79055Y-59445D01*
X79945Y-59445D01*
X79945Y-58555D01*
X79055Y-58555D01*
X79055Y-58690D01*
X79055Y-58805D01*
X78940Y-58805D01*
X78810Y-58805D01*
X78695Y-58805D01*
X78695Y-58690D01*
X78695Y-56810D01*
X78695Y-56695D01*
X78810Y-56695D01*
X78940Y-56695D01*
X79055Y-56695D01*
X79055Y-56810D01*
X79055Y-56945D01*
X79945Y-56945D01*
X79945Y-56055D01*
X79055Y-56055D01*
X79055Y-56190D01*
X79055Y-56305D01*
X78940Y-56305D01*
X78305Y-56305D01*
X78305Y-63190D01*
X78305Y-63305D01*
X78190Y-63305D01*
X78055Y-63305D01*
X78055Y-63945D01*
X78945Y-63945D01*
X78945Y-63305D01*
X78810Y-63305D01*
X78695Y-63305D01*
X78695Y-63190D01*
X78695Y-62810D01*
X78695Y-62695D01*
X78810Y-62695D01*
X80195Y-62695D01*
X80195Y-62805D01*
X80190Y-62805D01*
X78805Y-62805D01*
X78805Y-63195D01*
X78940Y-63195D01*
X79055Y-63195D01*
X79055Y-63310D01*
X79055Y-63940D01*
X79055Y-64055D01*
X78940Y-64055D01*
X78060Y-64055D01*
X77945Y-64055D01*
X77945Y-63940D01*
X77945Y-63310D01*
X77945Y-63195D01*
X78060Y-63195D01*
X78195Y-63195D01*
X78195Y-56310D01*
X78195Y-56195D01*
X78310Y-56195D01*
X78945Y-56195D01*
X78945Y-56060D01*
X78945Y-55945D01*
X79060Y-55945D01*
X79940Y-55945D01*
X80055Y-55945D01*
X80055Y-56060D01*
X80055Y-56940D01*
X80055Y-57055D01*
X79940Y-57055D01*
X79060Y-57055D01*
X78945Y-57055D01*
X78945Y-56940D01*
X78945Y-56805D01*
X78805Y-56805D01*
X78805Y-58695D01*
X78945Y-58695D01*
X78945Y-58560D01*
X78945Y-58445D01*
X79060Y-58445D01*
X79940Y-58445D01*
X80055Y-58445D01*
X80055Y-58560D01*
X80055Y-59440D01*
X80055Y-59555D01*
X79940Y-59555D01*
X79060Y-59555D01*
X78945Y-59555D01*
X78945Y-59440D01*
X78945Y-59305D01*
X78805Y-59305D01*
X78805Y-62195D01*
X80190Y-62195D01*
X80305Y-62195D01*
X80305Y-62310D01*
X80305Y-62690D01*
X80305Y-62805D01*
X80305Y-62805D01*
G37*
G54D21*
X80305Y-62805D02*
X80195Y-62805D01*
X80195Y-62695D01*
X80195Y-62305D01*
X78810Y-62305D01*
X78695Y-62305D01*
X78695Y-62190D01*
X78695Y-59310D01*
X78695Y-59195D01*
X78810Y-59195D01*
X78940Y-59195D01*
X79055Y-59195D01*
X79055Y-59310D01*
X79055Y-59445D01*
X79945Y-59445D01*
X79945Y-58555D01*
X79055Y-58555D01*
X79055Y-58690D01*
X79055Y-58805D01*
X78940Y-58805D01*
X78810Y-58805D01*
X78695Y-58805D01*
X78695Y-58690D01*
X78695Y-56810D01*
X78695Y-56695D01*
X78810Y-56695D01*
X78940Y-56695D01*
X79055Y-56695D01*
X79055Y-56810D01*
X79055Y-56945D01*
X79945Y-56945D01*
X79945Y-56055D01*
X79055Y-56055D01*
X79055Y-56190D01*
X79055Y-56305D01*
X78940Y-56305D01*
X78305Y-56305D01*
X78305Y-63190D01*
X78305Y-63305D01*
X78190Y-63305D01*
X78055Y-63305D01*
X78055Y-63945D01*
X78945Y-63945D01*
X78945Y-63305D01*
X78810Y-63305D01*
X78695Y-63305D01*
X78695Y-63190D01*
X78695Y-62810D01*
X78695Y-62695D01*
X78810Y-62695D01*
X80195Y-62695D01*
X80195Y-62805D01*
X80190Y-62805D01*
X78805Y-62805D01*
X78805Y-63195D01*
X78940Y-63195D01*
X79055Y-63195D01*
X79055Y-63310D01*
X79055Y-63940D01*
X79055Y-64055D01*
X78940Y-64055D01*
X78060Y-64055D01*
X77945Y-64055D01*
X77945Y-63940D01*
X77945Y-63310D01*
X77945Y-63195D01*
X78060Y-63195D01*
X78195Y-63195D01*
X78195Y-56310D01*
X78195Y-56195D01*
X78310Y-56195D01*
X78945Y-56195D01*
X78945Y-56060D01*
X78945Y-55945D01*
X79060Y-55945D01*
X79940Y-55945D01*
X80055Y-55945D01*
X80055Y-56060D01*
X80055Y-56940D01*
X80055Y-57055D01*
X79940Y-57055D01*
X79060Y-57055D01*
X78945Y-57055D01*
X78945Y-56940D01*
X78945Y-56805D01*
X78805Y-56805D01*
X78805Y-58695D01*
X78945Y-58695D01*
X78945Y-58560D01*
X78945Y-58445D01*
X79060Y-58445D01*
X79940Y-58445D01*
X80055Y-58445D01*
X80055Y-58560D01*
X80055Y-59440D01*
X80055Y-59555D01*
X79940Y-59555D01*
X79060Y-59555D01*
X78945Y-59555D01*
X78945Y-59440D01*
X78945Y-59305D01*
X78805Y-59305D01*
X78805Y-62195D01*
X80190Y-62195D01*
X80305Y-62195D01*
X80305Y-62310D01*
X80305Y-62690D01*
X80305Y-62805D01*
G54D10*
G36*
X84555Y-65555D02*
X84445Y-65555D01*
X84445Y-65445D01*
X84445Y-64555D01*
X83560Y-64555D01*
X83445Y-64555D01*
X83445Y-64440D01*
X83445Y-63805D01*
X82055Y-63805D01*
X82055Y-64440D01*
X82055Y-64555D01*
X81940Y-64555D01*
X81555Y-64555D01*
X81555Y-66190D01*
X81555Y-66305D01*
X81440Y-66305D01*
X80055Y-66305D01*
X80055Y-66695D01*
X81945Y-66695D01*
X81945Y-65560D01*
X81945Y-65445D01*
X82060Y-65445D01*
X84445Y-65445D01*
X84445Y-65555D01*
X84440Y-65555D01*
X82055Y-65555D01*
X82055Y-66690D01*
X82055Y-66805D01*
X81940Y-66805D01*
X80060Y-66805D01*
X79945Y-66805D01*
X79945Y-66690D01*
X79945Y-66310D01*
X79945Y-66195D01*
X80060Y-66195D01*
X81445Y-66195D01*
X81445Y-64560D01*
X81445Y-64445D01*
X81560Y-64445D01*
X81945Y-64445D01*
X81945Y-63810D01*
X81945Y-63695D01*
X82060Y-63695D01*
X83440Y-63695D01*
X83555Y-63695D01*
X83555Y-63810D01*
X83555Y-64445D01*
X84440Y-64445D01*
X84555Y-64445D01*
X84555Y-64560D01*
X84555Y-65440D01*
X84555Y-65555D01*
X84555Y-65555D01*
G37*
G54D21*
X84555Y-65555D02*
X84445Y-65555D01*
X84445Y-65445D01*
X84445Y-64555D01*
X83560Y-64555D01*
X83445Y-64555D01*
X83445Y-64440D01*
X83445Y-63805D01*
X82055Y-63805D01*
X82055Y-64440D01*
X82055Y-64555D01*
X81940Y-64555D01*
X81555Y-64555D01*
X81555Y-66190D01*
X81555Y-66305D01*
X81440Y-66305D01*
X80055Y-66305D01*
X80055Y-66695D01*
X81945Y-66695D01*
X81945Y-65560D01*
X81945Y-65445D01*
X82060Y-65445D01*
X84445Y-65445D01*
X84445Y-65555D01*
X84440Y-65555D01*
X82055Y-65555D01*
X82055Y-66690D01*
X82055Y-66805D01*
X81940Y-66805D01*
X80060Y-66805D01*
X79945Y-66805D01*
X79945Y-66690D01*
X79945Y-66310D01*
X79945Y-66195D01*
X80060Y-66195D01*
X81445Y-66195D01*
X81445Y-64560D01*
X81445Y-64445D01*
X81560Y-64445D01*
X81945Y-64445D01*
X81945Y-63810D01*
X81945Y-63695D01*
X82060Y-63695D01*
X83440Y-63695D01*
X83555Y-63695D01*
X83555Y-63810D01*
X83555Y-64445D01*
X84440Y-64445D01*
X84555Y-64445D01*
X84555Y-64560D01*
X84555Y-65440D01*
X84555Y-65555D01*
G54D10*
G36*
X85805Y-64805D02*
X85695Y-64805D01*
X85695Y-64695D01*
X85695Y-62805D01*
X84560Y-62805D01*
X84445Y-62805D01*
X84445Y-62690D01*
X84445Y-60555D01*
X83555Y-60555D01*
X83555Y-61445D01*
X83690Y-61445D01*
X83805Y-61445D01*
X83805Y-61560D01*
X83805Y-62440D01*
X83805Y-62555D01*
X83690Y-62555D01*
X83555Y-62555D01*
X83555Y-63445D01*
X85190Y-63445D01*
X85305Y-63445D01*
X85305Y-63560D01*
X85305Y-64695D01*
X85695Y-64695D01*
X85695Y-64805D01*
X85690Y-64805D01*
X85310Y-64805D01*
X85195Y-64805D01*
X85195Y-64690D01*
X85195Y-63555D01*
X83560Y-63555D01*
X83445Y-63555D01*
X83445Y-63440D01*
X83445Y-62560D01*
X83445Y-62445D01*
X83560Y-62445D01*
X83695Y-62445D01*
X83695Y-61555D01*
X83560Y-61555D01*
X83445Y-61555D01*
X83445Y-61440D01*
X83445Y-60560D01*
X83445Y-60445D01*
X83560Y-60445D01*
X84440Y-60445D01*
X84555Y-60445D01*
X84555Y-60560D01*
X84555Y-62695D01*
X85690Y-62695D01*
X85805Y-62695D01*
X85805Y-62810D01*
X85805Y-64690D01*
X85805Y-64805D01*
X85805Y-64805D01*
G37*
G54D21*
X85805Y-64805D02*
X85695Y-64805D01*
X85695Y-64695D01*
X85695Y-62805D01*
X84560Y-62805D01*
X84445Y-62805D01*
X84445Y-62690D01*
X84445Y-60555D01*
X83555Y-60555D01*
X83555Y-61445D01*
X83690Y-61445D01*
X83805Y-61445D01*
X83805Y-61560D01*
X83805Y-62440D01*
X83805Y-62555D01*
X83690Y-62555D01*
X83555Y-62555D01*
X83555Y-63445D01*
X85190Y-63445D01*
X85305Y-63445D01*
X85305Y-63560D01*
X85305Y-64695D01*
X85695Y-64695D01*
X85695Y-64805D01*
X85690Y-64805D01*
X85310Y-64805D01*
X85195Y-64805D01*
X85195Y-64690D01*
X85195Y-63555D01*
X83560Y-63555D01*
X83445Y-63555D01*
X83445Y-63440D01*
X83445Y-62560D01*
X83445Y-62445D01*
X83560Y-62445D01*
X83695Y-62445D01*
X83695Y-61555D01*
X83560Y-61555D01*
X83445Y-61555D01*
X83445Y-61440D01*
X83445Y-60560D01*
X83445Y-60445D01*
X83560Y-60445D01*
X84440Y-60445D01*
X84555Y-60445D01*
X84555Y-60560D01*
X84555Y-62695D01*
X85690Y-62695D01*
X85805Y-62695D01*
X85805Y-62810D01*
X85805Y-64690D01*
X85805Y-64805D01*
M02*
