G04 (created by PCBNEW (2013-07-07 BZR 4022)-stable) date 6/29/2014 5:28:36 PM*
%MOIN*%
G04 Gerber Fmt 3.4, Leading zero omitted, Abs format*
%FSLAX34Y34*%
G01*
G70*
G90*
G04 APERTURE LIST*
%ADD10C,0.00590551*%
%ADD11C,0.006*%
%ADD12C,0.004*%
%ADD13C,0.005*%
%ADD14C,0.0001*%
G04 APERTURE END LIST*
G54D10*
G54D11*
X84621Y-57264D02*
X84621Y-57207D01*
X84607Y-57178D01*
X84592Y-57164D01*
X84550Y-57135D01*
X84492Y-57121D01*
X84378Y-57121D01*
X84350Y-57135D01*
X84335Y-57150D01*
X84321Y-57178D01*
X84321Y-57235D01*
X84335Y-57264D01*
X84350Y-57278D01*
X84378Y-57292D01*
X84450Y-57292D01*
X84478Y-57278D01*
X84492Y-57264D01*
X84507Y-57235D01*
X84507Y-57178D01*
X84492Y-57150D01*
X84478Y-57135D01*
X84450Y-57121D01*
X84321Y-57035D02*
X84621Y-56935D01*
X84321Y-56835D01*
X84607Y-56607D02*
X84621Y-56635D01*
X84621Y-56692D01*
X84607Y-56721D01*
X84592Y-56735D01*
X84564Y-56750D01*
X84478Y-56750D01*
X84450Y-56735D01*
X84435Y-56721D01*
X84421Y-56692D01*
X84421Y-56635D01*
X84435Y-56607D01*
X84607Y-56350D02*
X84621Y-56378D01*
X84621Y-56435D01*
X84607Y-56464D01*
X84592Y-56478D01*
X84564Y-56492D01*
X84478Y-56492D01*
X84450Y-56478D01*
X84435Y-56464D01*
X84421Y-56435D01*
X84421Y-56378D01*
X84435Y-56350D01*
X84335Y-55871D02*
X84321Y-55900D01*
X84321Y-55942D01*
X84335Y-55985D01*
X84364Y-56014D01*
X84392Y-56028D01*
X84450Y-56042D01*
X84492Y-56042D01*
X84550Y-56028D01*
X84578Y-56014D01*
X84607Y-55985D01*
X84621Y-55942D01*
X84621Y-55914D01*
X84607Y-55871D01*
X84592Y-55857D01*
X84492Y-55857D01*
X84492Y-55914D01*
X84621Y-55728D02*
X84321Y-55728D01*
X84621Y-55557D01*
X84321Y-55557D01*
X84621Y-55414D02*
X84321Y-55414D01*
X84321Y-55342D01*
X84335Y-55300D01*
X84364Y-55271D01*
X84392Y-55257D01*
X84450Y-55242D01*
X84492Y-55242D01*
X84550Y-55257D01*
X84578Y-55271D01*
X84607Y-55300D01*
X84621Y-55342D01*
X84621Y-55414D01*
X84150Y-66907D02*
X84164Y-66921D01*
X84178Y-66950D01*
X84178Y-67021D01*
X84164Y-67050D01*
X84150Y-67064D01*
X84121Y-67078D01*
X84092Y-67078D01*
X84050Y-67064D01*
X83878Y-66892D01*
X83878Y-67078D01*
X83878Y-67221D02*
X83878Y-67278D01*
X83892Y-67307D01*
X83907Y-67321D01*
X83950Y-67350D01*
X84007Y-67364D01*
X84121Y-67364D01*
X84150Y-67350D01*
X84164Y-67335D01*
X84178Y-67307D01*
X84178Y-67250D01*
X84164Y-67221D01*
X84150Y-67207D01*
X84121Y-67192D01*
X84050Y-67192D01*
X84021Y-67207D01*
X84007Y-67221D01*
X83992Y-67250D01*
X83992Y-67307D01*
X84007Y-67335D01*
X84021Y-67350D01*
X84050Y-67364D01*
X83878Y-67492D02*
X84078Y-67492D01*
X84050Y-67492D02*
X84064Y-67507D01*
X84078Y-67535D01*
X84078Y-67578D01*
X84064Y-67607D01*
X84035Y-67621D01*
X83878Y-67621D01*
X84035Y-67621D02*
X84064Y-67635D01*
X84078Y-67664D01*
X84078Y-67707D01*
X84064Y-67735D01*
X84035Y-67749D01*
X83878Y-67749D01*
X84178Y-67849D02*
X83878Y-67949D01*
X84178Y-68049D01*
X83878Y-68192D02*
X83892Y-68164D01*
X83907Y-68150D01*
X83935Y-68135D01*
X84021Y-68135D01*
X84050Y-68150D01*
X84064Y-68164D01*
X84078Y-68192D01*
X84078Y-68235D01*
X84064Y-68264D01*
X84050Y-68278D01*
X84021Y-68292D01*
X83935Y-68292D01*
X83907Y-68278D01*
X83892Y-68264D01*
X83878Y-68235D01*
X83878Y-68192D01*
X85164Y-67078D02*
X85178Y-67050D01*
X85178Y-67007D01*
X85164Y-66964D01*
X85135Y-66935D01*
X85107Y-66921D01*
X85050Y-66907D01*
X85007Y-66907D01*
X84950Y-66921D01*
X84921Y-66935D01*
X84892Y-66964D01*
X84878Y-67007D01*
X84878Y-67035D01*
X84892Y-67078D01*
X84907Y-67092D01*
X85007Y-67092D01*
X85007Y-67035D01*
X84878Y-67221D02*
X85178Y-67221D01*
X84878Y-67392D01*
X85178Y-67392D01*
X84878Y-67535D02*
X85178Y-67535D01*
X85178Y-67607D01*
X85164Y-67650D01*
X85135Y-67678D01*
X85107Y-67692D01*
X85050Y-67707D01*
X85007Y-67707D01*
X84950Y-67692D01*
X84921Y-67678D01*
X84892Y-67650D01*
X84878Y-67607D01*
X84878Y-67535D01*
X88407Y-63350D02*
X88421Y-63335D01*
X88450Y-63321D01*
X88521Y-63321D01*
X88550Y-63335D01*
X88564Y-63350D01*
X88578Y-63378D01*
X88578Y-63407D01*
X88564Y-63450D01*
X88392Y-63621D01*
X88578Y-63621D01*
X88721Y-63621D02*
X88778Y-63621D01*
X88807Y-63607D01*
X88821Y-63592D01*
X88850Y-63550D01*
X88864Y-63492D01*
X88864Y-63378D01*
X88850Y-63350D01*
X88835Y-63335D01*
X88807Y-63321D01*
X88750Y-63321D01*
X88721Y-63335D01*
X88707Y-63350D01*
X88692Y-63378D01*
X88692Y-63450D01*
X88707Y-63478D01*
X88721Y-63492D01*
X88750Y-63507D01*
X88807Y-63507D01*
X88835Y-63492D01*
X88850Y-63478D01*
X88864Y-63450D01*
X89049Y-63321D02*
X89078Y-63321D01*
X89107Y-63335D01*
X89121Y-63350D01*
X89135Y-63378D01*
X89149Y-63435D01*
X89149Y-63507D01*
X89135Y-63564D01*
X89121Y-63592D01*
X89107Y-63607D01*
X89078Y-63621D01*
X89049Y-63621D01*
X89021Y-63607D01*
X89007Y-63592D01*
X88992Y-63564D01*
X88978Y-63507D01*
X88978Y-63435D01*
X88992Y-63378D01*
X89007Y-63350D01*
X89021Y-63335D01*
X89049Y-63321D01*
X89278Y-63621D02*
X89278Y-63421D01*
X89278Y-63450D02*
X89292Y-63435D01*
X89321Y-63421D01*
X89364Y-63421D01*
X89392Y-63435D01*
X89407Y-63464D01*
X89407Y-63621D01*
X89407Y-63464D02*
X89421Y-63435D01*
X89449Y-63421D01*
X89492Y-63421D01*
X89521Y-63435D01*
X89535Y-63464D01*
X89535Y-63621D01*
X89635Y-63321D02*
X89735Y-63621D01*
X89835Y-63321D01*
X89978Y-63621D02*
X89949Y-63607D01*
X89935Y-63592D01*
X89921Y-63564D01*
X89921Y-63478D01*
X89935Y-63450D01*
X89949Y-63435D01*
X89978Y-63421D01*
X90021Y-63421D01*
X90049Y-63435D01*
X90064Y-63450D01*
X90078Y-63478D01*
X90078Y-63564D01*
X90064Y-63592D01*
X90049Y-63607D01*
X90021Y-63621D01*
X89978Y-63621D01*
X81100Y-54592D02*
X81085Y-54578D01*
X81071Y-54550D01*
X81071Y-54478D01*
X81085Y-54450D01*
X81100Y-54435D01*
X81128Y-54421D01*
X81157Y-54421D01*
X81200Y-54435D01*
X81371Y-54607D01*
X81371Y-54421D01*
X81342Y-54292D02*
X81357Y-54278D01*
X81371Y-54292D01*
X81357Y-54307D01*
X81342Y-54292D01*
X81371Y-54292D01*
X81371Y-54135D02*
X81371Y-54078D01*
X81357Y-54050D01*
X81342Y-54035D01*
X81300Y-54007D01*
X81242Y-53992D01*
X81128Y-53992D01*
X81100Y-54007D01*
X81085Y-54021D01*
X81071Y-54050D01*
X81071Y-54107D01*
X81085Y-54135D01*
X81100Y-54150D01*
X81128Y-54164D01*
X81200Y-54164D01*
X81228Y-54150D01*
X81242Y-54135D01*
X81257Y-54107D01*
X81257Y-54050D01*
X81242Y-54021D01*
X81228Y-54007D01*
X81200Y-53992D01*
X81071Y-53907D02*
X81371Y-53807D01*
X81071Y-53707D01*
X81371Y-53564D02*
X81357Y-53592D01*
X81342Y-53607D01*
X81314Y-53621D01*
X81228Y-53621D01*
X81200Y-53607D01*
X81185Y-53592D01*
X81171Y-53564D01*
X81171Y-53521D01*
X81185Y-53492D01*
X81200Y-53478D01*
X81228Y-53464D01*
X81314Y-53464D01*
X81342Y-53478D01*
X81357Y-53492D01*
X81371Y-53521D01*
X81371Y-53564D01*
X76100Y-58342D02*
X76085Y-58328D01*
X76071Y-58300D01*
X76071Y-58228D01*
X76085Y-58200D01*
X76100Y-58185D01*
X76128Y-58171D01*
X76157Y-58171D01*
X76200Y-58185D01*
X76371Y-58357D01*
X76371Y-58171D01*
X76371Y-58028D02*
X76371Y-57971D01*
X76357Y-57942D01*
X76342Y-57928D01*
X76300Y-57900D01*
X76242Y-57885D01*
X76128Y-57885D01*
X76100Y-57900D01*
X76085Y-57914D01*
X76071Y-57942D01*
X76071Y-58000D01*
X76085Y-58028D01*
X76100Y-58042D01*
X76128Y-58057D01*
X76200Y-58057D01*
X76228Y-58042D01*
X76242Y-58028D01*
X76257Y-58000D01*
X76257Y-57942D01*
X76242Y-57914D01*
X76228Y-57900D01*
X76200Y-57885D01*
X76071Y-57800D02*
X76371Y-57700D01*
X76071Y-57600D01*
X76371Y-57457D02*
X76357Y-57485D01*
X76342Y-57500D01*
X76314Y-57514D01*
X76228Y-57514D01*
X76200Y-57500D01*
X76185Y-57485D01*
X76171Y-57457D01*
X76171Y-57414D01*
X76185Y-57385D01*
X76200Y-57371D01*
X76228Y-57357D01*
X76314Y-57357D01*
X76342Y-57371D01*
X76357Y-57385D01*
X76371Y-57414D01*
X76371Y-57457D01*
X73100Y-61821D02*
X73285Y-61821D01*
X73185Y-61935D01*
X73228Y-61935D01*
X73257Y-61950D01*
X73271Y-61964D01*
X73285Y-61992D01*
X73285Y-62064D01*
X73271Y-62092D01*
X73257Y-62107D01*
X73228Y-62121D01*
X73142Y-62121D01*
X73114Y-62107D01*
X73100Y-62092D01*
X73542Y-61821D02*
X73485Y-61821D01*
X73457Y-61835D01*
X73442Y-61850D01*
X73414Y-61892D01*
X73400Y-61950D01*
X73400Y-62064D01*
X73414Y-62092D01*
X73428Y-62107D01*
X73457Y-62121D01*
X73514Y-62121D01*
X73542Y-62107D01*
X73557Y-62092D01*
X73571Y-62064D01*
X73571Y-61992D01*
X73557Y-61964D01*
X73542Y-61950D01*
X73514Y-61935D01*
X73457Y-61935D01*
X73428Y-61950D01*
X73414Y-61964D01*
X73400Y-61992D01*
X73657Y-61821D02*
X73757Y-62121D01*
X73857Y-61821D01*
X74085Y-62107D02*
X74057Y-62121D01*
X74000Y-62121D01*
X73971Y-62107D01*
X73957Y-62092D01*
X73942Y-62064D01*
X73942Y-61978D01*
X73957Y-61950D01*
X73971Y-61935D01*
X74000Y-61921D01*
X74057Y-61921D01*
X74085Y-61935D01*
X74342Y-62107D02*
X74314Y-62121D01*
X74257Y-62121D01*
X74228Y-62107D01*
X74214Y-62092D01*
X74200Y-62064D01*
X74200Y-61978D01*
X74214Y-61950D01*
X74228Y-61935D01*
X74257Y-61921D01*
X74314Y-61921D01*
X74342Y-61935D01*
X73714Y-62835D02*
X73685Y-62821D01*
X73642Y-62821D01*
X73600Y-62835D01*
X73571Y-62864D01*
X73557Y-62892D01*
X73542Y-62950D01*
X73542Y-62992D01*
X73557Y-63050D01*
X73571Y-63078D01*
X73600Y-63107D01*
X73642Y-63121D01*
X73671Y-63121D01*
X73714Y-63107D01*
X73728Y-63092D01*
X73728Y-62992D01*
X73671Y-62992D01*
X73857Y-63121D02*
X73857Y-62821D01*
X74028Y-63121D01*
X74028Y-62821D01*
X74171Y-63121D02*
X74171Y-62821D01*
X74242Y-62821D01*
X74285Y-62835D01*
X74314Y-62864D01*
X74328Y-62892D01*
X74342Y-62950D01*
X74342Y-62992D01*
X74328Y-63050D01*
X74314Y-63078D01*
X74285Y-63107D01*
X74242Y-63121D01*
X74171Y-63121D01*
X76028Y-60635D02*
X76000Y-60621D01*
X75957Y-60621D01*
X75914Y-60635D01*
X75885Y-60664D01*
X75871Y-60692D01*
X75857Y-60750D01*
X75857Y-60792D01*
X75871Y-60850D01*
X75885Y-60878D01*
X75914Y-60907D01*
X75957Y-60921D01*
X75985Y-60921D01*
X76028Y-60907D01*
X76042Y-60892D01*
X76042Y-60792D01*
X75985Y-60792D01*
X76171Y-60921D02*
X76171Y-60621D01*
X76342Y-60921D01*
X76342Y-60621D01*
X76485Y-60921D02*
X76485Y-60621D01*
X76557Y-60621D01*
X76600Y-60635D01*
X76628Y-60664D01*
X76642Y-60692D01*
X76657Y-60750D01*
X76657Y-60792D01*
X76642Y-60850D01*
X76628Y-60878D01*
X76600Y-60907D01*
X76557Y-60921D01*
X76485Y-60921D01*
X82085Y-54421D02*
X82071Y-54450D01*
X82071Y-54492D01*
X82085Y-54535D01*
X82114Y-54564D01*
X82142Y-54578D01*
X82200Y-54592D01*
X82242Y-54592D01*
X82300Y-54578D01*
X82328Y-54564D01*
X82357Y-54535D01*
X82371Y-54492D01*
X82371Y-54464D01*
X82357Y-54421D01*
X82342Y-54407D01*
X82242Y-54407D01*
X82242Y-54464D01*
X82371Y-54278D02*
X82071Y-54278D01*
X82371Y-54107D01*
X82071Y-54107D01*
X82371Y-53964D02*
X82071Y-53964D01*
X82071Y-53892D01*
X82085Y-53850D01*
X82114Y-53821D01*
X82142Y-53807D01*
X82200Y-53792D01*
X82242Y-53792D01*
X82300Y-53807D01*
X82328Y-53821D01*
X82357Y-53850D01*
X82371Y-53892D01*
X82371Y-53964D01*
X88578Y-62335D02*
X88550Y-62321D01*
X88507Y-62321D01*
X88464Y-62335D01*
X88435Y-62364D01*
X88421Y-62392D01*
X88407Y-62450D01*
X88407Y-62492D01*
X88421Y-62550D01*
X88435Y-62578D01*
X88464Y-62607D01*
X88507Y-62621D01*
X88535Y-62621D01*
X88578Y-62607D01*
X88592Y-62592D01*
X88592Y-62492D01*
X88535Y-62492D01*
X88721Y-62621D02*
X88721Y-62321D01*
X88892Y-62621D01*
X88892Y-62321D01*
X89035Y-62621D02*
X89035Y-62321D01*
X89107Y-62321D01*
X89150Y-62335D01*
X89178Y-62364D01*
X89192Y-62392D01*
X89207Y-62450D01*
X89207Y-62492D01*
X89192Y-62550D01*
X89178Y-62578D01*
X89150Y-62607D01*
X89107Y-62621D01*
X89035Y-62621D01*
X82414Y-69578D02*
X82428Y-69550D01*
X82428Y-69507D01*
X82414Y-69464D01*
X82385Y-69435D01*
X82357Y-69421D01*
X82300Y-69407D01*
X82257Y-69407D01*
X82200Y-69421D01*
X82171Y-69435D01*
X82142Y-69464D01*
X82128Y-69507D01*
X82128Y-69535D01*
X82142Y-69578D01*
X82157Y-69592D01*
X82257Y-69592D01*
X82257Y-69535D01*
X82128Y-69721D02*
X82428Y-69721D01*
X82128Y-69892D01*
X82428Y-69892D01*
X82128Y-70035D02*
X82428Y-70035D01*
X82428Y-70107D01*
X82414Y-70150D01*
X82385Y-70178D01*
X82357Y-70192D01*
X82300Y-70207D01*
X82257Y-70207D01*
X82200Y-70192D01*
X82171Y-70178D01*
X82142Y-70150D01*
X82128Y-70107D01*
X82128Y-70035D01*
X81128Y-69421D02*
X81428Y-69421D01*
X81285Y-69421D02*
X81285Y-69592D01*
X81128Y-69592D02*
X81428Y-69592D01*
X81242Y-69735D02*
X81242Y-69964D01*
X81128Y-69850D02*
X81357Y-69850D01*
G54D12*
X82854Y-58407D02*
X82845Y-58397D01*
X82826Y-58369D01*
X82816Y-58350D01*
X82807Y-58321D01*
X82797Y-58273D01*
X82797Y-58235D01*
X82807Y-58188D01*
X82816Y-58159D01*
X82826Y-58140D01*
X82845Y-58111D01*
X82854Y-58102D01*
X82911Y-58197D02*
X82959Y-58330D01*
X83007Y-58197D01*
X83188Y-58330D02*
X83073Y-58330D01*
X83130Y-58330D02*
X83130Y-58130D01*
X83111Y-58159D01*
X83092Y-58178D01*
X83073Y-58188D01*
X83254Y-58407D02*
X83264Y-58397D01*
X83283Y-58369D01*
X83292Y-58350D01*
X83302Y-58321D01*
X83311Y-58273D01*
X83311Y-58235D01*
X83302Y-58188D01*
X83292Y-58159D01*
X83283Y-58140D01*
X83264Y-58111D01*
X83254Y-58102D01*
G54D11*
X80464Y-57371D02*
X80321Y-57371D01*
X80321Y-57071D01*
X80564Y-57371D02*
X80564Y-57071D01*
X80664Y-57285D01*
X80764Y-57071D01*
X80764Y-57371D01*
X80878Y-57071D02*
X81064Y-57071D01*
X80964Y-57185D01*
X81007Y-57185D01*
X81035Y-57200D01*
X81050Y-57214D01*
X81064Y-57242D01*
X81064Y-57314D01*
X81050Y-57342D01*
X81035Y-57357D01*
X81007Y-57371D01*
X80921Y-57371D01*
X80892Y-57357D01*
X80878Y-57342D01*
X81207Y-57371D02*
X81264Y-57371D01*
X81292Y-57357D01*
X81307Y-57342D01*
X81335Y-57300D01*
X81349Y-57242D01*
X81349Y-57128D01*
X81335Y-57100D01*
X81321Y-57085D01*
X81292Y-57071D01*
X81235Y-57071D01*
X81207Y-57085D01*
X81192Y-57100D01*
X81178Y-57128D01*
X81178Y-57200D01*
X81192Y-57228D01*
X81207Y-57242D01*
X81235Y-57257D01*
X81292Y-57257D01*
X81321Y-57242D01*
X81335Y-57228D01*
X81349Y-57200D01*
X81492Y-57371D02*
X81549Y-57371D01*
X81578Y-57357D01*
X81592Y-57342D01*
X81621Y-57300D01*
X81635Y-57242D01*
X81635Y-57128D01*
X81621Y-57100D01*
X81607Y-57085D01*
X81578Y-57071D01*
X81521Y-57071D01*
X81492Y-57085D01*
X81478Y-57100D01*
X81464Y-57128D01*
X81464Y-57200D01*
X81478Y-57228D01*
X81492Y-57242D01*
X81521Y-57257D01*
X81578Y-57257D01*
X81607Y-57242D01*
X81621Y-57228D01*
X81635Y-57200D01*
X81764Y-57257D02*
X81992Y-57257D01*
X82135Y-57371D02*
X82135Y-57071D01*
X82135Y-57185D02*
X82164Y-57171D01*
X82221Y-57171D01*
X82249Y-57185D01*
X82264Y-57200D01*
X82278Y-57228D01*
X82278Y-57314D01*
X82264Y-57342D01*
X82249Y-57357D01*
X82221Y-57371D01*
X82164Y-57371D01*
X82135Y-57357D01*
X82535Y-57371D02*
X82535Y-57214D01*
X82521Y-57185D01*
X82492Y-57171D01*
X82435Y-57171D01*
X82407Y-57185D01*
X82535Y-57357D02*
X82507Y-57371D01*
X82435Y-57371D01*
X82407Y-57357D01*
X82392Y-57328D01*
X82392Y-57300D01*
X82407Y-57271D01*
X82435Y-57257D01*
X82507Y-57257D01*
X82535Y-57242D01*
X82664Y-57357D02*
X82692Y-57371D01*
X82750Y-57371D01*
X82778Y-57357D01*
X82792Y-57328D01*
X82792Y-57314D01*
X82778Y-57285D01*
X82750Y-57271D01*
X82707Y-57271D01*
X82678Y-57257D01*
X82664Y-57228D01*
X82664Y-57214D01*
X82678Y-57185D01*
X82707Y-57171D01*
X82750Y-57171D01*
X82778Y-57185D01*
X83035Y-57357D02*
X83007Y-57371D01*
X82950Y-57371D01*
X82921Y-57357D01*
X82907Y-57328D01*
X82907Y-57214D01*
X82921Y-57185D01*
X82950Y-57171D01*
X83007Y-57171D01*
X83035Y-57185D01*
X83050Y-57214D01*
X83050Y-57242D01*
X82907Y-57271D01*
X83307Y-57371D02*
X83307Y-57071D01*
X83307Y-57357D02*
X83278Y-57371D01*
X83221Y-57371D01*
X83192Y-57357D01*
X83178Y-57342D01*
X83164Y-57314D01*
X83164Y-57228D01*
X83178Y-57200D01*
X83192Y-57185D01*
X83221Y-57171D01*
X83278Y-57171D01*
X83307Y-57185D01*
X80278Y-57551D02*
X80378Y-57851D01*
X80478Y-57551D01*
X80621Y-57851D02*
X80592Y-57837D01*
X80578Y-57822D01*
X80564Y-57794D01*
X80564Y-57708D01*
X80578Y-57680D01*
X80592Y-57665D01*
X80621Y-57651D01*
X80664Y-57651D01*
X80692Y-57665D01*
X80707Y-57680D01*
X80721Y-57708D01*
X80721Y-57794D01*
X80707Y-57822D01*
X80692Y-57837D01*
X80664Y-57851D01*
X80621Y-57851D01*
X80892Y-57851D02*
X80864Y-57837D01*
X80850Y-57808D01*
X80850Y-57551D01*
X80964Y-57651D02*
X81078Y-57651D01*
X81007Y-57551D02*
X81007Y-57808D01*
X81021Y-57837D01*
X81050Y-57851D01*
X81078Y-57851D01*
X81307Y-57851D02*
X81307Y-57694D01*
X81292Y-57665D01*
X81264Y-57651D01*
X81207Y-57651D01*
X81178Y-57665D01*
X81307Y-57837D02*
X81278Y-57851D01*
X81207Y-57851D01*
X81178Y-57837D01*
X81164Y-57808D01*
X81164Y-57780D01*
X81178Y-57751D01*
X81207Y-57737D01*
X81278Y-57737D01*
X81307Y-57722D01*
X81578Y-57651D02*
X81578Y-57894D01*
X81564Y-57922D01*
X81550Y-57937D01*
X81521Y-57951D01*
X81478Y-57951D01*
X81450Y-57937D01*
X81578Y-57837D02*
X81550Y-57851D01*
X81492Y-57851D01*
X81464Y-57837D01*
X81450Y-57822D01*
X81435Y-57794D01*
X81435Y-57708D01*
X81450Y-57680D01*
X81464Y-57665D01*
X81492Y-57651D01*
X81550Y-57651D01*
X81578Y-57665D01*
X81835Y-57837D02*
X81807Y-57851D01*
X81750Y-57851D01*
X81721Y-57837D01*
X81707Y-57808D01*
X81707Y-57694D01*
X81721Y-57665D01*
X81750Y-57651D01*
X81807Y-57651D01*
X81835Y-57665D01*
X81850Y-57694D01*
X81850Y-57722D01*
X81707Y-57751D01*
X82164Y-57551D02*
X82335Y-57551D01*
X82250Y-57851D02*
X82250Y-57551D01*
X82435Y-57851D02*
X82435Y-57651D01*
X82435Y-57708D02*
X82450Y-57680D01*
X82464Y-57665D01*
X82492Y-57651D01*
X82521Y-57651D01*
X82750Y-57851D02*
X82750Y-57694D01*
X82735Y-57665D01*
X82707Y-57651D01*
X82650Y-57651D01*
X82621Y-57665D01*
X82750Y-57837D02*
X82721Y-57851D01*
X82650Y-57851D01*
X82621Y-57837D01*
X82607Y-57808D01*
X82607Y-57780D01*
X82621Y-57751D01*
X82650Y-57737D01*
X82721Y-57737D01*
X82750Y-57722D01*
X82892Y-57651D02*
X82892Y-57851D01*
X82892Y-57680D02*
X82907Y-57665D01*
X82935Y-57651D01*
X82978Y-57651D01*
X83007Y-57665D01*
X83021Y-57694D01*
X83021Y-57851D01*
X83150Y-57837D02*
X83178Y-57851D01*
X83235Y-57851D01*
X83264Y-57837D01*
X83278Y-57808D01*
X83278Y-57794D01*
X83264Y-57765D01*
X83235Y-57751D01*
X83192Y-57751D01*
X83164Y-57737D01*
X83150Y-57708D01*
X83150Y-57694D01*
X83164Y-57665D01*
X83192Y-57651D01*
X83235Y-57651D01*
X83264Y-57665D01*
X83364Y-57651D02*
X83478Y-57651D01*
X83407Y-57851D02*
X83407Y-57594D01*
X83421Y-57565D01*
X83450Y-57551D01*
X83478Y-57551D01*
X83692Y-57837D02*
X83664Y-57851D01*
X83607Y-57851D01*
X83578Y-57837D01*
X83564Y-57808D01*
X83564Y-57694D01*
X83578Y-57665D01*
X83607Y-57651D01*
X83664Y-57651D01*
X83692Y-57665D01*
X83707Y-57694D01*
X83707Y-57722D01*
X83564Y-57751D01*
X83835Y-57851D02*
X83835Y-57651D01*
X83835Y-57708D02*
X83850Y-57680D01*
X83864Y-57665D01*
X83892Y-57651D01*
X83921Y-57651D01*
X80492Y-58331D02*
X80392Y-58188D01*
X80321Y-58331D02*
X80321Y-58031D01*
X80435Y-58031D01*
X80464Y-58045D01*
X80478Y-58060D01*
X80492Y-58088D01*
X80492Y-58131D01*
X80478Y-58160D01*
X80464Y-58174D01*
X80435Y-58188D01*
X80321Y-58188D01*
X80735Y-58317D02*
X80707Y-58331D01*
X80650Y-58331D01*
X80621Y-58317D01*
X80607Y-58288D01*
X80607Y-58174D01*
X80621Y-58145D01*
X80650Y-58131D01*
X80707Y-58131D01*
X80735Y-58145D01*
X80750Y-58174D01*
X80750Y-58202D01*
X80607Y-58231D01*
X80835Y-58131D02*
X80950Y-58131D01*
X80878Y-58331D02*
X80878Y-58074D01*
X80892Y-58045D01*
X80921Y-58031D01*
X80950Y-58031D01*
X81164Y-58317D02*
X81135Y-58331D01*
X81078Y-58331D01*
X81050Y-58317D01*
X81035Y-58288D01*
X81035Y-58174D01*
X81050Y-58145D01*
X81078Y-58131D01*
X81135Y-58131D01*
X81164Y-58145D01*
X81178Y-58174D01*
X81178Y-58202D01*
X81035Y-58231D01*
X81307Y-58331D02*
X81307Y-58131D01*
X81307Y-58188D02*
X81321Y-58160D01*
X81335Y-58145D01*
X81364Y-58131D01*
X81392Y-58131D01*
X81607Y-58317D02*
X81578Y-58331D01*
X81521Y-58331D01*
X81492Y-58317D01*
X81478Y-58288D01*
X81478Y-58174D01*
X81492Y-58145D01*
X81521Y-58131D01*
X81578Y-58131D01*
X81607Y-58145D01*
X81621Y-58174D01*
X81621Y-58202D01*
X81478Y-58231D01*
X81750Y-58131D02*
X81750Y-58331D01*
X81750Y-58160D02*
X81764Y-58145D01*
X81792Y-58131D01*
X81835Y-58131D01*
X81864Y-58145D01*
X81878Y-58174D01*
X81878Y-58331D01*
X82150Y-58317D02*
X82121Y-58331D01*
X82064Y-58331D01*
X82035Y-58317D01*
X82021Y-58302D01*
X82007Y-58274D01*
X82007Y-58188D01*
X82021Y-58160D01*
X82035Y-58145D01*
X82064Y-58131D01*
X82121Y-58131D01*
X82150Y-58145D01*
X82392Y-58317D02*
X82364Y-58331D01*
X82307Y-58331D01*
X82278Y-58317D01*
X82264Y-58288D01*
X82264Y-58174D01*
X82278Y-58145D01*
X82307Y-58131D01*
X82364Y-58131D01*
X82392Y-58145D01*
X82407Y-58174D01*
X82407Y-58202D01*
X82264Y-58231D01*
G54D13*
X73344Y-64284D02*
X73344Y-64486D01*
X73332Y-64510D01*
X73320Y-64522D01*
X73296Y-64534D01*
X73260Y-64534D01*
X73236Y-64522D01*
X73344Y-64439D02*
X73320Y-64451D01*
X73272Y-64451D01*
X73248Y-64439D01*
X73236Y-64427D01*
X73224Y-64403D01*
X73224Y-64332D01*
X73236Y-64308D01*
X73248Y-64296D01*
X73272Y-64284D01*
X73320Y-64284D01*
X73344Y-64296D01*
X73463Y-64451D02*
X73463Y-64284D01*
X73463Y-64201D02*
X73451Y-64213D01*
X73463Y-64225D01*
X73474Y-64213D01*
X73463Y-64201D01*
X73463Y-64225D01*
X73546Y-64284D02*
X73641Y-64284D01*
X73582Y-64201D02*
X73582Y-64415D01*
X73594Y-64439D01*
X73617Y-64451D01*
X73641Y-64451D01*
X73724Y-64451D02*
X73724Y-64201D01*
X73832Y-64451D02*
X73832Y-64320D01*
X73820Y-64296D01*
X73796Y-64284D01*
X73760Y-64284D01*
X73736Y-64296D01*
X73724Y-64308D01*
X74058Y-64284D02*
X74058Y-64451D01*
X73951Y-64284D02*
X73951Y-64415D01*
X73963Y-64439D01*
X73986Y-64451D01*
X74022Y-64451D01*
X74046Y-64439D01*
X74058Y-64427D01*
X74177Y-64451D02*
X74177Y-64201D01*
X74177Y-64296D02*
X74201Y-64284D01*
X74248Y-64284D01*
X74272Y-64296D01*
X74284Y-64308D01*
X74296Y-64332D01*
X74296Y-64403D01*
X74284Y-64427D01*
X74272Y-64439D01*
X74248Y-64451D01*
X74201Y-64451D01*
X74177Y-64439D01*
X74403Y-64427D02*
X74415Y-64439D01*
X74403Y-64451D01*
X74391Y-64439D01*
X74403Y-64427D01*
X74403Y-64451D01*
X74629Y-64439D02*
X74605Y-64451D01*
X74558Y-64451D01*
X74534Y-64439D01*
X74522Y-64427D01*
X74510Y-64403D01*
X74510Y-64332D01*
X74522Y-64308D01*
X74534Y-64296D01*
X74558Y-64284D01*
X74605Y-64284D01*
X74629Y-64296D01*
X74772Y-64451D02*
X74748Y-64439D01*
X74736Y-64427D01*
X74724Y-64403D01*
X74724Y-64332D01*
X74736Y-64308D01*
X74748Y-64296D01*
X74772Y-64284D01*
X74808Y-64284D01*
X74832Y-64296D01*
X74844Y-64308D01*
X74855Y-64332D01*
X74855Y-64403D01*
X74844Y-64427D01*
X74832Y-64439D01*
X74808Y-64451D01*
X74772Y-64451D01*
X74963Y-64451D02*
X74963Y-64284D01*
X74963Y-64308D02*
X74975Y-64296D01*
X74998Y-64284D01*
X75034Y-64284D01*
X75058Y-64296D01*
X75070Y-64320D01*
X75070Y-64451D01*
X75070Y-64320D02*
X75082Y-64296D01*
X75105Y-64284D01*
X75141Y-64284D01*
X75165Y-64296D01*
X75177Y-64320D01*
X75177Y-64451D01*
X75475Y-64189D02*
X75260Y-64510D01*
X75558Y-64284D02*
X75558Y-64534D01*
X75558Y-64296D02*
X75582Y-64284D01*
X75629Y-64284D01*
X75653Y-64296D01*
X75665Y-64308D01*
X75677Y-64332D01*
X75677Y-64403D01*
X75665Y-64427D01*
X75653Y-64439D01*
X75629Y-64451D01*
X75582Y-64451D01*
X75558Y-64439D01*
X75879Y-64439D02*
X75855Y-64451D01*
X75808Y-64451D01*
X75784Y-64439D01*
X75772Y-64415D01*
X75772Y-64320D01*
X75784Y-64296D01*
X75808Y-64284D01*
X75855Y-64284D01*
X75879Y-64296D01*
X75891Y-64320D01*
X75891Y-64344D01*
X75772Y-64367D01*
X75998Y-64284D02*
X75998Y-64534D01*
X75998Y-64296D02*
X76022Y-64284D01*
X76070Y-64284D01*
X76094Y-64296D01*
X76105Y-64308D01*
X76117Y-64332D01*
X76117Y-64403D01*
X76105Y-64427D01*
X76094Y-64439D01*
X76070Y-64451D01*
X76022Y-64451D01*
X75998Y-64439D01*
X76332Y-64451D02*
X76332Y-64320D01*
X76320Y-64296D01*
X76296Y-64284D01*
X76248Y-64284D01*
X76225Y-64296D01*
X76332Y-64439D02*
X76308Y-64451D01*
X76248Y-64451D01*
X76225Y-64439D01*
X76213Y-64415D01*
X76213Y-64391D01*
X76225Y-64367D01*
X76248Y-64355D01*
X76308Y-64355D01*
X76332Y-64344D01*
X76439Y-64439D02*
X76463Y-64451D01*
X76510Y-64451D01*
X76534Y-64439D01*
X76546Y-64415D01*
X76546Y-64403D01*
X76534Y-64379D01*
X76510Y-64367D01*
X76475Y-64367D01*
X76451Y-64355D01*
X76439Y-64332D01*
X76439Y-64320D01*
X76451Y-64296D01*
X76475Y-64284D01*
X76510Y-64284D01*
X76534Y-64296D01*
X76689Y-64451D02*
X76665Y-64439D01*
X76653Y-64415D01*
X76653Y-64201D01*
X76891Y-64451D02*
X76891Y-64320D01*
X76879Y-64296D01*
X76855Y-64284D01*
X76808Y-64284D01*
X76784Y-64296D01*
X76891Y-64439D02*
X76867Y-64451D01*
X76808Y-64451D01*
X76784Y-64439D01*
X76772Y-64415D01*
X76772Y-64391D01*
X76784Y-64367D01*
X76808Y-64355D01*
X76867Y-64355D01*
X76891Y-64344D01*
X77010Y-64451D02*
X77010Y-64201D01*
X77010Y-64296D02*
X77034Y-64284D01*
X77082Y-64284D01*
X77105Y-64296D01*
X77117Y-64308D01*
X77129Y-64332D01*
X77129Y-64403D01*
X77117Y-64427D01*
X77105Y-64439D01*
X77082Y-64451D01*
X77034Y-64451D01*
X77010Y-64439D01*
X77225Y-64439D02*
X77248Y-64451D01*
X77296Y-64451D01*
X77320Y-64439D01*
X77332Y-64415D01*
X77332Y-64403D01*
X77320Y-64379D01*
X77296Y-64367D01*
X77260Y-64367D01*
X77236Y-64355D01*
X77225Y-64332D01*
X77225Y-64320D01*
X77236Y-64296D01*
X77260Y-64284D01*
X77296Y-64284D01*
X77320Y-64296D01*
X77617Y-64189D02*
X77403Y-64510D01*
X77665Y-64201D02*
X77748Y-64451D01*
X77832Y-64201D01*
X77951Y-64451D02*
X77927Y-64439D01*
X77915Y-64427D01*
X77903Y-64403D01*
X77903Y-64332D01*
X77915Y-64308D01*
X77927Y-64296D01*
X77951Y-64284D01*
X77986Y-64284D01*
X78010Y-64296D01*
X78022Y-64308D01*
X78034Y-64332D01*
X78034Y-64403D01*
X78022Y-64427D01*
X78010Y-64439D01*
X77986Y-64451D01*
X77951Y-64451D01*
X78177Y-64451D02*
X78153Y-64439D01*
X78141Y-64415D01*
X78141Y-64201D01*
X78236Y-64284D02*
X78332Y-64284D01*
X78272Y-64201D02*
X78272Y-64415D01*
X78284Y-64439D01*
X78308Y-64451D01*
X78332Y-64451D01*
X78403Y-64439D02*
X78439Y-64451D01*
X78498Y-64451D01*
X78522Y-64439D01*
X78534Y-64427D01*
X78546Y-64403D01*
X78546Y-64379D01*
X78534Y-64355D01*
X78522Y-64344D01*
X78498Y-64332D01*
X78451Y-64320D01*
X78427Y-64308D01*
X78415Y-64296D01*
X78403Y-64272D01*
X78403Y-64248D01*
X78415Y-64225D01*
X78427Y-64213D01*
X78451Y-64201D01*
X78510Y-64201D01*
X78546Y-64213D01*
X78617Y-64284D02*
X78713Y-64284D01*
X78653Y-64201D02*
X78653Y-64415D01*
X78665Y-64439D01*
X78689Y-64451D01*
X78713Y-64451D01*
X78903Y-64451D02*
X78903Y-64320D01*
X78891Y-64296D01*
X78867Y-64284D01*
X78820Y-64284D01*
X78796Y-64296D01*
X78903Y-64439D02*
X78879Y-64451D01*
X78820Y-64451D01*
X78796Y-64439D01*
X78784Y-64415D01*
X78784Y-64391D01*
X78796Y-64367D01*
X78820Y-64355D01*
X78879Y-64355D01*
X78903Y-64344D01*
X79022Y-64284D02*
X79022Y-64451D01*
X79022Y-64308D02*
X79034Y-64296D01*
X79058Y-64284D01*
X79094Y-64284D01*
X79117Y-64296D01*
X79129Y-64320D01*
X79129Y-64451D01*
X79355Y-64451D02*
X79355Y-64201D01*
X79355Y-64439D02*
X79332Y-64451D01*
X79284Y-64451D01*
X79260Y-64439D01*
X79248Y-64427D01*
X79236Y-64403D01*
X79236Y-64332D01*
X79248Y-64308D01*
X79260Y-64296D01*
X79284Y-64284D01*
X79332Y-64284D01*
X79355Y-64296D01*
X79582Y-64451D02*
X79582Y-64320D01*
X79570Y-64296D01*
X79546Y-64284D01*
X79498Y-64284D01*
X79475Y-64296D01*
X79582Y-64439D02*
X79558Y-64451D01*
X79498Y-64451D01*
X79475Y-64439D01*
X79463Y-64415D01*
X79463Y-64391D01*
X79475Y-64367D01*
X79498Y-64355D01*
X79558Y-64355D01*
X79582Y-64344D01*
X79701Y-64451D02*
X79701Y-64284D01*
X79701Y-64332D02*
X79713Y-64308D01*
X79725Y-64296D01*
X79748Y-64284D01*
X79772Y-64284D01*
X79963Y-64451D02*
X79963Y-64201D01*
X79963Y-64439D02*
X79939Y-64451D01*
X79891Y-64451D01*
X79867Y-64439D01*
X79855Y-64427D01*
X79844Y-64403D01*
X79844Y-64332D01*
X79855Y-64308D01*
X79867Y-64296D01*
X79891Y-64284D01*
X79939Y-64284D01*
X79963Y-64296D01*
X80500Y-69200D02*
X80500Y-68300D01*
X80500Y-68300D02*
X79850Y-68300D01*
X79150Y-69200D02*
X78500Y-69200D01*
X78500Y-69200D02*
X78500Y-68300D01*
X78500Y-68300D02*
X79150Y-68300D01*
X79850Y-69200D02*
X80500Y-69200D01*
X74550Y-61250D02*
X75450Y-61250D01*
X75450Y-61250D02*
X75450Y-60600D01*
X74550Y-59900D02*
X74550Y-59250D01*
X74550Y-59250D02*
X75450Y-59250D01*
X75450Y-59250D02*
X75450Y-59900D01*
X74550Y-60600D02*
X74550Y-61250D01*
G54D11*
X80750Y-69250D02*
X80750Y-68250D01*
X80750Y-68250D02*
X82750Y-68250D01*
X82750Y-68250D02*
X82750Y-69250D01*
X82750Y-69250D02*
X80750Y-69250D01*
G54D10*
X84300Y-62000D02*
G75*
G03X84300Y-62000I-2550J0D01*
G74*
G01*
X83350Y-62000D02*
G75*
G03X83350Y-62000I-1600J0D01*
G74*
G01*
G54D11*
X75750Y-58500D02*
X76750Y-58500D01*
X76750Y-58500D02*
X76750Y-60500D01*
X76750Y-60500D02*
X75750Y-60500D01*
X75750Y-60500D02*
X75750Y-58500D01*
X80750Y-55750D02*
X80750Y-54750D01*
X80750Y-54750D02*
X82750Y-54750D01*
X82750Y-54750D02*
X82750Y-55750D01*
X82750Y-55750D02*
X80750Y-55750D01*
X88250Y-64000D02*
X87250Y-64000D01*
X87250Y-64000D02*
X87250Y-62000D01*
X87250Y-62000D02*
X88250Y-62000D01*
X88250Y-62000D02*
X88250Y-64000D01*
X83500Y-66750D02*
X83500Y-65750D01*
X83500Y-65750D02*
X85500Y-65750D01*
X85500Y-65750D02*
X85500Y-66750D01*
X85500Y-66750D02*
X83500Y-66750D01*
G54D14*
G36*
X87273Y-66857D02*
X87281Y-66853D01*
X87300Y-66841D01*
X87326Y-66824D01*
X87357Y-66803D01*
X87388Y-66782D01*
X87414Y-66765D01*
X87432Y-66753D01*
X87439Y-66749D01*
X87443Y-66750D01*
X87458Y-66758D01*
X87480Y-66769D01*
X87492Y-66775D01*
X87512Y-66784D01*
X87522Y-66786D01*
X87523Y-66783D01*
X87531Y-66768D01*
X87542Y-66742D01*
X87557Y-66708D01*
X87574Y-66668D01*
X87592Y-66625D01*
X87610Y-66581D01*
X87628Y-66539D01*
X87643Y-66501D01*
X87656Y-66471D01*
X87664Y-66449D01*
X87667Y-66440D01*
X87666Y-66438D01*
X87656Y-66429D01*
X87639Y-66416D01*
X87601Y-66385D01*
X87565Y-66339D01*
X87542Y-66287D01*
X87535Y-66229D01*
X87541Y-66176D01*
X87562Y-66125D01*
X87598Y-66078D01*
X87642Y-66044D01*
X87693Y-66022D01*
X87750Y-66015D01*
X87805Y-66021D01*
X87857Y-66042D01*
X87904Y-66077D01*
X87923Y-66100D01*
X87950Y-66147D01*
X87966Y-66197D01*
X87967Y-66209D01*
X87965Y-66265D01*
X87949Y-66318D01*
X87920Y-66365D01*
X87879Y-66404D01*
X87874Y-66408D01*
X87855Y-66422D01*
X87843Y-66431D01*
X87833Y-66439D01*
X87903Y-66609D01*
X87914Y-66636D01*
X87934Y-66682D01*
X87951Y-66722D01*
X87964Y-66754D01*
X87974Y-66775D01*
X87978Y-66784D01*
X87978Y-66784D01*
X87984Y-66785D01*
X87997Y-66780D01*
X88021Y-66769D01*
X88037Y-66761D01*
X88055Y-66752D01*
X88063Y-66749D01*
X88070Y-66753D01*
X88087Y-66764D01*
X88112Y-66781D01*
X88142Y-66801D01*
X88171Y-66821D01*
X88198Y-66839D01*
X88217Y-66851D01*
X88227Y-66856D01*
X88228Y-66856D01*
X88236Y-66851D01*
X88252Y-66839D01*
X88275Y-66817D01*
X88307Y-66785D01*
X88312Y-66780D01*
X88339Y-66752D01*
X88361Y-66729D01*
X88376Y-66713D01*
X88381Y-66706D01*
X88381Y-66706D01*
X88376Y-66696D01*
X88364Y-66677D01*
X88346Y-66650D01*
X88325Y-66619D01*
X88269Y-66537D01*
X88300Y-66460D01*
X88309Y-66437D01*
X88321Y-66408D01*
X88330Y-66388D01*
X88335Y-66379D01*
X88343Y-66376D01*
X88364Y-66371D01*
X88395Y-66364D01*
X88431Y-66358D01*
X88466Y-66351D01*
X88497Y-66345D01*
X88520Y-66341D01*
X88530Y-66339D01*
X88532Y-66337D01*
X88534Y-66332D01*
X88536Y-66322D01*
X88536Y-66303D01*
X88537Y-66273D01*
X88537Y-66229D01*
X88537Y-66225D01*
X88536Y-66183D01*
X88536Y-66150D01*
X88535Y-66129D01*
X88533Y-66121D01*
X88533Y-66121D01*
X88523Y-66118D01*
X88501Y-66114D01*
X88470Y-66107D01*
X88432Y-66100D01*
X88430Y-66100D01*
X88393Y-66093D01*
X88362Y-66086D01*
X88340Y-66081D01*
X88331Y-66078D01*
X88329Y-66076D01*
X88321Y-66061D01*
X88310Y-66038D01*
X88298Y-66010D01*
X88286Y-65981D01*
X88275Y-65954D01*
X88268Y-65935D01*
X88266Y-65926D01*
X88266Y-65926D01*
X88272Y-65917D01*
X88285Y-65897D01*
X88303Y-65871D01*
X88325Y-65839D01*
X88326Y-65836D01*
X88348Y-65805D01*
X88365Y-65778D01*
X88377Y-65759D01*
X88381Y-65751D01*
X88381Y-65750D01*
X88374Y-65741D01*
X88358Y-65723D01*
X88335Y-65699D01*
X88307Y-65671D01*
X88298Y-65663D01*
X88268Y-65633D01*
X88247Y-65613D01*
X88233Y-65603D01*
X88227Y-65600D01*
X88227Y-65601D01*
X88217Y-65606D01*
X88197Y-65619D01*
X88170Y-65638D01*
X88138Y-65659D01*
X88136Y-65661D01*
X88105Y-65682D01*
X88079Y-65700D01*
X88060Y-65712D01*
X88052Y-65717D01*
X88050Y-65717D01*
X88038Y-65713D01*
X88015Y-65706D01*
X87988Y-65695D01*
X87959Y-65683D01*
X87932Y-65672D01*
X87912Y-65663D01*
X87903Y-65658D01*
X87903Y-65657D01*
X87899Y-65646D01*
X87894Y-65622D01*
X87887Y-65590D01*
X87880Y-65551D01*
X87879Y-65545D01*
X87872Y-65508D01*
X87866Y-65477D01*
X87861Y-65455D01*
X87859Y-65446D01*
X87854Y-65445D01*
X87835Y-65444D01*
X87807Y-65443D01*
X87773Y-65443D01*
X87738Y-65443D01*
X87704Y-65444D01*
X87674Y-65445D01*
X87653Y-65446D01*
X87644Y-65448D01*
X87643Y-65449D01*
X87640Y-65460D01*
X87635Y-65484D01*
X87628Y-65516D01*
X87621Y-65555D01*
X87620Y-65562D01*
X87613Y-65599D01*
X87606Y-65630D01*
X87602Y-65651D01*
X87599Y-65659D01*
X87596Y-65661D01*
X87581Y-65668D01*
X87556Y-65678D01*
X87524Y-65691D01*
X87452Y-65720D01*
X87364Y-65659D01*
X87356Y-65654D01*
X87324Y-65632D01*
X87298Y-65615D01*
X87280Y-65603D01*
X87272Y-65599D01*
X87272Y-65599D01*
X87263Y-65607D01*
X87245Y-65623D01*
X87221Y-65647D01*
X87194Y-65674D01*
X87173Y-65695D01*
X87149Y-65720D01*
X87133Y-65736D01*
X87125Y-65747D01*
X87122Y-65754D01*
X87123Y-65758D01*
X87128Y-65767D01*
X87141Y-65786D01*
X87159Y-65813D01*
X87181Y-65844D01*
X87199Y-65871D01*
X87218Y-65900D01*
X87230Y-65921D01*
X87235Y-65932D01*
X87234Y-65936D01*
X87227Y-65953D01*
X87217Y-65980D01*
X87204Y-66011D01*
X87173Y-66081D01*
X87127Y-66089D01*
X87099Y-66095D01*
X87060Y-66102D01*
X87023Y-66109D01*
X86965Y-66121D01*
X86963Y-66333D01*
X86972Y-66337D01*
X86981Y-66340D01*
X87002Y-66344D01*
X87033Y-66350D01*
X87069Y-66357D01*
X87100Y-66363D01*
X87131Y-66369D01*
X87153Y-66373D01*
X87163Y-66375D01*
X87166Y-66379D01*
X87174Y-66394D01*
X87185Y-66418D01*
X87197Y-66447D01*
X87209Y-66476D01*
X87220Y-66504D01*
X87228Y-66525D01*
X87231Y-66536D01*
X87227Y-66544D01*
X87215Y-66562D01*
X87198Y-66588D01*
X87177Y-66619D01*
X87155Y-66650D01*
X87138Y-66677D01*
X87125Y-66696D01*
X87120Y-66704D01*
X87123Y-66710D01*
X87135Y-66725D01*
X87158Y-66749D01*
X87193Y-66784D01*
X87199Y-66789D01*
X87226Y-66816D01*
X87250Y-66837D01*
X87266Y-66852D01*
X87273Y-66857D01*
X87273Y-66857D01*
G37*
G54D10*
X88521Y-58750D02*
G75*
G03X88521Y-58750I-1771J0D01*
G74*
G01*
X79521Y-66500D02*
G75*
G03X79521Y-66500I-1771J0D01*
G74*
G01*
G54D13*
X86000Y-55800D02*
X86000Y-56700D01*
X86000Y-56700D02*
X86650Y-56700D01*
X87350Y-55800D02*
X88000Y-55800D01*
X88000Y-55800D02*
X88000Y-56700D01*
X88000Y-56700D02*
X87350Y-56700D01*
X86650Y-55800D02*
X86000Y-55800D01*
G54D11*
X85750Y-57250D02*
X84750Y-57250D01*
X84750Y-57250D02*
X84750Y-55250D01*
X84750Y-55250D02*
X85750Y-55250D01*
X85750Y-55250D02*
X85750Y-57250D01*
X74500Y-61500D02*
X75500Y-61500D01*
X75500Y-61500D02*
X75500Y-63500D01*
X75500Y-63500D02*
X74500Y-63500D01*
X74500Y-63500D02*
X74500Y-61500D01*
G54D13*
X79458Y-69527D02*
X79446Y-69539D01*
X79410Y-69551D01*
X79386Y-69551D01*
X79351Y-69539D01*
X79327Y-69515D01*
X79315Y-69491D01*
X79303Y-69444D01*
X79303Y-69408D01*
X79315Y-69360D01*
X79327Y-69336D01*
X79351Y-69313D01*
X79386Y-69301D01*
X79410Y-69301D01*
X79446Y-69313D01*
X79458Y-69325D01*
X79541Y-69301D02*
X79696Y-69301D01*
X79613Y-69396D01*
X79648Y-69396D01*
X79672Y-69408D01*
X79684Y-69420D01*
X79696Y-69444D01*
X79696Y-69503D01*
X79684Y-69527D01*
X79672Y-69539D01*
X79648Y-69551D01*
X79577Y-69551D01*
X79553Y-69539D01*
X79541Y-69527D01*
X79601Y-69017D02*
X79601Y-69160D01*
X79601Y-69089D02*
X79351Y-69089D01*
X79386Y-69113D01*
X79410Y-69136D01*
X79422Y-69160D01*
X79351Y-68863D02*
X79351Y-68839D01*
X79363Y-68815D01*
X79375Y-68803D01*
X79398Y-68791D01*
X79446Y-68779D01*
X79505Y-68779D01*
X79553Y-68791D01*
X79577Y-68803D01*
X79589Y-68815D01*
X79601Y-68839D01*
X79601Y-68863D01*
X79589Y-68886D01*
X79577Y-68898D01*
X79553Y-68910D01*
X79505Y-68922D01*
X79446Y-68922D01*
X79398Y-68910D01*
X79375Y-68898D01*
X79363Y-68886D01*
X79351Y-68863D01*
X79434Y-68565D02*
X79601Y-68565D01*
X79434Y-68672D02*
X79565Y-68672D01*
X79589Y-68660D01*
X79601Y-68636D01*
X79601Y-68601D01*
X79589Y-68577D01*
X79577Y-68565D01*
X79470Y-68363D02*
X79470Y-68446D01*
X79601Y-68446D02*
X79351Y-68446D01*
X79351Y-68327D01*
X74377Y-60291D02*
X74389Y-60303D01*
X74401Y-60339D01*
X74401Y-60363D01*
X74389Y-60398D01*
X74365Y-60422D01*
X74341Y-60434D01*
X74294Y-60446D01*
X74258Y-60446D01*
X74210Y-60434D01*
X74186Y-60422D01*
X74163Y-60398D01*
X74151Y-60363D01*
X74151Y-60339D01*
X74163Y-60303D01*
X74175Y-60291D01*
X74401Y-60053D02*
X74401Y-60196D01*
X74401Y-60125D02*
X74151Y-60125D01*
X74186Y-60148D01*
X74210Y-60172D01*
X74222Y-60196D01*
X74732Y-60351D02*
X74589Y-60351D01*
X74660Y-60351D02*
X74660Y-60101D01*
X74636Y-60136D01*
X74613Y-60160D01*
X74589Y-60172D01*
X74886Y-60101D02*
X74910Y-60101D01*
X74934Y-60113D01*
X74946Y-60125D01*
X74958Y-60148D01*
X74970Y-60196D01*
X74970Y-60255D01*
X74958Y-60303D01*
X74946Y-60327D01*
X74934Y-60339D01*
X74910Y-60351D01*
X74886Y-60351D01*
X74863Y-60339D01*
X74851Y-60327D01*
X74839Y-60303D01*
X74827Y-60255D01*
X74827Y-60196D01*
X74839Y-60148D01*
X74851Y-60125D01*
X74863Y-60113D01*
X74886Y-60101D01*
X75184Y-60184D02*
X75184Y-60351D01*
X75077Y-60184D02*
X75077Y-60315D01*
X75089Y-60339D01*
X75113Y-60351D01*
X75148Y-60351D01*
X75172Y-60339D01*
X75184Y-60327D01*
X75386Y-60220D02*
X75303Y-60220D01*
X75303Y-60351D02*
X75303Y-60101D01*
X75422Y-60101D01*
G54D11*
X82878Y-68871D02*
X82878Y-68571D01*
X82992Y-68571D01*
X83021Y-68585D01*
X83035Y-68600D01*
X83050Y-68628D01*
X83050Y-68671D01*
X83035Y-68700D01*
X83021Y-68714D01*
X82992Y-68728D01*
X82878Y-68728D01*
X83150Y-68571D02*
X83335Y-68571D01*
X83235Y-68685D01*
X83278Y-68685D01*
X83307Y-68700D01*
X83321Y-68714D01*
X83335Y-68742D01*
X83335Y-68814D01*
X83321Y-68842D01*
X83307Y-68857D01*
X83278Y-68871D01*
X83192Y-68871D01*
X83164Y-68857D01*
X83150Y-68842D01*
X81521Y-63821D02*
X81521Y-64064D01*
X81535Y-64092D01*
X81550Y-64107D01*
X81578Y-64121D01*
X81635Y-64121D01*
X81664Y-64107D01*
X81678Y-64092D01*
X81692Y-64064D01*
X81692Y-63821D01*
X81821Y-63850D02*
X81835Y-63835D01*
X81864Y-63821D01*
X81935Y-63821D01*
X81964Y-63835D01*
X81978Y-63850D01*
X81992Y-63878D01*
X81992Y-63907D01*
X81978Y-63950D01*
X81807Y-64121D01*
X81992Y-64121D01*
X81114Y-60121D02*
X80971Y-60121D01*
X80971Y-59821D01*
X81214Y-60121D02*
X81214Y-59821D01*
X81314Y-60035D01*
X81414Y-59821D01*
X81414Y-60121D01*
X81528Y-59821D02*
X81714Y-59821D01*
X81614Y-59935D01*
X81657Y-59935D01*
X81685Y-59950D01*
X81700Y-59964D01*
X81714Y-59992D01*
X81714Y-60064D01*
X81700Y-60092D01*
X81685Y-60107D01*
X81657Y-60121D01*
X81571Y-60121D01*
X81542Y-60107D01*
X81528Y-60092D01*
X81857Y-60121D02*
X81914Y-60121D01*
X81942Y-60107D01*
X81957Y-60092D01*
X81985Y-60050D01*
X82000Y-59992D01*
X82000Y-59878D01*
X81985Y-59850D01*
X81971Y-59835D01*
X81942Y-59821D01*
X81885Y-59821D01*
X81857Y-59835D01*
X81842Y-59850D01*
X81828Y-59878D01*
X81828Y-59950D01*
X81842Y-59978D01*
X81857Y-59992D01*
X81885Y-60007D01*
X81942Y-60007D01*
X81971Y-59992D01*
X81985Y-59978D01*
X82000Y-59950D01*
X82142Y-60121D02*
X82200Y-60121D01*
X82228Y-60107D01*
X82242Y-60092D01*
X82271Y-60050D01*
X82285Y-59992D01*
X82285Y-59878D01*
X82271Y-59850D01*
X82257Y-59835D01*
X82228Y-59821D01*
X82171Y-59821D01*
X82142Y-59835D01*
X82128Y-59850D01*
X82114Y-59878D01*
X82114Y-59950D01*
X82128Y-59978D01*
X82142Y-59992D01*
X82171Y-60007D01*
X82228Y-60007D01*
X82257Y-59992D01*
X82271Y-59978D01*
X82285Y-59950D01*
X82400Y-60035D02*
X82542Y-60035D01*
X82371Y-60121D02*
X82471Y-59821D01*
X82571Y-60121D01*
X75178Y-58871D02*
X75178Y-58571D01*
X75292Y-58571D01*
X75321Y-58585D01*
X75335Y-58600D01*
X75350Y-58628D01*
X75350Y-58671D01*
X75335Y-58700D01*
X75321Y-58714D01*
X75292Y-58728D01*
X75178Y-58728D01*
X75607Y-58671D02*
X75607Y-58871D01*
X75535Y-58557D02*
X75464Y-58771D01*
X75650Y-58771D01*
X83171Y-55471D02*
X82871Y-55471D01*
X82871Y-55357D01*
X82885Y-55328D01*
X82900Y-55314D01*
X82928Y-55300D01*
X82971Y-55300D01*
X83000Y-55314D01*
X83014Y-55328D01*
X83028Y-55357D01*
X83028Y-55471D01*
X82871Y-55028D02*
X82871Y-55171D01*
X83014Y-55185D01*
X83000Y-55171D01*
X82985Y-55142D01*
X82985Y-55071D01*
X83000Y-55042D01*
X83014Y-55028D01*
X83042Y-55014D01*
X83114Y-55014D01*
X83142Y-55028D01*
X83157Y-55042D01*
X83171Y-55071D01*
X83171Y-55142D01*
X83157Y-55171D01*
X83142Y-55185D01*
X87528Y-61871D02*
X87528Y-61571D01*
X87642Y-61571D01*
X87671Y-61585D01*
X87685Y-61600D01*
X87700Y-61628D01*
X87700Y-61671D01*
X87685Y-61700D01*
X87671Y-61714D01*
X87642Y-61728D01*
X87528Y-61728D01*
X87957Y-61571D02*
X87900Y-61571D01*
X87871Y-61585D01*
X87857Y-61600D01*
X87828Y-61642D01*
X87814Y-61700D01*
X87814Y-61814D01*
X87828Y-61842D01*
X87842Y-61857D01*
X87871Y-61871D01*
X87928Y-61871D01*
X87957Y-61857D01*
X87971Y-61842D01*
X87985Y-61814D01*
X87985Y-61742D01*
X87971Y-61714D01*
X87957Y-61700D01*
X87928Y-61685D01*
X87871Y-61685D01*
X87842Y-61700D01*
X87828Y-61714D01*
X87814Y-61742D01*
X85628Y-66371D02*
X85628Y-66071D01*
X85742Y-66071D01*
X85771Y-66085D01*
X85785Y-66100D01*
X85800Y-66128D01*
X85800Y-66171D01*
X85785Y-66200D01*
X85771Y-66214D01*
X85742Y-66228D01*
X85628Y-66228D01*
X85900Y-66071D02*
X86100Y-66071D01*
X85971Y-66371D01*
G54D13*
X86958Y-55577D02*
X86946Y-55589D01*
X86910Y-55601D01*
X86886Y-55601D01*
X86851Y-55589D01*
X86827Y-55565D01*
X86815Y-55541D01*
X86803Y-55494D01*
X86803Y-55458D01*
X86815Y-55410D01*
X86827Y-55386D01*
X86851Y-55363D01*
X86886Y-55351D01*
X86910Y-55351D01*
X86946Y-55363D01*
X86958Y-55375D01*
X87053Y-55375D02*
X87065Y-55363D01*
X87089Y-55351D01*
X87148Y-55351D01*
X87172Y-55363D01*
X87184Y-55375D01*
X87196Y-55398D01*
X87196Y-55422D01*
X87184Y-55458D01*
X87041Y-55601D01*
X87196Y-55601D01*
X87101Y-56517D02*
X87101Y-56660D01*
X87101Y-56589D02*
X86851Y-56589D01*
X86886Y-56613D01*
X86910Y-56636D01*
X86922Y-56660D01*
X86851Y-56363D02*
X86851Y-56339D01*
X86863Y-56315D01*
X86875Y-56303D01*
X86898Y-56291D01*
X86946Y-56279D01*
X87005Y-56279D01*
X87053Y-56291D01*
X87077Y-56303D01*
X87089Y-56315D01*
X87101Y-56339D01*
X87101Y-56363D01*
X87089Y-56386D01*
X87077Y-56398D01*
X87053Y-56410D01*
X87005Y-56422D01*
X86946Y-56422D01*
X86898Y-56410D01*
X86875Y-56398D01*
X86863Y-56386D01*
X86851Y-56363D01*
X86934Y-56065D02*
X87101Y-56065D01*
X86934Y-56172D02*
X87065Y-56172D01*
X87089Y-56160D01*
X87101Y-56136D01*
X87101Y-56101D01*
X87089Y-56077D01*
X87077Y-56065D01*
X86970Y-55863D02*
X86970Y-55946D01*
X87101Y-55946D02*
X86851Y-55946D01*
X86851Y-55827D01*
X85065Y-55151D02*
X85065Y-54901D01*
X85160Y-54901D01*
X85184Y-54913D01*
X85196Y-54925D01*
X85208Y-54948D01*
X85208Y-54984D01*
X85196Y-55008D01*
X85184Y-55020D01*
X85160Y-55032D01*
X85065Y-55032D01*
X85446Y-55151D02*
X85303Y-55151D01*
X85375Y-55151D02*
X85375Y-54901D01*
X85351Y-54936D01*
X85327Y-54960D01*
X85303Y-54972D01*
G54D11*
X75678Y-62121D02*
X75678Y-61821D01*
X75792Y-61821D01*
X75821Y-61835D01*
X75835Y-61850D01*
X75850Y-61878D01*
X75850Y-61921D01*
X75835Y-61950D01*
X75821Y-61964D01*
X75792Y-61978D01*
X75678Y-61978D01*
X75964Y-61850D02*
X75978Y-61835D01*
X76007Y-61821D01*
X76078Y-61821D01*
X76107Y-61835D01*
X76121Y-61850D01*
X76135Y-61878D01*
X76135Y-61907D01*
X76121Y-61950D01*
X75950Y-62121D01*
X76135Y-62121D01*
M02*
