G04 (created by PCBNEW (2013-07-07 BZR 4022)-stable) date 6/29/2014 3:42:37 PM*
%MOIN*%
G04 Gerber Fmt 3.4, Leading zero omitted, Abs format*
%FSLAX34Y34*%
G01*
G70*
G90*
G04 APERTURE LIST*
%ADD10C,0.00590551*%
%ADD11C,0.006*%
%ADD12C,0.004*%
%ADD13C,0.005*%
%ADD14C,0.0001*%
G04 APERTURE END LIST*
G54D10*
G54D11*
X84621Y-57264D02*
X84621Y-57207D01*
X84607Y-57178D01*
X84592Y-57164D01*
X84550Y-57135D01*
X84492Y-57121D01*
X84378Y-57121D01*
X84350Y-57135D01*
X84335Y-57150D01*
X84321Y-57178D01*
X84321Y-57235D01*
X84335Y-57264D01*
X84350Y-57278D01*
X84378Y-57292D01*
X84450Y-57292D01*
X84478Y-57278D01*
X84492Y-57264D01*
X84507Y-57235D01*
X84507Y-57178D01*
X84492Y-57150D01*
X84478Y-57135D01*
X84450Y-57121D01*
X84321Y-57035D02*
X84621Y-56935D01*
X84321Y-56835D01*
X84607Y-56607D02*
X84621Y-56635D01*
X84621Y-56692D01*
X84607Y-56721D01*
X84592Y-56735D01*
X84564Y-56750D01*
X84478Y-56750D01*
X84450Y-56735D01*
X84435Y-56721D01*
X84421Y-56692D01*
X84421Y-56635D01*
X84435Y-56607D01*
X84607Y-56350D02*
X84621Y-56378D01*
X84621Y-56435D01*
X84607Y-56464D01*
X84592Y-56478D01*
X84564Y-56492D01*
X84478Y-56492D01*
X84450Y-56478D01*
X84435Y-56464D01*
X84421Y-56435D01*
X84421Y-56378D01*
X84435Y-56350D01*
X84335Y-55871D02*
X84321Y-55900D01*
X84321Y-55942D01*
X84335Y-55985D01*
X84364Y-56014D01*
X84392Y-56028D01*
X84450Y-56042D01*
X84492Y-56042D01*
X84550Y-56028D01*
X84578Y-56014D01*
X84607Y-55985D01*
X84621Y-55942D01*
X84621Y-55914D01*
X84607Y-55871D01*
X84592Y-55857D01*
X84492Y-55857D01*
X84492Y-55914D01*
X84621Y-55728D02*
X84321Y-55728D01*
X84621Y-55557D01*
X84321Y-55557D01*
X84621Y-55414D02*
X84321Y-55414D01*
X84321Y-55342D01*
X84335Y-55300D01*
X84364Y-55271D01*
X84392Y-55257D01*
X84450Y-55242D01*
X84492Y-55242D01*
X84550Y-55257D01*
X84578Y-55271D01*
X84607Y-55300D01*
X84621Y-55342D01*
X84621Y-55414D01*
X84150Y-66907D02*
X84164Y-66921D01*
X84178Y-66950D01*
X84178Y-67021D01*
X84164Y-67050D01*
X84150Y-67064D01*
X84121Y-67078D01*
X84092Y-67078D01*
X84050Y-67064D01*
X83878Y-66892D01*
X83878Y-67078D01*
X83878Y-67221D02*
X83878Y-67278D01*
X83892Y-67307D01*
X83907Y-67321D01*
X83950Y-67350D01*
X84007Y-67364D01*
X84121Y-67364D01*
X84150Y-67350D01*
X84164Y-67335D01*
X84178Y-67307D01*
X84178Y-67250D01*
X84164Y-67221D01*
X84150Y-67207D01*
X84121Y-67192D01*
X84050Y-67192D01*
X84021Y-67207D01*
X84007Y-67221D01*
X83992Y-67250D01*
X83992Y-67307D01*
X84007Y-67335D01*
X84021Y-67350D01*
X84050Y-67364D01*
X83878Y-67492D02*
X84078Y-67492D01*
X84050Y-67492D02*
X84064Y-67507D01*
X84078Y-67535D01*
X84078Y-67578D01*
X84064Y-67607D01*
X84035Y-67621D01*
X83878Y-67621D01*
X84035Y-67621D02*
X84064Y-67635D01*
X84078Y-67664D01*
X84078Y-67707D01*
X84064Y-67735D01*
X84035Y-67749D01*
X83878Y-67749D01*
X84178Y-67849D02*
X83878Y-67949D01*
X84178Y-68049D01*
X83878Y-68192D02*
X83892Y-68164D01*
X83907Y-68150D01*
X83935Y-68135D01*
X84021Y-68135D01*
X84050Y-68150D01*
X84064Y-68164D01*
X84078Y-68192D01*
X84078Y-68235D01*
X84064Y-68264D01*
X84050Y-68278D01*
X84021Y-68292D01*
X83935Y-68292D01*
X83907Y-68278D01*
X83892Y-68264D01*
X83878Y-68235D01*
X83878Y-68192D01*
X85164Y-67078D02*
X85178Y-67050D01*
X85178Y-67007D01*
X85164Y-66964D01*
X85135Y-66935D01*
X85107Y-66921D01*
X85050Y-66907D01*
X85007Y-66907D01*
X84950Y-66921D01*
X84921Y-66935D01*
X84892Y-66964D01*
X84878Y-67007D01*
X84878Y-67035D01*
X84892Y-67078D01*
X84907Y-67092D01*
X85007Y-67092D01*
X85007Y-67035D01*
X84878Y-67221D02*
X85178Y-67221D01*
X84878Y-67392D01*
X85178Y-67392D01*
X84878Y-67535D02*
X85178Y-67535D01*
X85178Y-67607D01*
X85164Y-67650D01*
X85135Y-67678D01*
X85107Y-67692D01*
X85050Y-67707D01*
X85007Y-67707D01*
X84950Y-67692D01*
X84921Y-67678D01*
X84892Y-67650D01*
X84878Y-67607D01*
X84878Y-67535D01*
X88407Y-63350D02*
X88421Y-63335D01*
X88450Y-63321D01*
X88521Y-63321D01*
X88550Y-63335D01*
X88564Y-63350D01*
X88578Y-63378D01*
X88578Y-63407D01*
X88564Y-63450D01*
X88392Y-63621D01*
X88578Y-63621D01*
X88721Y-63621D02*
X88778Y-63621D01*
X88807Y-63607D01*
X88821Y-63592D01*
X88850Y-63550D01*
X88864Y-63492D01*
X88864Y-63378D01*
X88850Y-63350D01*
X88835Y-63335D01*
X88807Y-63321D01*
X88750Y-63321D01*
X88721Y-63335D01*
X88707Y-63350D01*
X88692Y-63378D01*
X88692Y-63450D01*
X88707Y-63478D01*
X88721Y-63492D01*
X88750Y-63507D01*
X88807Y-63507D01*
X88835Y-63492D01*
X88850Y-63478D01*
X88864Y-63450D01*
X89049Y-63321D02*
X89078Y-63321D01*
X89107Y-63335D01*
X89121Y-63350D01*
X89135Y-63378D01*
X89149Y-63435D01*
X89149Y-63507D01*
X89135Y-63564D01*
X89121Y-63592D01*
X89107Y-63607D01*
X89078Y-63621D01*
X89049Y-63621D01*
X89021Y-63607D01*
X89007Y-63592D01*
X88992Y-63564D01*
X88978Y-63507D01*
X88978Y-63435D01*
X88992Y-63378D01*
X89007Y-63350D01*
X89021Y-63335D01*
X89049Y-63321D01*
X89278Y-63621D02*
X89278Y-63421D01*
X89278Y-63450D02*
X89292Y-63435D01*
X89321Y-63421D01*
X89364Y-63421D01*
X89392Y-63435D01*
X89407Y-63464D01*
X89407Y-63621D01*
X89407Y-63464D02*
X89421Y-63435D01*
X89449Y-63421D01*
X89492Y-63421D01*
X89521Y-63435D01*
X89535Y-63464D01*
X89535Y-63621D01*
X89635Y-63321D02*
X89735Y-63621D01*
X89835Y-63321D01*
X89978Y-63621D02*
X89949Y-63607D01*
X89935Y-63592D01*
X89921Y-63564D01*
X89921Y-63478D01*
X89935Y-63450D01*
X89949Y-63435D01*
X89978Y-63421D01*
X90021Y-63421D01*
X90049Y-63435D01*
X90064Y-63450D01*
X90078Y-63478D01*
X90078Y-63564D01*
X90064Y-63592D01*
X90049Y-63607D01*
X90021Y-63621D01*
X89978Y-63621D01*
X81100Y-54592D02*
X81085Y-54578D01*
X81071Y-54550D01*
X81071Y-54478D01*
X81085Y-54450D01*
X81100Y-54435D01*
X81128Y-54421D01*
X81157Y-54421D01*
X81200Y-54435D01*
X81371Y-54607D01*
X81371Y-54421D01*
X81342Y-54292D02*
X81357Y-54278D01*
X81371Y-54292D01*
X81357Y-54307D01*
X81342Y-54292D01*
X81371Y-54292D01*
X81371Y-54135D02*
X81371Y-54078D01*
X81357Y-54050D01*
X81342Y-54035D01*
X81300Y-54007D01*
X81242Y-53992D01*
X81128Y-53992D01*
X81100Y-54007D01*
X81085Y-54021D01*
X81071Y-54050D01*
X81071Y-54107D01*
X81085Y-54135D01*
X81100Y-54150D01*
X81128Y-54164D01*
X81200Y-54164D01*
X81228Y-54150D01*
X81242Y-54135D01*
X81257Y-54107D01*
X81257Y-54050D01*
X81242Y-54021D01*
X81228Y-54007D01*
X81200Y-53992D01*
X81071Y-53907D02*
X81371Y-53807D01*
X81071Y-53707D01*
X81371Y-53564D02*
X81357Y-53592D01*
X81342Y-53607D01*
X81314Y-53621D01*
X81228Y-53621D01*
X81200Y-53607D01*
X81185Y-53592D01*
X81171Y-53564D01*
X81171Y-53521D01*
X81185Y-53492D01*
X81200Y-53478D01*
X81228Y-53464D01*
X81314Y-53464D01*
X81342Y-53478D01*
X81357Y-53492D01*
X81371Y-53521D01*
X81371Y-53564D01*
X76100Y-58342D02*
X76085Y-58328D01*
X76071Y-58300D01*
X76071Y-58228D01*
X76085Y-58200D01*
X76100Y-58185D01*
X76128Y-58171D01*
X76157Y-58171D01*
X76200Y-58185D01*
X76371Y-58357D01*
X76371Y-58171D01*
X76371Y-58028D02*
X76371Y-57971D01*
X76357Y-57942D01*
X76342Y-57928D01*
X76300Y-57900D01*
X76242Y-57885D01*
X76128Y-57885D01*
X76100Y-57900D01*
X76085Y-57914D01*
X76071Y-57942D01*
X76071Y-58000D01*
X76085Y-58028D01*
X76100Y-58042D01*
X76128Y-58057D01*
X76200Y-58057D01*
X76228Y-58042D01*
X76242Y-58028D01*
X76257Y-58000D01*
X76257Y-57942D01*
X76242Y-57914D01*
X76228Y-57900D01*
X76200Y-57885D01*
X76071Y-57800D02*
X76371Y-57700D01*
X76071Y-57600D01*
X76371Y-57457D02*
X76357Y-57485D01*
X76342Y-57500D01*
X76314Y-57514D01*
X76228Y-57514D01*
X76200Y-57500D01*
X76185Y-57485D01*
X76171Y-57457D01*
X76171Y-57414D01*
X76185Y-57385D01*
X76200Y-57371D01*
X76228Y-57357D01*
X76314Y-57357D01*
X76342Y-57371D01*
X76357Y-57385D01*
X76371Y-57414D01*
X76371Y-57457D01*
X73100Y-61821D02*
X73285Y-61821D01*
X73185Y-61935D01*
X73228Y-61935D01*
X73257Y-61950D01*
X73271Y-61964D01*
X73285Y-61992D01*
X73285Y-62064D01*
X73271Y-62092D01*
X73257Y-62107D01*
X73228Y-62121D01*
X73142Y-62121D01*
X73114Y-62107D01*
X73100Y-62092D01*
X73542Y-61821D02*
X73485Y-61821D01*
X73457Y-61835D01*
X73442Y-61850D01*
X73414Y-61892D01*
X73400Y-61950D01*
X73400Y-62064D01*
X73414Y-62092D01*
X73428Y-62107D01*
X73457Y-62121D01*
X73514Y-62121D01*
X73542Y-62107D01*
X73557Y-62092D01*
X73571Y-62064D01*
X73571Y-61992D01*
X73557Y-61964D01*
X73542Y-61950D01*
X73514Y-61935D01*
X73457Y-61935D01*
X73428Y-61950D01*
X73414Y-61964D01*
X73400Y-61992D01*
X73657Y-61821D02*
X73757Y-62121D01*
X73857Y-61821D01*
X74085Y-62107D02*
X74057Y-62121D01*
X74000Y-62121D01*
X73971Y-62107D01*
X73957Y-62092D01*
X73942Y-62064D01*
X73942Y-61978D01*
X73957Y-61950D01*
X73971Y-61935D01*
X74000Y-61921D01*
X74057Y-61921D01*
X74085Y-61935D01*
X74342Y-62107D02*
X74314Y-62121D01*
X74257Y-62121D01*
X74228Y-62107D01*
X74214Y-62092D01*
X74200Y-62064D01*
X74200Y-61978D01*
X74214Y-61950D01*
X74228Y-61935D01*
X74257Y-61921D01*
X74314Y-61921D01*
X74342Y-61935D01*
X73714Y-62835D02*
X73685Y-62821D01*
X73642Y-62821D01*
X73600Y-62835D01*
X73571Y-62864D01*
X73557Y-62892D01*
X73542Y-62950D01*
X73542Y-62992D01*
X73557Y-63050D01*
X73571Y-63078D01*
X73600Y-63107D01*
X73642Y-63121D01*
X73671Y-63121D01*
X73714Y-63107D01*
X73728Y-63092D01*
X73728Y-62992D01*
X73671Y-62992D01*
X73857Y-63121D02*
X73857Y-62821D01*
X74028Y-63121D01*
X74028Y-62821D01*
X74171Y-63121D02*
X74171Y-62821D01*
X74242Y-62821D01*
X74285Y-62835D01*
X74314Y-62864D01*
X74328Y-62892D01*
X74342Y-62950D01*
X74342Y-62992D01*
X74328Y-63050D01*
X74314Y-63078D01*
X74285Y-63107D01*
X74242Y-63121D01*
X74171Y-63121D01*
X76028Y-60635D02*
X76000Y-60621D01*
X75957Y-60621D01*
X75914Y-60635D01*
X75885Y-60664D01*
X75871Y-60692D01*
X75857Y-60750D01*
X75857Y-60792D01*
X75871Y-60850D01*
X75885Y-60878D01*
X75914Y-60907D01*
X75957Y-60921D01*
X75985Y-60921D01*
X76028Y-60907D01*
X76042Y-60892D01*
X76042Y-60792D01*
X75985Y-60792D01*
X76171Y-60921D02*
X76171Y-60621D01*
X76342Y-60921D01*
X76342Y-60621D01*
X76485Y-60921D02*
X76485Y-60621D01*
X76557Y-60621D01*
X76600Y-60635D01*
X76628Y-60664D01*
X76642Y-60692D01*
X76657Y-60750D01*
X76657Y-60792D01*
X76642Y-60850D01*
X76628Y-60878D01*
X76600Y-60907D01*
X76557Y-60921D01*
X76485Y-60921D01*
X82085Y-54421D02*
X82071Y-54450D01*
X82071Y-54492D01*
X82085Y-54535D01*
X82114Y-54564D01*
X82142Y-54578D01*
X82200Y-54592D01*
X82242Y-54592D01*
X82300Y-54578D01*
X82328Y-54564D01*
X82357Y-54535D01*
X82371Y-54492D01*
X82371Y-54464D01*
X82357Y-54421D01*
X82342Y-54407D01*
X82242Y-54407D01*
X82242Y-54464D01*
X82371Y-54278D02*
X82071Y-54278D01*
X82371Y-54107D01*
X82071Y-54107D01*
X82371Y-53964D02*
X82071Y-53964D01*
X82071Y-53892D01*
X82085Y-53850D01*
X82114Y-53821D01*
X82142Y-53807D01*
X82200Y-53792D01*
X82242Y-53792D01*
X82300Y-53807D01*
X82328Y-53821D01*
X82357Y-53850D01*
X82371Y-53892D01*
X82371Y-53964D01*
X88578Y-62335D02*
X88550Y-62321D01*
X88507Y-62321D01*
X88464Y-62335D01*
X88435Y-62364D01*
X88421Y-62392D01*
X88407Y-62450D01*
X88407Y-62492D01*
X88421Y-62550D01*
X88435Y-62578D01*
X88464Y-62607D01*
X88507Y-62621D01*
X88535Y-62621D01*
X88578Y-62607D01*
X88592Y-62592D01*
X88592Y-62492D01*
X88535Y-62492D01*
X88721Y-62621D02*
X88721Y-62321D01*
X88892Y-62621D01*
X88892Y-62321D01*
X89035Y-62621D02*
X89035Y-62321D01*
X89107Y-62321D01*
X89150Y-62335D01*
X89178Y-62364D01*
X89192Y-62392D01*
X89207Y-62450D01*
X89207Y-62492D01*
X89192Y-62550D01*
X89178Y-62578D01*
X89150Y-62607D01*
X89107Y-62621D01*
X89035Y-62621D01*
X82414Y-69578D02*
X82428Y-69550D01*
X82428Y-69507D01*
X82414Y-69464D01*
X82385Y-69435D01*
X82357Y-69421D01*
X82300Y-69407D01*
X82257Y-69407D01*
X82200Y-69421D01*
X82171Y-69435D01*
X82142Y-69464D01*
X82128Y-69507D01*
X82128Y-69535D01*
X82142Y-69578D01*
X82157Y-69592D01*
X82257Y-69592D01*
X82257Y-69535D01*
X82128Y-69721D02*
X82428Y-69721D01*
X82128Y-69892D01*
X82428Y-69892D01*
X82128Y-70035D02*
X82428Y-70035D01*
X82428Y-70107D01*
X82414Y-70150D01*
X82385Y-70178D01*
X82357Y-70192D01*
X82300Y-70207D01*
X82257Y-70207D01*
X82200Y-70192D01*
X82171Y-70178D01*
X82142Y-70150D01*
X82128Y-70107D01*
X82128Y-70035D01*
X81128Y-69421D02*
X81428Y-69421D01*
X81285Y-69421D02*
X81285Y-69592D01*
X81128Y-69592D02*
X81428Y-69592D01*
X81242Y-69735D02*
X81242Y-69964D01*
X81128Y-69850D02*
X81357Y-69850D01*
G54D12*
X79254Y-55707D02*
X79245Y-55697D01*
X79226Y-55669D01*
X79216Y-55650D01*
X79207Y-55621D01*
X79197Y-55573D01*
X79197Y-55535D01*
X79207Y-55488D01*
X79216Y-55459D01*
X79226Y-55440D01*
X79245Y-55411D01*
X79254Y-55402D01*
X79311Y-55497D02*
X79359Y-55630D01*
X79407Y-55497D01*
X79588Y-55630D02*
X79473Y-55630D01*
X79530Y-55630D02*
X79530Y-55430D01*
X79511Y-55459D01*
X79492Y-55478D01*
X79473Y-55488D01*
X79654Y-55707D02*
X79664Y-55697D01*
X79683Y-55669D01*
X79692Y-55650D01*
X79702Y-55621D01*
X79711Y-55573D01*
X79711Y-55535D01*
X79702Y-55488D01*
X79692Y-55459D01*
X79683Y-55440D01*
X79664Y-55411D01*
X79654Y-55402D01*
G54D13*
X75878Y-55201D02*
X75759Y-55201D01*
X75759Y-54951D01*
X75961Y-55201D02*
X75961Y-54951D01*
X76045Y-55129D01*
X76128Y-54951D01*
X76128Y-55201D01*
X76223Y-54951D02*
X76378Y-54951D01*
X76295Y-55046D01*
X76330Y-55046D01*
X76354Y-55058D01*
X76366Y-55070D01*
X76378Y-55094D01*
X76378Y-55153D01*
X76366Y-55177D01*
X76354Y-55189D01*
X76330Y-55201D01*
X76259Y-55201D01*
X76235Y-55189D01*
X76223Y-55177D01*
X76497Y-55201D02*
X76545Y-55201D01*
X76569Y-55189D01*
X76580Y-55177D01*
X76604Y-55141D01*
X76616Y-55094D01*
X76616Y-54998D01*
X76604Y-54975D01*
X76592Y-54963D01*
X76569Y-54951D01*
X76521Y-54951D01*
X76497Y-54963D01*
X76485Y-54975D01*
X76473Y-54998D01*
X76473Y-55058D01*
X76485Y-55082D01*
X76497Y-55094D01*
X76521Y-55105D01*
X76569Y-55105D01*
X76592Y-55094D01*
X76604Y-55082D01*
X76616Y-55058D01*
X76735Y-55201D02*
X76783Y-55201D01*
X76807Y-55189D01*
X76819Y-55177D01*
X76842Y-55141D01*
X76854Y-55094D01*
X76854Y-54998D01*
X76842Y-54975D01*
X76830Y-54963D01*
X76807Y-54951D01*
X76759Y-54951D01*
X76735Y-54963D01*
X76723Y-54975D01*
X76711Y-54998D01*
X76711Y-55058D01*
X76723Y-55082D01*
X76735Y-55094D01*
X76759Y-55105D01*
X76807Y-55105D01*
X76830Y-55094D01*
X76842Y-55082D01*
X76854Y-55058D01*
X76961Y-55105D02*
X77152Y-55105D01*
X77271Y-55201D02*
X77271Y-54951D01*
X77271Y-55046D02*
X77295Y-55034D01*
X77342Y-55034D01*
X77366Y-55046D01*
X77378Y-55058D01*
X77390Y-55082D01*
X77390Y-55153D01*
X77378Y-55177D01*
X77366Y-55189D01*
X77342Y-55201D01*
X77295Y-55201D01*
X77271Y-55189D01*
X77604Y-55201D02*
X77604Y-55070D01*
X77592Y-55046D01*
X77569Y-55034D01*
X77521Y-55034D01*
X77497Y-55046D01*
X77604Y-55189D02*
X77580Y-55201D01*
X77521Y-55201D01*
X77497Y-55189D01*
X77485Y-55165D01*
X77485Y-55141D01*
X77497Y-55117D01*
X77521Y-55105D01*
X77580Y-55105D01*
X77604Y-55094D01*
X77711Y-55189D02*
X77735Y-55201D01*
X77783Y-55201D01*
X77807Y-55189D01*
X77819Y-55165D01*
X77819Y-55153D01*
X77807Y-55129D01*
X77783Y-55117D01*
X77747Y-55117D01*
X77723Y-55105D01*
X77711Y-55082D01*
X77711Y-55070D01*
X77723Y-55046D01*
X77747Y-55034D01*
X77783Y-55034D01*
X77807Y-55046D01*
X78021Y-55189D02*
X77997Y-55201D01*
X77950Y-55201D01*
X77926Y-55189D01*
X77914Y-55165D01*
X77914Y-55070D01*
X77926Y-55046D01*
X77950Y-55034D01*
X77997Y-55034D01*
X78021Y-55046D01*
X78033Y-55070D01*
X78033Y-55094D01*
X77914Y-55117D01*
X78247Y-55201D02*
X78247Y-54951D01*
X78247Y-55189D02*
X78223Y-55201D01*
X78176Y-55201D01*
X78152Y-55189D01*
X78140Y-55177D01*
X78128Y-55153D01*
X78128Y-55082D01*
X78140Y-55058D01*
X78152Y-55046D01*
X78176Y-55034D01*
X78223Y-55034D01*
X78247Y-55046D01*
X78521Y-54951D02*
X78604Y-55201D01*
X78688Y-54951D01*
X78807Y-55201D02*
X78783Y-55189D01*
X78771Y-55177D01*
X78759Y-55153D01*
X78759Y-55082D01*
X78771Y-55058D01*
X78783Y-55046D01*
X78807Y-55034D01*
X78842Y-55034D01*
X78866Y-55046D01*
X78878Y-55058D01*
X78890Y-55082D01*
X78890Y-55153D01*
X78878Y-55177D01*
X78866Y-55189D01*
X78842Y-55201D01*
X78807Y-55201D01*
X79033Y-55201D02*
X79009Y-55189D01*
X78997Y-55165D01*
X78997Y-54951D01*
X79092Y-55034D02*
X79188Y-55034D01*
X79128Y-54951D02*
X79128Y-55165D01*
X79140Y-55189D01*
X79164Y-55201D01*
X79188Y-55201D01*
X79378Y-55201D02*
X79378Y-55070D01*
X79366Y-55046D01*
X79342Y-55034D01*
X79295Y-55034D01*
X79271Y-55046D01*
X79378Y-55189D02*
X79354Y-55201D01*
X79295Y-55201D01*
X79271Y-55189D01*
X79259Y-55165D01*
X79259Y-55141D01*
X79271Y-55117D01*
X79295Y-55105D01*
X79354Y-55105D01*
X79378Y-55094D01*
X79604Y-55034D02*
X79604Y-55236D01*
X79592Y-55260D01*
X79580Y-55272D01*
X79557Y-55284D01*
X79521Y-55284D01*
X79497Y-55272D01*
X79604Y-55189D02*
X79580Y-55201D01*
X79533Y-55201D01*
X79509Y-55189D01*
X79497Y-55177D01*
X79485Y-55153D01*
X79485Y-55082D01*
X79497Y-55058D01*
X79509Y-55046D01*
X79533Y-55034D01*
X79580Y-55034D01*
X79604Y-55046D01*
X79819Y-55189D02*
X79795Y-55201D01*
X79747Y-55201D01*
X79723Y-55189D01*
X79711Y-55165D01*
X79711Y-55070D01*
X79723Y-55046D01*
X79747Y-55034D01*
X79795Y-55034D01*
X79819Y-55046D01*
X79830Y-55070D01*
X79830Y-55094D01*
X79711Y-55117D01*
X75723Y-55351D02*
X75866Y-55351D01*
X75795Y-55601D02*
X75795Y-55351D01*
X75950Y-55601D02*
X75950Y-55434D01*
X75950Y-55482D02*
X75961Y-55458D01*
X75973Y-55446D01*
X75997Y-55434D01*
X76021Y-55434D01*
X76211Y-55601D02*
X76211Y-55470D01*
X76200Y-55446D01*
X76176Y-55434D01*
X76128Y-55434D01*
X76104Y-55446D01*
X76211Y-55589D02*
X76188Y-55601D01*
X76128Y-55601D01*
X76104Y-55589D01*
X76092Y-55565D01*
X76092Y-55541D01*
X76104Y-55517D01*
X76128Y-55505D01*
X76188Y-55505D01*
X76211Y-55494D01*
X76330Y-55434D02*
X76330Y-55601D01*
X76330Y-55458D02*
X76342Y-55446D01*
X76366Y-55434D01*
X76402Y-55434D01*
X76426Y-55446D01*
X76438Y-55470D01*
X76438Y-55601D01*
X76545Y-55589D02*
X76569Y-55601D01*
X76616Y-55601D01*
X76640Y-55589D01*
X76652Y-55565D01*
X76652Y-55553D01*
X76640Y-55529D01*
X76616Y-55517D01*
X76580Y-55517D01*
X76557Y-55505D01*
X76545Y-55482D01*
X76545Y-55470D01*
X76557Y-55446D01*
X76580Y-55434D01*
X76616Y-55434D01*
X76640Y-55446D01*
X76723Y-55434D02*
X76819Y-55434D01*
X76759Y-55601D02*
X76759Y-55386D01*
X76771Y-55363D01*
X76795Y-55351D01*
X76819Y-55351D01*
X76997Y-55589D02*
X76973Y-55601D01*
X76926Y-55601D01*
X76902Y-55589D01*
X76890Y-55565D01*
X76890Y-55470D01*
X76902Y-55446D01*
X76926Y-55434D01*
X76973Y-55434D01*
X76997Y-55446D01*
X77009Y-55470D01*
X77009Y-55494D01*
X76890Y-55517D01*
X77116Y-55601D02*
X77116Y-55434D01*
X77116Y-55482D02*
X77128Y-55458D01*
X77140Y-55446D01*
X77164Y-55434D01*
X77188Y-55434D01*
X77450Y-55589D02*
X77485Y-55601D01*
X77545Y-55601D01*
X77569Y-55589D01*
X77580Y-55577D01*
X77592Y-55553D01*
X77592Y-55529D01*
X77580Y-55505D01*
X77569Y-55494D01*
X77545Y-55482D01*
X77497Y-55470D01*
X77473Y-55458D01*
X77461Y-55446D01*
X77450Y-55422D01*
X77450Y-55398D01*
X77461Y-55375D01*
X77473Y-55363D01*
X77497Y-55351D01*
X77557Y-55351D01*
X77592Y-55363D01*
X77664Y-55434D02*
X77759Y-55434D01*
X77700Y-55351D02*
X77700Y-55565D01*
X77711Y-55589D01*
X77735Y-55601D01*
X77759Y-55601D01*
X77950Y-55601D02*
X77950Y-55470D01*
X77938Y-55446D01*
X77914Y-55434D01*
X77866Y-55434D01*
X77842Y-55446D01*
X77950Y-55589D02*
X77926Y-55601D01*
X77866Y-55601D01*
X77842Y-55589D01*
X77830Y-55565D01*
X77830Y-55541D01*
X77842Y-55517D01*
X77866Y-55505D01*
X77926Y-55505D01*
X77950Y-55494D01*
X78069Y-55434D02*
X78069Y-55601D01*
X78069Y-55458D02*
X78080Y-55446D01*
X78104Y-55434D01*
X78140Y-55434D01*
X78164Y-55446D01*
X78176Y-55470D01*
X78176Y-55601D01*
X78402Y-55601D02*
X78402Y-55351D01*
X78402Y-55589D02*
X78378Y-55601D01*
X78330Y-55601D01*
X78307Y-55589D01*
X78295Y-55577D01*
X78283Y-55553D01*
X78283Y-55482D01*
X78295Y-55458D01*
X78307Y-55446D01*
X78330Y-55434D01*
X78378Y-55434D01*
X78402Y-55446D01*
X78628Y-55601D02*
X78628Y-55470D01*
X78616Y-55446D01*
X78592Y-55434D01*
X78545Y-55434D01*
X78521Y-55446D01*
X78628Y-55589D02*
X78604Y-55601D01*
X78545Y-55601D01*
X78521Y-55589D01*
X78509Y-55565D01*
X78509Y-55541D01*
X78521Y-55517D01*
X78545Y-55505D01*
X78604Y-55505D01*
X78628Y-55494D01*
X78747Y-55601D02*
X78747Y-55434D01*
X78747Y-55482D02*
X78759Y-55458D01*
X78771Y-55446D01*
X78795Y-55434D01*
X78819Y-55434D01*
X79009Y-55601D02*
X79009Y-55351D01*
X79009Y-55589D02*
X78985Y-55601D01*
X78938Y-55601D01*
X78914Y-55589D01*
X78902Y-55577D01*
X78890Y-55553D01*
X78890Y-55482D01*
X78902Y-55458D01*
X78914Y-55446D01*
X78938Y-55434D01*
X78985Y-55434D01*
X79009Y-55446D01*
X86621Y-68085D02*
X86764Y-68228D01*
X86773Y-68254D01*
X86773Y-68271D01*
X86764Y-68296D01*
X86739Y-68321D01*
X86714Y-68329D01*
X86730Y-68195D02*
X86722Y-68220D01*
X86688Y-68254D01*
X86663Y-68262D01*
X86646Y-68262D01*
X86621Y-68254D01*
X86571Y-68203D01*
X86562Y-68178D01*
X86562Y-68161D01*
X86571Y-68136D01*
X86604Y-68102D01*
X86629Y-68094D01*
X86823Y-68119D02*
X86705Y-68001D01*
X86646Y-67942D02*
X86646Y-67959D01*
X86663Y-67959D01*
X86663Y-67942D01*
X86646Y-67942D01*
X86663Y-67959D01*
X86764Y-67942D02*
X86832Y-67875D01*
X86730Y-67858D02*
X86882Y-68010D01*
X86907Y-68018D01*
X86933Y-68010D01*
X86949Y-67993D01*
X87008Y-67934D02*
X86832Y-67757D01*
X87084Y-67858D02*
X86991Y-67765D01*
X86966Y-67757D01*
X86941Y-67765D01*
X86916Y-67791D01*
X86907Y-67816D01*
X86907Y-67833D01*
X87126Y-67580D02*
X87244Y-67698D01*
X87050Y-67656D02*
X87143Y-67749D01*
X87168Y-67757D01*
X87193Y-67749D01*
X87219Y-67723D01*
X87227Y-67698D01*
X87227Y-67681D01*
X87328Y-67614D02*
X87151Y-67437D01*
X87219Y-67505D02*
X87227Y-67479D01*
X87261Y-67446D01*
X87286Y-67437D01*
X87303Y-67437D01*
X87328Y-67446D01*
X87379Y-67496D01*
X87387Y-67521D01*
X87387Y-67538D01*
X87379Y-67563D01*
X87345Y-67597D01*
X87320Y-67606D01*
X87471Y-67437D02*
X87488Y-67437D01*
X87488Y-67454D01*
X87471Y-67454D01*
X87471Y-67437D01*
X87488Y-67454D01*
X87640Y-67286D02*
X87631Y-67311D01*
X87598Y-67345D01*
X87572Y-67353D01*
X87555Y-67353D01*
X87530Y-67345D01*
X87480Y-67294D01*
X87471Y-67269D01*
X87471Y-67252D01*
X87480Y-67227D01*
X87513Y-67193D01*
X87539Y-67185D01*
X87749Y-67193D02*
X87724Y-67201D01*
X87707Y-67201D01*
X87682Y-67193D01*
X87631Y-67143D01*
X87623Y-67117D01*
X87623Y-67100D01*
X87631Y-67075D01*
X87656Y-67050D01*
X87682Y-67042D01*
X87699Y-67042D01*
X87724Y-67050D01*
X87774Y-67100D01*
X87783Y-67126D01*
X87783Y-67143D01*
X87774Y-67168D01*
X87749Y-67193D01*
X87884Y-67058D02*
X87766Y-66941D01*
X87783Y-66957D02*
X87783Y-66941D01*
X87791Y-66915D01*
X87816Y-66890D01*
X87842Y-66882D01*
X87867Y-66890D01*
X87960Y-66983D01*
X87867Y-66890D02*
X87858Y-66865D01*
X87867Y-66839D01*
X87892Y-66814D01*
X87917Y-66806D01*
X87943Y-66814D01*
X88035Y-66907D01*
X88061Y-66511D02*
X88136Y-66890D01*
X88187Y-66520D02*
X88364Y-66696D01*
X88195Y-66528D02*
X88204Y-66503D01*
X88237Y-66469D01*
X88263Y-66461D01*
X88279Y-66461D01*
X88305Y-66469D01*
X88355Y-66520D01*
X88364Y-66545D01*
X88364Y-66562D01*
X88355Y-66587D01*
X88321Y-66621D01*
X88296Y-66629D01*
X88524Y-66402D02*
X88515Y-66427D01*
X88481Y-66461D01*
X88456Y-66469D01*
X88431Y-66461D01*
X88364Y-66393D01*
X88355Y-66368D01*
X88364Y-66343D01*
X88397Y-66309D01*
X88422Y-66301D01*
X88448Y-66309D01*
X88465Y-66326D01*
X88397Y-66427D01*
X88498Y-66208D02*
X88675Y-66385D01*
X88507Y-66217D02*
X88515Y-66191D01*
X88549Y-66158D01*
X88574Y-66149D01*
X88591Y-66149D01*
X88616Y-66158D01*
X88667Y-66208D01*
X88675Y-66233D01*
X88675Y-66250D01*
X88667Y-66275D01*
X88633Y-66309D01*
X88608Y-66318D01*
X88852Y-66090D02*
X88759Y-65998D01*
X88734Y-65989D01*
X88709Y-65998D01*
X88675Y-66031D01*
X88667Y-66057D01*
X88843Y-66082D02*
X88835Y-66107D01*
X88793Y-66149D01*
X88768Y-66158D01*
X88742Y-66149D01*
X88726Y-66132D01*
X88717Y-66107D01*
X88726Y-66082D01*
X88768Y-66040D01*
X88776Y-66015D01*
X88919Y-66006D02*
X88944Y-65998D01*
X88978Y-65964D01*
X88986Y-65939D01*
X88978Y-65914D01*
X88970Y-65905D01*
X88944Y-65897D01*
X88919Y-65905D01*
X88894Y-65930D01*
X88869Y-65939D01*
X88843Y-65930D01*
X88835Y-65922D01*
X88827Y-65897D01*
X88835Y-65871D01*
X88860Y-65846D01*
X88885Y-65838D01*
X89104Y-65838D02*
X89079Y-65846D01*
X89054Y-65838D01*
X88902Y-65686D01*
X89247Y-65695D02*
X89155Y-65602D01*
X89130Y-65594D01*
X89104Y-65602D01*
X89071Y-65636D01*
X89062Y-65661D01*
X89239Y-65686D02*
X89231Y-65711D01*
X89189Y-65754D01*
X89163Y-65762D01*
X89138Y-65754D01*
X89121Y-65737D01*
X89113Y-65711D01*
X89121Y-65686D01*
X89163Y-65644D01*
X89172Y-65619D01*
X89332Y-65610D02*
X89155Y-65434D01*
X89222Y-65501D02*
X89231Y-65476D01*
X89264Y-65442D01*
X89290Y-65434D01*
X89306Y-65434D01*
X89332Y-65442D01*
X89382Y-65493D01*
X89391Y-65518D01*
X89391Y-65535D01*
X89382Y-65560D01*
X89348Y-65594D01*
X89323Y-65602D01*
X89475Y-65451D02*
X89500Y-65442D01*
X89534Y-65408D01*
X89542Y-65383D01*
X89534Y-65358D01*
X89525Y-65350D01*
X89500Y-65341D01*
X89475Y-65350D01*
X89449Y-65375D01*
X89424Y-65383D01*
X89399Y-65375D01*
X89391Y-65366D01*
X89382Y-65341D01*
X89391Y-65316D01*
X89416Y-65291D01*
X89441Y-65282D01*
X80500Y-69200D02*
X80500Y-68300D01*
X80500Y-68300D02*
X79850Y-68300D01*
X79150Y-69200D02*
X78500Y-69200D01*
X78500Y-69200D02*
X78500Y-68300D01*
X78500Y-68300D02*
X79150Y-68300D01*
X79850Y-69200D02*
X80500Y-69200D01*
X74550Y-61250D02*
X75450Y-61250D01*
X75450Y-61250D02*
X75450Y-60600D01*
X74550Y-59900D02*
X74550Y-59250D01*
X74550Y-59250D02*
X75450Y-59250D01*
X75450Y-59250D02*
X75450Y-59900D01*
X74550Y-60600D02*
X74550Y-61250D01*
G54D11*
X80750Y-69250D02*
X80750Y-68250D01*
X80750Y-68250D02*
X82750Y-68250D01*
X82750Y-68250D02*
X82750Y-69250D01*
X82750Y-69250D02*
X80750Y-69250D01*
G54D10*
X84300Y-62000D02*
G75*
G03X84300Y-62000I-2550J0D01*
G74*
G01*
X83350Y-62000D02*
G75*
G03X83350Y-62000I-1600J0D01*
G74*
G01*
G54D11*
X75750Y-58500D02*
X76750Y-58500D01*
X76750Y-58500D02*
X76750Y-60500D01*
X76750Y-60500D02*
X75750Y-60500D01*
X75750Y-60500D02*
X75750Y-58500D01*
X80750Y-55750D02*
X80750Y-54750D01*
X80750Y-54750D02*
X82750Y-54750D01*
X82750Y-54750D02*
X82750Y-55750D01*
X82750Y-55750D02*
X80750Y-55750D01*
X88250Y-64000D02*
X87250Y-64000D01*
X87250Y-64000D02*
X87250Y-62000D01*
X87250Y-62000D02*
X88250Y-62000D01*
X88250Y-62000D02*
X88250Y-64000D01*
X83500Y-66750D02*
X83500Y-65750D01*
X83500Y-65750D02*
X85500Y-65750D01*
X85500Y-65750D02*
X85500Y-66750D01*
X85500Y-66750D02*
X83500Y-66750D01*
G54D14*
G36*
X85912Y-69887D02*
X85915Y-69878D01*
X85920Y-69856D01*
X85926Y-69826D01*
X85933Y-69789D01*
X85940Y-69752D01*
X85947Y-69722D01*
X85951Y-69701D01*
X85953Y-69693D01*
X85957Y-69691D01*
X85973Y-69686D01*
X85996Y-69678D01*
X86009Y-69674D01*
X86030Y-69666D01*
X86038Y-69660D01*
X86037Y-69658D01*
X86032Y-69641D01*
X86021Y-69615D01*
X86008Y-69581D01*
X85991Y-69540D01*
X85974Y-69497D01*
X85955Y-69453D01*
X85938Y-69411D01*
X85922Y-69373D01*
X85910Y-69343D01*
X85900Y-69322D01*
X85896Y-69313D01*
X85894Y-69313D01*
X85880Y-69313D01*
X85859Y-69316D01*
X85810Y-69321D01*
X85752Y-69314D01*
X85699Y-69293D01*
X85653Y-69257D01*
X85620Y-69216D01*
X85599Y-69165D01*
X85591Y-69106D01*
X85598Y-69051D01*
X85619Y-68999D01*
X85654Y-68954D01*
X85697Y-68919D01*
X85749Y-68897D01*
X85807Y-68889D01*
X85836Y-68892D01*
X85889Y-68906D01*
X85935Y-68930D01*
X85945Y-68938D01*
X85983Y-68979D01*
X86009Y-69028D01*
X86022Y-69081D01*
X86020Y-69138D01*
X86020Y-69144D01*
X86016Y-69168D01*
X86014Y-69182D01*
X86013Y-69195D01*
X86182Y-69266D01*
X86209Y-69277D01*
X86256Y-69296D01*
X86296Y-69312D01*
X86328Y-69325D01*
X86350Y-69333D01*
X86359Y-69337D01*
X86359Y-69337D01*
X86364Y-69333D01*
X86370Y-69320D01*
X86379Y-69296D01*
X86384Y-69279D01*
X86391Y-69260D01*
X86394Y-69252D01*
X86402Y-69250D01*
X86422Y-69245D01*
X86452Y-69240D01*
X86487Y-69233D01*
X86522Y-69226D01*
X86553Y-69220D01*
X86575Y-69215D01*
X86586Y-69211D01*
X86587Y-69211D01*
X86589Y-69202D01*
X86592Y-69182D01*
X86592Y-69150D01*
X86592Y-69105D01*
X86592Y-69098D01*
X86592Y-69059D01*
X86591Y-69027D01*
X86590Y-69005D01*
X86589Y-68996D01*
X86589Y-68996D01*
X86578Y-68993D01*
X86556Y-68988D01*
X86524Y-68982D01*
X86488Y-68975D01*
X86390Y-68956D01*
X86358Y-68880D01*
X86348Y-68857D01*
X86336Y-68828D01*
X86328Y-68808D01*
X86325Y-68798D01*
X86329Y-68790D01*
X86340Y-68772D01*
X86357Y-68745D01*
X86378Y-68715D01*
X86398Y-68685D01*
X86416Y-68659D01*
X86429Y-68640D01*
X86435Y-68632D01*
X86435Y-68629D01*
X86433Y-68624D01*
X86427Y-68615D01*
X86413Y-68602D01*
X86393Y-68580D01*
X86362Y-68549D01*
X86359Y-68546D01*
X86329Y-68517D01*
X86305Y-68494D01*
X86290Y-68480D01*
X86283Y-68475D01*
X86283Y-68475D01*
X86273Y-68480D01*
X86255Y-68493D01*
X86228Y-68510D01*
X86196Y-68532D01*
X86195Y-68533D01*
X86164Y-68555D01*
X86137Y-68571D01*
X86118Y-68584D01*
X86109Y-68588D01*
X86107Y-68588D01*
X86090Y-68583D01*
X86066Y-68574D01*
X86038Y-68563D01*
X86009Y-68551D01*
X85982Y-68540D01*
X85964Y-68531D01*
X85956Y-68526D01*
X85956Y-68526D01*
X85954Y-68516D01*
X85949Y-68492D01*
X85943Y-68461D01*
X85936Y-68423D01*
X85935Y-68420D01*
X85928Y-68383D01*
X85921Y-68352D01*
X85916Y-68330D01*
X85914Y-68321D01*
X85913Y-68320D01*
X85902Y-68319D01*
X85877Y-68318D01*
X85844Y-68317D01*
X85805Y-68317D01*
X85793Y-68318D01*
X85750Y-68318D01*
X85721Y-68318D01*
X85704Y-68321D01*
X85698Y-68323D01*
X85699Y-68324D01*
X85695Y-68335D01*
X85690Y-68358D01*
X85684Y-68390D01*
X85677Y-68428D01*
X85677Y-68431D01*
X85670Y-68468D01*
X85664Y-68499D01*
X85659Y-68521D01*
X85657Y-68530D01*
X85655Y-68531D01*
X85644Y-68537D01*
X85623Y-68548D01*
X85596Y-68559D01*
X85567Y-68571D01*
X85540Y-68583D01*
X85520Y-68591D01*
X85510Y-68593D01*
X85509Y-68593D01*
X85498Y-68588D01*
X85478Y-68574D01*
X85450Y-68557D01*
X85418Y-68534D01*
X85413Y-68530D01*
X85382Y-68509D01*
X85356Y-68492D01*
X85337Y-68480D01*
X85329Y-68475D01*
X85325Y-68477D01*
X85310Y-68490D01*
X85290Y-68509D01*
X85266Y-68533D01*
X85241Y-68558D01*
X85218Y-68583D01*
X85197Y-68605D01*
X85183Y-68620D01*
X85178Y-68628D01*
X85178Y-68629D01*
X85184Y-68639D01*
X85197Y-68660D01*
X85215Y-68687D01*
X85238Y-68720D01*
X85242Y-68726D01*
X85263Y-68757D01*
X85280Y-68784D01*
X85292Y-68801D01*
X85296Y-68809D01*
X85295Y-68813D01*
X85289Y-68828D01*
X85279Y-68853D01*
X85265Y-68885D01*
X85235Y-68956D01*
X85129Y-68975D01*
X85120Y-68977D01*
X85082Y-68984D01*
X85052Y-68991D01*
X85030Y-68995D01*
X85022Y-68998D01*
X85022Y-68998D01*
X85021Y-69010D01*
X85020Y-69034D01*
X85020Y-69068D01*
X85020Y-69106D01*
X85020Y-69136D01*
X85020Y-69170D01*
X85020Y-69193D01*
X85023Y-69206D01*
X85025Y-69214D01*
X85029Y-69216D01*
X85039Y-69218D01*
X85061Y-69223D01*
X85093Y-69229D01*
X85131Y-69235D01*
X85163Y-69242D01*
X85197Y-69249D01*
X85220Y-69255D01*
X85231Y-69260D01*
X85233Y-69263D01*
X85240Y-69280D01*
X85252Y-69306D01*
X85265Y-69337D01*
X85293Y-69409D01*
X85266Y-69447D01*
X85250Y-69471D01*
X85228Y-69503D01*
X85206Y-69535D01*
X85174Y-69584D01*
X85322Y-69735D01*
X85332Y-69732D01*
X85340Y-69728D01*
X85358Y-69716D01*
X85384Y-69698D01*
X85414Y-69677D01*
X85440Y-69660D01*
X85467Y-69642D01*
X85485Y-69629D01*
X85494Y-69624D01*
X85498Y-69624D01*
X85515Y-69629D01*
X85539Y-69639D01*
X85568Y-69651D01*
X85597Y-69663D01*
X85625Y-69675D01*
X85646Y-69684D01*
X85655Y-69689D01*
X85658Y-69698D01*
X85663Y-69719D01*
X85669Y-69750D01*
X85676Y-69786D01*
X85682Y-69824D01*
X85689Y-69855D01*
X85694Y-69878D01*
X85696Y-69887D01*
X85702Y-69889D01*
X85721Y-69891D01*
X85754Y-69892D01*
X85804Y-69892D01*
X85812Y-69891D01*
X85850Y-69891D01*
X85882Y-69889D01*
X85904Y-69888D01*
X85912Y-69887D01*
X85912Y-69887D01*
G37*
G54D10*
X88521Y-58750D02*
G75*
G03X88521Y-58750I-1771J0D01*
G74*
G01*
X79521Y-66500D02*
G75*
G03X79521Y-66500I-1771J0D01*
G74*
G01*
G54D13*
X86000Y-55800D02*
X86000Y-56700D01*
X86000Y-56700D02*
X86650Y-56700D01*
X87350Y-55800D02*
X88000Y-55800D01*
X88000Y-55800D02*
X88000Y-56700D01*
X88000Y-56700D02*
X87350Y-56700D01*
X86650Y-55800D02*
X86000Y-55800D01*
G54D11*
X85750Y-57250D02*
X84750Y-57250D01*
X84750Y-57250D02*
X84750Y-55250D01*
X84750Y-55250D02*
X85750Y-55250D01*
X85750Y-55250D02*
X85750Y-57250D01*
X74500Y-61500D02*
X75500Y-61500D01*
X75500Y-61500D02*
X75500Y-63500D01*
X75500Y-63500D02*
X74500Y-63500D01*
X74500Y-63500D02*
X74500Y-61500D01*
G54D13*
X79458Y-69527D02*
X79446Y-69539D01*
X79410Y-69551D01*
X79386Y-69551D01*
X79351Y-69539D01*
X79327Y-69515D01*
X79315Y-69491D01*
X79303Y-69444D01*
X79303Y-69408D01*
X79315Y-69360D01*
X79327Y-69336D01*
X79351Y-69313D01*
X79386Y-69301D01*
X79410Y-69301D01*
X79446Y-69313D01*
X79458Y-69325D01*
X79541Y-69301D02*
X79696Y-69301D01*
X79613Y-69396D01*
X79648Y-69396D01*
X79672Y-69408D01*
X79684Y-69420D01*
X79696Y-69444D01*
X79696Y-69503D01*
X79684Y-69527D01*
X79672Y-69539D01*
X79648Y-69551D01*
X79577Y-69551D01*
X79553Y-69539D01*
X79541Y-69527D01*
X79601Y-69017D02*
X79601Y-69160D01*
X79601Y-69089D02*
X79351Y-69089D01*
X79386Y-69113D01*
X79410Y-69136D01*
X79422Y-69160D01*
X79351Y-68863D02*
X79351Y-68839D01*
X79363Y-68815D01*
X79375Y-68803D01*
X79398Y-68791D01*
X79446Y-68779D01*
X79505Y-68779D01*
X79553Y-68791D01*
X79577Y-68803D01*
X79589Y-68815D01*
X79601Y-68839D01*
X79601Y-68863D01*
X79589Y-68886D01*
X79577Y-68898D01*
X79553Y-68910D01*
X79505Y-68922D01*
X79446Y-68922D01*
X79398Y-68910D01*
X79375Y-68898D01*
X79363Y-68886D01*
X79351Y-68863D01*
X79434Y-68565D02*
X79601Y-68565D01*
X79434Y-68672D02*
X79565Y-68672D01*
X79589Y-68660D01*
X79601Y-68636D01*
X79601Y-68601D01*
X79589Y-68577D01*
X79577Y-68565D01*
X79470Y-68363D02*
X79470Y-68446D01*
X79601Y-68446D02*
X79351Y-68446D01*
X79351Y-68327D01*
X74377Y-60291D02*
X74389Y-60303D01*
X74401Y-60339D01*
X74401Y-60363D01*
X74389Y-60398D01*
X74365Y-60422D01*
X74341Y-60434D01*
X74294Y-60446D01*
X74258Y-60446D01*
X74210Y-60434D01*
X74186Y-60422D01*
X74163Y-60398D01*
X74151Y-60363D01*
X74151Y-60339D01*
X74163Y-60303D01*
X74175Y-60291D01*
X74401Y-60053D02*
X74401Y-60196D01*
X74401Y-60125D02*
X74151Y-60125D01*
X74186Y-60148D01*
X74210Y-60172D01*
X74222Y-60196D01*
X74732Y-60351D02*
X74589Y-60351D01*
X74660Y-60351D02*
X74660Y-60101D01*
X74636Y-60136D01*
X74613Y-60160D01*
X74589Y-60172D01*
X74886Y-60101D02*
X74910Y-60101D01*
X74934Y-60113D01*
X74946Y-60125D01*
X74958Y-60148D01*
X74970Y-60196D01*
X74970Y-60255D01*
X74958Y-60303D01*
X74946Y-60327D01*
X74934Y-60339D01*
X74910Y-60351D01*
X74886Y-60351D01*
X74863Y-60339D01*
X74851Y-60327D01*
X74839Y-60303D01*
X74827Y-60255D01*
X74827Y-60196D01*
X74839Y-60148D01*
X74851Y-60125D01*
X74863Y-60113D01*
X74886Y-60101D01*
X75184Y-60184D02*
X75184Y-60351D01*
X75077Y-60184D02*
X75077Y-60315D01*
X75089Y-60339D01*
X75113Y-60351D01*
X75148Y-60351D01*
X75172Y-60339D01*
X75184Y-60327D01*
X75386Y-60220D02*
X75303Y-60220D01*
X75303Y-60351D02*
X75303Y-60101D01*
X75422Y-60101D01*
G54D11*
X82878Y-68871D02*
X82878Y-68571D01*
X82992Y-68571D01*
X83021Y-68585D01*
X83035Y-68600D01*
X83050Y-68628D01*
X83050Y-68671D01*
X83035Y-68700D01*
X83021Y-68714D01*
X82992Y-68728D01*
X82878Y-68728D01*
X83150Y-68571D02*
X83335Y-68571D01*
X83235Y-68685D01*
X83278Y-68685D01*
X83307Y-68700D01*
X83321Y-68714D01*
X83335Y-68742D01*
X83335Y-68814D01*
X83321Y-68842D01*
X83307Y-68857D01*
X83278Y-68871D01*
X83192Y-68871D01*
X83164Y-68857D01*
X83150Y-68842D01*
X81521Y-63821D02*
X81521Y-64064D01*
X81535Y-64092D01*
X81550Y-64107D01*
X81578Y-64121D01*
X81635Y-64121D01*
X81664Y-64107D01*
X81678Y-64092D01*
X81692Y-64064D01*
X81692Y-63821D01*
X81821Y-63850D02*
X81835Y-63835D01*
X81864Y-63821D01*
X81935Y-63821D01*
X81964Y-63835D01*
X81978Y-63850D01*
X81992Y-63878D01*
X81992Y-63907D01*
X81978Y-63950D01*
X81807Y-64121D01*
X81992Y-64121D01*
X81114Y-60121D02*
X80971Y-60121D01*
X80971Y-59821D01*
X81214Y-60121D02*
X81214Y-59821D01*
X81314Y-60035D01*
X81414Y-59821D01*
X81414Y-60121D01*
X81528Y-59821D02*
X81714Y-59821D01*
X81614Y-59935D01*
X81657Y-59935D01*
X81685Y-59950D01*
X81700Y-59964D01*
X81714Y-59992D01*
X81714Y-60064D01*
X81700Y-60092D01*
X81685Y-60107D01*
X81657Y-60121D01*
X81571Y-60121D01*
X81542Y-60107D01*
X81528Y-60092D01*
X81857Y-60121D02*
X81914Y-60121D01*
X81942Y-60107D01*
X81957Y-60092D01*
X81985Y-60050D01*
X82000Y-59992D01*
X82000Y-59878D01*
X81985Y-59850D01*
X81971Y-59835D01*
X81942Y-59821D01*
X81885Y-59821D01*
X81857Y-59835D01*
X81842Y-59850D01*
X81828Y-59878D01*
X81828Y-59950D01*
X81842Y-59978D01*
X81857Y-59992D01*
X81885Y-60007D01*
X81942Y-60007D01*
X81971Y-59992D01*
X81985Y-59978D01*
X82000Y-59950D01*
X82142Y-60121D02*
X82200Y-60121D01*
X82228Y-60107D01*
X82242Y-60092D01*
X82271Y-60050D01*
X82285Y-59992D01*
X82285Y-59878D01*
X82271Y-59850D01*
X82257Y-59835D01*
X82228Y-59821D01*
X82171Y-59821D01*
X82142Y-59835D01*
X82128Y-59850D01*
X82114Y-59878D01*
X82114Y-59950D01*
X82128Y-59978D01*
X82142Y-59992D01*
X82171Y-60007D01*
X82228Y-60007D01*
X82257Y-59992D01*
X82271Y-59978D01*
X82285Y-59950D01*
X82400Y-60035D02*
X82542Y-60035D01*
X82371Y-60121D02*
X82471Y-59821D01*
X82571Y-60121D01*
X75178Y-58871D02*
X75178Y-58571D01*
X75292Y-58571D01*
X75321Y-58585D01*
X75335Y-58600D01*
X75350Y-58628D01*
X75350Y-58671D01*
X75335Y-58700D01*
X75321Y-58714D01*
X75292Y-58728D01*
X75178Y-58728D01*
X75607Y-58671D02*
X75607Y-58871D01*
X75535Y-58557D02*
X75464Y-58771D01*
X75650Y-58771D01*
X80621Y-55471D02*
X80321Y-55471D01*
X80321Y-55357D01*
X80335Y-55328D01*
X80350Y-55314D01*
X80378Y-55300D01*
X80421Y-55300D01*
X80450Y-55314D01*
X80464Y-55328D01*
X80478Y-55357D01*
X80478Y-55471D01*
X80321Y-55028D02*
X80321Y-55171D01*
X80464Y-55185D01*
X80450Y-55171D01*
X80435Y-55142D01*
X80435Y-55071D01*
X80450Y-55042D01*
X80464Y-55028D01*
X80492Y-55014D01*
X80564Y-55014D01*
X80592Y-55028D01*
X80607Y-55042D01*
X80621Y-55071D01*
X80621Y-55142D01*
X80607Y-55171D01*
X80592Y-55185D01*
X87528Y-61871D02*
X87528Y-61571D01*
X87642Y-61571D01*
X87671Y-61585D01*
X87685Y-61600D01*
X87700Y-61628D01*
X87700Y-61671D01*
X87685Y-61700D01*
X87671Y-61714D01*
X87642Y-61728D01*
X87528Y-61728D01*
X87957Y-61571D02*
X87900Y-61571D01*
X87871Y-61585D01*
X87857Y-61600D01*
X87828Y-61642D01*
X87814Y-61700D01*
X87814Y-61814D01*
X87828Y-61842D01*
X87842Y-61857D01*
X87871Y-61871D01*
X87928Y-61871D01*
X87957Y-61857D01*
X87971Y-61842D01*
X87985Y-61814D01*
X87985Y-61742D01*
X87971Y-61714D01*
X87957Y-61700D01*
X87928Y-61685D01*
X87871Y-61685D01*
X87842Y-61700D01*
X87828Y-61714D01*
X87814Y-61742D01*
X85628Y-66371D02*
X85628Y-66071D01*
X85742Y-66071D01*
X85771Y-66085D01*
X85785Y-66100D01*
X85800Y-66128D01*
X85800Y-66171D01*
X85785Y-66200D01*
X85771Y-66214D01*
X85742Y-66228D01*
X85628Y-66228D01*
X85900Y-66071D02*
X86100Y-66071D01*
X85971Y-66371D01*
G54D13*
X86958Y-55577D02*
X86946Y-55589D01*
X86910Y-55601D01*
X86886Y-55601D01*
X86851Y-55589D01*
X86827Y-55565D01*
X86815Y-55541D01*
X86803Y-55494D01*
X86803Y-55458D01*
X86815Y-55410D01*
X86827Y-55386D01*
X86851Y-55363D01*
X86886Y-55351D01*
X86910Y-55351D01*
X86946Y-55363D01*
X86958Y-55375D01*
X87053Y-55375D02*
X87065Y-55363D01*
X87089Y-55351D01*
X87148Y-55351D01*
X87172Y-55363D01*
X87184Y-55375D01*
X87196Y-55398D01*
X87196Y-55422D01*
X87184Y-55458D01*
X87041Y-55601D01*
X87196Y-55601D01*
X87101Y-56517D02*
X87101Y-56660D01*
X87101Y-56589D02*
X86851Y-56589D01*
X86886Y-56613D01*
X86910Y-56636D01*
X86922Y-56660D01*
X86851Y-56363D02*
X86851Y-56339D01*
X86863Y-56315D01*
X86875Y-56303D01*
X86898Y-56291D01*
X86946Y-56279D01*
X87005Y-56279D01*
X87053Y-56291D01*
X87077Y-56303D01*
X87089Y-56315D01*
X87101Y-56339D01*
X87101Y-56363D01*
X87089Y-56386D01*
X87077Y-56398D01*
X87053Y-56410D01*
X87005Y-56422D01*
X86946Y-56422D01*
X86898Y-56410D01*
X86875Y-56398D01*
X86863Y-56386D01*
X86851Y-56363D01*
X86934Y-56065D02*
X87101Y-56065D01*
X86934Y-56172D02*
X87065Y-56172D01*
X87089Y-56160D01*
X87101Y-56136D01*
X87101Y-56101D01*
X87089Y-56077D01*
X87077Y-56065D01*
X86970Y-55863D02*
X86970Y-55946D01*
X87101Y-55946D02*
X86851Y-55946D01*
X86851Y-55827D01*
X85065Y-55151D02*
X85065Y-54901D01*
X85160Y-54901D01*
X85184Y-54913D01*
X85196Y-54925D01*
X85208Y-54948D01*
X85208Y-54984D01*
X85196Y-55008D01*
X85184Y-55020D01*
X85160Y-55032D01*
X85065Y-55032D01*
X85446Y-55151D02*
X85303Y-55151D01*
X85375Y-55151D02*
X85375Y-54901D01*
X85351Y-54936D01*
X85327Y-54960D01*
X85303Y-54972D01*
G54D11*
X74778Y-63921D02*
X74778Y-63621D01*
X74892Y-63621D01*
X74921Y-63635D01*
X74935Y-63650D01*
X74950Y-63678D01*
X74950Y-63721D01*
X74935Y-63750D01*
X74921Y-63764D01*
X74892Y-63778D01*
X74778Y-63778D01*
X75064Y-63650D02*
X75078Y-63635D01*
X75107Y-63621D01*
X75178Y-63621D01*
X75207Y-63635D01*
X75221Y-63650D01*
X75235Y-63678D01*
X75235Y-63707D01*
X75221Y-63750D01*
X75050Y-63921D01*
X75235Y-63921D01*
M02*
