G04 (created by PCBNEW (2013-07-07 BZR 4022)-stable) date 6/29/2014 5:04:33 PM*
%MOIN*%
G04 Gerber Fmt 3.4, Leading zero omitted, Abs format*
%FSLAX34Y34*%
G01*
G70*
G90*
G04 APERTURE LIST*
%ADD10C,0.00590551*%
%ADD11R,0.06X0.08*%
%ADD12R,0.08X0.06*%
%ADD13C,0.059*%
%ADD14R,0.06X0.06*%
%ADD15C,0.06*%
%ADD16C,0.039*%
%ADD17C,0.02*%
%ADD18C,0.01*%
G04 APERTURE END LIST*
G54D10*
G54D11*
X80150Y-68750D03*
X78850Y-68750D03*
G54D12*
X75000Y-60900D03*
X75000Y-59600D03*
G54D13*
X82750Y-65000D03*
X80750Y-65000D03*
X84000Y-63000D03*
X84000Y-65000D03*
X84000Y-59000D03*
X84000Y-61000D03*
X77500Y-57750D03*
X79500Y-57750D03*
X77500Y-60250D03*
X79500Y-60250D03*
X79500Y-56500D03*
X77500Y-56500D03*
X77500Y-59000D03*
X79500Y-59000D03*
G54D14*
X81250Y-68750D03*
G54D15*
X82250Y-68750D03*
G54D10*
G36*
X81250Y-62275D02*
X80974Y-62000D01*
X81250Y-61724D01*
X81525Y-62000D01*
X81250Y-62275D01*
X81250Y-62275D01*
G37*
G54D16*
X82250Y-62000D03*
X81750Y-61500D03*
X81750Y-62500D03*
G54D14*
X76250Y-59000D03*
G54D15*
X76250Y-60000D03*
G54D14*
X81250Y-55250D03*
G54D15*
X82250Y-55250D03*
G54D14*
X87750Y-63500D03*
G54D15*
X87750Y-62500D03*
G54D14*
X84000Y-66250D03*
G54D15*
X85000Y-66250D03*
G54D11*
X86350Y-56250D03*
X87650Y-56250D03*
G54D14*
X85250Y-56750D03*
G54D15*
X85250Y-55750D03*
G54D14*
X75000Y-62000D03*
G54D15*
X75000Y-63000D03*
G54D17*
X75000Y-62000D02*
X75000Y-60900D01*
X85250Y-56750D02*
X85850Y-56750D01*
X85850Y-56750D02*
X86350Y-56250D01*
X81750Y-61500D02*
X81750Y-62500D01*
X81250Y-68750D02*
X80209Y-68750D01*
X80209Y-68750D02*
X80127Y-68668D01*
X82250Y-67000D02*
X81250Y-68000D01*
X81250Y-68000D02*
X81250Y-68750D01*
X82250Y-64500D02*
X82250Y-67000D01*
X82750Y-64000D02*
X82250Y-64500D01*
X82750Y-63250D02*
X82750Y-64000D01*
X82250Y-62000D02*
X82750Y-62500D01*
X82750Y-62500D02*
X82750Y-63250D01*
G54D10*
G36*
X90978Y-62000D02*
X90274Y-65521D01*
X88304Y-68475D01*
X88304Y-62581D01*
X88293Y-62363D01*
X88231Y-62212D01*
X88200Y-62203D01*
X88200Y-56600D01*
X88200Y-55899D01*
X88199Y-55800D01*
X88161Y-55708D01*
X88091Y-55637D01*
X87999Y-55599D01*
X87762Y-55600D01*
X87700Y-55662D01*
X87700Y-56200D01*
X88137Y-56200D01*
X88200Y-56137D01*
X88200Y-55899D01*
X88200Y-56600D01*
X88200Y-56362D01*
X88137Y-56300D01*
X87700Y-56300D01*
X87700Y-56837D01*
X87762Y-56900D01*
X87999Y-56900D01*
X88091Y-56862D01*
X88161Y-56791D01*
X88199Y-56699D01*
X88200Y-56600D01*
X88200Y-62203D01*
X88135Y-62184D01*
X88065Y-62255D01*
X88065Y-62114D01*
X88037Y-62018D01*
X87831Y-61945D01*
X87630Y-61955D01*
X87630Y-58575D01*
X87600Y-58502D01*
X87600Y-56837D01*
X87600Y-56300D01*
X87600Y-56200D01*
X87600Y-55662D01*
X87537Y-55600D01*
X87300Y-55599D01*
X87208Y-55637D01*
X87138Y-55708D01*
X87100Y-55800D01*
X87099Y-55899D01*
X87100Y-56137D01*
X87162Y-56200D01*
X87600Y-56200D01*
X87600Y-56300D01*
X87162Y-56300D01*
X87100Y-56362D01*
X87099Y-56600D01*
X87100Y-56699D01*
X87138Y-56791D01*
X87208Y-56862D01*
X87300Y-56900D01*
X87537Y-56900D01*
X87600Y-56837D01*
X87600Y-58502D01*
X87496Y-58252D01*
X87249Y-58004D01*
X86925Y-57870D01*
X86900Y-57870D01*
X86900Y-56600D01*
X86900Y-55800D01*
X86862Y-55708D01*
X86791Y-55638D01*
X86699Y-55600D01*
X86600Y-55599D01*
X86000Y-55599D01*
X85908Y-55637D01*
X85838Y-55708D01*
X85802Y-55793D01*
X85793Y-55613D01*
X85731Y-55462D01*
X85635Y-55434D01*
X85565Y-55505D01*
X85565Y-55364D01*
X85537Y-55268D01*
X85331Y-55195D01*
X85113Y-55206D01*
X84962Y-55268D01*
X84934Y-55364D01*
X85250Y-55679D01*
X85565Y-55364D01*
X85565Y-55505D01*
X85320Y-55750D01*
X85635Y-56065D01*
X85731Y-56037D01*
X85800Y-55845D01*
X85799Y-55899D01*
X85799Y-56305D01*
X85772Y-56332D01*
X85762Y-56308D01*
X85691Y-56238D01*
X85599Y-56200D01*
X85546Y-56199D01*
X85565Y-56135D01*
X85250Y-55820D01*
X85179Y-55891D01*
X85179Y-55750D01*
X84864Y-55434D01*
X84768Y-55462D01*
X84695Y-55668D01*
X84706Y-55886D01*
X84768Y-56037D01*
X84864Y-56065D01*
X85179Y-55750D01*
X85179Y-55891D01*
X84934Y-56135D01*
X84953Y-56199D01*
X84900Y-56199D01*
X84808Y-56237D01*
X84738Y-56308D01*
X84700Y-56400D01*
X84699Y-56499D01*
X84699Y-57099D01*
X84737Y-57191D01*
X84808Y-57261D01*
X84900Y-57299D01*
X84999Y-57300D01*
X85599Y-57300D01*
X85691Y-57262D01*
X85761Y-57191D01*
X85799Y-57100D01*
X85850Y-57100D01*
X85983Y-57073D01*
X85983Y-57073D01*
X86097Y-56997D01*
X86194Y-56900D01*
X86699Y-56900D01*
X86791Y-56862D01*
X86861Y-56791D01*
X86899Y-56699D01*
X86900Y-56600D01*
X86900Y-57870D01*
X86575Y-57869D01*
X86252Y-58003D01*
X86004Y-58250D01*
X85870Y-58574D01*
X85869Y-58924D01*
X86003Y-59247D01*
X86250Y-59495D01*
X86574Y-59629D01*
X86924Y-59630D01*
X87247Y-59496D01*
X87495Y-59249D01*
X87629Y-58925D01*
X87630Y-58575D01*
X87630Y-61955D01*
X87613Y-61956D01*
X87462Y-62018D01*
X87434Y-62114D01*
X87750Y-62429D01*
X88065Y-62114D01*
X88065Y-62255D01*
X87820Y-62500D01*
X88135Y-62815D01*
X88231Y-62787D01*
X88304Y-62581D01*
X88304Y-68475D01*
X88300Y-68482D01*
X88300Y-63750D01*
X88300Y-63150D01*
X88262Y-63058D01*
X88191Y-62988D01*
X88099Y-62950D01*
X88046Y-62949D01*
X88065Y-62885D01*
X87750Y-62570D01*
X87679Y-62641D01*
X87679Y-62500D01*
X87364Y-62184D01*
X87268Y-62212D01*
X87195Y-62418D01*
X87206Y-62636D01*
X87268Y-62787D01*
X87364Y-62815D01*
X87679Y-62500D01*
X87679Y-62641D01*
X87434Y-62885D01*
X87453Y-62949D01*
X87400Y-62949D01*
X87308Y-62987D01*
X87238Y-63058D01*
X87200Y-63150D01*
X87199Y-63249D01*
X87199Y-63849D01*
X87237Y-63941D01*
X87308Y-64011D01*
X87400Y-64049D01*
X87499Y-64050D01*
X88099Y-64050D01*
X88191Y-64012D01*
X88261Y-63941D01*
X88299Y-63849D01*
X88300Y-63750D01*
X88300Y-68482D01*
X88268Y-68530D01*
X85554Y-70339D01*
X85554Y-66331D01*
X85543Y-66113D01*
X85481Y-65962D01*
X85385Y-65934D01*
X85315Y-66005D01*
X85315Y-65864D01*
X85287Y-65768D01*
X85081Y-65695D01*
X84863Y-65706D01*
X84712Y-65768D01*
X84684Y-65864D01*
X85000Y-66179D01*
X85315Y-65864D01*
X85315Y-66005D01*
X85070Y-66250D01*
X85385Y-66565D01*
X85481Y-66537D01*
X85554Y-66331D01*
X85554Y-70339D01*
X85315Y-70499D01*
X85315Y-66635D01*
X85000Y-66320D01*
X84929Y-66391D01*
X84929Y-66250D01*
X84614Y-65934D01*
X84550Y-65953D01*
X84550Y-65900D01*
X84545Y-65888D01*
X84545Y-64892D01*
X84545Y-62892D01*
X84545Y-60892D01*
X84545Y-58892D01*
X84462Y-58691D01*
X84309Y-58538D01*
X84108Y-58455D01*
X83892Y-58454D01*
X83691Y-58537D01*
X83538Y-58690D01*
X83455Y-58891D01*
X83454Y-59107D01*
X83537Y-59308D01*
X83690Y-59461D01*
X83891Y-59544D01*
X84107Y-59545D01*
X84308Y-59462D01*
X84461Y-59309D01*
X84544Y-59108D01*
X84545Y-58892D01*
X84545Y-60892D01*
X84462Y-60691D01*
X84309Y-60538D01*
X84108Y-60455D01*
X83892Y-60454D01*
X83691Y-60537D01*
X83538Y-60690D01*
X83455Y-60891D01*
X83454Y-61107D01*
X83537Y-61308D01*
X83690Y-61461D01*
X83891Y-61544D01*
X84107Y-61545D01*
X84308Y-61462D01*
X84461Y-61309D01*
X84544Y-61108D01*
X84545Y-60892D01*
X84545Y-62892D01*
X84462Y-62691D01*
X84309Y-62538D01*
X84108Y-62455D01*
X83892Y-62454D01*
X83691Y-62537D01*
X83538Y-62690D01*
X83455Y-62891D01*
X83454Y-63107D01*
X83537Y-63308D01*
X83690Y-63461D01*
X83891Y-63544D01*
X84107Y-63545D01*
X84308Y-63462D01*
X84461Y-63309D01*
X84544Y-63108D01*
X84545Y-62892D01*
X84545Y-64892D01*
X84462Y-64691D01*
X84309Y-64538D01*
X84108Y-64455D01*
X83892Y-64454D01*
X83691Y-64537D01*
X83538Y-64690D01*
X83455Y-64891D01*
X83454Y-65107D01*
X83537Y-65308D01*
X83690Y-65461D01*
X83891Y-65544D01*
X84107Y-65545D01*
X84308Y-65462D01*
X84461Y-65309D01*
X84544Y-65108D01*
X84545Y-64892D01*
X84545Y-65888D01*
X84512Y-65808D01*
X84441Y-65738D01*
X84349Y-65700D01*
X84250Y-65699D01*
X83650Y-65699D01*
X83558Y-65737D01*
X83488Y-65808D01*
X83450Y-65900D01*
X83449Y-65999D01*
X83449Y-66599D01*
X83487Y-66691D01*
X83558Y-66761D01*
X83650Y-66799D01*
X83749Y-66800D01*
X84349Y-66800D01*
X84441Y-66762D01*
X84511Y-66691D01*
X84549Y-66599D01*
X84550Y-66546D01*
X84614Y-66565D01*
X84929Y-66250D01*
X84929Y-66391D01*
X84684Y-66635D01*
X84712Y-66731D01*
X84918Y-66804D01*
X85136Y-66793D01*
X85287Y-66731D01*
X85315Y-66635D01*
X85315Y-70499D01*
X85287Y-70518D01*
X83295Y-70916D01*
X83295Y-64892D01*
X83212Y-64691D01*
X83059Y-64538D01*
X82858Y-64455D01*
X82789Y-64455D01*
X82997Y-64247D01*
X83073Y-64133D01*
X83073Y-64133D01*
X83100Y-64000D01*
X83100Y-63250D01*
X83100Y-62500D01*
X83073Y-62366D01*
X83073Y-62366D01*
X82997Y-62252D01*
X82804Y-62059D01*
X82804Y-55331D01*
X82793Y-55113D01*
X82731Y-54962D01*
X82635Y-54934D01*
X82565Y-55005D01*
X82565Y-54864D01*
X82537Y-54768D01*
X82331Y-54695D01*
X82113Y-54706D01*
X81962Y-54768D01*
X81934Y-54864D01*
X82250Y-55179D01*
X82565Y-54864D01*
X82565Y-55005D01*
X82320Y-55250D01*
X82635Y-55565D01*
X82731Y-55537D01*
X82804Y-55331D01*
X82804Y-62059D01*
X82695Y-61950D01*
X82695Y-61911D01*
X82627Y-61748D01*
X82565Y-61685D01*
X82565Y-55635D01*
X82250Y-55320D01*
X82179Y-55391D01*
X82179Y-55250D01*
X81864Y-54934D01*
X81800Y-54953D01*
X81800Y-54900D01*
X81762Y-54808D01*
X81691Y-54738D01*
X81599Y-54700D01*
X81500Y-54699D01*
X80900Y-54699D01*
X80808Y-54737D01*
X80738Y-54808D01*
X80700Y-54900D01*
X80699Y-54999D01*
X80699Y-55599D01*
X80737Y-55691D01*
X80808Y-55761D01*
X80900Y-55799D01*
X80999Y-55800D01*
X81599Y-55800D01*
X81691Y-55762D01*
X81761Y-55691D01*
X81799Y-55599D01*
X81800Y-55546D01*
X81864Y-55565D01*
X82179Y-55250D01*
X82179Y-55391D01*
X81934Y-55635D01*
X81962Y-55731D01*
X82168Y-55804D01*
X82386Y-55793D01*
X82537Y-55731D01*
X82565Y-55635D01*
X82565Y-61685D01*
X82502Y-61622D01*
X82338Y-61555D01*
X82200Y-61554D01*
X82187Y-61380D01*
X82144Y-61275D01*
X82059Y-61260D01*
X81989Y-61331D01*
X81989Y-61190D01*
X81974Y-61105D01*
X81806Y-61049D01*
X81630Y-61062D01*
X81525Y-61105D01*
X81510Y-61190D01*
X81750Y-61429D01*
X81989Y-61190D01*
X81989Y-61331D01*
X81820Y-61500D01*
X81826Y-61505D01*
X81755Y-61576D01*
X81750Y-61570D01*
X81744Y-61576D01*
X81673Y-61505D01*
X81679Y-61500D01*
X81440Y-61260D01*
X81355Y-61275D01*
X81299Y-61443D01*
X81302Y-61475D01*
X81299Y-61474D01*
X81200Y-61474D01*
X81108Y-61512D01*
X81038Y-61582D01*
X80762Y-61858D01*
X80724Y-61950D01*
X80724Y-62049D01*
X80762Y-62141D01*
X80832Y-62211D01*
X81108Y-62487D01*
X81200Y-62525D01*
X81299Y-62525D01*
X81305Y-62523D01*
X81312Y-62619D01*
X81355Y-62724D01*
X81440Y-62739D01*
X81679Y-62500D01*
X81673Y-62494D01*
X81744Y-62423D01*
X81750Y-62429D01*
X81755Y-62423D01*
X81826Y-62494D01*
X81820Y-62500D01*
X82059Y-62739D01*
X82144Y-62724D01*
X82200Y-62556D01*
X82192Y-62444D01*
X82199Y-62444D01*
X82400Y-62644D01*
X82400Y-63250D01*
X82400Y-63855D01*
X82002Y-64252D01*
X81989Y-64272D01*
X81989Y-62809D01*
X81750Y-62570D01*
X81510Y-62809D01*
X81525Y-62894D01*
X81693Y-62950D01*
X81869Y-62937D01*
X81974Y-62894D01*
X81989Y-62809D01*
X81989Y-64272D01*
X81926Y-64366D01*
X81900Y-64500D01*
X81900Y-66855D01*
X81299Y-67455D01*
X81299Y-65080D01*
X81288Y-64864D01*
X81227Y-64715D01*
X81132Y-64688D01*
X81061Y-64759D01*
X81061Y-64617D01*
X81034Y-64522D01*
X80830Y-64450D01*
X80614Y-64461D01*
X80465Y-64522D01*
X80438Y-64617D01*
X80750Y-64929D01*
X81061Y-64617D01*
X81061Y-64759D01*
X80820Y-65000D01*
X81132Y-65311D01*
X81227Y-65284D01*
X81299Y-65080D01*
X81299Y-67455D01*
X81061Y-67693D01*
X81061Y-65382D01*
X80750Y-65070D01*
X80679Y-65141D01*
X80679Y-65000D01*
X80367Y-64688D01*
X80272Y-64715D01*
X80200Y-64919D01*
X80211Y-65135D01*
X80272Y-65284D01*
X80367Y-65311D01*
X80679Y-65000D01*
X80679Y-65141D01*
X80438Y-65382D01*
X80465Y-65477D01*
X80669Y-65549D01*
X80885Y-65538D01*
X81034Y-65477D01*
X81061Y-65382D01*
X81061Y-67693D01*
X81002Y-67752D01*
X80926Y-67866D01*
X80900Y-68000D01*
X80900Y-68200D01*
X80808Y-68237D01*
X80738Y-68308D01*
X80700Y-68400D01*
X80700Y-68400D01*
X80700Y-68300D01*
X80662Y-68208D01*
X80591Y-68138D01*
X80499Y-68100D01*
X80400Y-68099D01*
X80045Y-68099D01*
X80045Y-60142D01*
X80045Y-58892D01*
X80045Y-57642D01*
X80045Y-56392D01*
X79962Y-56191D01*
X79809Y-56038D01*
X79608Y-55955D01*
X79392Y-55954D01*
X79191Y-56037D01*
X79038Y-56190D01*
X78955Y-56391D01*
X78954Y-56607D01*
X79037Y-56808D01*
X79190Y-56961D01*
X79391Y-57044D01*
X79607Y-57045D01*
X79808Y-56962D01*
X79961Y-56809D01*
X80044Y-56608D01*
X80045Y-56392D01*
X80045Y-57642D01*
X79962Y-57441D01*
X79809Y-57288D01*
X79608Y-57205D01*
X79392Y-57204D01*
X79191Y-57287D01*
X79038Y-57440D01*
X78955Y-57641D01*
X78954Y-57857D01*
X79037Y-58058D01*
X79190Y-58211D01*
X79391Y-58294D01*
X79607Y-58295D01*
X79808Y-58212D01*
X79961Y-58059D01*
X80044Y-57858D01*
X80045Y-57642D01*
X80045Y-58892D01*
X79962Y-58691D01*
X79809Y-58538D01*
X79608Y-58455D01*
X79392Y-58454D01*
X79191Y-58537D01*
X79038Y-58690D01*
X78955Y-58891D01*
X78954Y-59107D01*
X79037Y-59308D01*
X79190Y-59461D01*
X79391Y-59544D01*
X79607Y-59545D01*
X79808Y-59462D01*
X79961Y-59309D01*
X80044Y-59108D01*
X80045Y-58892D01*
X80045Y-60142D01*
X79962Y-59941D01*
X79809Y-59788D01*
X79608Y-59705D01*
X79392Y-59704D01*
X79191Y-59787D01*
X79038Y-59940D01*
X78955Y-60141D01*
X78954Y-60357D01*
X79037Y-60558D01*
X79190Y-60711D01*
X79391Y-60794D01*
X79607Y-60795D01*
X79808Y-60712D01*
X79961Y-60559D01*
X80044Y-60358D01*
X80045Y-60142D01*
X80045Y-68099D01*
X79800Y-68099D01*
X79708Y-68137D01*
X79638Y-68208D01*
X79600Y-68300D01*
X79599Y-68399D01*
X79599Y-69199D01*
X79637Y-69291D01*
X79708Y-69361D01*
X79800Y-69399D01*
X79899Y-69400D01*
X80499Y-69400D01*
X80591Y-69362D01*
X80661Y-69291D01*
X80699Y-69199D01*
X80700Y-69100D01*
X80700Y-69100D01*
X80700Y-69100D01*
X80737Y-69191D01*
X80808Y-69261D01*
X80900Y-69299D01*
X80999Y-69300D01*
X81599Y-69300D01*
X81691Y-69262D01*
X81761Y-69191D01*
X81799Y-69099D01*
X81800Y-69046D01*
X81864Y-69065D01*
X82179Y-68750D01*
X81864Y-68434D01*
X81800Y-68453D01*
X81800Y-68400D01*
X81762Y-68308D01*
X81691Y-68238D01*
X81600Y-68200D01*
X81600Y-68144D01*
X82497Y-67247D01*
X82573Y-67133D01*
X82600Y-67000D01*
X82600Y-65527D01*
X82641Y-65544D01*
X82857Y-65545D01*
X83058Y-65462D01*
X83211Y-65309D01*
X83294Y-65108D01*
X83295Y-64892D01*
X83295Y-70916D01*
X82804Y-71014D01*
X82804Y-68831D01*
X82793Y-68613D01*
X82731Y-68462D01*
X82635Y-68434D01*
X82565Y-68505D01*
X82565Y-68364D01*
X82537Y-68268D01*
X82331Y-68195D01*
X82113Y-68206D01*
X81962Y-68268D01*
X81934Y-68364D01*
X82250Y-68679D01*
X82565Y-68364D01*
X82565Y-68505D01*
X82320Y-68750D01*
X82635Y-69065D01*
X82731Y-69037D01*
X82804Y-68831D01*
X82804Y-71014D01*
X82565Y-71062D01*
X82565Y-69135D01*
X82250Y-68820D01*
X81934Y-69135D01*
X81962Y-69231D01*
X82168Y-69304D01*
X82386Y-69293D01*
X82537Y-69231D01*
X82565Y-69135D01*
X82565Y-71062D01*
X81741Y-71226D01*
X79400Y-70758D01*
X79400Y-69100D01*
X79400Y-68399D01*
X79399Y-68300D01*
X79361Y-68208D01*
X79291Y-68137D01*
X79199Y-68099D01*
X78962Y-68100D01*
X78900Y-68162D01*
X78900Y-68700D01*
X79337Y-68700D01*
X79400Y-68637D01*
X79400Y-68399D01*
X79400Y-69100D01*
X79400Y-68862D01*
X79337Y-68800D01*
X78900Y-68800D01*
X78900Y-69337D01*
X78962Y-69400D01*
X79199Y-69400D01*
X79291Y-69362D01*
X79361Y-69291D01*
X79399Y-69199D01*
X79400Y-69100D01*
X79400Y-70758D01*
X78800Y-70638D01*
X78800Y-69337D01*
X78800Y-68800D01*
X78800Y-68700D01*
X78800Y-68162D01*
X78737Y-68100D01*
X78630Y-68099D01*
X78630Y-66325D01*
X78496Y-66002D01*
X78249Y-65754D01*
X78049Y-65671D01*
X78049Y-56580D01*
X78038Y-56364D01*
X77977Y-56215D01*
X77882Y-56188D01*
X77811Y-56259D01*
X77811Y-56117D01*
X77784Y-56022D01*
X77580Y-55950D01*
X77364Y-55961D01*
X77215Y-56022D01*
X77188Y-56117D01*
X77500Y-56429D01*
X77811Y-56117D01*
X77811Y-56259D01*
X77570Y-56500D01*
X77882Y-56811D01*
X77977Y-56784D01*
X78049Y-56580D01*
X78049Y-65671D01*
X78045Y-65669D01*
X78045Y-60142D01*
X78045Y-58892D01*
X78045Y-57642D01*
X77962Y-57441D01*
X77811Y-57290D01*
X77811Y-56882D01*
X77500Y-56570D01*
X77429Y-56641D01*
X77429Y-56500D01*
X77117Y-56188D01*
X77022Y-56215D01*
X76950Y-56419D01*
X76961Y-56635D01*
X77022Y-56784D01*
X77117Y-56811D01*
X77429Y-56500D01*
X77429Y-56641D01*
X77188Y-56882D01*
X77215Y-56977D01*
X77419Y-57049D01*
X77635Y-57038D01*
X77784Y-56977D01*
X77811Y-56882D01*
X77811Y-57290D01*
X77809Y-57288D01*
X77608Y-57205D01*
X77392Y-57204D01*
X77191Y-57287D01*
X77038Y-57440D01*
X76955Y-57641D01*
X76954Y-57857D01*
X77037Y-58058D01*
X77190Y-58211D01*
X77391Y-58294D01*
X77607Y-58295D01*
X77808Y-58212D01*
X77961Y-58059D01*
X78044Y-57858D01*
X78045Y-57642D01*
X78045Y-58892D01*
X77962Y-58691D01*
X77809Y-58538D01*
X77608Y-58455D01*
X77392Y-58454D01*
X77191Y-58537D01*
X77038Y-58690D01*
X76955Y-58891D01*
X76954Y-59107D01*
X77037Y-59308D01*
X77190Y-59461D01*
X77391Y-59544D01*
X77607Y-59545D01*
X77808Y-59462D01*
X77961Y-59309D01*
X78044Y-59108D01*
X78045Y-58892D01*
X78045Y-60142D01*
X77962Y-59941D01*
X77809Y-59788D01*
X77608Y-59705D01*
X77392Y-59704D01*
X77191Y-59787D01*
X77038Y-59940D01*
X76955Y-60141D01*
X76954Y-60357D01*
X77037Y-60558D01*
X77190Y-60711D01*
X77391Y-60794D01*
X77607Y-60795D01*
X77808Y-60712D01*
X77961Y-60559D01*
X78044Y-60358D01*
X78045Y-60142D01*
X78045Y-65669D01*
X77925Y-65620D01*
X77575Y-65619D01*
X77252Y-65753D01*
X77004Y-66000D01*
X76870Y-66324D01*
X76869Y-66674D01*
X77003Y-66997D01*
X77250Y-67245D01*
X77574Y-67379D01*
X77924Y-67380D01*
X78247Y-67246D01*
X78495Y-66999D01*
X78629Y-66675D01*
X78630Y-66325D01*
X78630Y-68099D01*
X78500Y-68099D01*
X78408Y-68137D01*
X78338Y-68208D01*
X78300Y-68300D01*
X78299Y-68399D01*
X78300Y-68637D01*
X78362Y-68700D01*
X78800Y-68700D01*
X78800Y-68800D01*
X78362Y-68800D01*
X78300Y-68862D01*
X78299Y-69100D01*
X78300Y-69199D01*
X78338Y-69291D01*
X78408Y-69362D01*
X78500Y-69400D01*
X78737Y-69400D01*
X78800Y-69337D01*
X78800Y-70638D01*
X78228Y-70524D01*
X76804Y-69575D01*
X76804Y-60081D01*
X76800Y-59987D01*
X76800Y-59250D01*
X76800Y-58650D01*
X76762Y-58558D01*
X76691Y-58488D01*
X76599Y-58450D01*
X76500Y-58449D01*
X75900Y-58449D01*
X75808Y-58487D01*
X75738Y-58558D01*
X75700Y-58650D01*
X75699Y-58749D01*
X75699Y-59349D01*
X75737Y-59441D01*
X75808Y-59511D01*
X75900Y-59549D01*
X75953Y-59550D01*
X75934Y-59614D01*
X76250Y-59929D01*
X76565Y-59614D01*
X76546Y-59550D01*
X76599Y-59550D01*
X76691Y-59512D01*
X76761Y-59441D01*
X76799Y-59349D01*
X76800Y-59250D01*
X76800Y-59987D01*
X76793Y-59863D01*
X76731Y-59712D01*
X76635Y-59684D01*
X76320Y-60000D01*
X76635Y-60315D01*
X76731Y-60287D01*
X76804Y-60081D01*
X76804Y-69575D01*
X76565Y-69415D01*
X76565Y-60385D01*
X76250Y-60070D01*
X76179Y-60141D01*
X76179Y-60000D01*
X75864Y-59684D01*
X75768Y-59712D01*
X75695Y-59918D01*
X75706Y-60136D01*
X75768Y-60287D01*
X75864Y-60315D01*
X76179Y-60000D01*
X76179Y-60141D01*
X75934Y-60385D01*
X75962Y-60481D01*
X76168Y-60554D01*
X76386Y-60543D01*
X76537Y-60481D01*
X76565Y-60385D01*
X76565Y-69415D01*
X75650Y-68805D01*
X75650Y-61150D01*
X75650Y-60550D01*
X75650Y-59949D01*
X75650Y-59250D01*
X75612Y-59158D01*
X75541Y-59088D01*
X75449Y-59050D01*
X75350Y-59049D01*
X75112Y-59050D01*
X75050Y-59112D01*
X75050Y-59550D01*
X75587Y-59550D01*
X75650Y-59487D01*
X75650Y-59250D01*
X75650Y-59949D01*
X75650Y-59712D01*
X75587Y-59650D01*
X75050Y-59650D01*
X75050Y-60087D01*
X75112Y-60150D01*
X75350Y-60150D01*
X75449Y-60149D01*
X75541Y-60111D01*
X75612Y-60041D01*
X75650Y-59949D01*
X75650Y-60550D01*
X75612Y-60458D01*
X75541Y-60388D01*
X75449Y-60350D01*
X75350Y-60349D01*
X74950Y-60349D01*
X74950Y-60087D01*
X74950Y-59650D01*
X74950Y-59550D01*
X74950Y-59112D01*
X74887Y-59050D01*
X74649Y-59049D01*
X74550Y-59050D01*
X74458Y-59088D01*
X74387Y-59158D01*
X74349Y-59250D01*
X74350Y-59487D01*
X74412Y-59550D01*
X74950Y-59550D01*
X74950Y-59650D01*
X74412Y-59650D01*
X74350Y-59712D01*
X74349Y-59949D01*
X74387Y-60041D01*
X74458Y-60111D01*
X74550Y-60149D01*
X74649Y-60150D01*
X74887Y-60150D01*
X74950Y-60087D01*
X74950Y-60349D01*
X74550Y-60349D01*
X74458Y-60387D01*
X74388Y-60458D01*
X74350Y-60550D01*
X74349Y-60649D01*
X74349Y-61249D01*
X74387Y-61341D01*
X74458Y-61411D01*
X74550Y-61449D01*
X74649Y-61450D01*
X74650Y-61450D01*
X74650Y-61450D01*
X74558Y-61487D01*
X74488Y-61558D01*
X74450Y-61650D01*
X74449Y-61749D01*
X74449Y-62349D01*
X74487Y-62441D01*
X74558Y-62511D01*
X74650Y-62549D01*
X74703Y-62550D01*
X74684Y-62614D01*
X75000Y-62929D01*
X75315Y-62614D01*
X75296Y-62550D01*
X75349Y-62550D01*
X75441Y-62512D01*
X75511Y-62441D01*
X75549Y-62349D01*
X75550Y-62250D01*
X75550Y-61650D01*
X75512Y-61558D01*
X75441Y-61488D01*
X75350Y-61450D01*
X75350Y-61450D01*
X75449Y-61450D01*
X75541Y-61412D01*
X75611Y-61341D01*
X75649Y-61249D01*
X75650Y-61150D01*
X75650Y-68805D01*
X75554Y-68741D01*
X75554Y-63081D01*
X75543Y-62863D01*
X75481Y-62712D01*
X75385Y-62684D01*
X75070Y-63000D01*
X75385Y-63315D01*
X75481Y-63287D01*
X75554Y-63081D01*
X75554Y-68741D01*
X75315Y-68581D01*
X75315Y-63385D01*
X75000Y-63070D01*
X74929Y-63141D01*
X74929Y-63000D01*
X74614Y-62684D01*
X74518Y-62712D01*
X74445Y-62918D01*
X74456Y-63136D01*
X74518Y-63287D01*
X74614Y-63315D01*
X74929Y-63000D01*
X74929Y-63141D01*
X74684Y-63385D01*
X74712Y-63481D01*
X74918Y-63554D01*
X75136Y-63543D01*
X75287Y-63481D01*
X75315Y-63385D01*
X75315Y-68581D01*
X75219Y-68518D01*
X73231Y-65537D01*
X72525Y-61999D01*
X73231Y-58462D01*
X75219Y-55481D01*
X78228Y-53475D01*
X81741Y-52773D01*
X85287Y-53481D01*
X88268Y-55469D01*
X90274Y-58478D01*
X90978Y-62000D01*
X90978Y-62000D01*
G37*
G54D18*
X90978Y-62000D02*
X90274Y-65521D01*
X88304Y-68475D01*
X88304Y-62581D01*
X88293Y-62363D01*
X88231Y-62212D01*
X88200Y-62203D01*
X88200Y-56600D01*
X88200Y-55899D01*
X88199Y-55800D01*
X88161Y-55708D01*
X88091Y-55637D01*
X87999Y-55599D01*
X87762Y-55600D01*
X87700Y-55662D01*
X87700Y-56200D01*
X88137Y-56200D01*
X88200Y-56137D01*
X88200Y-55899D01*
X88200Y-56600D01*
X88200Y-56362D01*
X88137Y-56300D01*
X87700Y-56300D01*
X87700Y-56837D01*
X87762Y-56900D01*
X87999Y-56900D01*
X88091Y-56862D01*
X88161Y-56791D01*
X88199Y-56699D01*
X88200Y-56600D01*
X88200Y-62203D01*
X88135Y-62184D01*
X88065Y-62255D01*
X88065Y-62114D01*
X88037Y-62018D01*
X87831Y-61945D01*
X87630Y-61955D01*
X87630Y-58575D01*
X87600Y-58502D01*
X87600Y-56837D01*
X87600Y-56300D01*
X87600Y-56200D01*
X87600Y-55662D01*
X87537Y-55600D01*
X87300Y-55599D01*
X87208Y-55637D01*
X87138Y-55708D01*
X87100Y-55800D01*
X87099Y-55899D01*
X87100Y-56137D01*
X87162Y-56200D01*
X87600Y-56200D01*
X87600Y-56300D01*
X87162Y-56300D01*
X87100Y-56362D01*
X87099Y-56600D01*
X87100Y-56699D01*
X87138Y-56791D01*
X87208Y-56862D01*
X87300Y-56900D01*
X87537Y-56900D01*
X87600Y-56837D01*
X87600Y-58502D01*
X87496Y-58252D01*
X87249Y-58004D01*
X86925Y-57870D01*
X86900Y-57870D01*
X86900Y-56600D01*
X86900Y-55800D01*
X86862Y-55708D01*
X86791Y-55638D01*
X86699Y-55600D01*
X86600Y-55599D01*
X86000Y-55599D01*
X85908Y-55637D01*
X85838Y-55708D01*
X85802Y-55793D01*
X85793Y-55613D01*
X85731Y-55462D01*
X85635Y-55434D01*
X85565Y-55505D01*
X85565Y-55364D01*
X85537Y-55268D01*
X85331Y-55195D01*
X85113Y-55206D01*
X84962Y-55268D01*
X84934Y-55364D01*
X85250Y-55679D01*
X85565Y-55364D01*
X85565Y-55505D01*
X85320Y-55750D01*
X85635Y-56065D01*
X85731Y-56037D01*
X85800Y-55845D01*
X85799Y-55899D01*
X85799Y-56305D01*
X85772Y-56332D01*
X85762Y-56308D01*
X85691Y-56238D01*
X85599Y-56200D01*
X85546Y-56199D01*
X85565Y-56135D01*
X85250Y-55820D01*
X85179Y-55891D01*
X85179Y-55750D01*
X84864Y-55434D01*
X84768Y-55462D01*
X84695Y-55668D01*
X84706Y-55886D01*
X84768Y-56037D01*
X84864Y-56065D01*
X85179Y-55750D01*
X85179Y-55891D01*
X84934Y-56135D01*
X84953Y-56199D01*
X84900Y-56199D01*
X84808Y-56237D01*
X84738Y-56308D01*
X84700Y-56400D01*
X84699Y-56499D01*
X84699Y-57099D01*
X84737Y-57191D01*
X84808Y-57261D01*
X84900Y-57299D01*
X84999Y-57300D01*
X85599Y-57300D01*
X85691Y-57262D01*
X85761Y-57191D01*
X85799Y-57100D01*
X85850Y-57100D01*
X85983Y-57073D01*
X85983Y-57073D01*
X86097Y-56997D01*
X86194Y-56900D01*
X86699Y-56900D01*
X86791Y-56862D01*
X86861Y-56791D01*
X86899Y-56699D01*
X86900Y-56600D01*
X86900Y-57870D01*
X86575Y-57869D01*
X86252Y-58003D01*
X86004Y-58250D01*
X85870Y-58574D01*
X85869Y-58924D01*
X86003Y-59247D01*
X86250Y-59495D01*
X86574Y-59629D01*
X86924Y-59630D01*
X87247Y-59496D01*
X87495Y-59249D01*
X87629Y-58925D01*
X87630Y-58575D01*
X87630Y-61955D01*
X87613Y-61956D01*
X87462Y-62018D01*
X87434Y-62114D01*
X87750Y-62429D01*
X88065Y-62114D01*
X88065Y-62255D01*
X87820Y-62500D01*
X88135Y-62815D01*
X88231Y-62787D01*
X88304Y-62581D01*
X88304Y-68475D01*
X88300Y-68482D01*
X88300Y-63750D01*
X88300Y-63150D01*
X88262Y-63058D01*
X88191Y-62988D01*
X88099Y-62950D01*
X88046Y-62949D01*
X88065Y-62885D01*
X87750Y-62570D01*
X87679Y-62641D01*
X87679Y-62500D01*
X87364Y-62184D01*
X87268Y-62212D01*
X87195Y-62418D01*
X87206Y-62636D01*
X87268Y-62787D01*
X87364Y-62815D01*
X87679Y-62500D01*
X87679Y-62641D01*
X87434Y-62885D01*
X87453Y-62949D01*
X87400Y-62949D01*
X87308Y-62987D01*
X87238Y-63058D01*
X87200Y-63150D01*
X87199Y-63249D01*
X87199Y-63849D01*
X87237Y-63941D01*
X87308Y-64011D01*
X87400Y-64049D01*
X87499Y-64050D01*
X88099Y-64050D01*
X88191Y-64012D01*
X88261Y-63941D01*
X88299Y-63849D01*
X88300Y-63750D01*
X88300Y-68482D01*
X88268Y-68530D01*
X85554Y-70339D01*
X85554Y-66331D01*
X85543Y-66113D01*
X85481Y-65962D01*
X85385Y-65934D01*
X85315Y-66005D01*
X85315Y-65864D01*
X85287Y-65768D01*
X85081Y-65695D01*
X84863Y-65706D01*
X84712Y-65768D01*
X84684Y-65864D01*
X85000Y-66179D01*
X85315Y-65864D01*
X85315Y-66005D01*
X85070Y-66250D01*
X85385Y-66565D01*
X85481Y-66537D01*
X85554Y-66331D01*
X85554Y-70339D01*
X85315Y-70499D01*
X85315Y-66635D01*
X85000Y-66320D01*
X84929Y-66391D01*
X84929Y-66250D01*
X84614Y-65934D01*
X84550Y-65953D01*
X84550Y-65900D01*
X84545Y-65888D01*
X84545Y-64892D01*
X84545Y-62892D01*
X84545Y-60892D01*
X84545Y-58892D01*
X84462Y-58691D01*
X84309Y-58538D01*
X84108Y-58455D01*
X83892Y-58454D01*
X83691Y-58537D01*
X83538Y-58690D01*
X83455Y-58891D01*
X83454Y-59107D01*
X83537Y-59308D01*
X83690Y-59461D01*
X83891Y-59544D01*
X84107Y-59545D01*
X84308Y-59462D01*
X84461Y-59309D01*
X84544Y-59108D01*
X84545Y-58892D01*
X84545Y-60892D01*
X84462Y-60691D01*
X84309Y-60538D01*
X84108Y-60455D01*
X83892Y-60454D01*
X83691Y-60537D01*
X83538Y-60690D01*
X83455Y-60891D01*
X83454Y-61107D01*
X83537Y-61308D01*
X83690Y-61461D01*
X83891Y-61544D01*
X84107Y-61545D01*
X84308Y-61462D01*
X84461Y-61309D01*
X84544Y-61108D01*
X84545Y-60892D01*
X84545Y-62892D01*
X84462Y-62691D01*
X84309Y-62538D01*
X84108Y-62455D01*
X83892Y-62454D01*
X83691Y-62537D01*
X83538Y-62690D01*
X83455Y-62891D01*
X83454Y-63107D01*
X83537Y-63308D01*
X83690Y-63461D01*
X83891Y-63544D01*
X84107Y-63545D01*
X84308Y-63462D01*
X84461Y-63309D01*
X84544Y-63108D01*
X84545Y-62892D01*
X84545Y-64892D01*
X84462Y-64691D01*
X84309Y-64538D01*
X84108Y-64455D01*
X83892Y-64454D01*
X83691Y-64537D01*
X83538Y-64690D01*
X83455Y-64891D01*
X83454Y-65107D01*
X83537Y-65308D01*
X83690Y-65461D01*
X83891Y-65544D01*
X84107Y-65545D01*
X84308Y-65462D01*
X84461Y-65309D01*
X84544Y-65108D01*
X84545Y-64892D01*
X84545Y-65888D01*
X84512Y-65808D01*
X84441Y-65738D01*
X84349Y-65700D01*
X84250Y-65699D01*
X83650Y-65699D01*
X83558Y-65737D01*
X83488Y-65808D01*
X83450Y-65900D01*
X83449Y-65999D01*
X83449Y-66599D01*
X83487Y-66691D01*
X83558Y-66761D01*
X83650Y-66799D01*
X83749Y-66800D01*
X84349Y-66800D01*
X84441Y-66762D01*
X84511Y-66691D01*
X84549Y-66599D01*
X84550Y-66546D01*
X84614Y-66565D01*
X84929Y-66250D01*
X84929Y-66391D01*
X84684Y-66635D01*
X84712Y-66731D01*
X84918Y-66804D01*
X85136Y-66793D01*
X85287Y-66731D01*
X85315Y-66635D01*
X85315Y-70499D01*
X85287Y-70518D01*
X83295Y-70916D01*
X83295Y-64892D01*
X83212Y-64691D01*
X83059Y-64538D01*
X82858Y-64455D01*
X82789Y-64455D01*
X82997Y-64247D01*
X83073Y-64133D01*
X83073Y-64133D01*
X83100Y-64000D01*
X83100Y-63250D01*
X83100Y-62500D01*
X83073Y-62366D01*
X83073Y-62366D01*
X82997Y-62252D01*
X82804Y-62059D01*
X82804Y-55331D01*
X82793Y-55113D01*
X82731Y-54962D01*
X82635Y-54934D01*
X82565Y-55005D01*
X82565Y-54864D01*
X82537Y-54768D01*
X82331Y-54695D01*
X82113Y-54706D01*
X81962Y-54768D01*
X81934Y-54864D01*
X82250Y-55179D01*
X82565Y-54864D01*
X82565Y-55005D01*
X82320Y-55250D01*
X82635Y-55565D01*
X82731Y-55537D01*
X82804Y-55331D01*
X82804Y-62059D01*
X82695Y-61950D01*
X82695Y-61911D01*
X82627Y-61748D01*
X82565Y-61685D01*
X82565Y-55635D01*
X82250Y-55320D01*
X82179Y-55391D01*
X82179Y-55250D01*
X81864Y-54934D01*
X81800Y-54953D01*
X81800Y-54900D01*
X81762Y-54808D01*
X81691Y-54738D01*
X81599Y-54700D01*
X81500Y-54699D01*
X80900Y-54699D01*
X80808Y-54737D01*
X80738Y-54808D01*
X80700Y-54900D01*
X80699Y-54999D01*
X80699Y-55599D01*
X80737Y-55691D01*
X80808Y-55761D01*
X80900Y-55799D01*
X80999Y-55800D01*
X81599Y-55800D01*
X81691Y-55762D01*
X81761Y-55691D01*
X81799Y-55599D01*
X81800Y-55546D01*
X81864Y-55565D01*
X82179Y-55250D01*
X82179Y-55391D01*
X81934Y-55635D01*
X81962Y-55731D01*
X82168Y-55804D01*
X82386Y-55793D01*
X82537Y-55731D01*
X82565Y-55635D01*
X82565Y-61685D01*
X82502Y-61622D01*
X82338Y-61555D01*
X82200Y-61554D01*
X82187Y-61380D01*
X82144Y-61275D01*
X82059Y-61260D01*
X81989Y-61331D01*
X81989Y-61190D01*
X81974Y-61105D01*
X81806Y-61049D01*
X81630Y-61062D01*
X81525Y-61105D01*
X81510Y-61190D01*
X81750Y-61429D01*
X81989Y-61190D01*
X81989Y-61331D01*
X81820Y-61500D01*
X81826Y-61505D01*
X81755Y-61576D01*
X81750Y-61570D01*
X81744Y-61576D01*
X81673Y-61505D01*
X81679Y-61500D01*
X81440Y-61260D01*
X81355Y-61275D01*
X81299Y-61443D01*
X81302Y-61475D01*
X81299Y-61474D01*
X81200Y-61474D01*
X81108Y-61512D01*
X81038Y-61582D01*
X80762Y-61858D01*
X80724Y-61950D01*
X80724Y-62049D01*
X80762Y-62141D01*
X80832Y-62211D01*
X81108Y-62487D01*
X81200Y-62525D01*
X81299Y-62525D01*
X81305Y-62523D01*
X81312Y-62619D01*
X81355Y-62724D01*
X81440Y-62739D01*
X81679Y-62500D01*
X81673Y-62494D01*
X81744Y-62423D01*
X81750Y-62429D01*
X81755Y-62423D01*
X81826Y-62494D01*
X81820Y-62500D01*
X82059Y-62739D01*
X82144Y-62724D01*
X82200Y-62556D01*
X82192Y-62444D01*
X82199Y-62444D01*
X82400Y-62644D01*
X82400Y-63250D01*
X82400Y-63855D01*
X82002Y-64252D01*
X81989Y-64272D01*
X81989Y-62809D01*
X81750Y-62570D01*
X81510Y-62809D01*
X81525Y-62894D01*
X81693Y-62950D01*
X81869Y-62937D01*
X81974Y-62894D01*
X81989Y-62809D01*
X81989Y-64272D01*
X81926Y-64366D01*
X81900Y-64500D01*
X81900Y-66855D01*
X81299Y-67455D01*
X81299Y-65080D01*
X81288Y-64864D01*
X81227Y-64715D01*
X81132Y-64688D01*
X81061Y-64759D01*
X81061Y-64617D01*
X81034Y-64522D01*
X80830Y-64450D01*
X80614Y-64461D01*
X80465Y-64522D01*
X80438Y-64617D01*
X80750Y-64929D01*
X81061Y-64617D01*
X81061Y-64759D01*
X80820Y-65000D01*
X81132Y-65311D01*
X81227Y-65284D01*
X81299Y-65080D01*
X81299Y-67455D01*
X81061Y-67693D01*
X81061Y-65382D01*
X80750Y-65070D01*
X80679Y-65141D01*
X80679Y-65000D01*
X80367Y-64688D01*
X80272Y-64715D01*
X80200Y-64919D01*
X80211Y-65135D01*
X80272Y-65284D01*
X80367Y-65311D01*
X80679Y-65000D01*
X80679Y-65141D01*
X80438Y-65382D01*
X80465Y-65477D01*
X80669Y-65549D01*
X80885Y-65538D01*
X81034Y-65477D01*
X81061Y-65382D01*
X81061Y-67693D01*
X81002Y-67752D01*
X80926Y-67866D01*
X80900Y-68000D01*
X80900Y-68200D01*
X80808Y-68237D01*
X80738Y-68308D01*
X80700Y-68400D01*
X80700Y-68400D01*
X80700Y-68300D01*
X80662Y-68208D01*
X80591Y-68138D01*
X80499Y-68100D01*
X80400Y-68099D01*
X80045Y-68099D01*
X80045Y-60142D01*
X80045Y-58892D01*
X80045Y-57642D01*
X80045Y-56392D01*
X79962Y-56191D01*
X79809Y-56038D01*
X79608Y-55955D01*
X79392Y-55954D01*
X79191Y-56037D01*
X79038Y-56190D01*
X78955Y-56391D01*
X78954Y-56607D01*
X79037Y-56808D01*
X79190Y-56961D01*
X79391Y-57044D01*
X79607Y-57045D01*
X79808Y-56962D01*
X79961Y-56809D01*
X80044Y-56608D01*
X80045Y-56392D01*
X80045Y-57642D01*
X79962Y-57441D01*
X79809Y-57288D01*
X79608Y-57205D01*
X79392Y-57204D01*
X79191Y-57287D01*
X79038Y-57440D01*
X78955Y-57641D01*
X78954Y-57857D01*
X79037Y-58058D01*
X79190Y-58211D01*
X79391Y-58294D01*
X79607Y-58295D01*
X79808Y-58212D01*
X79961Y-58059D01*
X80044Y-57858D01*
X80045Y-57642D01*
X80045Y-58892D01*
X79962Y-58691D01*
X79809Y-58538D01*
X79608Y-58455D01*
X79392Y-58454D01*
X79191Y-58537D01*
X79038Y-58690D01*
X78955Y-58891D01*
X78954Y-59107D01*
X79037Y-59308D01*
X79190Y-59461D01*
X79391Y-59544D01*
X79607Y-59545D01*
X79808Y-59462D01*
X79961Y-59309D01*
X80044Y-59108D01*
X80045Y-58892D01*
X80045Y-60142D01*
X79962Y-59941D01*
X79809Y-59788D01*
X79608Y-59705D01*
X79392Y-59704D01*
X79191Y-59787D01*
X79038Y-59940D01*
X78955Y-60141D01*
X78954Y-60357D01*
X79037Y-60558D01*
X79190Y-60711D01*
X79391Y-60794D01*
X79607Y-60795D01*
X79808Y-60712D01*
X79961Y-60559D01*
X80044Y-60358D01*
X80045Y-60142D01*
X80045Y-68099D01*
X79800Y-68099D01*
X79708Y-68137D01*
X79638Y-68208D01*
X79600Y-68300D01*
X79599Y-68399D01*
X79599Y-69199D01*
X79637Y-69291D01*
X79708Y-69361D01*
X79800Y-69399D01*
X79899Y-69400D01*
X80499Y-69400D01*
X80591Y-69362D01*
X80661Y-69291D01*
X80699Y-69199D01*
X80700Y-69100D01*
X80700Y-69100D01*
X80700Y-69100D01*
X80737Y-69191D01*
X80808Y-69261D01*
X80900Y-69299D01*
X80999Y-69300D01*
X81599Y-69300D01*
X81691Y-69262D01*
X81761Y-69191D01*
X81799Y-69099D01*
X81800Y-69046D01*
X81864Y-69065D01*
X82179Y-68750D01*
X81864Y-68434D01*
X81800Y-68453D01*
X81800Y-68400D01*
X81762Y-68308D01*
X81691Y-68238D01*
X81600Y-68200D01*
X81600Y-68144D01*
X82497Y-67247D01*
X82573Y-67133D01*
X82600Y-67000D01*
X82600Y-65527D01*
X82641Y-65544D01*
X82857Y-65545D01*
X83058Y-65462D01*
X83211Y-65309D01*
X83294Y-65108D01*
X83295Y-64892D01*
X83295Y-70916D01*
X82804Y-71014D01*
X82804Y-68831D01*
X82793Y-68613D01*
X82731Y-68462D01*
X82635Y-68434D01*
X82565Y-68505D01*
X82565Y-68364D01*
X82537Y-68268D01*
X82331Y-68195D01*
X82113Y-68206D01*
X81962Y-68268D01*
X81934Y-68364D01*
X82250Y-68679D01*
X82565Y-68364D01*
X82565Y-68505D01*
X82320Y-68750D01*
X82635Y-69065D01*
X82731Y-69037D01*
X82804Y-68831D01*
X82804Y-71014D01*
X82565Y-71062D01*
X82565Y-69135D01*
X82250Y-68820D01*
X81934Y-69135D01*
X81962Y-69231D01*
X82168Y-69304D01*
X82386Y-69293D01*
X82537Y-69231D01*
X82565Y-69135D01*
X82565Y-71062D01*
X81741Y-71226D01*
X79400Y-70758D01*
X79400Y-69100D01*
X79400Y-68399D01*
X79399Y-68300D01*
X79361Y-68208D01*
X79291Y-68137D01*
X79199Y-68099D01*
X78962Y-68100D01*
X78900Y-68162D01*
X78900Y-68700D01*
X79337Y-68700D01*
X79400Y-68637D01*
X79400Y-68399D01*
X79400Y-69100D01*
X79400Y-68862D01*
X79337Y-68800D01*
X78900Y-68800D01*
X78900Y-69337D01*
X78962Y-69400D01*
X79199Y-69400D01*
X79291Y-69362D01*
X79361Y-69291D01*
X79399Y-69199D01*
X79400Y-69100D01*
X79400Y-70758D01*
X78800Y-70638D01*
X78800Y-69337D01*
X78800Y-68800D01*
X78800Y-68700D01*
X78800Y-68162D01*
X78737Y-68100D01*
X78630Y-68099D01*
X78630Y-66325D01*
X78496Y-66002D01*
X78249Y-65754D01*
X78049Y-65671D01*
X78049Y-56580D01*
X78038Y-56364D01*
X77977Y-56215D01*
X77882Y-56188D01*
X77811Y-56259D01*
X77811Y-56117D01*
X77784Y-56022D01*
X77580Y-55950D01*
X77364Y-55961D01*
X77215Y-56022D01*
X77188Y-56117D01*
X77500Y-56429D01*
X77811Y-56117D01*
X77811Y-56259D01*
X77570Y-56500D01*
X77882Y-56811D01*
X77977Y-56784D01*
X78049Y-56580D01*
X78049Y-65671D01*
X78045Y-65669D01*
X78045Y-60142D01*
X78045Y-58892D01*
X78045Y-57642D01*
X77962Y-57441D01*
X77811Y-57290D01*
X77811Y-56882D01*
X77500Y-56570D01*
X77429Y-56641D01*
X77429Y-56500D01*
X77117Y-56188D01*
X77022Y-56215D01*
X76950Y-56419D01*
X76961Y-56635D01*
X77022Y-56784D01*
X77117Y-56811D01*
X77429Y-56500D01*
X77429Y-56641D01*
X77188Y-56882D01*
X77215Y-56977D01*
X77419Y-57049D01*
X77635Y-57038D01*
X77784Y-56977D01*
X77811Y-56882D01*
X77811Y-57290D01*
X77809Y-57288D01*
X77608Y-57205D01*
X77392Y-57204D01*
X77191Y-57287D01*
X77038Y-57440D01*
X76955Y-57641D01*
X76954Y-57857D01*
X77037Y-58058D01*
X77190Y-58211D01*
X77391Y-58294D01*
X77607Y-58295D01*
X77808Y-58212D01*
X77961Y-58059D01*
X78044Y-57858D01*
X78045Y-57642D01*
X78045Y-58892D01*
X77962Y-58691D01*
X77809Y-58538D01*
X77608Y-58455D01*
X77392Y-58454D01*
X77191Y-58537D01*
X77038Y-58690D01*
X76955Y-58891D01*
X76954Y-59107D01*
X77037Y-59308D01*
X77190Y-59461D01*
X77391Y-59544D01*
X77607Y-59545D01*
X77808Y-59462D01*
X77961Y-59309D01*
X78044Y-59108D01*
X78045Y-58892D01*
X78045Y-60142D01*
X77962Y-59941D01*
X77809Y-59788D01*
X77608Y-59705D01*
X77392Y-59704D01*
X77191Y-59787D01*
X77038Y-59940D01*
X76955Y-60141D01*
X76954Y-60357D01*
X77037Y-60558D01*
X77190Y-60711D01*
X77391Y-60794D01*
X77607Y-60795D01*
X77808Y-60712D01*
X77961Y-60559D01*
X78044Y-60358D01*
X78045Y-60142D01*
X78045Y-65669D01*
X77925Y-65620D01*
X77575Y-65619D01*
X77252Y-65753D01*
X77004Y-66000D01*
X76870Y-66324D01*
X76869Y-66674D01*
X77003Y-66997D01*
X77250Y-67245D01*
X77574Y-67379D01*
X77924Y-67380D01*
X78247Y-67246D01*
X78495Y-66999D01*
X78629Y-66675D01*
X78630Y-66325D01*
X78630Y-68099D01*
X78500Y-68099D01*
X78408Y-68137D01*
X78338Y-68208D01*
X78300Y-68300D01*
X78299Y-68399D01*
X78300Y-68637D01*
X78362Y-68700D01*
X78800Y-68700D01*
X78800Y-68800D01*
X78362Y-68800D01*
X78300Y-68862D01*
X78299Y-69100D01*
X78300Y-69199D01*
X78338Y-69291D01*
X78408Y-69362D01*
X78500Y-69400D01*
X78737Y-69400D01*
X78800Y-69337D01*
X78800Y-70638D01*
X78228Y-70524D01*
X76804Y-69575D01*
X76804Y-60081D01*
X76800Y-59987D01*
X76800Y-59250D01*
X76800Y-58650D01*
X76762Y-58558D01*
X76691Y-58488D01*
X76599Y-58450D01*
X76500Y-58449D01*
X75900Y-58449D01*
X75808Y-58487D01*
X75738Y-58558D01*
X75700Y-58650D01*
X75699Y-58749D01*
X75699Y-59349D01*
X75737Y-59441D01*
X75808Y-59511D01*
X75900Y-59549D01*
X75953Y-59550D01*
X75934Y-59614D01*
X76250Y-59929D01*
X76565Y-59614D01*
X76546Y-59550D01*
X76599Y-59550D01*
X76691Y-59512D01*
X76761Y-59441D01*
X76799Y-59349D01*
X76800Y-59250D01*
X76800Y-59987D01*
X76793Y-59863D01*
X76731Y-59712D01*
X76635Y-59684D01*
X76320Y-60000D01*
X76635Y-60315D01*
X76731Y-60287D01*
X76804Y-60081D01*
X76804Y-69575D01*
X76565Y-69415D01*
X76565Y-60385D01*
X76250Y-60070D01*
X76179Y-60141D01*
X76179Y-60000D01*
X75864Y-59684D01*
X75768Y-59712D01*
X75695Y-59918D01*
X75706Y-60136D01*
X75768Y-60287D01*
X75864Y-60315D01*
X76179Y-60000D01*
X76179Y-60141D01*
X75934Y-60385D01*
X75962Y-60481D01*
X76168Y-60554D01*
X76386Y-60543D01*
X76537Y-60481D01*
X76565Y-60385D01*
X76565Y-69415D01*
X75650Y-68805D01*
X75650Y-61150D01*
X75650Y-60550D01*
X75650Y-59949D01*
X75650Y-59250D01*
X75612Y-59158D01*
X75541Y-59088D01*
X75449Y-59050D01*
X75350Y-59049D01*
X75112Y-59050D01*
X75050Y-59112D01*
X75050Y-59550D01*
X75587Y-59550D01*
X75650Y-59487D01*
X75650Y-59250D01*
X75650Y-59949D01*
X75650Y-59712D01*
X75587Y-59650D01*
X75050Y-59650D01*
X75050Y-60087D01*
X75112Y-60150D01*
X75350Y-60150D01*
X75449Y-60149D01*
X75541Y-60111D01*
X75612Y-60041D01*
X75650Y-59949D01*
X75650Y-60550D01*
X75612Y-60458D01*
X75541Y-60388D01*
X75449Y-60350D01*
X75350Y-60349D01*
X74950Y-60349D01*
X74950Y-60087D01*
X74950Y-59650D01*
X74950Y-59550D01*
X74950Y-59112D01*
X74887Y-59050D01*
X74649Y-59049D01*
X74550Y-59050D01*
X74458Y-59088D01*
X74387Y-59158D01*
X74349Y-59250D01*
X74350Y-59487D01*
X74412Y-59550D01*
X74950Y-59550D01*
X74950Y-59650D01*
X74412Y-59650D01*
X74350Y-59712D01*
X74349Y-59949D01*
X74387Y-60041D01*
X74458Y-60111D01*
X74550Y-60149D01*
X74649Y-60150D01*
X74887Y-60150D01*
X74950Y-60087D01*
X74950Y-60349D01*
X74550Y-60349D01*
X74458Y-60387D01*
X74388Y-60458D01*
X74350Y-60550D01*
X74349Y-60649D01*
X74349Y-61249D01*
X74387Y-61341D01*
X74458Y-61411D01*
X74550Y-61449D01*
X74649Y-61450D01*
X74650Y-61450D01*
X74650Y-61450D01*
X74558Y-61487D01*
X74488Y-61558D01*
X74450Y-61650D01*
X74449Y-61749D01*
X74449Y-62349D01*
X74487Y-62441D01*
X74558Y-62511D01*
X74650Y-62549D01*
X74703Y-62550D01*
X74684Y-62614D01*
X75000Y-62929D01*
X75315Y-62614D01*
X75296Y-62550D01*
X75349Y-62550D01*
X75441Y-62512D01*
X75511Y-62441D01*
X75549Y-62349D01*
X75550Y-62250D01*
X75550Y-61650D01*
X75512Y-61558D01*
X75441Y-61488D01*
X75350Y-61450D01*
X75350Y-61450D01*
X75449Y-61450D01*
X75541Y-61412D01*
X75611Y-61341D01*
X75649Y-61249D01*
X75650Y-61150D01*
X75650Y-68805D01*
X75554Y-68741D01*
X75554Y-63081D01*
X75543Y-62863D01*
X75481Y-62712D01*
X75385Y-62684D01*
X75070Y-63000D01*
X75385Y-63315D01*
X75481Y-63287D01*
X75554Y-63081D01*
X75554Y-68741D01*
X75315Y-68581D01*
X75315Y-63385D01*
X75000Y-63070D01*
X74929Y-63141D01*
X74929Y-63000D01*
X74614Y-62684D01*
X74518Y-62712D01*
X74445Y-62918D01*
X74456Y-63136D01*
X74518Y-63287D01*
X74614Y-63315D01*
X74929Y-63000D01*
X74929Y-63141D01*
X74684Y-63385D01*
X74712Y-63481D01*
X74918Y-63554D01*
X75136Y-63543D01*
X75287Y-63481D01*
X75315Y-63385D01*
X75315Y-68581D01*
X75219Y-68518D01*
X73231Y-65537D01*
X72525Y-61999D01*
X73231Y-58462D01*
X75219Y-55481D01*
X78228Y-53475D01*
X81741Y-52773D01*
X85287Y-53481D01*
X88268Y-55469D01*
X90274Y-58478D01*
X90978Y-62000D01*
M02*
