G04 (created by PCBNEW (2013-07-07 BZR 4022)-stable) date 6/30/2014 1:32:33 AM*
%MOIN*%
G04 Gerber Fmt 3.4, Leading zero omitted, Abs format*
%FSLAX34Y34*%
G01*
G70*
G90*
G04 APERTURE LIST*
%ADD10C,0.00590551*%
%ADD11C,0.006*%
%ADD12C,0.01*%
%ADD13C,0.012*%
%ADD14C,0.0001*%
%ADD15C,0.008*%
G04 APERTURE END LIST*
G54D10*
G54D11*
X70778Y-36671D02*
X70778Y-36914D01*
X70764Y-36942D01*
X70749Y-36957D01*
X70721Y-36971D01*
X70678Y-36971D01*
X70649Y-36957D01*
X70778Y-36857D02*
X70749Y-36871D01*
X70692Y-36871D01*
X70664Y-36857D01*
X70649Y-36842D01*
X70635Y-36814D01*
X70635Y-36728D01*
X70649Y-36700D01*
X70664Y-36685D01*
X70692Y-36671D01*
X70749Y-36671D01*
X70778Y-36685D01*
X70921Y-36871D02*
X70921Y-36671D01*
X70921Y-36571D02*
X70907Y-36585D01*
X70921Y-36600D01*
X70935Y-36585D01*
X70921Y-36571D01*
X70921Y-36600D01*
X71021Y-36671D02*
X71135Y-36671D01*
X71064Y-36571D02*
X71064Y-36828D01*
X71078Y-36857D01*
X71107Y-36871D01*
X71135Y-36871D01*
X71235Y-36871D02*
X71235Y-36571D01*
X71364Y-36871D02*
X71364Y-36714D01*
X71349Y-36685D01*
X71321Y-36671D01*
X71278Y-36671D01*
X71249Y-36685D01*
X71235Y-36700D01*
X71635Y-36671D02*
X71635Y-36871D01*
X71507Y-36671D02*
X71507Y-36828D01*
X71521Y-36857D01*
X71549Y-36871D01*
X71592Y-36871D01*
X71621Y-36857D01*
X71635Y-36842D01*
X71778Y-36871D02*
X71778Y-36571D01*
X71778Y-36685D02*
X71807Y-36671D01*
X71864Y-36671D01*
X71892Y-36685D01*
X71907Y-36700D01*
X71921Y-36728D01*
X71921Y-36814D01*
X71907Y-36842D01*
X71892Y-36857D01*
X71864Y-36871D01*
X71807Y-36871D01*
X71778Y-36857D01*
X72049Y-36842D02*
X72064Y-36857D01*
X72049Y-36871D01*
X72035Y-36857D01*
X72049Y-36842D01*
X72049Y-36871D01*
X72321Y-36857D02*
X72292Y-36871D01*
X72235Y-36871D01*
X72207Y-36857D01*
X72192Y-36842D01*
X72178Y-36814D01*
X72178Y-36728D01*
X72192Y-36700D01*
X72207Y-36685D01*
X72235Y-36671D01*
X72292Y-36671D01*
X72321Y-36685D01*
X72492Y-36871D02*
X72464Y-36857D01*
X72449Y-36842D01*
X72435Y-36814D01*
X72435Y-36728D01*
X72449Y-36700D01*
X72464Y-36685D01*
X72492Y-36671D01*
X72535Y-36671D01*
X72564Y-36685D01*
X72578Y-36700D01*
X72592Y-36728D01*
X72592Y-36814D01*
X72578Y-36842D01*
X72564Y-36857D01*
X72535Y-36871D01*
X72492Y-36871D01*
X72721Y-36871D02*
X72721Y-36671D01*
X72721Y-36700D02*
X72735Y-36685D01*
X72764Y-36671D01*
X72807Y-36671D01*
X72835Y-36685D01*
X72849Y-36714D01*
X72849Y-36871D01*
X72849Y-36714D02*
X72864Y-36685D01*
X72892Y-36671D01*
X72935Y-36671D01*
X72964Y-36685D01*
X72978Y-36714D01*
X72978Y-36871D01*
X73335Y-36557D02*
X73078Y-36942D01*
X73435Y-36671D02*
X73435Y-36971D01*
X73435Y-36685D02*
X73464Y-36671D01*
X73521Y-36671D01*
X73549Y-36685D01*
X73564Y-36700D01*
X73578Y-36728D01*
X73578Y-36814D01*
X73564Y-36842D01*
X73549Y-36857D01*
X73521Y-36871D01*
X73464Y-36871D01*
X73435Y-36857D01*
X73821Y-36857D02*
X73792Y-36871D01*
X73735Y-36871D01*
X73707Y-36857D01*
X73692Y-36828D01*
X73692Y-36714D01*
X73707Y-36685D01*
X73735Y-36671D01*
X73792Y-36671D01*
X73821Y-36685D01*
X73835Y-36714D01*
X73835Y-36742D01*
X73692Y-36771D01*
X73964Y-36671D02*
X73964Y-36971D01*
X73964Y-36685D02*
X73992Y-36671D01*
X74050Y-36671D01*
X74078Y-36685D01*
X74092Y-36700D01*
X74107Y-36728D01*
X74107Y-36814D01*
X74092Y-36842D01*
X74078Y-36857D01*
X74050Y-36871D01*
X73992Y-36871D01*
X73964Y-36857D01*
X74364Y-36871D02*
X74364Y-36714D01*
X74350Y-36685D01*
X74321Y-36671D01*
X74264Y-36671D01*
X74235Y-36685D01*
X74364Y-36857D02*
X74335Y-36871D01*
X74264Y-36871D01*
X74235Y-36857D01*
X74221Y-36828D01*
X74221Y-36800D01*
X74235Y-36771D01*
X74264Y-36757D01*
X74335Y-36757D01*
X74364Y-36742D01*
X74492Y-36857D02*
X74521Y-36871D01*
X74578Y-36871D01*
X74607Y-36857D01*
X74621Y-36828D01*
X74621Y-36814D01*
X74607Y-36785D01*
X74578Y-36771D01*
X74535Y-36771D01*
X74507Y-36757D01*
X74492Y-36728D01*
X74492Y-36714D01*
X74507Y-36685D01*
X74535Y-36671D01*
X74578Y-36671D01*
X74607Y-36685D01*
X74792Y-36871D02*
X74764Y-36857D01*
X74750Y-36828D01*
X74750Y-36571D01*
X75035Y-36871D02*
X75035Y-36714D01*
X75021Y-36685D01*
X74992Y-36671D01*
X74935Y-36671D01*
X74907Y-36685D01*
X75035Y-36857D02*
X75007Y-36871D01*
X74935Y-36871D01*
X74907Y-36857D01*
X74892Y-36828D01*
X74892Y-36800D01*
X74907Y-36771D01*
X74935Y-36757D01*
X75007Y-36757D01*
X75035Y-36742D01*
X75178Y-36871D02*
X75178Y-36571D01*
X75178Y-36685D02*
X75207Y-36671D01*
X75264Y-36671D01*
X75292Y-36685D01*
X75307Y-36700D01*
X75321Y-36728D01*
X75321Y-36814D01*
X75307Y-36842D01*
X75292Y-36857D01*
X75264Y-36871D01*
X75207Y-36871D01*
X75178Y-36857D01*
X75435Y-36857D02*
X75464Y-36871D01*
X75521Y-36871D01*
X75550Y-36857D01*
X75564Y-36828D01*
X75564Y-36814D01*
X75550Y-36785D01*
X75521Y-36771D01*
X75478Y-36771D01*
X75450Y-36757D01*
X75435Y-36728D01*
X75435Y-36714D01*
X75450Y-36685D01*
X75478Y-36671D01*
X75521Y-36671D01*
X75550Y-36685D01*
X75907Y-36557D02*
X75650Y-36942D01*
X76064Y-36571D02*
X76121Y-36571D01*
X76150Y-36585D01*
X76178Y-36614D01*
X76192Y-36671D01*
X76192Y-36771D01*
X76178Y-36828D01*
X76150Y-36857D01*
X76121Y-36871D01*
X76064Y-36871D01*
X76035Y-36857D01*
X76007Y-36828D01*
X75992Y-36771D01*
X75992Y-36671D01*
X76007Y-36614D01*
X76035Y-36585D01*
X76064Y-36571D01*
X76321Y-36871D02*
X76321Y-36571D01*
X76450Y-36871D02*
X76450Y-36714D01*
X76435Y-36685D01*
X76407Y-36671D01*
X76364Y-36671D01*
X76335Y-36685D01*
X76321Y-36700D01*
X76592Y-36871D02*
X76592Y-36671D01*
X76592Y-36700D02*
X76607Y-36685D01*
X76635Y-36671D01*
X76678Y-36671D01*
X76707Y-36685D01*
X76721Y-36714D01*
X76721Y-36871D01*
X76721Y-36714D02*
X76735Y-36685D01*
X76764Y-36671D01*
X76807Y-36671D01*
X76835Y-36685D01*
X76850Y-36714D01*
X76850Y-36871D01*
X76978Y-36857D02*
X77021Y-36871D01*
X77092Y-36871D01*
X77121Y-36857D01*
X77135Y-36842D01*
X77150Y-36814D01*
X77150Y-36785D01*
X77135Y-36757D01*
X77121Y-36742D01*
X77092Y-36728D01*
X77035Y-36714D01*
X77007Y-36700D01*
X76992Y-36685D01*
X76978Y-36657D01*
X76978Y-36628D01*
X76992Y-36600D01*
X77007Y-36585D01*
X77035Y-36571D01*
X77107Y-36571D01*
X77150Y-36585D01*
X77235Y-36671D02*
X77350Y-36671D01*
X77278Y-36571D02*
X77278Y-36828D01*
X77292Y-36857D01*
X77321Y-36871D01*
X77350Y-36871D01*
X77578Y-36871D02*
X77578Y-36714D01*
X77564Y-36685D01*
X77535Y-36671D01*
X77478Y-36671D01*
X77450Y-36685D01*
X77578Y-36857D02*
X77550Y-36871D01*
X77478Y-36871D01*
X77450Y-36857D01*
X77435Y-36828D01*
X77435Y-36800D01*
X77450Y-36771D01*
X77478Y-36757D01*
X77550Y-36757D01*
X77578Y-36742D01*
X77721Y-36671D02*
X77721Y-36871D01*
X77721Y-36700D02*
X77735Y-36685D01*
X77764Y-36671D01*
X77807Y-36671D01*
X77835Y-36685D01*
X77850Y-36714D01*
X77850Y-36871D01*
X78121Y-36871D02*
X78121Y-36571D01*
X78121Y-36857D02*
X78092Y-36871D01*
X78035Y-36871D01*
X78007Y-36857D01*
X77992Y-36842D01*
X77978Y-36814D01*
X77978Y-36728D01*
X77992Y-36700D01*
X78007Y-36685D01*
X78035Y-36671D01*
X78092Y-36671D01*
X78121Y-36685D01*
X78392Y-36871D02*
X78392Y-36714D01*
X78378Y-36685D01*
X78350Y-36671D01*
X78292Y-36671D01*
X78264Y-36685D01*
X78392Y-36857D02*
X78364Y-36871D01*
X78292Y-36871D01*
X78264Y-36857D01*
X78250Y-36828D01*
X78250Y-36800D01*
X78264Y-36771D01*
X78292Y-36757D01*
X78364Y-36757D01*
X78392Y-36742D01*
X78535Y-36871D02*
X78535Y-36671D01*
X78535Y-36728D02*
X78550Y-36700D01*
X78564Y-36685D01*
X78592Y-36671D01*
X78621Y-36671D01*
X78850Y-36871D02*
X78850Y-36571D01*
X78850Y-36857D02*
X78821Y-36871D01*
X78764Y-36871D01*
X78735Y-36857D01*
X78721Y-36842D01*
X78707Y-36814D01*
X78707Y-36728D01*
X78721Y-36700D01*
X78735Y-36685D01*
X78764Y-36671D01*
X78821Y-36671D01*
X78850Y-36685D01*
G54D12*
X69678Y-35952D02*
X69678Y-35452D01*
X69964Y-35952D02*
X69750Y-35666D01*
X69964Y-35452D02*
X69678Y-35738D01*
X70369Y-35928D02*
X70321Y-35952D01*
X70226Y-35952D01*
X70178Y-35928D01*
X70154Y-35880D01*
X70154Y-35690D01*
X70178Y-35642D01*
X70226Y-35619D01*
X70321Y-35619D01*
X70369Y-35642D01*
X70392Y-35690D01*
X70392Y-35738D01*
X70154Y-35785D01*
X70678Y-35952D02*
X70630Y-35928D01*
X70607Y-35880D01*
X70607Y-35452D01*
X70821Y-35619D02*
X70940Y-35952D01*
X71059Y-35619D01*
X71249Y-35952D02*
X71249Y-35619D01*
X71249Y-35452D02*
X71226Y-35476D01*
X71249Y-35500D01*
X71273Y-35476D01*
X71249Y-35452D01*
X71249Y-35500D01*
X71488Y-35619D02*
X71488Y-35952D01*
X71488Y-35666D02*
X71511Y-35642D01*
X71559Y-35619D01*
X71630Y-35619D01*
X71678Y-35642D01*
X71702Y-35690D01*
X71702Y-35952D01*
X72488Y-35690D02*
X72559Y-35714D01*
X72583Y-35738D01*
X72607Y-35785D01*
X72607Y-35857D01*
X72583Y-35904D01*
X72559Y-35928D01*
X72511Y-35952D01*
X72321Y-35952D01*
X72321Y-35452D01*
X72488Y-35452D01*
X72535Y-35476D01*
X72559Y-35500D01*
X72583Y-35547D01*
X72583Y-35595D01*
X72559Y-35642D01*
X72535Y-35666D01*
X72488Y-35690D01*
X72321Y-35690D01*
X72821Y-35952D02*
X72821Y-35619D01*
X72821Y-35714D02*
X72845Y-35666D01*
X72869Y-35642D01*
X72916Y-35619D01*
X72964Y-35619D01*
X73321Y-35928D02*
X73273Y-35952D01*
X73178Y-35952D01*
X73130Y-35928D01*
X73107Y-35880D01*
X73107Y-35690D01*
X73130Y-35642D01*
X73178Y-35619D01*
X73273Y-35619D01*
X73321Y-35642D01*
X73345Y-35690D01*
X73345Y-35738D01*
X73107Y-35785D01*
X73773Y-35952D02*
X73773Y-35690D01*
X73749Y-35642D01*
X73702Y-35619D01*
X73607Y-35619D01*
X73559Y-35642D01*
X73773Y-35928D02*
X73726Y-35952D01*
X73607Y-35952D01*
X73559Y-35928D01*
X73535Y-35880D01*
X73535Y-35833D01*
X73559Y-35785D01*
X73607Y-35761D01*
X73726Y-35761D01*
X73773Y-35738D01*
X74011Y-35952D02*
X74011Y-35452D01*
X74059Y-35761D02*
X74202Y-35952D01*
X74202Y-35619D02*
X74011Y-35809D01*
X74488Y-35952D02*
X74440Y-35928D01*
X74416Y-35904D01*
X74392Y-35857D01*
X74392Y-35714D01*
X74416Y-35666D01*
X74440Y-35642D01*
X74488Y-35619D01*
X74559Y-35619D01*
X74607Y-35642D01*
X74630Y-35666D01*
X74654Y-35714D01*
X74654Y-35857D01*
X74630Y-35904D01*
X74607Y-35928D01*
X74559Y-35952D01*
X74488Y-35952D01*
X75083Y-35619D02*
X75083Y-35952D01*
X74869Y-35619D02*
X74869Y-35880D01*
X74892Y-35928D01*
X74940Y-35952D01*
X75011Y-35952D01*
X75059Y-35928D01*
X75083Y-35904D01*
X75249Y-35619D02*
X75440Y-35619D01*
X75321Y-35452D02*
X75321Y-35880D01*
X75345Y-35928D01*
X75392Y-35952D01*
X75440Y-35952D01*
X76154Y-35690D02*
X76226Y-35714D01*
X76249Y-35738D01*
X76273Y-35785D01*
X76273Y-35857D01*
X76249Y-35904D01*
X76226Y-35928D01*
X76178Y-35952D01*
X75988Y-35952D01*
X75988Y-35452D01*
X76154Y-35452D01*
X76202Y-35476D01*
X76226Y-35500D01*
X76249Y-35547D01*
X76249Y-35595D01*
X76226Y-35642D01*
X76202Y-35666D01*
X76154Y-35690D01*
X75988Y-35690D01*
X76559Y-35952D02*
X76511Y-35928D01*
X76488Y-35904D01*
X76464Y-35857D01*
X76464Y-35714D01*
X76488Y-35666D01*
X76511Y-35642D01*
X76559Y-35619D01*
X76630Y-35619D01*
X76678Y-35642D01*
X76702Y-35666D01*
X76726Y-35714D01*
X76726Y-35857D01*
X76702Y-35904D01*
X76678Y-35928D01*
X76630Y-35952D01*
X76559Y-35952D01*
X77154Y-35952D02*
X77154Y-35690D01*
X77130Y-35642D01*
X77083Y-35619D01*
X76988Y-35619D01*
X76940Y-35642D01*
X77154Y-35928D02*
X77107Y-35952D01*
X76988Y-35952D01*
X76940Y-35928D01*
X76916Y-35880D01*
X76916Y-35833D01*
X76940Y-35785D01*
X76988Y-35761D01*
X77107Y-35761D01*
X77154Y-35738D01*
X77392Y-35952D02*
X77392Y-35619D01*
X77392Y-35714D02*
X77416Y-35666D01*
X77440Y-35642D01*
X77488Y-35619D01*
X77535Y-35619D01*
X77916Y-35952D02*
X77916Y-35452D01*
X77916Y-35928D02*
X77869Y-35952D01*
X77773Y-35952D01*
X77726Y-35928D01*
X77702Y-35904D01*
X77678Y-35857D01*
X77678Y-35714D01*
X77702Y-35666D01*
X77726Y-35642D01*
X77773Y-35619D01*
X77869Y-35619D01*
X77916Y-35642D01*
X78678Y-36142D02*
X78654Y-36119D01*
X78607Y-36047D01*
X78583Y-36000D01*
X78559Y-35928D01*
X78535Y-35809D01*
X78535Y-35714D01*
X78559Y-35595D01*
X78583Y-35523D01*
X78607Y-35476D01*
X78654Y-35404D01*
X78678Y-35380D01*
X78821Y-35619D02*
X78940Y-35952D01*
X79059Y-35619D01*
X79511Y-35952D02*
X79226Y-35952D01*
X79369Y-35952D02*
X79369Y-35452D01*
X79321Y-35523D01*
X79273Y-35571D01*
X79226Y-35595D01*
X79678Y-36142D02*
X79702Y-36119D01*
X79750Y-36047D01*
X79773Y-36000D01*
X79797Y-35928D01*
X79821Y-35809D01*
X79821Y-35714D01*
X79797Y-35595D01*
X79773Y-35523D01*
X79750Y-35476D01*
X79702Y-35404D01*
X79678Y-35380D01*
G54D11*
X65571Y-41121D02*
X65571Y-40821D01*
X65685Y-40821D01*
X65714Y-40835D01*
X65728Y-40850D01*
X65742Y-40878D01*
X65742Y-40921D01*
X65728Y-40950D01*
X65714Y-40964D01*
X65685Y-40978D01*
X65571Y-40978D01*
X65871Y-41121D02*
X65871Y-40921D01*
X65871Y-40821D02*
X65857Y-40835D01*
X65871Y-40850D01*
X65885Y-40835D01*
X65871Y-40821D01*
X65871Y-40850D01*
X66014Y-40921D02*
X66014Y-41121D01*
X66014Y-40950D02*
X66028Y-40935D01*
X66057Y-40921D01*
X66100Y-40921D01*
X66128Y-40935D01*
X66142Y-40964D01*
X66142Y-41121D01*
X66328Y-41121D02*
X66300Y-41107D01*
X66285Y-41092D01*
X66271Y-41064D01*
X66271Y-40978D01*
X66285Y-40950D01*
X66300Y-40935D01*
X66328Y-40921D01*
X66371Y-40921D01*
X66400Y-40935D01*
X66414Y-40950D01*
X66428Y-40978D01*
X66428Y-41064D01*
X66414Y-41092D01*
X66400Y-41107D01*
X66371Y-41121D01*
X66328Y-41121D01*
X66685Y-40921D02*
X66685Y-41121D01*
X66557Y-40921D02*
X66557Y-41078D01*
X66571Y-41107D01*
X66600Y-41121D01*
X66642Y-41121D01*
X66671Y-41107D01*
X66685Y-41092D01*
X66785Y-40921D02*
X66900Y-40921D01*
X66828Y-40821D02*
X66828Y-41078D01*
X66842Y-41107D01*
X66871Y-41121D01*
X66900Y-41121D01*
X67000Y-41092D02*
X67014Y-41107D01*
X67000Y-41121D01*
X66985Y-41107D01*
X67000Y-41092D01*
X67000Y-41121D01*
X67000Y-40935D02*
X67014Y-40950D01*
X67000Y-40964D01*
X66985Y-40950D01*
X67000Y-40935D01*
X67000Y-40964D01*
X65728Y-41601D02*
X65557Y-41601D01*
X65642Y-41601D02*
X65642Y-41301D01*
X65614Y-41344D01*
X65585Y-41372D01*
X65557Y-41387D01*
X65857Y-41572D02*
X65871Y-41587D01*
X65857Y-41601D01*
X65842Y-41587D01*
X65857Y-41572D01*
X65857Y-41601D01*
X65857Y-41415D02*
X65871Y-41430D01*
X65857Y-41444D01*
X65842Y-41430D01*
X65857Y-41415D01*
X65857Y-41444D01*
X66214Y-41587D02*
X66257Y-41601D01*
X66328Y-41601D01*
X66357Y-41587D01*
X66371Y-41572D01*
X66385Y-41544D01*
X66385Y-41515D01*
X66371Y-41487D01*
X66357Y-41472D01*
X66328Y-41458D01*
X66271Y-41444D01*
X66242Y-41430D01*
X66228Y-41415D01*
X66214Y-41387D01*
X66214Y-41358D01*
X66228Y-41330D01*
X66242Y-41315D01*
X66271Y-41301D01*
X66342Y-41301D01*
X66385Y-41315D01*
X66628Y-41587D02*
X66599Y-41601D01*
X66542Y-41601D01*
X66514Y-41587D01*
X66499Y-41558D01*
X66499Y-41444D01*
X66514Y-41415D01*
X66542Y-41401D01*
X66599Y-41401D01*
X66628Y-41415D01*
X66642Y-41444D01*
X66642Y-41472D01*
X66499Y-41501D01*
X66771Y-41401D02*
X66771Y-41601D01*
X66771Y-41430D02*
X66785Y-41415D01*
X66814Y-41401D01*
X66857Y-41401D01*
X66885Y-41415D01*
X66899Y-41444D01*
X66899Y-41601D01*
X67028Y-41587D02*
X67057Y-41601D01*
X67114Y-41601D01*
X67142Y-41587D01*
X67157Y-41558D01*
X67157Y-41544D01*
X67142Y-41515D01*
X67114Y-41501D01*
X67071Y-41501D01*
X67042Y-41487D01*
X67028Y-41458D01*
X67028Y-41444D01*
X67042Y-41415D01*
X67071Y-41401D01*
X67114Y-41401D01*
X67142Y-41415D01*
X67399Y-41587D02*
X67371Y-41601D01*
X67314Y-41601D01*
X67285Y-41587D01*
X67271Y-41558D01*
X67271Y-41444D01*
X67285Y-41415D01*
X67314Y-41401D01*
X67371Y-41401D01*
X67399Y-41415D01*
X67414Y-41444D01*
X67414Y-41472D01*
X67271Y-41501D01*
X67542Y-41487D02*
X67771Y-41487D01*
X67657Y-41601D02*
X67657Y-41372D01*
X65557Y-41810D02*
X65571Y-41795D01*
X65600Y-41781D01*
X65671Y-41781D01*
X65700Y-41795D01*
X65714Y-41810D01*
X65728Y-41838D01*
X65728Y-41867D01*
X65714Y-41910D01*
X65542Y-42081D01*
X65728Y-42081D01*
X65857Y-42052D02*
X65871Y-42067D01*
X65857Y-42081D01*
X65842Y-42067D01*
X65857Y-42052D01*
X65857Y-42081D01*
X65857Y-41895D02*
X65871Y-41910D01*
X65857Y-41924D01*
X65842Y-41910D01*
X65857Y-41895D01*
X65857Y-41924D01*
X66328Y-41924D02*
X66228Y-41924D01*
X66228Y-42081D02*
X66228Y-41781D01*
X66371Y-41781D01*
X66528Y-42081D02*
X66499Y-42067D01*
X66485Y-42052D01*
X66471Y-42024D01*
X66471Y-41938D01*
X66485Y-41910D01*
X66499Y-41895D01*
X66528Y-41881D01*
X66571Y-41881D01*
X66599Y-41895D01*
X66614Y-41910D01*
X66628Y-41938D01*
X66628Y-42024D01*
X66614Y-42052D01*
X66599Y-42067D01*
X66571Y-42081D01*
X66528Y-42081D01*
X66757Y-42081D02*
X66757Y-41881D01*
X66757Y-41938D02*
X66771Y-41910D01*
X66785Y-41895D01*
X66814Y-41881D01*
X66842Y-41881D01*
X67071Y-42067D02*
X67042Y-42081D01*
X66985Y-42081D01*
X66957Y-42067D01*
X66942Y-42052D01*
X66928Y-42024D01*
X66928Y-41938D01*
X66942Y-41910D01*
X66957Y-41895D01*
X66985Y-41881D01*
X67042Y-41881D01*
X67071Y-41895D01*
X67314Y-42067D02*
X67285Y-42081D01*
X67228Y-42081D01*
X67200Y-42067D01*
X67185Y-42038D01*
X67185Y-41924D01*
X67200Y-41895D01*
X67228Y-41881D01*
X67285Y-41881D01*
X67314Y-41895D01*
X67328Y-41924D01*
X67328Y-41952D01*
X67185Y-41981D01*
X67457Y-41967D02*
X67685Y-41967D01*
X67571Y-42081D02*
X67571Y-41852D01*
X65542Y-42261D02*
X65728Y-42261D01*
X65628Y-42375D01*
X65671Y-42375D01*
X65700Y-42390D01*
X65714Y-42404D01*
X65728Y-42432D01*
X65728Y-42504D01*
X65714Y-42532D01*
X65700Y-42547D01*
X65671Y-42561D01*
X65585Y-42561D01*
X65557Y-42547D01*
X65542Y-42532D01*
X65857Y-42532D02*
X65871Y-42547D01*
X65857Y-42561D01*
X65842Y-42547D01*
X65857Y-42532D01*
X65857Y-42561D01*
X65857Y-42375D02*
X65871Y-42390D01*
X65857Y-42404D01*
X65842Y-42390D01*
X65857Y-42375D01*
X65857Y-42404D01*
X66328Y-42404D02*
X66228Y-42404D01*
X66228Y-42561D02*
X66228Y-42261D01*
X66371Y-42261D01*
X66528Y-42561D02*
X66499Y-42547D01*
X66485Y-42532D01*
X66471Y-42504D01*
X66471Y-42418D01*
X66485Y-42390D01*
X66499Y-42375D01*
X66528Y-42361D01*
X66571Y-42361D01*
X66599Y-42375D01*
X66614Y-42390D01*
X66628Y-42418D01*
X66628Y-42504D01*
X66614Y-42532D01*
X66599Y-42547D01*
X66571Y-42561D01*
X66528Y-42561D01*
X66757Y-42561D02*
X66757Y-42361D01*
X66757Y-42418D02*
X66771Y-42390D01*
X66785Y-42375D01*
X66814Y-42361D01*
X66842Y-42361D01*
X67071Y-42547D02*
X67042Y-42561D01*
X66985Y-42561D01*
X66957Y-42547D01*
X66942Y-42532D01*
X66928Y-42504D01*
X66928Y-42418D01*
X66942Y-42390D01*
X66957Y-42375D01*
X66985Y-42361D01*
X67042Y-42361D01*
X67071Y-42375D01*
X67314Y-42547D02*
X67285Y-42561D01*
X67228Y-42561D01*
X67200Y-42547D01*
X67185Y-42518D01*
X67185Y-42404D01*
X67200Y-42375D01*
X67228Y-42361D01*
X67285Y-42361D01*
X67314Y-42375D01*
X67328Y-42404D01*
X67328Y-42432D01*
X67185Y-42461D01*
X67457Y-42447D02*
X67685Y-42447D01*
X65700Y-42841D02*
X65700Y-43041D01*
X65628Y-42727D02*
X65557Y-42941D01*
X65742Y-42941D01*
X65857Y-43012D02*
X65871Y-43027D01*
X65857Y-43041D01*
X65842Y-43027D01*
X65857Y-43012D01*
X65857Y-43041D01*
X65857Y-42855D02*
X65871Y-42870D01*
X65857Y-42884D01*
X65842Y-42870D01*
X65857Y-42855D01*
X65857Y-42884D01*
X66214Y-43027D02*
X66257Y-43041D01*
X66328Y-43041D01*
X66357Y-43027D01*
X66371Y-43012D01*
X66385Y-42984D01*
X66385Y-42955D01*
X66371Y-42927D01*
X66357Y-42912D01*
X66328Y-42898D01*
X66271Y-42884D01*
X66242Y-42870D01*
X66228Y-42855D01*
X66214Y-42827D01*
X66214Y-42798D01*
X66228Y-42770D01*
X66242Y-42755D01*
X66271Y-42741D01*
X66342Y-42741D01*
X66385Y-42755D01*
X66628Y-43027D02*
X66599Y-43041D01*
X66542Y-43041D01*
X66514Y-43027D01*
X66499Y-42998D01*
X66499Y-42884D01*
X66514Y-42855D01*
X66542Y-42841D01*
X66599Y-42841D01*
X66628Y-42855D01*
X66642Y-42884D01*
X66642Y-42912D01*
X66499Y-42941D01*
X66771Y-42841D02*
X66771Y-43041D01*
X66771Y-42870D02*
X66785Y-42855D01*
X66814Y-42841D01*
X66857Y-42841D01*
X66885Y-42855D01*
X66899Y-42884D01*
X66899Y-43041D01*
X67028Y-43027D02*
X67057Y-43041D01*
X67114Y-43041D01*
X67142Y-43027D01*
X67157Y-42998D01*
X67157Y-42984D01*
X67142Y-42955D01*
X67114Y-42941D01*
X67071Y-42941D01*
X67042Y-42927D01*
X67028Y-42898D01*
X67028Y-42884D01*
X67042Y-42855D01*
X67071Y-42841D01*
X67114Y-42841D01*
X67142Y-42855D01*
X67399Y-43027D02*
X67371Y-43041D01*
X67314Y-43041D01*
X67285Y-43027D01*
X67271Y-42998D01*
X67271Y-42884D01*
X67285Y-42855D01*
X67314Y-42841D01*
X67371Y-42841D01*
X67399Y-42855D01*
X67414Y-42884D01*
X67414Y-42912D01*
X67271Y-42941D01*
X67542Y-42927D02*
X67771Y-42927D01*
G54D13*
X75100Y-40750D02*
G75*
G03X75100Y-40750I-2100J0D01*
G74*
G01*
X82600Y-40750D02*
G75*
G03X82600Y-40750I-2100J0D01*
G74*
G01*
X82600Y-48250D02*
G75*
G03X82600Y-48250I-2100J0D01*
G74*
G01*
X75100Y-48250D02*
G75*
G03X75100Y-48250I-2100J0D01*
G74*
G01*
G54D12*
X65543Y-43503D02*
X65543Y-50059D01*
X69952Y-43503D02*
X69952Y-50059D01*
X65543Y-43503D02*
X69952Y-43503D01*
X65543Y-50059D02*
X69952Y-50059D01*
G54D10*
X84521Y-52500D02*
G75*
G03X84521Y-52500I-1771J0D01*
G74*
G01*
X84521Y-36500D02*
G75*
G03X84521Y-36500I-1771J0D01*
G74*
G01*
X68521Y-52500D02*
G75*
G03X68521Y-52500I-1771J0D01*
G74*
G01*
X68521Y-36500D02*
G75*
G03X68521Y-36500I-1771J0D01*
G74*
G01*
G54D14*
G36*
X76273Y-45157D02*
X76281Y-45153D01*
X76300Y-45141D01*
X76326Y-45124D01*
X76357Y-45103D01*
X76388Y-45082D01*
X76414Y-45065D01*
X76432Y-45053D01*
X76439Y-45049D01*
X76443Y-45050D01*
X76458Y-45058D01*
X76480Y-45069D01*
X76492Y-45075D01*
X76512Y-45084D01*
X76522Y-45086D01*
X76523Y-45083D01*
X76531Y-45068D01*
X76542Y-45042D01*
X76557Y-45008D01*
X76574Y-44968D01*
X76592Y-44925D01*
X76610Y-44881D01*
X76628Y-44839D01*
X76643Y-44801D01*
X76656Y-44771D01*
X76664Y-44749D01*
X76667Y-44740D01*
X76666Y-44738D01*
X76656Y-44729D01*
X76639Y-44716D01*
X76601Y-44685D01*
X76565Y-44639D01*
X76542Y-44587D01*
X76535Y-44529D01*
X76541Y-44476D01*
X76562Y-44425D01*
X76598Y-44378D01*
X76642Y-44344D01*
X76693Y-44322D01*
X76750Y-44315D01*
X76805Y-44321D01*
X76857Y-44342D01*
X76904Y-44377D01*
X76923Y-44400D01*
X76950Y-44447D01*
X76966Y-44497D01*
X76967Y-44509D01*
X76965Y-44565D01*
X76949Y-44618D01*
X76920Y-44665D01*
X76879Y-44704D01*
X76874Y-44708D01*
X76855Y-44722D01*
X76843Y-44731D01*
X76833Y-44739D01*
X76903Y-44909D01*
X76914Y-44936D01*
X76934Y-44982D01*
X76951Y-45022D01*
X76964Y-45054D01*
X76974Y-45075D01*
X76978Y-45084D01*
X76978Y-45084D01*
X76984Y-45085D01*
X76997Y-45080D01*
X77021Y-45069D01*
X77037Y-45061D01*
X77055Y-45052D01*
X77063Y-45049D01*
X77070Y-45053D01*
X77087Y-45064D01*
X77112Y-45081D01*
X77142Y-45101D01*
X77171Y-45121D01*
X77198Y-45139D01*
X77217Y-45151D01*
X77227Y-45156D01*
X77228Y-45156D01*
X77236Y-45151D01*
X77252Y-45139D01*
X77275Y-45117D01*
X77307Y-45085D01*
X77312Y-45080D01*
X77339Y-45052D01*
X77361Y-45029D01*
X77376Y-45013D01*
X77381Y-45006D01*
X77381Y-45006D01*
X77376Y-44996D01*
X77364Y-44977D01*
X77346Y-44950D01*
X77325Y-44919D01*
X77269Y-44837D01*
X77300Y-44760D01*
X77309Y-44737D01*
X77321Y-44708D01*
X77330Y-44688D01*
X77335Y-44679D01*
X77343Y-44676D01*
X77364Y-44671D01*
X77395Y-44664D01*
X77431Y-44658D01*
X77466Y-44651D01*
X77497Y-44645D01*
X77520Y-44641D01*
X77530Y-44639D01*
X77532Y-44637D01*
X77534Y-44632D01*
X77536Y-44622D01*
X77536Y-44603D01*
X77537Y-44573D01*
X77537Y-44529D01*
X77537Y-44525D01*
X77536Y-44483D01*
X77536Y-44450D01*
X77535Y-44429D01*
X77533Y-44421D01*
X77533Y-44421D01*
X77523Y-44418D01*
X77501Y-44414D01*
X77470Y-44407D01*
X77432Y-44400D01*
X77430Y-44400D01*
X77393Y-44393D01*
X77362Y-44386D01*
X77340Y-44381D01*
X77331Y-44378D01*
X77329Y-44376D01*
X77321Y-44361D01*
X77310Y-44338D01*
X77298Y-44310D01*
X77286Y-44281D01*
X77275Y-44254D01*
X77268Y-44235D01*
X77266Y-44226D01*
X77266Y-44226D01*
X77272Y-44217D01*
X77285Y-44197D01*
X77303Y-44171D01*
X77325Y-44139D01*
X77326Y-44136D01*
X77348Y-44105D01*
X77365Y-44078D01*
X77377Y-44059D01*
X77381Y-44051D01*
X77381Y-44050D01*
X77374Y-44041D01*
X77358Y-44023D01*
X77335Y-43999D01*
X77307Y-43971D01*
X77298Y-43963D01*
X77268Y-43933D01*
X77247Y-43913D01*
X77233Y-43903D01*
X77227Y-43900D01*
X77227Y-43901D01*
X77217Y-43906D01*
X77197Y-43919D01*
X77170Y-43938D01*
X77138Y-43959D01*
X77136Y-43961D01*
X77105Y-43982D01*
X77079Y-44000D01*
X77060Y-44012D01*
X77052Y-44017D01*
X77050Y-44017D01*
X77038Y-44013D01*
X77015Y-44006D01*
X76988Y-43995D01*
X76959Y-43983D01*
X76932Y-43972D01*
X76912Y-43963D01*
X76903Y-43958D01*
X76903Y-43957D01*
X76899Y-43946D01*
X76894Y-43922D01*
X76887Y-43890D01*
X76880Y-43851D01*
X76879Y-43845D01*
X76872Y-43808D01*
X76866Y-43777D01*
X76861Y-43755D01*
X76859Y-43746D01*
X76854Y-43745D01*
X76835Y-43744D01*
X76807Y-43743D01*
X76773Y-43743D01*
X76738Y-43743D01*
X76704Y-43744D01*
X76674Y-43745D01*
X76653Y-43746D01*
X76644Y-43748D01*
X76643Y-43749D01*
X76640Y-43760D01*
X76635Y-43784D01*
X76628Y-43816D01*
X76621Y-43855D01*
X76620Y-43862D01*
X76613Y-43899D01*
X76606Y-43930D01*
X76602Y-43951D01*
X76599Y-43959D01*
X76596Y-43961D01*
X76581Y-43968D01*
X76556Y-43978D01*
X76524Y-43991D01*
X76452Y-44020D01*
X76364Y-43959D01*
X76356Y-43954D01*
X76324Y-43932D01*
X76298Y-43915D01*
X76280Y-43903D01*
X76272Y-43899D01*
X76272Y-43899D01*
X76263Y-43907D01*
X76245Y-43923D01*
X76221Y-43947D01*
X76194Y-43974D01*
X76173Y-43995D01*
X76149Y-44020D01*
X76133Y-44036D01*
X76125Y-44047D01*
X76122Y-44054D01*
X76123Y-44058D01*
X76128Y-44067D01*
X76141Y-44086D01*
X76159Y-44113D01*
X76181Y-44144D01*
X76199Y-44171D01*
X76218Y-44200D01*
X76230Y-44221D01*
X76235Y-44232D01*
X76234Y-44236D01*
X76227Y-44253D01*
X76217Y-44280D01*
X76204Y-44311D01*
X76173Y-44381D01*
X76127Y-44389D01*
X76099Y-44395D01*
X76060Y-44402D01*
X76023Y-44409D01*
X75965Y-44421D01*
X75963Y-44633D01*
X75972Y-44637D01*
X75981Y-44640D01*
X76002Y-44644D01*
X76033Y-44650D01*
X76069Y-44657D01*
X76100Y-44663D01*
X76131Y-44669D01*
X76153Y-44673D01*
X76163Y-44675D01*
X76166Y-44679D01*
X76174Y-44694D01*
X76185Y-44718D01*
X76197Y-44747D01*
X76209Y-44776D01*
X76220Y-44804D01*
X76228Y-44825D01*
X76231Y-44836D01*
X76227Y-44844D01*
X76215Y-44862D01*
X76198Y-44888D01*
X76177Y-44919D01*
X76155Y-44950D01*
X76138Y-44977D01*
X76125Y-44996D01*
X76120Y-45004D01*
X76123Y-45010D01*
X76135Y-45025D01*
X76158Y-45049D01*
X76193Y-45084D01*
X76199Y-45089D01*
X76226Y-45116D01*
X76250Y-45137D01*
X76266Y-45152D01*
X76273Y-45157D01*
X76273Y-45157D01*
G37*
G54D13*
X71200Y-43714D02*
X71285Y-43742D01*
X71428Y-43742D01*
X71485Y-43714D01*
X71514Y-43685D01*
X71542Y-43628D01*
X71542Y-43571D01*
X71514Y-43514D01*
X71485Y-43485D01*
X71428Y-43457D01*
X71314Y-43428D01*
X71257Y-43400D01*
X71228Y-43371D01*
X71200Y-43314D01*
X71200Y-43257D01*
X71228Y-43200D01*
X71257Y-43171D01*
X71314Y-43142D01*
X71457Y-43142D01*
X71542Y-43171D01*
X72028Y-43714D02*
X71971Y-43742D01*
X71857Y-43742D01*
X71800Y-43714D01*
X71771Y-43657D01*
X71771Y-43428D01*
X71800Y-43371D01*
X71857Y-43342D01*
X71971Y-43342D01*
X72028Y-43371D01*
X72057Y-43428D01*
X72057Y-43485D01*
X71771Y-43542D01*
X72314Y-43342D02*
X72314Y-43742D01*
X72314Y-43400D02*
X72342Y-43371D01*
X72400Y-43342D01*
X72485Y-43342D01*
X72542Y-43371D01*
X72571Y-43428D01*
X72571Y-43742D01*
X72828Y-43714D02*
X72885Y-43742D01*
X73000Y-43742D01*
X73057Y-43714D01*
X73085Y-43657D01*
X73085Y-43628D01*
X73057Y-43571D01*
X73000Y-43542D01*
X72914Y-43542D01*
X72857Y-43514D01*
X72828Y-43457D01*
X72828Y-43428D01*
X72857Y-43371D01*
X72914Y-43342D01*
X73000Y-43342D01*
X73057Y-43371D01*
X73571Y-43714D02*
X73514Y-43742D01*
X73400Y-43742D01*
X73342Y-43714D01*
X73314Y-43657D01*
X73314Y-43428D01*
X73342Y-43371D01*
X73400Y-43342D01*
X73514Y-43342D01*
X73571Y-43371D01*
X73600Y-43428D01*
X73600Y-43485D01*
X73314Y-43542D01*
X74314Y-43514D02*
X74771Y-43514D01*
X74542Y-43742D02*
X74542Y-43285D01*
X79014Y-43428D02*
X78814Y-43428D01*
X78814Y-43742D02*
X78814Y-43142D01*
X79099Y-43142D01*
X79414Y-43742D02*
X79357Y-43714D01*
X79328Y-43685D01*
X79300Y-43628D01*
X79300Y-43457D01*
X79328Y-43400D01*
X79357Y-43371D01*
X79414Y-43342D01*
X79500Y-43342D01*
X79557Y-43371D01*
X79585Y-43400D01*
X79614Y-43457D01*
X79614Y-43628D01*
X79585Y-43685D01*
X79557Y-43714D01*
X79500Y-43742D01*
X79414Y-43742D01*
X79871Y-43742D02*
X79871Y-43342D01*
X79871Y-43457D02*
X79900Y-43400D01*
X79928Y-43371D01*
X79985Y-43342D01*
X80042Y-43342D01*
X80500Y-43714D02*
X80442Y-43742D01*
X80328Y-43742D01*
X80271Y-43714D01*
X80242Y-43685D01*
X80214Y-43628D01*
X80214Y-43457D01*
X80242Y-43400D01*
X80271Y-43371D01*
X80328Y-43342D01*
X80442Y-43342D01*
X80500Y-43371D01*
X80985Y-43714D02*
X80928Y-43742D01*
X80814Y-43742D01*
X80757Y-43714D01*
X80728Y-43657D01*
X80728Y-43428D01*
X80757Y-43371D01*
X80814Y-43342D01*
X80928Y-43342D01*
X80985Y-43371D01*
X81014Y-43428D01*
X81014Y-43485D01*
X80728Y-43542D01*
X81728Y-43514D02*
X82185Y-43514D01*
X81957Y-43742D02*
X81957Y-43285D01*
X79014Y-45428D02*
X78814Y-45428D01*
X78814Y-45742D02*
X78814Y-45142D01*
X79099Y-45142D01*
X79414Y-45742D02*
X79357Y-45714D01*
X79328Y-45685D01*
X79300Y-45628D01*
X79300Y-45457D01*
X79328Y-45400D01*
X79357Y-45371D01*
X79414Y-45342D01*
X79500Y-45342D01*
X79557Y-45371D01*
X79585Y-45400D01*
X79614Y-45457D01*
X79614Y-45628D01*
X79585Y-45685D01*
X79557Y-45714D01*
X79500Y-45742D01*
X79414Y-45742D01*
X79871Y-45742D02*
X79871Y-45342D01*
X79871Y-45457D02*
X79900Y-45400D01*
X79928Y-45371D01*
X79985Y-45342D01*
X80042Y-45342D01*
X80500Y-45714D02*
X80442Y-45742D01*
X80328Y-45742D01*
X80271Y-45714D01*
X80242Y-45685D01*
X80214Y-45628D01*
X80214Y-45457D01*
X80242Y-45400D01*
X80271Y-45371D01*
X80328Y-45342D01*
X80442Y-45342D01*
X80500Y-45371D01*
X80985Y-45714D02*
X80928Y-45742D01*
X80814Y-45742D01*
X80757Y-45714D01*
X80728Y-45657D01*
X80728Y-45428D01*
X80757Y-45371D01*
X80814Y-45342D01*
X80928Y-45342D01*
X80985Y-45371D01*
X81014Y-45428D01*
X81014Y-45485D01*
X80728Y-45542D01*
X81728Y-45514D02*
X82185Y-45514D01*
X71200Y-45714D02*
X71285Y-45742D01*
X71428Y-45742D01*
X71485Y-45714D01*
X71514Y-45685D01*
X71542Y-45628D01*
X71542Y-45571D01*
X71514Y-45514D01*
X71485Y-45485D01*
X71428Y-45457D01*
X71314Y-45428D01*
X71257Y-45400D01*
X71228Y-45371D01*
X71200Y-45314D01*
X71200Y-45257D01*
X71228Y-45200D01*
X71257Y-45171D01*
X71314Y-45142D01*
X71457Y-45142D01*
X71542Y-45171D01*
X72028Y-45714D02*
X71971Y-45742D01*
X71857Y-45742D01*
X71800Y-45714D01*
X71771Y-45657D01*
X71771Y-45428D01*
X71800Y-45371D01*
X71857Y-45342D01*
X71971Y-45342D01*
X72028Y-45371D01*
X72057Y-45428D01*
X72057Y-45485D01*
X71771Y-45542D01*
X72314Y-45342D02*
X72314Y-45742D01*
X72314Y-45400D02*
X72342Y-45371D01*
X72400Y-45342D01*
X72485Y-45342D01*
X72542Y-45371D01*
X72571Y-45428D01*
X72571Y-45742D01*
X72828Y-45714D02*
X72885Y-45742D01*
X73000Y-45742D01*
X73057Y-45714D01*
X73085Y-45657D01*
X73085Y-45628D01*
X73057Y-45571D01*
X73000Y-45542D01*
X72914Y-45542D01*
X72857Y-45514D01*
X72828Y-45457D01*
X72828Y-45428D01*
X72857Y-45371D01*
X72914Y-45342D01*
X73000Y-45342D01*
X73057Y-45371D01*
X73571Y-45714D02*
X73514Y-45742D01*
X73400Y-45742D01*
X73342Y-45714D01*
X73314Y-45657D01*
X73314Y-45428D01*
X73342Y-45371D01*
X73400Y-45342D01*
X73514Y-45342D01*
X73571Y-45371D01*
X73600Y-45428D01*
X73600Y-45485D01*
X73314Y-45542D01*
X74314Y-45514D02*
X74771Y-45514D01*
G54D15*
X67616Y-47261D02*
X67616Y-47547D01*
X67597Y-47604D01*
X67559Y-47642D01*
X67502Y-47661D01*
X67464Y-47661D01*
X68016Y-47661D02*
X67788Y-47661D01*
X67902Y-47661D02*
X67902Y-47261D01*
X67864Y-47319D01*
X67826Y-47357D01*
X67788Y-47376D01*
X67235Y-46645D02*
X67235Y-46911D01*
X67140Y-46492D02*
X67045Y-46778D01*
X67292Y-46778D01*
X67445Y-46911D02*
X67445Y-46511D01*
X67597Y-46511D01*
X67635Y-46530D01*
X67654Y-46550D01*
X67673Y-46588D01*
X67673Y-46645D01*
X67654Y-46683D01*
X67635Y-46702D01*
X67597Y-46721D01*
X67445Y-46721D01*
X68016Y-46645D02*
X68016Y-46911D01*
X67921Y-46492D02*
X67826Y-46778D01*
X68073Y-46778D01*
X68454Y-46873D02*
X68435Y-46892D01*
X68378Y-46911D01*
X68340Y-46911D01*
X68283Y-46892D01*
X68245Y-46854D01*
X68226Y-46816D01*
X68207Y-46740D01*
X68207Y-46683D01*
X68226Y-46607D01*
X68245Y-46569D01*
X68283Y-46530D01*
X68340Y-46511D01*
X68378Y-46511D01*
X68435Y-46530D01*
X68454Y-46550D01*
M02*
